<svg xmlns="http://www.w3.org/2000/svg" viewBox="0 0 27.32 26.23"><defs><style>.cls-1{fill:#231f20}.cls-1,.cls-2,.cls-3{fill-rule:evenodd}.cls-2{stroke:#231f20;stroke-width:1px;fill:url(#GradientFill_21)}.cls-3{fill:#844f38}</style><radialGradient id="GradientFill_21" cx="18.73" cy="8.07" r="19.01" gradientUnits="userSpaceOnUse"><stop offset="0" stop-color="#e0864e"/><stop offset="1" stop-color="#ca6c38"/></radialGradient></defs><title>Asset 122</title><g id="Layer_2" data-name="Layer 2"><g id="Layer_1-2" data-name="Layer 1"><path class="cls-1" d="M4 7a3 3 0 0 0-2.8-.89C-.52 6.51 1.12 3.6 2.34 4a7.77 7.77 0 0 1 2.43 2z"/><path class="cls-2" d="M3.74 18.76s-4.46.34-2.91-5.59C3 5 15-4 16.65 3c0 0 6 1.33 7.75 9.41 1 4.62.73 7.91 2.15 10.51-5.84.98-13.76 7.78-22.81-4.16z"/><path class="cls-3" d="M3.9 18.43c-.65 0-4-.21-2.67-5.35 2-7.8 13.39-16.36 15-9.81a17.46 17.46 0 0 0-8.37 6.08 22.55 22.55 0 0 0-3.96 9.08z"/><path class="cls-1" d="M4 18.08c.85-5.92 6.8-13.67 12.18-14.83 0 0-2.24.07-5.37 2.83s-6.27 7.03-6.81 12zm-2.22.23a3.61 3.61 0 0 1 2.42-2.14 3.55 3.55 0 0 0-2.47 2zM.77 17a5.22 5.22 0 0 1 3.79-2.78 5.06 5.06 0 0 0-3.84 2.57z"/><path class="cls-1" d="M1 12.84a4.11 4.11 0 0 0 1.83 3.36A4 4 0 0 1 .85 13zm-.52 1.89a3.43 3.43 0 0 0 2.76 2.82 3.14 3.14 0 0 1-2.85-2.63zm1.31-3.97a3.15 3.15 0 0 0 1.67 3.37 2.85 2.85 0 0 1-1.81-3.21zM2.74 9a3.15 3.15 0 0 0 1.67 3.37A2.86 2.86 0 0 1 2.6 9.15zm1.72-2.47a3.65 3.65 0 0 0 .7 3.6 3.45 3.45 0 0 1-.84-3.52zM6 5a2.81 2.81 0 0 0 .46 3 2.61 2.61 0 0 1-.65-3z"/><path class="cls-1" d="M.54 14.7a5.19 5.19 0 0 1 4.26-2 5 5 0 0 0-4.28 1.83zm.56-2.37a4.07 4.07 0 0 1 3.66-1.17 3.7 3.7 0 0 0-3.64 1zm.9-1.94A3.74 3.74 0 0 1 5.31 9S3.69 8.37 2 10.22zm1.25-2.24a3.78 3.78 0 0 1 3.4-1.21A3.36 3.36 0 0 0 3.27 8zm1.66-2.03a3.54 3.54 0 0 1 3.16-.9A3.3 3.3 0 0 0 4.92 6zm1.67-1.73A4.17 4.17 0 0 1 9 3.64a3.91 3.91 0 0 0-2.23.52zm1.7-1.47a3.58 3.58 0 0 1 2.27-.72 3.4 3.4 0 0 0-2.09.49zm18.27 20.02a11.65 11.65 0 0 0-5.54.38 14.07 14.07 0 0 1 5.47-.53zM5.9 16.65s1.1 5.89 8.66 6.83c0 0-6.56-.75-8.66-6.83z"/></g></g></svg>