<svg xmlns="http://www.w3.org/2000/svg" viewBox="0 0 67.99 73.68"><defs><style>.cls-1,.cls-8{fill:#fff}.cls-1,.cls-10,.cls-2,.cls-3,.cls-4,.cls-5,.cls-6,.cls-7,.cls-8,.cls-9{fill-rule:evenodd}.cls-10,.cls-2,.cls-3,.cls-5,.cls-6,.cls-8{stroke:#231f20}.cls-2,.cls-3,.cls-5,.cls-6{stroke-width:1px}.cls-2{fill:url(#GradientFill_81)}.cls-3{fill:#dddcd0}.cls-4{fill:#b2c0c0}.cls-10,.cls-5{fill:none}.cls-6{fill:url(#GradientFill_82)}.cls-7{fill:#231f20}.cls-10,.cls-8{stroke-width:.35px}.cls-9{fill:url(#GradientFill_114)}.cls-10{stroke-linecap:round;stroke-linejoin:round}</style><radialGradient id="GradientFill_81" cx="63.54" cy="37.15" r="19.6" gradientUnits="userSpaceOnUse"><stop offset="0" stop-color="#cfd7d3"/><stop offset="1" stop-color="#b3bfb8"/></radialGradient><radialGradient id="GradientFill_82" cx="44.87" cy="22.3" r="50.86" gradientUnits="userSpaceOnUse"><stop offset="0" stop-color="#f2f1e6"/><stop offset="1" stop-color="#e7e6dd"/></radialGradient><radialGradient id="GradientFill_114" cx="45.79" cy="15.53" r="37.14" gradientUnits="userSpaceOnUse"><stop offset="0" stop-color="#e3ebe5"/><stop offset="1" stop-color="#96a9ac"/></radialGradient></defs><title>Asset 79</title><g id="Layer_2" data-name="Layer 2"><g id="Layer_1-2" data-name="Layer 1"><path class="cls-1" d="M54.32 26.1s9.84 0 12.56 17.25S62.34 71 60.38 55z"/><path class="cls-2" d="M60.38 55l-6.06-28.9s9.84 0 12.56 17.25S62.34 71 60.38 55z"/><path class="cls-1" d="M9.32 43c.93 4.72 3.19 16.44 2.42 19.83 0 0-3.48 2.11-2.87 4.84s8.62 2.12 8.62-1.67c0-4.43.89-9.64.45-17.93z"/><path class="cls-3" d="M17.94 48.05L9.32 43c.93 4.72 3.19 16.44 2.42 19.83 0 0-3.48 2.11-2.87 4.84s8.62 2.12 8.62-1.67c0-4.45.89-9.66.45-17.95z"/><path class="cls-1" d="M34.84 43.16a16.75 16.75 0 0 1 .72 2c1.55 5.35 7.56 8.73 9.6 9.42-.59 3-1.58 7.43-2.64 8.58 0 0-3.17 2.27-3.17 3.79 0 3.34 10.13 1.51 9.07-2.73S55 52.27 51.3 48.8z"/><path class="cls-3" d="M51.3 48.8l-4-6.31-12.45.67a16.75 16.75 0 0 1 .72 2c1.55 5.35 7.56 8.73 9.6 9.42-.59 3-1.58 7.43-2.64 8.58 0 0-3.17 2.27-3.17 3.79 0 3.34 10.13 1.51 9.07-2.73S55 52.27 51.3 48.8z"/><path class="cls-4" d="M13.92 8.09S12 3.25 9.23 1.58c-2.16-1.32.3 7.12-.6 10z"/><path class="cls-5" d="M13.92 8.09S12 3.25 9.23 1.58c-2.16-1.32.3 7.12-.6 10"/><path class="cls-1" d="M62.8 51.07c-5.45-5.15 6.34-18.1-8-25.43C47.06 21.71 42.22 29 31.17 21c-3.73-2.71-5.78-10.84-9.8-13.66-.26-1.82-.89-4.78-2.37-6.53-1.23-1.45-1.8 2.49-2.7 5.8-2.68.52-8.76.28-9 5.87-.11 2.27-4.53 5.29-5.59 6.05S-.75 22 4.09 23.07a13.54 13.54 0 0 0 6.5-.44c.31 1.5-.15 4.68-2.26 7.85-3.84 5.76-2.58 17.41 9.53 20.43.72.18 1.45.34 2.18.47.93 4.72 2.07 11.89 1.3 15.27 0 0-3.48 2.12-2.88 4.85s8.63 2.12 8.63-1.67c0-4.44.89-9.64.45-17.93 7.48-.25 14.64-2.69 18.8-6.47a18.54 18.54 0 0 1 .72 2c1.55 5.36 7.56 8.74 9.6 9.43-.59 3-1.58 7.43-2.64 8.58 0 0-3.17 2.27-3.17 3.78 0 3.36 10.13 1.52 9.07-2.72s6.56-11.96 2.88-15.43z"/><path class="cls-6" d="M62.8 51.07c-5.45-5.15 6.34-18.1-8-25.43C47.06 21.71 42.22 29 31.17 21c-3.73-2.71-5.78-10.84-9.8-13.66-.26-1.82-.89-4.78-2.37-6.53-1.23-1.45-1.8 2.49-2.7 5.8-2.68.52-8.76.28-9 5.87-.11 2.27-4.53 5.29-5.59 6.05S-.75 22 4.09 23.07a13.54 13.54 0 0 0 6.5-.44c.31 1.5-.15 4.68-2.26 7.85-3.84 5.76-2.58 17.41 9.53 20.43.72.18 1.45.34 2.18.47.93 4.72 2.07 11.89 1.3 15.27 0 0-3.48 2.12-2.88 4.85s8.63 2.12 8.63-1.67c0-4.44.89-9.64.45-17.93 7.48-.25 14.64-2.69 18.8-6.47a18.54 18.54 0 0 1 .72 2c1.55 5.36 7.56 8.74 9.6 9.43-.59 3-1.58 7.43-2.64 8.58 0 0-3.17 2.27-3.17 3.78 0 3.36 10.13 1.52 9.07-2.72s6.56-11.96 2.88-15.43z"/><path class="cls-7" d="M4.54 19.21c0 .83-1 1.51-2.26 1.52S0 20.05 0 19.22s1-1.52 2.27-1.52 2.27.67 2.27 1.51z"/><path class="cls-8" d="M15.4 11.82c.5.73 0 1.95-1.17 2.74s-2.47.82-3 .1 0-2 1.17-2.74 2.5-.83 3-.1z"/><path class="cls-7" d="M12.69 12.1a2.78 2.78 0 0 0-.51.31c-1 .72-1.34 1.81-.84 2.42s1.67.52 2.64-.21 1.34-1.81.85-2.42a1.25 1.25 0 0 0-1.06-.4zM6.37 22.49S13 22 14.63 18.77c0 0-.32 3.81-3.84 4.58z"/><path class="cls-9" d="M62.08 34.63c-.52-3.29-2.37-6.47-7.3-9C47.06 21.71 42.22 29 31.17 21c-3.73-2.71-5.78-10.84-9.8-13.66-.26-1.82-.89-4.78-2.37-6.53-1.23-1.45-1.8 2.49-2.7 5.8-2.41.46-7.58.32-8.79 4.37h.06s2-3 1.69.94c0 0 7.27-6.56 10.71-1.32 3.93 6-4.51 10.52-7.71 16.72-4.15 8.07 11.09-1.13 11.27 4.88s-3.26 8.11-.75 14.66c2.82 7.32 7.14-6.76 5.64-13 0 0 3.75 4.89 3.38 8.64s15.4-9.5 18.4 2.31 11.81 3.63 12-7.45z"/><path class="cls-10" d="M7.57 11s2-3 1.69.94c0 0 7.27-6.56 10.71-1.32 3.93 6-4.51 10.52-7.71 16.72-4.15 8.07 11.09-1.13 11.27 4.88s-3.26 8.11-.75 14.66c2.82 7.32 7.14-6.76 5.64-13 0 0 3.75 4.89 3.38 8.64S47.2 33 50.2 44.81s11.81 3.63 12-7.45"/><path class="cls-5" d="M62.8 51.07c-5.45-5.15 6.34-18.1-8-25.43C47.06 21.71 42.22 29 31.17 21c-3.73-2.71-5.78-10.84-9.8-13.66-.26-1.82-.89-4.78-2.37-6.53-1.23-1.45-1.8 2.49-2.7 5.8-2.68.52-8.76.28-9 5.87-.11 2.27-4.53 5.29-5.59 6.05S-.75 22 4.09 23.07a13.54 13.54 0 0 0 6.5-.44c.31 1.5-.15 4.68-2.26 7.85-3.84 5.76-2.58 17.41 9.53 20.43.72.18 1.45.34 2.18.47.93 4.72 2.07 11.89 1.3 15.27 0 0-3.48 2.12-2.88 4.85s8.63 2.12 8.63-1.67c0-4.44.89-9.64.45-17.93 7.48-.25 14.64-2.69 18.8-6.47a18.54 18.54 0 0 1 .72 2c1.55 5.36 7.56 8.74 9.6 9.43-.59 3-1.58 7.43-2.64 8.58 0 0-3.17 2.27-3.17 3.78 0 3.36 10.13 1.52 9.07-2.72s6.56-11.96 2.88-15.43z"/></g></g></svg>