<svg xmlns="http://www.w3.org/2000/svg" viewBox="0 0 75.33 41.56"><defs><style>.cls-1,.cls-6{fill:#fff}.cls-1,.cls-2,.cls-3,.cls-4,.cls-5,.cls-7,.cls-8{fill-rule:evenodd}.cls-2,.cls-5{fill:#abbe92}.cls-2,.cls-3,.cls-4,.cls-6,.cls-8{stroke:#231f20}.cls-2,.cls-3,.cls-8{stroke-linecap:round;stroke-linejoin:round}.cls-2,.cls-3,.cls-4,.cls-8{stroke-width:1px}.cls-3{fill:#91a27d}.cls-4{fill:url(#GradientFill_105)}.cls-6{stroke-width:.8px}.cls-7{fill:#231f20}.cls-8{fill:none}</style><radialGradient id="GradientFill_105" cx="45.14" cy="10.46" r="16.78" gradientUnits="userSpaceOnUse"><stop offset="0" stop-color="#d7d4c9"/><stop offset="1" stop-color="#bcb295"/></radialGradient></defs><title>Asset 4</title><g id="Layer_2" data-name="Layer 2"><g id="Layer_1-2" data-name="Layer 1"><path class="cls-1" d="M63.32 17.27S65 6.5 68.2 17.21z"/><path class="cls-2" d="M68.2 17.21l-4.89.06S65 6.5 68.2 17.21z"/><path class="cls-3" d="M28.18 35.32s5.41 4.07 10.41 2c1.49-.61-.89-3-2.56-4.39a8.18 8.18 0 0 1 4.14-5.5l-7-5.24s-10.98 6.15-4.99 13.13z"/><path class="cls-1" d="M62.28 27.14l-7.61-3.93s-8 9.07-.81 15.11c0 0 5.86 3.08 9.71-.26 1.14-1-1.59-2.94-3.44-4.08a9.23 9.23 0 0 1 2.15-6.84z"/><path class="cls-3" d="M62.28 27.14l-7.61-3.93s-8 9.07-.81 15.11c0 0 5.86 3.08 9.71-.26 1.14-1-1.59-2.94-3.44-4.08a9.23 9.23 0 0 1 2.15-6.84z"/><path class="cls-1" d="M68.65 17.32A15.45 15.45 0 0 0 61 15c-3.64-4-10.44-7.32-18.55-8.5-11.3-1.64-21.34 1.36-24.23 6.85-2.9 1-6.65.92-9.3-3.92C8.91 9.42 7.17-1 2.8.7s-2 8.73 2.91 10.18c0 0 1.71 10.19 13.81 11.34a18.32 18.32 0 0 0 4 3.71c-3.06 2.42-5.82 5.79-4.17 9.39a9.22 9.22 0 0 0 9.6 2c1.73-.61.29-3-.81-4.39a13.25 13.25 0 0 1 2.87-3.3 41.86 41.86 0 0 0 7.75 1.88 43.25 43.25 0 0 0 5.34.49c-1.48 2.57-2.14 5.41-.27 7.78a9.22 9.22 0 0 0 9.81-.26c1.54-1-.41-2.94-1.81-4.08a13.51 13.51 0 0 1 2.74-4.77 17.65 17.65 0 0 0 6.21-3.21c.41.3.84.59 1.3.86 5.17 3.09 11.43 8.76 12.65.1.5-3.51-.91-8.01-6.08-11.1z"/><path class="cls-2" d="M68.65 17.32A15.45 15.45 0 0 0 61 15c-3.64-4-10.44-7.32-18.55-8.5-11.3-1.64-21.34 1.36-24.23 6.85-2.9 1-6.65.92-9.3-3.92C8.91 9.42 7.17-1 2.8.7s-2 8.73 2.91 10.18c0 0 1.71 10.19 13.81 11.34a18.32 18.32 0 0 0 4 3.71c-3.06 2.42-5.82 5.79-4.17 9.39a9.22 9.22 0 0 0 9.6 2c1.73-.61.29-3-.81-4.39a13.25 13.25 0 0 1 2.87-3.3 41.86 41.86 0 0 0 7.75 1.88 43.25 43.25 0 0 0 5.34.49c-1.48 2.57-2.14 5.41-.27 7.78a9.22 9.22 0 0 0 9.81-.26c1.54-1-.41-2.94-1.81-4.08a13.51 13.51 0 0 1 2.74-4.77 17.65 17.65 0 0 0 6.21-3.21c.41.3.84.59 1.3.86 5.17 3.09 11.43 8.76 12.65.1.5-3.51-.91-8.01-6.08-11.1z"/><path class="cls-1" d="M61.37 14.22a2.42 2.42 0 0 0-2.48-2.35h-.1a2.42 2.42 0 0 0-2.49-2.31 2.6 2.6 0 0 0-.79.13A2.42 2.42 0 0 0 53 7.38a2.57 2.57 0 0 0-1.29.35 2.43 2.43 0 0 0-2.45-2.05 2.55 2.55 0 0 0-1.78.71 2.44 2.44 0 0 0-2.44-1.94 2.53 2.53 0 0 0-1.79.73 2.55 2.55 0 0 0-4-.25 2.56 2.56 0 0 0-4 .14 2.54 2.54 0 0 0-1.82-.76A2.46 2.46 0 0 0 31.15 6a2.52 2.52 0 0 0-1.9-.85 2.43 2.43 0 0 0-2.46 2.13 2.54 2.54 0 0 0-1.69-.68 2.42 2.42 0 0 0-2.48 2.35V9a2.64 2.64 0 0 0-1-.2 2.42 2.42 0 0 0-2.48 2.35 2.31 2.31 0 0 0 0 .25 2.6 2.6 0 0 0-.6-.08 2.47 2.47 0 0 0-2.33 1.57 2.51 2.51 0 0 0-2.09-1.09c-.54 0-1.46.3-1.46.24a2.05 2.05 0 0 0-1.62-1.91 1.87 1.87 0 0 0 0-.2c0-1.13-1.77-2.61-2.24-1.59-.6 1.37-1.53.53-1.53 1.66a3.23 3.23 0 0 0 .89 1.73 1.92 1.92 0 0 0 0 .28 2.15 2.15 0 0 0 2.28 2c.09 0 .07.56.07.88A2.42 2.42 0 0 0 13 17.25a2.54 2.54 0 0 0 .74-.12 2.46 2.46 0 0 0 2.39 1.75 2.61 2.61 0 0 0 .87-.18 2.47 2.47 0 0 0 2.32 1.54 2.57 2.57 0 0 0 1.26-.33 2.49 2.49 0 0 0 2.28 1.42 2.56 2.56 0 0 0 1.14-.24 2.46 2.46 0 0 0 2.41 1.8 2.64 2.64 0 0 0 .95-.18 2.53 2.53 0 0 0 1.84.79 2.58 2.58 0 0 0 1-.19 2.51 2.51 0 0 0 2.08 1.08 2.56 2.56 0 0 0 1.52-.5 2.49 2.49 0 0 0 2.2 1.32 2.53 2.53 0 0 0 1.82-.76 2.55 2.55 0 0 0 3.93.07 2.54 2.54 0 0 0 4-.3 2.56 2.56 0 0 0 3.52.15 2.58 2.58 0 0 0 1 .22 2.49 2.49 0 0 0 2.29-1.44 2.58 2.58 0 0 0 .84.15 2.42 2.42 0 0 0 2.46-2.3 2.21 2.21 0 0 0 0-.31 2.4 2.4 0 0 0 1.56-1.57 2.4 2.4 0 0 0 2.35-2.33 2.19 2.19 0 0 0 0-.31 2.35 2.35 0 0 0 1.6-2.26z"/><path class="cls-4" d="M61.37 14.22a2.42 2.42 0 0 0-2.48-2.35h-.1a2.41 2.41 0 0 0-2.49-2.31 2.6 2.6 0 0 0-.79.13A2.42 2.42 0 0 0 53 7.38a2.57 2.57 0 0 0-1.29.35 2.43 2.43 0 0 0-2.45-2.05 2.55 2.55 0 0 0-1.78.71 2.44 2.44 0 0 0-2.44-1.94 2.53 2.53 0 0 0-1.79.73 2.55 2.55 0 0 0-4-.25 2.56 2.56 0 0 0-4 .14 2.54 2.54 0 0 0-1.82-.76A2.46 2.46 0 0 0 31.15 6a2.52 2.52 0 0 0-1.9-.85 2.43 2.43 0 0 0-2.46 2.13 2.54 2.54 0 0 0-1.69-.68 2.42 2.42 0 0 0-2.48 2.35V9a2.64 2.64 0 0 0-1-.2 2.42 2.42 0 0 0-2.48 2.35v.25a2.6 2.6 0 0 0-.6-.08 2.47 2.47 0 0 0-2.33 1.57 2.51 2.51 0 0 0-2.09-1.09 7.89 7.89 0 0 0-1.46.24 2.05 2.05 0 0 0-1.62-1.91v-.2c0-1.13-1.77-2.61-2.24-1.59-.6 1.37-1.53.53-1.53 1.66a3.23 3.23 0 0 0 .89 1.73v.28a2.15 2.15 0 0 0 2.28 2c.09 0 .07.56.07.88A2.42 2.42 0 0 0 13 17.25a2.54 2.54 0 0 0 .74-.12 2.46 2.46 0 0 0 2.39 1.75 2.61 2.61 0 0 0 .87-.18 2.47 2.47 0 0 0 2.32 1.54 2.57 2.57 0 0 0 1.26-.33 2.49 2.49 0 0 0 2.28 1.42 2.56 2.56 0 0 0 1.14-.24 2.46 2.46 0 0 0 2.41 1.8 2.64 2.64 0 0 0 .95-.18 2.53 2.53 0 0 0 1.84.79 2.58 2.58 0 0 0 1-.19 2.51 2.51 0 0 0 2.08 1.08 2.56 2.56 0 0 0 1.52-.5 2.49 2.49 0 0 0 2.2 1.32 2.53 2.53 0 0 0 1.82-.76 2.55 2.55 0 0 0 3.93.07 2.54 2.54 0 0 0 4-.3 2.56 2.56 0 0 0 3.52.15 2.58 2.58 0 0 0 1 .22 2.49 2.49 0 0 0 2.29-1.44 2.58 2.58 0 0 0 .84.15 2.42 2.42 0 0 0 2.46-2.3v-.31a2.4 2.4 0 0 0 1.56-1.57 2.4 2.4 0 0 0 2.35-2.33v-.31a2.35 2.35 0 0 0 1.6-2.26z"/><path class="cls-5" d="M61.11 21.81s-8.67-8.72 1.28-4.26z"/><ellipse class="cls-6" cx="67.01" cy="23.01" rx="1.95" ry="2.34" transform="rotate(-28.92 67.02 23.01)"/><path class="cls-7" d="M66.22 22a3.06 3.06 0 0 0-.16 1c0 1.13.55 2 1.24 2s1.24-.91 1.24-2-.55-2-1.24-2a.93.93 0 0 0-.67.33zm5.42 6.39a1.17 1.17 0 0 0-.23 1.69c.69 1.04-2.51-.65.23-1.69zM20.89 16s-1.89-3.09 1.69-2.4c0 0-5.06-1.51-1.69 2.4zm34.8-.42s-1.86-3.14 1.69-2.45c0 .01-5.06-1.51-1.69 2.45zM24.68 11s-2.91 1-.12 3.2c0-.01-4.08-1.82.12-3.2zm-1.11 7.84s-2.68-2.27.7-3.49c0 0-4.95.47-.7 3.49zm-5.24-1.39S15.65 15.17 19 14c0 0-4.92.42-.67 3.45zm16.99 1.63s-2.68-2.27.7-3.49c-.02-.01-4.94.41-.7 3.49zm3.21 3.54s-2.68-2.27.7-3.49c-.01 0-4.95.47-.7 3.49zm.75-5.41s-2.68-2.27.7-3.49c.02 0-4.98.47-.7 3.49zm.86-4.84s-1.4-3.22 2.17-2.82c.01 0-4.64-1.77-2.17 2.82zm-5.06 1.69s-1.4-3.22 2.17-2.82c0 0-4.64-1.78-2.17 2.82zm2.46-4.14s-2.76-2.17.57-3.52c0 0-4.92.6-.57 3.52zm6.74 1.34S42.88 8 46.45 8.44c0 0-4.64-1.77-2.17 2.82zm-.19 5.64s-2.94-1.93.27-3.55c0 0-4.86 1.07-.27 3.55zM32 16.28s-2.68-2.27.7-3.49c0 0-4.94.46-.7 3.49zm20.38 1.28s-2.68-2.27.7-3.49c-.01 0-4.95.47-.7 3.49zm-20.2 3.67s-3-1.78.09-3.56c0 0-4.79 1.33-.09 3.56zm-4.07-8.96s-3.35-1-.73-3.48c0 0-4.38 2.37.73 3.48zm.18 9.02s-3.35-1-.73-3.48c0 0-4.37 2.37.73 3.48zm24.53.4s-3.19-1-.69-3.31c0 0-4.13 2.26.69 3.31zm-8.7.82s-3.35-1-.73-3.48c0-.03-4.39 2.38.73 3.48zm4.65-.34s-3.35-1-.73-3.49c-.04 0-4.36 2.38.73 3.49zm-20.7-5.32s-2.38-2.57 1.11-3.38c0 0-4.96-.13-1.11 3.38zm19.44-.23s-2.39-2.62 1.11-3.38c0 0-4.97-.13-1.11 3.38zM49.82 13s-.65-3.45 2.74-2.27c.01-.05-4.13-2.8-2.74 2.27zm-18.26-2s-2.39-2.58 1.11-3.38c0 .03-4.96-.1-1.11 3.38zM2.27 3s2.35 1 3.78 4.79c0 0-.8-5.34-3.78-4.79z"/><path class="cls-8" d="M61.11 21.81s-8.67-8.72 1.28-4.26"/></g></g></svg>