<svg xmlns="http://www.w3.org/2000/svg" viewBox="0 0 55.13 75.55"><defs><style>.cls-1,.cls-5,.cls-6{fill:#a25641}.cls-1,.cls-10,.cls-11,.cls-3,.cls-4,.cls-5,.cls-8,.cls-9{stroke:#231f20}.cls-1,.cls-11,.cls-3,.cls-4,.cls-5{stroke-width:1px}.cls-1,.cls-10,.cls-11,.cls-2,.cls-3,.cls-4,.cls-5,.cls-6,.cls-7,.cls-8,.cls-9{fill-rule:evenodd}.cls-2,.cls-8{fill:#fff}.cls-3{fill:#f5f1e9}.cls-11,.cls-3,.cls-4,.cls-5,.cls-9{stroke-linecap:round;stroke-linejoin:round}.cls-4{fill:#e8e4dd}.cls-7{fill:#231f20}.cls-8,.cls-9{stroke-width:.5px}.cls-10,.cls-11,.cls-9{fill:none}.cls-10{stroke-miterlimit:2.61;stroke-width:.5px}</style></defs><title>Asset 108</title><g id="Layer_2" data-name="Layer 2"><g id="Layer_1-2" data-name="Layer 1"><path class="cls-1" d="M21.17 40.53l-5.69-9.43s3.27-1.59 2.88.41c0 0 1.65-.16.81 1.29a4.21 4.21 0 0 1 1.61 1.51s-.88.08-.94.48c0 0 2 .39 1 1.37 0 0 1.32.56.53 1.51.02 0 2.11 1.33-.2 2.86z"/><path class="cls-2" d="M6.33 31.65a35.26 35.26 0 0 1-4.89-4.11c-1.61-1.82-.85 1.21 0 3.32.77 1.86 2.67 3 3.14 2.56z"/><path class="cls-3" d="M4.6 33.42l1.73-1.77a35.26 35.26 0 0 1-4.89-4.11c-1.61-1.82-.85 1.21 0 3.32.79 1.86 2.69 3 3.16 2.56z"/><path class="cls-2" d="M18.44 53.87s-1 8.25-1.38 13.05a4.72 4.72 0 0 1-.66 2 7.8 7.8 0 0 0-.93 2.49 14.38 14.38 0 0 1-2.92.17c-.3-.18.55-2.28 1.67-3.12 0 0 1.13-8.85.37-15.34z"/><path class="cls-4" d="M14.59 53.12l3.85.75s-1 8.25-1.38 13.05a4.72 4.72 0 0 1-.66 2 7.8 7.8 0 0 0-.93 2.49 14.38 14.38 0 0 1-2.92.17c-.3-.18.55-2.28 1.67-3.12 0 0 1.13-8.85.37-15.34z"/><path class="cls-2" d="M40.06 53.39c-1.75 1.76 3.08 2.75 1.5 5.67l-2.62 8.32a7.52 7.52 0 0 1-1.53 2.45L34.5 70a7.07 7.07 0 0 1 1.9-2.55s1.47-6.53 1.48-8a11.09 11.09 0 0 1-5.67-8.37z"/><path class="cls-4" d="M32.21 51.1l7.85 2.29c-1.75 1.76 3.08 2.75 1.5 5.67l-2.62 8.32a7.52 7.52 0 0 1-1.53 2.45L34.5 70a7.07 7.07 0 0 1 1.9-2.55s1.48-6.53 1.48-8a11.09 11.09 0 0 1-5.67-8.35z"/><path class="cls-2" d="M48.54 40.38s4.46 1.1 5.86 5.12c1 2.8-1.32-.9-5.46-1.73z"/><path class="cls-5" d="M48.94 43.77l-.4-3.39s4.46 1.1 5.86 5.12c.98 2.8-1.32-.9-5.46-1.73z"/><path class="cls-2" d="M47.53 57.7c7-7.09 3.73-12.89 3.73-12.89C48 36.2 39.6 39 33.64 40.38s-13-.51-13-.51c-1.63-3.34-3.05-6.31-5-8.16a5.42 5.42 0 0 0 .85-1.71c.62-2.2 1-5.3-.36-3.31A26 26 0 0 1 13 30.12a7.49 7.49 0 0 0-2.75-.37c-9.54.39-4.59 4.86-6.15 9.83-.9 2.86.26 4.46 1.17 5s2.55.24 3.72-1.39c.26 3.23 1 4.82 2.42 6.39 2.11 2.28 1.27 5 3.53 6.91A6.54 6.54 0 0 0 19.23 58a56.49 56.49 0 0 1-.52 13.87c-1.12.84-2 2.94-1.67 3.12a14.38 14.38 0 0 0 2.96-.16 8 8 0 0 1 .92-2.49c.47-.42.67-2 .67-2C22 65.54 23 58.75 23 58.75a49.27 49.27 0 0 0 16.67-3.34 11.09 11.09 0 0 0 5.67 8.37c0 1.46-2.32 7.42-2.32 7.42A3.39 3.39 0 0 0 42 74.32l2.92-.17c.74-.54.64-2.38.64-2.38l3.5-8.4c1.56-2.92-3.28-3.91-1.53-5.67z"/><path class="cls-3" d="M47.53 57.7c7-7.09 3.73-12.89 3.73-12.89C48 36.2 39.6 39 33.64 40.38s-13-.51-13-.51c-1.63-3.34-3.05-6.31-5-8.16a5.42 5.42 0 0 0 .85-1.71c.62-2.2 1-5.3-.36-3.31A26 26 0 0 1 13 30.12a7.49 7.49 0 0 0-2.75-.37c-9.54.39-4.59 4.86-6.15 9.83-.9 2.86.26 4.46 1.17 5s2.55.24 3.72-1.39c.26 3.23 1 4.82 2.42 6.39 2.11 2.28 1.27 5 3.53 6.91A6.54 6.54 0 0 0 19.23 58a56.49 56.49 0 0 1-.52 13.87c-1.12.84-2 2.94-1.67 3.12a14.38 14.38 0 0 0 2.96-.16 8 8 0 0 1 .92-2.49c.47-.42.67-2 .67-2C22 65.54 23 58.75 23 58.75a49.27 49.27 0 0 0 16.67-3.34 11.09 11.09 0 0 0 5.67 8.37c0 1.46-2.32 7.42-2.32 7.42A3.39 3.39 0 0 0 42 74.32l2.92-.17c.74-.54.64-2.38.64-2.38l3.5-8.4c1.56-2.92-3.28-3.91-1.53-5.67z"/><path class="cls-6" d="M37 39.56c-1.18.27-2.32.56-3.39.82-6 1.42-13-.51-13-.51A41 41 0 0 0 16.79 33a13.84 13.84 0 0 1-5.26 12.17 9.5 9.5 0 0 0 1.41 0c1.65-.34 4.75-3.39 5.48-3 .22 2.23-1.55 4.12-3.5 5.73-.65.54-1.36.82-1.7 1.45 1.13.61 4-.33 8.65-3.56 4.87-3.39 8.41-1.38 11.25.56 3.13 2.13 6.17 5 9.19 6.19a12.31 12.31 0 0 0 8.57.49l.81-2.86s-14.9 1.47-14.49-10.55z"/><path class="cls-7" d="M4.51 41.85a3.27 3.27 0 0 0 1.8.58 2.73 2.73 0 0 0 1.49-.63s.1.92-1.34 1.23c-1.03.23-2.06-.53-1.95-1.18z"/><path class="cls-8" d="M13.1 35.47c-.42 1-1.36 1.64-2.12 1.33a1.81 1.81 0 0 1-.61-2.42c.41-1 1.36-1.64 2.12-1.34a1.82 1.82 0 0 1 .61 2.43z"/><path class="cls-7" d="M12.36 33.23a.9.9 0 0 0-.43 0 4 4 0 0 1-.08 1.63 2 2 0 0 0-.54-1.2 2.25 2.25 0 0 0-.47.94c-.22.92.1 1.79.72 1.93s1.3-.47 1.52-1.39-.08-1.76-.72-1.91z"/><path class="cls-9" d="M16.64 33a12.48 12.48 0 0 1-5.3 12.18s1.45 1.14 5.52-2.55c2.41-2.17 3.05 2.28-3.17 6.06-2 1.19 2.1 1.58 5.27-1 5.08-4.21 10.5-4.81 14.42-1.15 6.45 6 14.42 9.19 17.9 5.77"/><path class="cls-7" d="M10.73 40.51s2.62 0 4-4.24c.03 0 .03 4.56-4 4.24zm-.79-9.35a18.54 18.54 0 0 1 3.07-17C18.7 6.61 16.15.32 16.15.32s5 3.31-.78 14.08S12.88 30 12.88 30s-.28 2-2.94 1.16z"/><path class="cls-7" d="M5.53 31.38a18.52 18.52 0 0 1 .89-17.26C11.11 5.92 7.78 0 7.78 0s5.39 2.66 1 14.07-.5 15.78-.5 15.78-.01 2.04-2.75 1.53z"/><path class="cls-10" d="M37.16 39.69c.33 7.44 4.2 10.69 14.37 10.57"/><path class="cls-11" d="M47.53 57.7c7-7.09 3.73-12.89 3.73-12.89C48 36.2 39.6 39 33.64 40.38s-13-.51-13-.51c-1.63-3.34-3.05-6.31-5-8.16a5.42 5.42 0 0 0 .85-1.71c.62-2.2 1-5.3-.36-3.31A26 26 0 0 1 13 30.12a7.49 7.49 0 0 0-2.75-.37c-9.54.39-4.59 4.86-6.15 9.83-.9 2.86.26 4.46 1.17 5s2.55.24 3.72-1.39c.26 3.23 1 4.82 2.42 6.39 2.11 2.28 1.27 5 3.53 6.91A6.54 6.54 0 0 0 19.23 58a56.49 56.49 0 0 1-.52 13.87c-1.12.84-2 2.94-1.67 3.12a14.38 14.38 0 0 0 2.96-.16 8 8 0 0 1 .92-2.49c.47-.42.67-2 .67-2C22 65.54 23 58.75 23 58.75a49.27 49.27 0 0 0 16.67-3.34 11.09 11.09 0 0 0 5.67 8.37c0 1.46-2.32 7.42-2.32 7.42A3.39 3.39 0 0 0 42 74.32l2.92-.17c.74-.54.64-2.38.64-2.38l3.5-8.4c1.56-2.92-3.28-3.91-1.53-5.67z"/></g></g></svg>