<svg xmlns="http://www.w3.org/2000/svg" viewBox="0 0 88.9 28.03"><defs><style>.cls-1,.cls-5{fill:#fff}.cls-1,.cls-2,.cls-3,.cls-4,.cls-5{fill-rule:evenodd}.cls-2{fill:#a25641}.cls-2,.cls-3,.cls-5{stroke:#231f20;stroke-linecap:round;stroke-linejoin:round}.cls-2,.cls-3{stroke-width:1px}.cls-3{fill:url(#GradientFill_103)}.cls-4{fill:#231f20}.cls-5{stroke-width:.5px}</style><radialGradient id="GradientFill_103" cx="62.03" cy="8.88" r="23.86" gradientUnits="userSpaceOnUse"><stop offset="0" stop-color="#dd8e5d"/><stop offset="1" stop-color="#ca6c38"/></radialGradient></defs><title>Asset 110</title><g id="Layer_2" data-name="Layer 2"><g id="Layer_1-2" data-name="Layer 1"><path class="cls-1" d="M43.33 14.51s-4.41 4.14-4.41 7.31c0 0 5.94.83 5.8 2.34S33 25.27 31.6 23.75s-.13-8.69 1.39-9.38 10.34.14 10.34.14z"/><path class="cls-2" d="M43.33 14.51s-4.41 4.14-4.41 7.31c0 0 5.94.83 5.8 2.34S33 25.27 31.6 23.75s-.13-8.69 1.39-9.38 10.34.14 10.34.14z"/><path class="cls-3" d="M78.69 10.37C68.21 3.44 58.54 4.7 58.54 4.7c-13-7.36-25.67-3.21-30.09-1.28-8.35-4.6-17.48 1-13.14.19 4.69-.83 9.28 1.65 9.28 1.65C-.67 6.22-.53 26.1 1.12 22.65c1-2 6.54-4.83 10.08-6.52-3.39 2.91-5 9-1.25 5.14a18.93 18.93 0 0 1 4.43-3.06c-1.28 3.14-1.81 5.69-.28 3.79 1.38-1.77 3.07-3.82 6.06-4.7-1.1 2.2-.91 3.89.56 2.21a10.32 10.32 0 0 1 5-2.66c-.14 2.12 1.54 4.1.57 5.7-2.34 3.86 11.32 4.69 11.46 2.9S34 22.65 34 22.65c1.52-.55 3.86-3.18 3.86-3.18 3.32-3.17 8.56-2.34 8.56-2.34-1.65 6.35 1.66 8 1.66 8-2.49 2.62 8.42 3 8.42 1.52s-1.8-1.79-1.8-1.79c-.41-4.42 3-4.7 3-4.7 4 .28 3.64 4.36 3.64 4.36-2.78 1.92 6.05 2.67 7.29 1.15s-1.25-2.39-1.25-2.39a8.54 8.54 0 0 0-4.3-7.67c16.7-5.25 22.5 9.25 24.71 8.28s-1.79-8.7-9.1-13.52z"/><path class="cls-4" d="M70.49 12.77s1.26 1.35 5.86 2.44H73.7a14.88 14.88 0 0 1-3.21-2.44z"/><path class="cls-5" d="M65 9.33c-.2.57-1.25.74-2.37.38S60.77 8.62 61 8.06s1.25-.74 2.36-.38S65.18 8.77 65 9.33z"/><path class="cls-4" d="M61.35 8.27s-.05.07-.06.1c-.21.53.49 1.15 1.56 1.39s2.09 0 2.3-.53-.5-1.14-1.56-1.38a3.46 3.46 0 0 0-1.35 0zm-3.48.78s-1.79-3.37 1.89-3c0 .05-4.89-1.16-1.89 3zM40.15 7.54a7.32 7.32 0 0 1 .21 8.1s4.36-4.21-.21-8.1zM15.9 17.46s7.58-3.1 8.47-4.26a50.18 50.18 0 0 0-8.47 4.26zm-5.25-3.68s9.46-3 14.88-3a26.14 26.14 0 0 0-14.88 3zm17.98-5.16s-4.42-2-12.25.85c0 0 6.36-3.63 12.25-.85zm18.42-.88s1.27 4-.47 7.47c0 0 3.31-4.1.47-7.47z"/></g></g></svg>