<svg xmlns="http://www.w3.org/2000/svg" viewBox="0 0 61.88 61.34"><defs><style>.cls-1{fill:#cdcccb}.cls-1,.cls-2,.cls-3,.cls-4{fill-rule:evenodd}.cls-2,.cls-3{fill:#91a27d;stroke:#231f20;stroke-linecap:round;stroke-linejoin:round;stroke-width:1px}.cls-3{fill:url(#GradientFill_106)}.cls-4{fill:#231f20}</style><radialGradient id="GradientFill_106" cx="43.12" cy="18.6" r="45.82" gradientUnits="userSpaceOnUse"><stop offset="0" stop-color="#c5d0a5"/><stop offset="1" stop-color="#abbe92"/></radialGradient></defs><title>Asset 7</title><g id="Layer_2" data-name="Layer 2"><g id="Layer_1-2" data-name="Layer 1"><path class="cls-1" d="M8.77 29.25s-1.67 9.57 6.68 20.7c0 0 .78 4.9-.45 7.23A2 2 0 0 0 13.55 59c0 1.34 6.68 1.78 7.57-.89s-3.12-11.28-1-18.51z"/><path class="cls-2" d="M20.12 39.6L8.77 29.25s-1.67 9.57 6.68 20.7c0 0 .78 4.9-.45 7.23A2 2 0 0 0 13.55 59c0 1.34 6.68 1.78 7.57-.89s-3.12-11.28-1-18.51z"/><path class="cls-1" d="M41.07 30.18s-4.23 13.91-9.24 17.7c0 0 2.23 9 0 11.13s-10 .78-5.57-2.12c0 0 2.78-9.68-4.45-20.37z"/><path class="cls-2" d="M21.82 36.52l19.25-6.34s-4.23 13.91-9.24 17.7c0 0 2.23 9 0 11.13s-10 .78-5.57-2.12c.01 0 2.79-9.68-4.44-20.37z"/><path class="cls-1" d="M39.74 24.43c-7.49-.44-12.38-8.71-29.61-.17A9.42 9.42 0 0 1 7.46 19c-.89-6.3 1.67-11.86 9.79-12.64 0 0 4.56 5.67 8 2.56s-3.32-5.12-3.88-5.34c-.38-.16.46-3.47-2.19-3-1.4.23-1.56 2-1.81 3.09C13 3.51 3.66 4.43 1.11 14.26c-1.89 7.31.93 14.36 3.79 19 .18 3.72 1.38 10.28 6.79 17.5 0 0 .78 4.9-.45 7.23a2 2 0 0 0-1.44 1.79c0 1.33 6.68 1.78 7.57-.89.76-2.28-2-8.86-1.57-15.23a28.27 28.27 0 0 0 9 1.43 29.83 29.83 0 0 0 4.77-.38 24 24 0 0 1 .8 13c-4.45 2.89 3.34 4.23 5.57 2.11s0-11.13 0-11.13c2.74-2.07 5.25-7.18 7-11.38 2.65-1.17 8-2.87 11.51.36 4.9 4.45-1 11.09-7 8-4.09-2.08 2.45-3.78 4.79-2.34s.56-2.56-4.34-2.67c-6.4-.15-7.35 5.34-2.56 8.12 5.13 3 11.8 2.34 14.69-3.45 3.81-7.72.49-19.67-20.29-20.9z"/><path class="cls-3" d="M39.74 24.43c-7.49-.44-12.38-8.71-29.61-.17A9.42 9.42 0 0 1 7.46 19c-.89-6.3 1.67-11.86 9.79-12.64 0 0 4.56 5.67 8 2.56s-3.32-5.12-3.88-5.34c-.38-.16.46-3.47-2.19-3-1.4.23-1.56 2-1.81 3.09C13 3.51 3.66 4.43 1.11 14.26c-1.89 7.31.93 14.36 3.79 19 .18 3.72 1.38 10.28 6.79 17.5 0 0 .78 4.9-.45 7.23a2 2 0 0 0-1.44 1.79c0 1.33 6.68 1.78 7.57-.89.76-2.28-2-8.86-1.57-15.23a28.27 28.27 0 0 0 9 1.43 29.83 29.83 0 0 0 4.77-.38 24 24 0 0 1 .8 13c-4.45 2.89 3.34 4.23 5.57 2.11s0-11.13 0-11.13c2.74-2.07 5.25-7.18 7-11.38 2.65-1.17 8-2.87 11.51.36 4.9 4.45-1 11.09-7 8-4.09-2.08 2.45-3.78 4.79-2.34s.56-2.56-4.34-2.67c-6.4-.15-7.35 5.34-2.56 8.12 5.13 3 11.8 2.34 14.69-3.45 3.81-7.72.49-19.67-20.29-20.9z"/><path class="cls-4" d="M19.32 2.73a.89.89 0 0 0-.62.91.85.85 0 0 0 .74.93.85.85 0 0 0 .74-.93.93.93 0 0 0-.51-.87zm4.8 4.22a1.65 1.65 0 0 0 .06 1.13c.25.65-1.32-1.08-.06-1.13zm17.4 20.8s11.91-.38 17.17 8.15c.01 0-2.87-9.27-17.17-8.15zm-14.41 2.64A15.37 15.37 0 0 0 29.24 43s-5.77-5.72-2.13-12.61zM17 33.77a24.75 24.75 0 0 0-1.25 8.15S14.2 36.91 17 33.77zM3.19 13.29s-2.13 7.45 3.6 15.52a14.86 14.86 0 0 1-3.6-15.52z"/></g></g></svg>