<svg xmlns="http://www.w3.org/2000/svg" xmlns:xlink="http://www.w3.org/1999/xlink" viewBox="0 0 48.97 57.86"><defs><style>.cls-1{fill:none}.cls-1,.cls-2,.cls-3{stroke:#231f20;stroke-width:1px}.cls-1,.cls-2,.cls-3,.cls-4{fill-rule:evenodd}.cls-2{fill:url(#GradientFill_61)}.cls-3{fill:url(#GradientFill_61-2)}.cls-4{fill:#fff}</style><radialGradient id="GradientFill_61" cx="41.69" cy="45.35" r="4.46" gradientUnits="userSpaceOnUse"><stop offset="0" stop-color="#fd0"/><stop offset="1" stop-color="#ffcb05"/></radialGradient><radialGradient id="GradientFill_61-2" cx="34.08" cy="8.04" r="40.56" xlink:href="#GradientFill_61"/></defs><title>Asset 48</title><g id="Layer_2" data-name="Layer 2"><g id="Layer_1-2" data-name="Layer 1"><path class="cls-1" d="M37.84 48.42C30.21 57.7 43.21 59 46.21 55.7"/><path class="cls-2" d="M42.4 45.08c2.06 1 .33 2.69-.93 3.61s-3.59 2.13-3.63-.27c0-1.14-.17-2.37 1.09-3.3a3.13 3.13 0 0 1 3.47-.04z"/><path class="cls-3" d="M42.71 12.32C51.32 24.1 50.14 39.61 40.08 47s-25.21 3.75-33.82-8-7.43-27.31 2.63-34.68 25.21-3.77 33.82 8z"/><path class="cls-4" d="M20 9.44a17.89 17.89 0 0 1 8.43 6 8.91 8.91 0 0 1 5.43-6.28 22.12 22.12 0 0 0-9.15-3.72 7.2 7.2 0 0 0-4.71 4z"/></g></g></svg>