<svg xmlns="http://www.w3.org/2000/svg" viewBox="0 0 46.05 36.09"><defs><style>.cls-1,.cls-2,.cls-4{stroke:#231f20;stroke-width:1px}.cls-1,.cls-2{stroke-linecap:round;stroke-linejoin:round}.cls-1,.cls-2,.cls-3,.cls-4,.cls-5{fill-rule:evenodd}.cls-1{fill:url(#GradientFill_39)}.cls-2,.cls-4{fill:#cb90ab}.cls-3{fill:#fff}.cls-5{fill:#231f20}</style><radialGradient id="GradientFill_39" cx="32.03" cy="11.07" r="25.08" gradientUnits="userSpaceOnUse"><stop offset="0" stop-color="#9b95c9"/><stop offset="1" stop-color="#684287"/></radialGradient></defs><title>Asset 72</title><g id="Layer_2" data-name="Layer 2"><g id="Layer_1-2" data-name="Layer 1"><path class="cls-1" d="M8.33 22.2S6.52 4.64 20.24 1.61s22.41 0 25.24 15.39c1.06 5.76-10.1 9.29-10.1 9.29s-4.64 12.31-11.91 8.68-10.18-6.19-19.38-2.68c-6.86 2.63-3.02-3.02 4.24-10.09z"/><path class="cls-2" d="M35.38 26.24s-4.64 12.31-11.91 8.68-10.18-6.14-19.38-2.63c-6.86 2.63-3-3 4.24-10.09 0 0 11.31-5.85 27.05 4.04z"/><path class="cls-3" d="M27.51 2c0 .84-1.27 1.52-2.83 1.52S21.86 2.85 21.86 2 23.12.5 24.68.5s2.83.68 2.83 1.5z"/><path class="cls-4" d="M27.51 2c0 .84-1.27 1.52-2.83 1.52S21.86 2.85 21.86 2 23.12.5 24.68.5s2.83.68 2.83 1.5z"/><path class="cls-5" d="M21.45 4.81s-7.54 3.77-8 14.4c.02 0-1.53-10.85 8-14.4zm5.09.45s4.88 5.09 3.33 15.06c0 0 3.54-9.08-3.33-15.06zm3.77-1.33s8.64 2 12.19 14c0-.04-.89-12.01-12.19-14z"/></g></g></svg>