<svg xmlns="http://www.w3.org/2000/svg" viewBox="0 0 51.31 46.63"><defs><style>.cls-1{fill:#fff;fill-rule:evenodd}.cls-2,.cls-3,.cls-4,.cls-5{fill-rule:evenodd;stroke:#231f20;stroke-width:1px}.cls-2{fill:url(#GradientFill_27)}.cls-3,.cls-5{fill:none}.cls-4{fill:#7f6127}.cls-4,.cls-5{stroke-linecap:round}</style><linearGradient id="GradientFill_27" x1="4.52" y1="51.23" x2="57" y2="-1.25" gradientUnits="userSpaceOnUse"><stop offset="0" stop-color="#fd0"/><stop offset="1" stop-color="#fff685"/></linearGradient></defs><title>Asset 6</title><g id="Layer_2" data-name="Layer 2"><g id="Layer_1-2" data-name="Layer 1"><path class="cls-1" d="M5.32 28.66S-.29 27.48.59 33.09c0 0 8.6 19.66 33.5 10.69 0 0 16.61-5.64 16.72-27.56 0 0-.22-9.85-5.09-15 0 0-2.33-2-5.54.89 0 0 3 11.07-13.28 23.9 0-.01-10.41 8.88-21.58 2.65z"/><path class="cls-2" d="M5.32 28.66S-.29 27.48.59 33.09c0 0 8.6 19.66 33.5 10.69 0 0 16.61-5.64 16.72-27.56 0 0-.22-9.85-5.09-15 0 0-2.33-2-5.54.89 0 0 3 11.07-13.28 23.9 0-.01-10.41 8.88-21.58 2.65z"/><path class="cls-3" d="M4.1 32.16S15.17 43.34 29 36.92c0 0 21.25-11.18 16.61-31.21"/><path class="cls-4" d="M40.11 2.12s6 3.75 5-.75"/><path class="cls-5" d="M1.43 32.48s1.92-.15 3.1-2.81"/></g></g></svg>