<svg xmlns="http://www.w3.org/2000/svg" viewBox="0 0 28.22 28.21"><defs><style>.cls-1{fill:#fff}.cls-1,.cls-2,.cls-3{fill-rule:evenodd}.cls-2{stroke:#231f20;stroke-width:1px;fill:url(#GradientFill_9)}.cls-3{fill:#ed1c24}</style><radialGradient id="GradientFill_9" cx="19.55" cy="8.66" r="20.73" gradientUnits="userSpaceOnUse"><stop offset="0" stop-color="#fff"/><stop offset="1" stop-color="#e6e7e8"/></radialGradient></defs><title>Asset 55</title><g id="Layer_2" data-name="Layer 2"><g id="Layer_1-2" data-name="Layer 1"><path class="cls-1" d="M27.72 14.11A13.61 13.61 0 1 1 14.11.5a13.61 13.61 0 0 1 13.61 13.61z"/><path class="cls-2" d="M27.72 14.11A13.61 13.61 0 1 1 14.11.5a13.61 13.61 0 0 1 13.61 13.61z"/><path class="cls-3" d="M2.59 19.53s2.73-1.29 2.89-5.3S6.92-.38 17.44 1.14c0 0-10.31-.76-11 10.52-.56 9.23-3.85 7.87-3.85 7.87zm17.26 5.62S17.76 26 15 23s0-7.91 3.29-10.36c4.74-3.53 4.5-8.27 2.65-9.71 0 0 2.55 1.34 1.52 5.05-1.68 6.11-9.11 6.88-7.54 13.49.67 3.03 4.93 3.68 4.93 3.68z"/><path class="cls-3" d="M3.72 16.65s.16 1.28 2.28 1.82c0 0-2.16 1.1-2.28-1.82zM15.94 25s1.27.2 2.37-1.68c0 .01.47 2.36-2.37 1.68zM4.43 14.31s1.77.8 2.89.16a2.49 2.49 0 0 0-2.89-.16zm.24-3.37a9.13 9.13 0 0 1 2.73 0s-.72-2.01-2.73 0zM5.8 6.68s2.09-.16 2.57 1c0-.04-.24-2.6-2.57-1zm2.41-3.45A1.72 1.72 0 0 1 10 4.51S10.45 2 8.21 3.23zM14 23.3a2.25 2.25 0 0 0 2.48-1.77S17 24.59 14 23.3zm-1.22-2.57a2.06 2.06 0 0 0 2.73-.32 3.53 3.53 0 0 0-2.73.32zm.4-3.37a3.07 3.07 0 0 1 2.57 1s-.24-2.69-2.57-1zM15.19 14s1.85-.24 2.09 2.09c0-.01 1.04-3.09-2.09-2.09zm2.65-2.82s1.93.64 2.09 2.25c0 0 1.2-2.89-2.09-2.25zm2.49-2.41a1.76 1.76 0 0 1 2.08 1.52s.59-2.96-2.08-1.52z"/></g></g></svg>