<svg xmlns="http://www.w3.org/2000/svg" viewBox="0 0 46.87 46.87"><defs><style>.cls-1,.cls-2{stroke:#231f20;stroke-width:1px;fill-rule:evenodd}.cls-1{fill:url(#GradientFill_59)}.cls-2{fill:none}</style><radialGradient id="GradientFill_59" cx="32.61" cy="14.26" r="34.93" gradientUnits="userSpaceOnUse"><stop offset="0" stop-color="#f58220"/><stop offset="1" stop-color="#d96e2b"/></radialGradient></defs><title>Asset 52</title><g id="Layer_2" data-name="Layer 2"><g id="Layer_1-2" data-name="Layer 1"><path class="cls-1" d="M.5 23.44a22.94 22.94 0 1 1 22.94 22.93A22.94 22.94 0 0 1 .5 23.44z"/><path class="cls-2" d="M14.31 44.72s13-4.46 7.71-21.49c0 0-5.44-13.9 7.7-12.57 0 0 15.63 2 13.58 24.13M4.38 10.46S7 6.61 10.26 8.23c0 0 3.65 2.33 8.11-1.82 0 0 2.63-3.25-1.83-5.07"/><path class="cls-2" d="M9.65 5s18.25.8 23.52 18.23a29.31 29.31 0 0 1-2 21.9"/><path class="cls-2" d="M5 37.22s-6.08-22.3 19-29.6c0 0 11-3.65 18.45 3"/></g></g></svg>