<svg xmlns="http://www.w3.org/2000/svg" xmlns:xlink="http://www.w3.org/1999/xlink" viewBox="0 0 57.67 61.78"><defs><style>.cls-1{fill:#fff}.cls-1,.cls-2,.cls-3,.cls-4,.cls-5,.cls-6,.cls-7,.cls-8{fill-rule:evenodd}.cls-2{fill:#a7a9ac}.cls-2,.cls-3,.cls-4,.cls-6,.cls-7,.cls-8{stroke:#231f20}.cls-2,.cls-4,.cls-8{stroke-width:1px}.cls-3,.cls-7{stroke-miterlimit:2.61}.cls-3{stroke-width:1px;fill:url(#GradientFill_13)}.cls-4{fill:url(#GradientFill_14)}.cls-5{fill:#231f20}.cls-6,.cls-8{fill:none}.cls-6,.cls-7{stroke-width:.5px}.cls-7{fill:url(#GradientFill_13-2)}</style><radialGradient id="GradientFill_13" cx="7.79" cy="4.45" r="8.3" gradientUnits="userSpaceOnUse"><stop offset="0" stop-color="#ece6d1"/><stop offset="1" stop-color="#d7cda9"/></radialGradient><radialGradient id="GradientFill_14" cx="41.58" cy="20.87" r="41.2" gradientUnits="userSpaceOnUse"><stop offset="0" stop-color="#e6e7e8"/><stop offset="1" stop-color="#d1d3d4"/></radialGradient><radialGradient id="GradientFill_13-2" cx="23.02" cy="5.55" r="12.74" xlink:href="#GradientFill_13"/></defs><title>Asset 113</title><g id="Layer_2" data-name="Layer 2"><g id="Layer_1-2" data-name="Layer 1"><path class="cls-1" d="M36.11 37.2s2.11 6.73 7 9.25c0 0-2.6 3.83-5.54 8a4.89 4.89 0 0 0-2.37 3.13s-.06.15.87.33c0 0 1.59-3.1 1 .33 0 0 2.33.85 2.86-2.38 0 0 1.24-.93.4-2 0 0 7-5.59 6.37-7.45-1.51-4.84 4.83-8.61 4.15-13.85z"/><path class="cls-2" d="M50.81 32.56l-14.7 4.64s2.11 6.73 7 9.25c0 0-2.6 3.83-5.54 8a4.89 4.89 0 0 0-2.37 3.13s-.06.15.87.33c0 0 1.59-3.1 1 .33 0 0 2.33.85 2.86-2.38 0 0 1.24-.93.4-2 0 0 7-5.59 6.37-7.45-1.55-4.84 4.79-8.61 4.11-13.85z"/><path class="cls-1" d="M13.06 36.24s4.32 15.5 2 17.77a4.36 4.36 0 0 0-2.28 3l.71.55s1.46-3.1.91.27c0 0 3.66.66 2.64-2.62 0 0 1.26-.09.75-1.83 0 0 .14-12.68 1.59-16.43z"/><path class="cls-2" d="M19.41 36.92l-6.35-.68s4.32 15.5 2 17.77a4.36 4.36 0 0 0-2.28 3l.71.55s1.46-3.1.91.27c0 0 3.66.66 2.64-2.62 0 0 1.26-.09.75-1.83.03-.03.21-12.71 1.62-16.46z"/><path class="cls-1" d="M11.06 4.56S10.68 1.13 7.59 1 3.34 4.9 5.1 9.35c0 0-3.18-.57-4.06-2.53s-1.49 4.48 4.87 5.69z"/><path class="cls-3" d="M5.91 12.51l5.15-7.95S10.68 1.13 7.59 1 3.34 4.9 5.1 9.35c0 0-3.18-.57-4.06-2.53s-1.49 4.48 4.87 5.69z"/><path class="cls-1" d="M57.11 35.14c-1.11-8.22-8.5-12.28-13.32-11.87-4 .34-12.7-1-16.87-2.58-3.2-1.23-5.68-.05-6.09-1.55-.52-1.86-.65-4.12-3.16-6.06 0 0 .92-10.23-6.61-8.52-.93 1.64-4.8 2.32-3 5 0 0-4.14 4.9-2.49 6.51a5.56 5.56 0 0 0 3.77 1.33 23 23 0 0 0 1.82 17c1.68 3 4.68 3.06 6 5.26 0 0 4.33 15.49 2 17.76a4.36 4.36 0 0 0-2.28 3l.7.55s1.47-3.1.92.27c0 0 3.65.67 2.64-2.62 0 0 1.26-.08.75-1.83 0 0 .13-12.68 1.59-16.42 0 0 14.69 5.21 18.84-.58 0 0 2.1 6.74 7 9.26 0 0-2.79 4-5.74 8.16a4.26 4.26 0 0 0-2.17 2.93s-.06.16.87.33c0 0 1.59-3.1.95.33 0 0 2.34.86 2.86-2.37 0 0 1.25-.94.4-2 0 0 6.95-5.59 6.37-7.45-1.41-4.84 4.93-8.61 4.25-13.84z"/><path class="cls-4" d="M57.11 35.14c-1.11-8.22-8.5-12.28-13.32-11.87-4 .34-12.7-1-16.87-2.58-3.2-1.23-5.68-.05-6.09-1.55-.52-1.86-.65-4.12-3.16-6.06 0 0 .92-10.23-6.61-8.52-.93 1.64-4.8 2.32-3 5 0 0-4.14 4.9-2.49 6.51a5.56 5.56 0 0 0 3.77 1.33 23 23 0 0 0 1.82 17c1.68 3 4.68 3.06 6 5.26 0 0 4.33 15.49 2 17.76a4.36 4.36 0 0 0-2.28 3l.7.55s1.47-3.1.92.27c0 0 3.65.67 2.64-2.62 0 0 1.26-.08.75-1.83 0 0 .13-12.68 1.59-16.42 0 0 14.69 5.21 18.84-.58 0 0 2.1 6.74 7 9.26 0 0-2.79 4-5.74 8.16a4.26 4.26 0 0 0-2.17 2.93s-.06.16.87.33c0 0 1.59-3.1.95.33 0 0 2.34.86 2.86-2.37 0 0 1.25-.94.4-2 0 0 6.95-5.59 6.37-7.45-1.41-4.84 4.93-8.61 4.25-13.84z"/><path class="cls-5" d="M6.11 14.92a8 8 0 0 0 2.05-.8c.59-.43-.5 1.47-2.05.8zm-.77.52s2.06 1.82 3.87.39c0 0-1 1.81-3.61.21zm6.78.44s2.76.92 3.42-1.66c0 0 .12 3.43-3.42 1.66z"/><path class="cls-1" d="M15.15 9.56c0 .72-.85 1.32-1.9 1.33s-1.92-.57-1.92-1.29.84-1.32 1.89-1.33 1.92.57 1.93 1.29z"/><path class="cls-6" d="M15.15 9.56c0 .72-.85 1.32-1.9 1.33s-1.92-.57-1.92-1.29.84-1.32 1.89-1.33 1.93.57 1.93 1.29z"/><path class="cls-5" d="M13.36 8.72a1.85 1.85 0 0 0-.88.22 1.78 1.78 0 0 0 .58.67 2.25 2.25 0 0 1-1-.29.8.8 0 0 0-.11.4c0 .54.64 1 1.42 1s1.4-.45 1.39-1-.63-1.01-1.4-1z"/><path class="cls-1" d="M18.73 7.66c1.53-1.74 4.74 1.08 3.47 3.39a2.21 2.21 0 0 1-2.48.89c-3.45-1.51-.83-5.4.71-5.76.57-.18-1.43-2.3-4.71.31-6.51 5.25 2.28 15.21 9.57 8.65 6.5-5.84.05-15.36-7.58-14.6-3.86.39-6.65 4-6.65 4a2.74 2.74 0 0 1 2.85 1.35A1.79 1.79 0 0 1 16 6.4z"/><path class="cls-7" d="M11.12 4.39l3.94-3.13 4.22-.75 3.95 1.36 3.06 2.72 1.84 4.22-.68 4.08-3.06 3.13-3.81 1.3-3.95-1.02-2.38-2.32-.82-3.33.89-3.13 1.56-1.43 3.27-.88 1.22.75-1.83 1.7-.41 2.85 1.36 1.3 2.72-.41.13-3.13-3.06-1.16.75-1.09-.48-.81-2.44.54-1.43.68-.96-.68-.81.34-.61-1.02-2.18-.68z"/><path class="cls-8" d="M18.73 7.66c1.53-1.74 4.74 1.08 3.47 3.39a2.21 2.21 0 0 1-2.48.89c-3.45-1.51-.83-5.4.71-5.76.57-.18-1.43-2.3-4.71.31-6.51 5.25 2.28 15.21 9.57 8.65 6.5-5.84.05-15.36-7.58-14.6-3.86.39-6.65 4-6.65 4a2.74 2.74 0 0 1 2.85 1.35A1.79 1.79 0 0 1 16 6.4"/><path class="cls-5" d="M28.66 30.59s-4.25 4.67-4.38 8c0-.03-.86-3.82 4.38-8zm14.05 1.83a16.33 16.33 0 0 0-.44 5.46 7.2 7.2 0 0 1 .44-5.46zM18.6 25.81s-2.66 3.07-2.19 8.64c0 0-1.14-5.45 2.19-8.64zm-4.69-19.9s2.69-5.14 7.42-3a5.75 5.75 0 0 0-7 3zM7.74 7.45s-1.57-4.07-2-1.78c0 0 .82-1.19 1.83 2.4zM5.09 9.16a7.78 7.78 0 0 0 2.18.06 3 3 0 0 1-2.68.2zm4.96-5.44s-1-.09-2.14 1.5a2.13 2.13 0 0 1 2.14-1.5zm-4.21.34S6.4 1.6 8.56 1.68c0 0-2.47-1.06-2.72 2.38zm6.37-.85s1.47.08 2 1.06c0 0 0-.59-1.48-1.36zm2.53-1.7s1.09.58 1.29 1.36a1.9 1.9 0 0 0-.9-1.56zm5.55 4.36s-3.35-.65-4.3 2.4a4 4 0 0 1 4.44-2.09zm-4.96 5.06s-.14 5 4.87 5.74c0 0-5.1-.05-4.87-5.74z"/><path class="cls-8" d="M15.09 54s-1.07 1.29 2 1.17m2.17 2.26s-1.17 1.13 2 1.17m16.32-4.18s-.38 1.12 2.31 1.41m3.79 1.36s-.08 1.09 2.51 1.22"/></g></g></svg>