<svg xmlns="http://www.w3.org/2000/svg" viewBox="0 0 41.71 35.51"><defs><style>.cls-1{fill:#231f20}.cls-1,.cls-2,.cls-3,.cls-4{fill-rule:evenodd}.cls-2{fill:none;stroke-linecap:round;stroke-linejoin:round;stroke-width:3px;stroke:#231f20}.cls-3,.cls-4{stroke:#231f20;fill:#a6ce39;stroke-width:1px}.cls-4{fill:url(#GradientFill_50)}</style><radialGradient id="GradientFill_50" cx="29" cy="6.56" r="18.37" gradientUnits="userSpaceOnUse"><stop offset="0" stop-color="#fad5e5"/><stop offset="1" stop-color="#f6adcd"/></radialGradient></defs><title>Asset 49</title><g id="Layer_2" data-name="Layer 2"><g id="Layer_1-2" data-name="Layer 1"><path class="cls-1" d="M27.22 25.34c0 .75-1.07 1.36-2.38 1.36s-2.38-.61-2.38-1.36S23.52 24 24.84 24s2.38.58 2.38 1.34zM18.35 25c0 .75-1.07 1.36-2.38 1.36s-2.39-.61-2.39-1.36 1.07-1.36 2.39-1.36 2.38.62 2.38 1.36z"/><path class="cls-2" d="M16.21 25.39s3.45 3.71 3.62 5.35c0 0 3.94-2.51 5-5.4m-5 5.4A13.05 13.05 0 0 1 18.68 34"/><path class="cls-3" d="M40.49 17.1c0 5.82-4.83 13.64-11 13.64s-1-11.64-11.18-10.55c-5.79.62 5-10.54 11.18-10.54s11 1.63 11 7.45z"/><path class="cls-4" d="M41.21 15.47c0 8.23-7.16 9.27-18.36 9.27s-24-1.25-22.17-9.27C2.13 9.1 10.86 1.29 20.94.56c11.17-.81 20.27 6.67 20.27 14.91z"/><path class="cls-1" d="M14.13 4.52s18.13-6 25.27 12.4c0 0-5.5-13.04-25.27-12.4z"/></g></g></svg>