<svg xmlns="http://www.w3.org/2000/svg" viewBox="0 0 37.23 43.22"><defs><style>.cls-1{fill:#fff}.cls-1,.cls-2,.cls-3{fill-rule:evenodd}.cls-2{stroke:#231f20;stroke-linecap:round;stroke-width:1px;fill:url(#GradientFill_67)}.cls-3{fill:#231f20}</style><radialGradient id="GradientFill_67" cx="25.86" cy="13.17" r="29.34" gradientUnits="userSpaceOnUse"><stop offset="0" stop-color="#fcd3c1"/><stop offset="1" stop-color="#ca6e6b"/></radialGradient></defs><title>Asset 118</title><g id="Layer_2" data-name="Layer 2"><g id="Layer_1-2" data-name="Layer 1"><path class="cls-1" d="M1.89 28.62c2.87 2.94 3.57 5.44 3.66 7a14.41 14.41 0 0 1-2.47 3.77c-2 2.26-.85 3.24-.85 3.24s1.21.9 3-2.68a13.31 13.31 0 0 1 1.64-2.57c1.5-.24 4.2-.11 7.83 2.41 2.36 1.64 3.53.91 4.1 0a5.56 5.56 0 0 0 4.57-1.1l-.67-1.34a6.84 6.84 0 0 0 5.58-2 21.82 21.82 0 0 0 3-4s-1.45.36-3 .79c.9-1 2.06-2 2.06-2l-1.7-.29A19.9 19.9 0 0 0 34.37 24a8.49 8.49 0 0 1-1.34.35 17.17 17.17 0 0 0 2.89-5.88l-2.21.33a15.75 15.75 0 0 0 2-3.45 10.62 10.62 0 0 1-3.52 1.22c1.27-.93 2.74-2.72 4.11-6.08l-1.36-.09c1-1.66 2-9.95 1.77-9.92 0-.14-7.71 2.09-9.18 3.34l-.33-1.3c-3.09 1.91-4.61 3.65-5.32 5.06a10.49 10.49 0 0 1 .62-3.67 15.81 15.81 0 0 0-3.07 2.51V4.19A17.24 17.24 0 0 0 14.06 8a8.19 8.19 0 0 1 .13-1.38 20.1 20.1 0 0 0-4.75 6.56l-.56-1.63S8 12.88 7.24 13.93c.16-1.6.28-3.09.28-3.09A22 22 0 0 0 4 14.49a6.85 6.85 0 0 0-1 5.84l-1.43-.45a5.53 5.53 0 0 0-.33 4.69c-.83.71-1.36 1.99.65 4.05z"/><path class="cls-2" d="M1.89 28.62c2.87 2.94 3.57 5.44 3.66 7a14.41 14.41 0 0 1-2.47 3.77c-2 2.26-.85 3.24-.85 3.24s1.21.9 3-2.68a13.31 13.31 0 0 1 1.64-2.57c1.5-.24 4.2-.11 7.83 2.41 2.36 1.64 3.53.91 4.1 0a5.56 5.56 0 0 0 4.57-1.1l-.67-1.34a6.84 6.84 0 0 0 5.58-2 21.82 21.82 0 0 0 3-4s-1.45.36-3 .79c.9-1 2.06-2 2.06-2l-1.7-.29A19.9 19.9 0 0 0 34.37 24a8.49 8.49 0 0 1-1.34.35 17.17 17.17 0 0 0 2.89-5.88l-2.21.33a15.75 15.75 0 0 0 2-3.45 10.62 10.62 0 0 1-3.52 1.22c1.27-.93 2.74-2.72 4.11-6.08l-1.36-.09c1-1.66 2-9.95 1.77-9.92 0-.14-7.71 2.09-9.18 3.34l-.33-1.3c-3.09 1.91-4.61 3.65-5.32 5.06a10.49 10.49 0 0 1 .62-3.67 15.81 15.81 0 0 0-3.07 2.51V4.19A17.24 17.24 0 0 0 14.06 8a7.1 7.1 0 0 1 .13-1.38 20.1 20.1 0 0 0-4.75 6.56l-.56-1.63S8 12.88 7.24 13.93c.16-1.6.28-3.09.28-3.09A22 22 0 0 0 4 14.49a6.85 6.85 0 0 0-1 5.84l-1.43-.45a5.53 5.53 0 0 0-.33 4.69c-.83.71-1.36 1.99.65 4.05z"/><path class="cls-3" d="M11 31.09c5-8 10.37-15.38 20.75-26"/></g></g></svg>