<svg xmlns="http://www.w3.org/2000/svg" viewBox="0 0 43.99 44.31"><defs><style>.cls-1,.cls-2,.cls-3,.cls-5{stroke:#231f20;stroke-width:1px}.cls-1,.cls-2,.cls-4,.cls-5,.cls-6{fill-rule:evenodd}.cls-1{fill:url(#GradientFill_60)}.cls-2{fill:#f58220}.cls-3,.cls-5{fill:none}.cls-4{fill:#231f20}.cls-6{fill:#fff}</style><linearGradient id="GradientFill_60" x1="-.75" y1="44.76" x2="45.22" y2="-1.21" gradientUnits="userSpaceOnUse"><stop offset="0" stop-color="#47a5ae"/><stop offset="1" stop-color="#7cc9d1"/></linearGradient></defs><title>Asset 61</title><g id="Layer_2" data-name="Layer 2"><g id="Layer_1-2" data-name="Layer 1"><path class="cls-1" d="M36.91 19.29l-3.25 19.93-23.18.19-3.59-20.57-6.08-1.8 6.27-8.98L22.25.56 37.56 7.7l5.69 8.97-6.34 2.62z"/><path class="cls-2" d="M33.66 39.22l-23.18.19-4.39 2.6.4 1.8 30.57-.2.39-1.4-3.79-2.99z"/><path class="cls-3" d="M6.17 42.19H37.2"/><path class="cls-4" d="M27 17.87a4.52 4.52 0 0 1-4.68 4.36 4.53 4.53 0 0 1-4.68-4.36 4.53 4.53 0 0 1 4.68-4.36A4.52 4.52 0 0 1 27 17.87zm-7.29 5.6s-3.63-.55-3.7-5c-.01 0-1.01 4.83 3.7 5zM7.21 12.86a36.6 36.6 0 0 1 .93 4.06L7.71 12zm3.92-4.27a36.42 36.42 0 0 1 .92 4.06l-.38-4.51zm-2.07 1.55c.21.21 1.85 10.13 1.85 10.13l-1.35-11zm26.63.03c-.16.21-1.53 10.1-1.53 10.1l1.18-11zM14 39.51c-.15-.18-2-9.83-2-9.83l1.5 9.92z"/><path class="cls-5" d="M6.89 18.84l-.76-4.65 3.21-4.81 13.05-6.27 12.98 6.27L38 13.17l-1.09 6.35"/><path class="cls-6" d="M23.57 32.15a1.25 1.25 0 1 1-1.25-1.25 1.25 1.25 0 0 1 1.25 1.25z"/><path class="cls-5" d="M23.57 32.15a1.25 1.25 0 1 1-1.25-1.25 1.25 1.25 0 0 1 1.25 1.25z"/></g></g></svg>