<svg xmlns="http://www.w3.org/2000/svg" viewBox="0 0 18.02 17.51"><defs><style>.cls-1,.cls-3{stroke:#231f20;stroke-width:1px}.cls-1,.cls-2,.cls-3,.cls-4{fill-rule:evenodd}.cls-1{fill:url(#GradientFill_33)}.cls-2{fill:#fff}.cls-3{fill:#00a651}.cls-4{fill:#231f20}</style><radialGradient id="GradientFill_33" cx="12.56" cy="5.45" r="12.57" gradientUnits="userSpaceOnUse"><stop offset="0" stop-color="#0280b7"/><stop offset="1" stop-color="#2c3f80"/></radialGradient></defs><title>Asset 7</title><g id="Layer_2" data-name="Layer 2"><g id="Layer_1-2" data-name="Layer 1"><path class="cls-1" d="M17.52 8.75A8.26 8.26 0 1 1 9.26.5a8.26 8.26 0 0 1 8.26 8.25z"/><path class="cls-2" d="M5.45 4A4.54 4.54 0 0 1 10 .73S8.14 2.32 8.67 3.47c0 0 2.88.08 3.7 1.93 0 0-3.88-.26-4.8.8a4.24 4.24 0 0 0-.13 3.44s-3.31-1.19-2.6-3.35c0 0-1.37-1.06-4-.09A3.88 3.88 0 0 1 5.45 4z"/><path class="cls-3" d="M5.45 4A4.54 4.54 0 0 1 10 .73S8.14 2.32 8.67 3.47c0 0 2.88.08 3.7 1.93 0 0-3.88-.26-4.8.8a4.24 4.24 0 0 0-.13 3.44s-3.31-1.19-2.6-3.35c0 0-1.37-1.06-4-.09A3.88 3.88 0 0 1 5.45 4z"/><path class="cls-4" d="M7.21 4.54a.68.68 0 0 1-.32.9.7.7 0 0 1-1 0 .7.7 0 0 1 .32-.91.68.68 0 0 1 1 .01z"/></g></g></svg>