<svg xmlns="http://www.w3.org/2000/svg" viewBox="0 0 51.74 45.86"><defs><style>.cls-1,.cls-7{fill:none}.cls-1,.cls-3,.cls-4,.cls-7{stroke:#231f20;stroke-width:1px}.cls-1{stroke-linecap:round}.cls-1,.cls-2,.cls-3,.cls-4,.cls-5,.cls-6,.cls-7{fill-rule:evenodd}.cls-2{fill:#fff}.cls-3{fill:#0095da}.cls-3,.cls-4,.cls-7{stroke-linejoin:round}.cls-4{fill:url(#GradientFill_62)}.cls-5{fill:#231f20}.cls-6{fill:#00aeef}</style><radialGradient id="GradientFill_62" cx="36.02" cy="13.02" r="30.15" gradientUnits="userSpaceOnUse"><stop offset="0" stop-color="#8ed8f8"/><stop offset="1" stop-color="#0095da"/></radialGradient></defs><title>Asset 93</title><g id="Layer_2" data-name="Layer 2"><g id="Layer_1-2" data-name="Layer 1"><path class="cls-1" d="M34.29 35.91s6.56 3.09 7.61 3.85"/><path class="cls-2" d="M34.19 30.63a10.22 10.22 0 0 1-.53 2.94s3 2.55 2.69 3.35-4-.09-6.66-4.25z"/><path class="cls-3" d="M29.69 32.67l4.5-2a10.22 10.22 0 0 1-.53 2.94s3 2.55 2.69 3.35-4.01-.13-6.66-4.29z"/><path class="cls-1" d="M31.51 38.63s7 5.47 6.37 6.73m-1.88-.1a21.92 21.92 0 0 0-1-3.39 6.22 6.22 0 0 1 3.93 1.47"/><path class="cls-2" d="M18.79 24.63c8-8 13.11-9.8 16-9.9-.34-2.23 0-3.45.66-4.06-3-4.48.52-10.17.52-10.17s3.13 5.44 6.53 6.88a7.18 7.18 0 0 1 4.11 4.69 24.91 24.91 0 0 0 4.68 4.33c-.82 0-3.2.23-5.32.48-2.69.43-2.59 3.53-2.59 3.53.09 7.88-5.14 11.23-10.68 12.58a10.28 10.28 0 0 1-1.31 2.68s2.17 3.26 1.68 4-3.84-1.18-5.26-5.9a40.73 40.73 0 0 1-5.92 0c-4.27 5-10.54 10.53-15.9 7.77-1.73-.9-2.32-1.95-2.15-3.06a2.32 2.32 0 0 1-2.93-1.91 3.91 3.91 0 0 1 1.21-4.15A1.8 1.8 0 0 1 .5 30.63c-.16-4.91 18.29-5.99 18.29-6z"/><path class="cls-4" d="M18.79 24.63c8-8 13.11-9.8 16-9.9-.34-2.23 0-3.45.66-4.06-3-4.48.52-10.17.52-10.17s3.13 5.44 6.53 6.88a7.18 7.18 0 0 1 4.11 4.69 24.91 24.91 0 0 0 4.68 4.33c-.82 0-3.2.23-5.32.48-2.69.43-2.59 3.53-2.59 3.53.09 7.88-5.14 11.23-10.68 12.58a10.28 10.28 0 0 1-1.31 2.68s2.17 3.26 1.68 4-3.84-1.18-5.26-5.9a40.73 40.73 0 0 1-5.92 0c-4.27 5-10.54 10.53-15.9 7.77-1.73-.9-2.32-1.95-2.15-3.06a2.32 2.32 0 0 1-2.93-1.91 3.91 3.91 0 0 1 1.21-4.15A1.8 1.8 0 0 1 .5 30.63c-.16-4.91 18.29-6 18.29-6z"/><path class="cls-1" d="M39.15 38.38a14.08 14.08 0 0 0 1.17 2.75"/><path class="cls-5" d="M39.89 20.4S37.46 29.5 23 31c0 0 14.35 1.25 16.89-10.6zm-3.17.21s-2.33.32-3.39-3c0 .04-1.26 3 3.39 3zm-2.33 2.22s-2.88.44-4.19-4.12c0 0-1.57 4.12 4.19 4.12zm-3.7 2.22s-2.6.42-3.79-3.91c0 0-1.42 3.91 3.79 3.91zM18.1 27.91S5.94 30.24 3.93 31.72c0 0 3.07-3.91 14.17-3.81zm1.38 2.33S8.8 34.47 5.83 37.32a33.25 33.25 0 0 1 13.65-7.08zM43.56 12a.89.89 0 0 1 .36.68c0 .56-.6 1-1.34 1s-1.34-.44-1.34-1 .6-1 1.34-1a1.86 1.86 0 0 1 .33 0z"/><path class="cls-6" d="M34.53 8.86C33.26 4.8 35.92.5 35.92.5s2.69 4.67 5.79 6.5c-.92.1-2.09.19-2.13.24-.7.7 1.71 2.27.94 1.88a13.68 13.68 0 0 0-2-1.07c-.45-.13-.27 2.39-.27 2.82 0 .8.23 1-.13.54-1-1.19-.56-2.35-2-3.36-.77-.54-.75-.24-1.34.54z"/><path class="cls-7" d="M18.79 24.63c8-8 13.11-9.8 16-9.9-.34-2.23 0-3.45.66-4.06-3-4.48.52-10.17.52-10.17s3.13 5.44 6.53 6.88a7.18 7.18 0 0 1 4.11 4.69 24.91 24.91 0 0 0 4.68 4.33c-.82 0-3.2.23-5.32.48-2.69.43-2.59 3.53-2.59 3.53.09 7.88-5.14 11.23-10.68 12.58a10.28 10.28 0 0 1-1.31 2.68s2.17 3.26 1.68 4-3.84-1.18-5.26-5.9a40.73 40.73 0 0 1-5.92 0c-4.27 5-10.54 10.53-15.9 7.77-1.73-.9-2.32-1.95-2.15-3.06a2.32 2.32 0 0 1-2.93-1.91 3.91 3.91 0 0 1 1.21-4.15A1.8 1.8 0 0 1 .5 30.63c-.16-4.91 18.29-6 18.29-6z"/></g></g></svg>