<svg xmlns="http://www.w3.org/2000/svg" viewBox="0 0 43.65 31.59"><defs><style>.cls-1{fill:#fff}.cls-1,.cls-2,.cls-3,.cls-4,.cls-5,.cls-6,.cls-7,.cls-8{fill-rule:evenodd}.cls-2{fill:#ffcb05}.cls-2,.cls-3,.cls-4,.cls-7,.cls-8{stroke:#231f20}.cls-2,.cls-4,.cls-7{stroke-linejoin:round}.cls-2,.cls-3,.cls-4,.cls-7{stroke-width:1px}.cls-3{fill:#0095da}.cls-4{fill:url(#GradientFill_62)}.cls-5{fill:#231f20}.cls-6{fill:#8ed8f8}.cls-7,.cls-8{fill:none}.cls-8{stroke-width:.5px}</style><radialGradient id="GradientFill_62" cx="30.35" cy="8.33" r="19.38" gradientUnits="userSpaceOnUse"><stop offset="0" stop-color="#8ed8f8"/><stop offset="1" stop-color="#0095da"/></radialGradient></defs><title>Asset 90</title><g id="Layer_2" data-name="Layer 2"><g id="Layer_1-2" data-name="Layer 1"><path class="cls-1" d="M16.75 24.91s-1 2.12-.68 3c0 0 4-.25 3.47.93s-4.57 0-4.57 0-3.73.68-4.66-.08 3.81-1.27 3.81-1.27l.09-2.29z"/><path class="cls-2" d="M14.21 25.17l2.54-.26s-1 2.12-.68 3c0 0 4-.25 3.47.93s-4.57 0-4.57 0-3.73.68-4.66-.08 3.81-1.27 3.81-1.27z"/><path class="cls-1" d="M11.6 21.54c0 2.77 1.8 5 4 5s4-2.25 4-5-1.8-5-4-5-4 2.23-4 5z"/><path class="cls-3" d="M11.6 21.54c0 2.77 1.8 5 4 5s4-2.25 4-5-1.8-5-4-5-4 2.23-4 5z"/><path class="cls-1" d="M20.65 25.68s-.85 2.45-.51 3.3c0 0 4.06.59 3.55 1.78s-4.82-1.19-4.82-1.19-3.82 1.7-4.75.94 3.9-2 3.9-2l.08-2.54z"/><path class="cls-2" d="M18.1 25.93l2.55-.25s-.85 2.45-.51 3.3c0 0 4.06.59 3.55 1.78s-4.82-1.19-4.82-1.19-3.82 1.7-4.75.94 3.9-2 3.9-2z"/><path class="cls-4" d="M2.86 7.14a6.9 6.9 0 0 1 13.79.27 19.93 19.93 0 0 1 5.65-.8 18 18 0 0 1 9.93 2.75A33.47 33.47 0 0 1 40.28 1c2.29-1.57.89.92-1.41 4.21A24.42 24.42 0 0 1 42 3.47c3.8-1.79-2.57 5.33-7 8.59-2.09 5.74-4 9.55-10.9 12.81A5 5 0 0 1 20 27.5a4.47 4.47 0 0 1-4.51-2.59C4.49 21.35 3.87 13.56 3.12 9.44 1.78 9.29.4 9 .51 8.62S1.78 7.6 2.86 7.14z"/><path class="cls-5" d="M12 12.54s3.65 8.9 17.2.85c0 0-13.47 9.75-17.2-.85z"/><path class="cls-5" d="M29.37 10.09a13.54 13.54 0 0 1-11.78 4.57s6.95 2.46 11.78-4.57zM9 21.27s-2.11-4.66-1.1-7.62c0 0-1.35 2.37.17 7.2z"/><path class="cls-6" d="M8.12 20.79a15 15 0 0 1-4.23-7.44l.11-.18 1.57.05 1.66-.64.88-1.08-.68 3.93zM3.31 5a6.9 6.9 0 0 1 10.56-3l-3.3 2.7-2.05.72-2.35-.87z"/><path class="cls-7" d="M2.86 7.14a6.9 6.9 0 0 1 13.79.27 19.93 19.93 0 0 1 5.65-.8 18 18 0 0 1 9.93 2.75A33.47 33.47 0 0 1 40.28 1c2.29-1.57.89.92-1.41 4.21A24.42 24.42 0 0 1 42 3.47c3.8-1.79-2.57 5.33-7 8.59-2.09 5.74-4 9.55-10.9 12.81A5 5 0 0 1 20 27.5a4.47 4.47 0 0 1-4.51-2.59C4.49 21.35 3.87 13.56 3.12 9.44 1.78 9.29.4 9 .51 8.62S1.78 7.6 2.86 7.14z"/><path class="cls-5" d="M3.78 12.71A3.88 3.88 0 0 0 8 11.53a3.22 3.22 0 0 1-3.9 2z"/><path class="cls-1" d="M4.77 6.66A1.27 1.27 0 0 0 6 8a1.26 1.26 0 0 0 1.19-1.34A1.26 1.26 0 0 0 6 5.35a1.27 1.27 0 0 0-1.23 1.31z"/><path class="cls-8" d="M4.77 6.66A1.27 1.27 0 0 0 6 8a1.26 1.26 0 0 0 1.19-1.34A1.26 1.26 0 0 0 6 5.35a1.27 1.27 0 0 0-1.23 1.31z"/><path class="cls-5" d="M5.63 6.29a1.09 1.09 0 0 1 .66.83 1.22 1.22 0 0 0-.19-1.06h.13a1 1 0 1 1-.92 1 1 1 0 0 1 .32-.77zM4 5a5.05 5.05 0 0 1 5 0 10.9 10.9 0 0 0 4.25-2.86 6.71 6.71 0 0 1-5.43 3.5S7.43 4.12 4 5z"/></g></g></svg>