<svg xmlns="http://www.w3.org/2000/svg" viewBox="0 0 44.53 44.01"><defs><style>.cls-1{fill:#fffcd5}.cls-1,.cls-2,.cls-3{fill-rule:evenodd}.cls-2{fill:#231f20}.cls-3{fill:#a54686;stroke:#231f20;stroke-linejoin:round;stroke-width:1px}</style></defs><title>Asset 38</title><g id="Layer_2" data-name="Layer 2"><g id="Layer_1-2" data-name="Layer 1"><path class="cls-1" d="M.8 25a46.88 46.88 0 0 1 7.8-12L19.38.5a89.87 89.87 0 0 1 13.2 4.28c8.55 3.35 8.55 2.79 8.55 2.79s-1.86 2.23-.56 3.71a7.18 7.18 0 0 1 1.08 3s3.75 1 1.33 3.84c0 0-14.72 24.15-16.74 25.27S4 37.3 1.73 34.33c0 0-2.04-5.95-.93-9.33z"/><path class="cls-2" d="M40.07 13.26s-3.36 7.44-15.94 25c0 0-17.12-5.87-17.75-6.95 0 0 13.37 5.1 17.24 5.91a270.89 270.89 0 0 0 16.45-23.96z"/><path class="cls-2" d="M6.56 29.12C19 33 19 32.93 22.76 34.56c0 0-9.5-1.56-16.2-5.44zm-.46-6.39L19.91 4A93.11 93.11 0 0 1 6.1 22.73z"/><path class="cls-3" d="M41.65 14.32l-2.25-3.81c2.06.62 2.25 3.81 2.25 3.81 3.18 1.11 2.25 2.32 2.25 2.32S28.26 42.39 26.24 43.42s-23.89-8-24.51-9.09A16.55 16.55 0 0 1 .8 25C1.63 21.39 17.62.76 19.38.51s21.75 7.06 21.75 7.06-12.57 20-16.45 25.15c0 0-19.95-8.56-21.28-6.57 0 0-.41 5.73.93 6.87 0 0 18.5 8.07 20.82 7.63 0 0 15.32-22.39 16.5-26.33z"/></g></g></svg>