<svg xmlns="http://www.w3.org/2000/svg" viewBox="0 0 51.33 46.27"><defs><style>.cls-1{fill:#81806f}.cls-1,.cls-3,.cls-5{stroke:#231f20;stroke-width:1px}.cls-1,.cls-2,.cls-3,.cls-4,.cls-5{fill-rule:evenodd}.cls-2{fill:#fff}.cls-3{fill:url(#GradientFill_38)}.cls-4{fill:#231f20}.cls-5{fill:#58574b}</style><radialGradient id="GradientFill_38" cx="35.73" cy="14.08" r="33.39" gradientUnits="userSpaceOnUse"><stop offset="0" stop-color="#c5bca1"/><stop offset="1" stop-color="#a9a791"/></radialGradient></defs><title>Asset 56</title><g id="Layer_2" data-name="Layer 2"><g id="Layer_1-2" data-name="Layer 1"><path class="cls-1" d="M17.56 20.82l5.91-2.73-1.35-13S11.14 7 17.56 20.82z"/><path class="cls-2" d="M26.72 42.73C16 48.17 2.06 45.49.84 41.09c0 0-4.11-17.11 16.49-17.7 0 0-1.08-2.62 2.56-4.32 0 0-8-11 6.74-16.1S39.94.19 44.22 15.34c0 0 7.74 2.85 6.46 12.46 0 0-1.91 7.42-13.14 9l-1.71-3.46a20.62 20.62 0 0 1-9.11 9.39z"/><path class="cls-3" d="M26.72 42.73C16 48.17 2.06 45.49.84 41.09c0 0-4.11-17.11 16.49-17.7 0 0-1.08-2.62 2.56-4.32 0 0-8-11 6.74-16.1S39.94.19 44.22 15.34c0 0 7.74 2.85 6.46 12.46 0 0-1.91 7.42-13.14 9l-1.71-3.46a20.62 20.62 0 0 1-9.11 9.39z"/><path class="cls-1" d="M26.72 42.73C16 48.17 2.06 45.49.84 41.09a14.43 14.43 0 0 1-.31-2.39h.29s16.54 9.82 34.86-5.87l.91 2-.76-1.54a20.62 20.62 0 0 1-9.11 9.44z"/><path class="cls-1" d="M50.34 22.22a13.26 13.26 0 0 1 .34 5.58s-1.91 7.42-13.14 9l-1.61-3.25-.13-.55C45 31.94 50 22.93 50.34 22.22z"/><path class="cls-4" d="M28.2 10.17a2.2 2.2 0 0 1-2.09 2.27A2.2 2.2 0 0 1 24.24 10a2.2 2.2 0 0 1 2.09-2.27 2.21 2.21 0 0 1 1.87 2.44zm-.97 7.27a2.3 2.3 0 0 1-2.54 2 2.3 2.3 0 0 1-1.3-2.94 2.3 2.3 0 0 1 2.54-2 2.31 2.31 0 0 1 1.3 2.94zM24.21 24c-.6 1.1-1.73 1.64-2.53 1.2a2 2 0 0 1-.38-2.78 2 2 0 0 1 2.54-1.2 2 2 0 0 1 .37 2.78zm-4.75 3.1a1.8 1.8 0 0 1-1.93 1.61 1.8 1.8 0 0 1-2-1.47 1.81 1.81 0 0 1 1.92-1.62 1.81 1.81 0 0 1 2.01 1.48z"/><path class="cls-5" d="M37.74 11.74a3.37 3.37 0 1 1-2.39-4.24 3.45 3.45 0 0 1 2.39 4.24z"/></g></g></svg>