<svg xmlns="http://www.w3.org/2000/svg" viewBox="0 0 48.87 35.82"><defs><style>.cls-1,.cls-3,.cls-4,.cls-6{stroke:#231f20;stroke-width:1px}.cls-1,.cls-2,.cls-3,.cls-4,.cls-5,.cls-6{fill-rule:evenodd}.cls-1{fill:url(#GradientFill_43)}.cls-2{fill:#231f20}.cls-3{fill:none}.cls-4{stroke-linecap:round;stroke-linejoin:round;fill:url(#GradientFill_44)}.cls-5{fill:#fff}.cls-6{fill:#ed1651}</style><radialGradient id="GradientFill_43" cx="34.01" cy="10.95" r="24.73" gradientUnits="userSpaceOnUse"><stop offset="0" stop-color="#c3888c"/><stop offset="1" stop-color="#a47275"/></radialGradient><radialGradient id="GradientFill_44" cx="21.89" cy="12.66" r="21.77" gradientUnits="userSpaceOnUse"><stop offset="0" stop-color="#f5d0c6"/><stop offset="1" stop-color="#f9aa8f"/></radialGradient></defs><title>Asset 59</title><g id="Layer_2" data-name="Layer 2"><g id="Layer_1-2" data-name="Layer 1"><path class="cls-1" d="M19.82 5.92c1.85-2.63 5.65-4.31 7.9.2a39.47 39.47 0 0 1 13-5.53c4.94-1 9.09 6.51 7.11 12-1.21 3.4-6.71 5.73-13.42 9.09S18.1 40.14 3.63 33.76c-6.71-3-1.77-12.24 6.72-15.2l7.9-6.91a10.4 10.4 0 0 1 1.57-5.73z"/><path class="cls-2" d="M29.1 11.94a59.47 59.47 0 0 0-3.35-7.39l2.76 1.6 1 2s7.51-6 11.85-5c4.13 1-12.26 8.79-12.26 8.79zm7.13 8.45l1.49 2.51-3.75-.39 2.26-2.12z"/><path class="cls-2" d="M37.47 20.48l.19 2.37S49.47 18.5 48.5 11.79c0 0-4.26 6.51-11.03 8.69z"/><path class="cls-3" d="M6.59 34.55S4.42 23.89 31.87 10.07"/><path class="cls-4" d="M17.45 13C-.71 27.05 3.63 33.76 3.63 33.76a6 6 0 0 0 2.82 1c5.37-12.25 12.66-15.7 23.45-23.67.23-5.26-5.81-10.9-9.91-6-1.81 2.14-1.32 4-1.59 6.65-.31.42-.63.85-.95 1.26z"/><path class="cls-2" d="M21.6 20.73a1.4 1.4 0 0 1-2.76 0 1.4 1.4 0 0 1 2.76 0zM24.76 18A1.4 1.4 0 0 1 22 18a1.4 1.4 0 0 1 2.76 0zm3.75-2.41a1.4 1.4 0 0 1-2.76 0 1.4 1.4 0 0 1 2.76 0z"/><path class="cls-5" d="M19.55 21.47c-2.88-2.63-7.22-2.93-8.67-2.92a3.92 3.92 0 0 0-.46 0 1 1 0 0 1-1.07-.93 1 1 0 0 1 .92-1.07h.61c1.66 0 6.42.24 10 3.44A1 1 0 0 1 21 21.4a1 1 0 0 1-.74.33 1 1 0 0 1-.67-.26z"/><path class="cls-6" d="M19.55 21.47c-2.88-2.63-7.22-2.93-8.67-2.92a3.92 3.92 0 0 0-.46 0 1 1 0 0 1-1.07-.93 1 1 0 0 1 .92-1.07h.61c1.66 0 6.42.24 10 3.44A1 1 0 0 1 21 21.4a1 1 0 0 1-.74.33 1 1 0 0 1-.67-.26z"/><path class="cls-5" d="M22.31 18.31c-2.88-2.63-7.22-2.93-8.66-2.92a3.71 3.71 0 0 0-.46 0 1 1 0 0 1-1.08-.93 1 1 0 0 1 .89-1.05h.61c1.65 0 6.42.24 10 3.44a1 1 0 0 1 .08 1.41 1 1 0 0 1-.75.33 1 1 0 0 1-.67-.26z"/><path class="cls-6" d="M22.31 18.31c-2.88-2.63-7.22-2.93-8.66-2.92a3.71 3.71 0 0 0-.46 0 1 1 0 0 1-1.08-.93 1 1 0 0 1 .89-1.05h.61c1.65 0 6.42.24 10 3.44a1 1 0 0 1 .08 1.41 1 1 0 0 1-.75.33 1 1 0 0 1-.67-.26z"/><path class="cls-5" d="M25.87 16.14c-2.88-2.63-7.22-2.93-8.67-2.92h-.46a1 1 0 0 1-1.07-.92 1 1 0 0 1 .92-1.07h.61c1.66 0 6.42.24 10 3.43a1 1 0 0 1 .07 1.41 1 1 0 0 1-.74.33 1 1 0 0 1-.67-.25z"/><path class="cls-6" d="M25.87 16.14c-2.88-2.63-7.22-2.93-8.67-2.92h-.46a1 1 0 0 1-1.07-.92 1 1 0 0 1 .92-1.07h.61c1.66 0 6.42.24 10 3.43a1 1 0 0 1 .07 1.41 1 1 0 0 1-.74.33 1 1 0 0 1-.67-.25z"/><path class="cls-2" d="M40.33.45S49 1.78 41 9.32c0 0 10.43-6.99-.67-8.87zM21.21 4.73s0 1.78.19 3.56a4.19 4.19 0 0 0 3.45.58 8.21 8.21 0 0 1 .9-4.33 8.54 8.54 0 0 0 0 5.4 13.81 13.81 0 0 1-5.36-1.26s-.76-1.38.82-3.95z"/></g></g></svg>