<svg xmlns="http://www.w3.org/2000/svg" viewBox="0 0 64.42 61.18"><defs><style>.cls-1,.cls-2,.cls-3,.cls-4,.cls-5{stroke:#231f20;stroke-width:1px}.cls-1,.cls-2,.cls-3,.cls-4,.cls-5,.cls-6{fill-rule:evenodd}.cls-1{fill:url(#GradientFill_10)}.cls-2{fill:none;stroke-linecap:round}.cls-3{fill:#fff9ae}.cls-4{fill:#f6adcd;stroke-linejoin:round}.cls-5{fill:#9e76b4}.cls-6{fill:#231f20}</style><radialGradient id="GradientFill_10" cx="44.9" cy="18.58" r="45.02" gradientUnits="userSpaceOnUse"><stop offset="0" stop-color="#daa6c3"/><stop offset="1" stop-color="#c77eb5"/></radialGradient></defs><title>Asset 104</title><g id="Layer_2" data-name="Layer 2"><g id="Layer_1-2" data-name="Layer 1"><path class="cls-1" d="M38.76 39.74l-5.07-9.45S6.66 24.16.51 31c.16 4.73 8.13 7.28 8.13 7.28s1.79 6.1 10.52 8.83c.73 11.19 17.89 22.27 19.21 3.57 0 0 3-4 .39-10.89zM41.11 38l-5.6-9.14S43.84 2.42 52.8.53c4 2.53 2.19 10.7 2.19 10.7s4.37 4.61 2.32 13.54c9.3 6.26 10.22 26.66-6.59 18.39 0 0-4.93.56-9.61-5.16z"/><path class="cls-2" d="M23.23 23s6.55 4.26 9.26 4.34c0 0 2.23-.17 1.39-8.86"/><path class="cls-3" d="M24.64 23a1.27 1.27 0 1 1-1.47-1 1.27 1.27 0 0 1 1.47 1zM35 17.81a1.27 1.27 0 1 1-1.47-1 1.28 1.28 0 0 1 1.47 1z"/><path class="cls-4" d="M40.08 35.74l-3.26-4.83s6.24-16.72 9.88-16.44-7.06 14.94-7.06 14.94 13.24-8 14.75-5.23S41 31.48 41 31.48s16 .34 16 3.79-16.92.47-16.92.47z"/><path class="cls-5" d="M52.34 4.73c.7.5.23 2.33-1 4.08s-2.86 2.78-3.55 2.28-.23-2.33 1-4.09 2.86-2.77 3.55-2.27zm2.24 11.94c.52.68-.46 2.29-2.19 3.6s-3.54 1.82-4 1.14.45-2.29 2.18-3.6 3.49-1.81 4.01-1.14zM61.08 40c.18 1.1-1 2.22-2.65 2.51s-3.15-.41-3.34-1.51 1-2.23 2.65-2.51 3.15.38 3.34 1.51z"/><path class="cls-4" d="M37.33 37.71l-2.52-5.25s-17.59-3-19.19.24 16.46 1.43 16.46 1.43-13.62 7.39-11.95 10.11 13.05-7.87 13.05-7.87-7.76 14-4.82 15.77 8.97-14.43 8.97-14.43z"/><path class="cls-5" d="M4.36 32.67c.09.85 1.9 1.37 4.05 1.16s3.84-1.06 3.76-1.92-1.9-1.37-4.05-1.16-3.84 1.07-3.76 1.92zm9.19 7.95c.33.79 2.21.75 4.21-.07s3.36-2.14 3-2.93-2.21-.76-4.21.07-3.33 2.13-3 2.93z"/><path class="cls-3" d="M36.34 29.79a2.82 2.82 0 0 0 .27-1.79 3 3 0 1 0-3.26 3.41c2.18 4.2 8.58 15.94 11.75 16.15s-5.36-12.73-8.76-17.77z"/><path class="cls-6" d="M35.83 34.55a2.65 2.65 0 0 0 2-1.35 1.57 1.57 0 0 1-2 1.35zm1.23 2.16a2.67 2.67 0 0 0 2-1.35s-.13 1.55-2 1.35zm1.23 2.16a2.67 2.67 0 0 0 2-1.35s-.13 1.55-2 1.35zm1.46 2.23a2.67 2.67 0 0 0 2-1.35s-.13 1.55-2 1.35zm1.48 2.33a2.63 2.63 0 0 0 2-1.35s-.13 1.55-2 1.35z"/><path class="cls-5" d="M30.4 58c.85.72 2.42.26 3.5-1s1.26-2.91.4-3.63-2.42-.25-3.5 1-1.26 2.89-.4 3.63z"/></g></g></svg>