<svg xmlns="http://www.w3.org/2000/svg" viewBox="0 0 33.99 26.86"><defs><style>.cls-1{fill:#fff}.cls-1,.cls-2,.cls-3,.cls-4{fill-rule:evenodd}.cls-2,.cls-3{stroke:#231f20}.cls-2{stroke-width:1px;fill:url(#GradientFill_73)}.cls-3{fill:none;stroke-linecap:round;stroke-width:.5px}.cls-4{fill:#231f20}</style><radialGradient id="GradientFill_73" cx="23.27" cy="8.26" r="18.79" gradientUnits="userSpaceOnUse"><stop offset="0" stop-color="#8ed8f8"/><stop offset="1" stop-color="#00aeef"/></radialGradient></defs><title>Asset 20</title><g id="Layer_2" data-name="Layer 2"><g id="Layer_1-2" data-name="Layer 1"><path class="cls-1" d="M32.88 17.05c1.38-3 0-7.7 0-7.7a6.85 6.85 0 0 1-6 2.06C34.79.26 20.23-3.31 12.66 5.26c-2.56 2.89-6 7-8.44 8-7.32 3.13-1.58 3.75-1.58 3.75 8.1 11.07 25.47 11.42 27.44 5.49 1.2-3.58-.43-5.28-3.47-7.35 3.46-.67 6.27 1.9 6.27 1.9z"/><path class="cls-2" d="M32.88 17.05c1.38-3 0-7.7 0-7.7a6.85 6.85 0 0 1-6 2.06C34.79.26 20.23-3.31 12.66 5.26c-2.56 2.89-6 7-8.44 8-7.32 3.13-1.58 3.75-1.58 3.75 8.1 11.07 25.47 11.42 27.44 5.49 1.2-3.58-.43-5.28-3.47-7.35 3.46-.67 6.27 1.9 6.27 1.9z"/><path class="cls-1" d="M10.31 16.12s-2.07-.25-1.08-2.42 2.38-1.83 3.15.42-2.07 2-2.07 2z"/><path class="cls-3" d="M10.31 16.12s-2.07-.25-1.08-2.42 2.38-1.83 3.15.42-2.07 2-2.07 2z"/><path class="cls-4" d="M10.22 13.48a1.74 1.74 0 0 0-.32 1A1.37 1.37 0 0 0 11.11 16a1.37 1.37 0 0 0 1.19-1.49A1.37 1.37 0 0 0 11.11 13a1 1 0 0 0-.35.07zM25.09.9a13.58 13.58 0 0 0-10.16 4.65s1.83-3.49 7.64-5z"/><path class="cls-4" d="M27.59 2.09S22.77.86 17.77 5.44c0 0 2.24-3.38 7.66-4.13z"/><path class="cls-4" d="M29 4s-3.73-1.94-9 1.9a13.5 13.5 0 0 1 8.28-3.18zm.25 2.84s-2.25-2.71-8.76.07c0 0 4.66-2.52 8.72-1.52zm-6.87.93a6.11 6.11 0 0 1 5.51 1.16l-.38.78s-1.07-2.03-5.13-1.94zm2.42 18.41a8.8 8.8 0 0 1-6.39-4s1 2.58 4.69 4.08zm3.53-1a12.84 12.84 0 0 1-8.86-3.77s1.9 2.81 6.83 4.08zm1.82-2.27s-3.93 1.52-8.79-2.86a13.5 13.5 0 0 0 7.89 4.05zm.5-2.79s-2.56 2.46-8.7-1c0 0 4.37 3 8.51 2.44zm-6.74-1.66a6.1 6.1 0 0 0 5.61-.57l-.3-.81S28 19 23.91 18.46zm7.47-7.59a6.06 6.06 0 0 1 0 3.58s0-2.61-.58-3.39zM15 9.89s5.51 4.26.87 9.49c-.01 0 6.47-4.84-.87-9.49z"/><path class="cls-4" d="M15.48 19.74s3.56 1.53 1.18 3.05-3.89-1.19-3.73-2.54c0 0 .28 5.64 4.07 3.22 2.43-1.47 1.62-3.3-1.52-3.73z"/></g></g></svg>