<svg xmlns="http://www.w3.org/2000/svg" viewBox="0 0 72.34 36.49"><defs><style>.cls-1{fill:#808285}.cls-1,.cls-4,.cls-5{stroke:#231f20;stroke-width:1px}.cls-1,.cls-2,.cls-3,.cls-4,.cls-5{fill-rule:evenodd}.cls-2{fill:#231f20}.cls-3,.cls-5{fill:#fff}.cls-4,.cls-5{stroke-linejoin:round}.cls-4{fill:url(#GradientFill_7)}</style><radialGradient id="GradientFill_7" cx="49.63" cy="9.57" r="22.7" gradientUnits="userSpaceOnUse"><stop offset="0" stop-color="#ed1c24"/><stop offset="1" stop-color="#ba131a"/></radialGradient></defs><title>Asset 42</title><g id="Layer_2" data-name="Layer 2"><g id="Layer_1-2" data-name="Layer 1"><path class="cls-1" d="M24.91 28.51A7.42 7.42 0 1 1 17.5 21a7.45 7.45 0 0 1 7.41 7.51z"/><path class="cls-2" d="M19.28 28.51a1.78 1.78 0 1 1-1.78-1.78 1.78 1.78 0 0 1 1.78 1.78z"/><path class="cls-1" d="M61.87 27.94a7.41 7.41 0 1 1-7.41-7.48 7.45 7.45 0 0 1 7.41 7.48z"/><path class="cls-2" d="M56.24 27.94a1.78 1.78 0 1 1-1.78-1.78 1.78 1.78 0 0 1 1.78 1.78z"/><path class="cls-3" d="M2.46 28.51S-.49 10.39 23.29 10c0 0 2.87-6.11 6.41-7.88s29-5.61 31.48 11.72c0 0 9.3 3.19 8.69 13.54 0 0-5 3.72-7.52 1.6-.37-4.07-8-12-14.66-2.09-4.56 6.77-7.37 2.51-7.37 2.51l-10.61-.35s-2.48 2.12-4.25 1.41c-.82-3.45-3-8.75-8.58-8.13C8 23.34 12 32.45 2.46 28.51z"/><path class="cls-4" d="M2.46 28.51S-.49 10.39 23.29 10c0 0 2.87-6.11 6.41-7.88s29-5.61 31.48 11.72c0 0 9.3 3.19 8.69 13.54 0 0-5 3.72-7.52 1.6-.37-4.07-8-12-14.66-2.09-4.56 6.77-7.37 2.51-7.37 2.51l-10.61-.35s-2.48 2.12-4.25 1.41c-.82-3.45-3-8.75-8.58-8.13C8 23.34 12 32.45 2.46 28.51z"/><path class="cls-2" d="M41.64 22.19s5.3-9.55 17.68-7.43c0 0-12.02-5.3-17.68 7.43z"/><path class="cls-5" d="M10.23 26.29s-6.88-.37-8.15-1.73-2.54 2.59-.53 4a6.39 6.39 0 0 0 8.68-2.27zm51.88 1.48S69 27.4 70.26 26s2.54 2.59.53 3.94a6.37 6.37 0 0 1-8.68-2.17z"/><path class="cls-2" d="M9.61 19.39s11-9.24 19.1 3.69c0 0-5.79-15.28-19.1-3.69z"/><path class="cls-3" d="M27.23 10.64s3.21-5.3 5.3-6a19.31 19.31 0 0 1 5.67-.37s1.48 5.18.37 6.53a37.37 37.37 0 0 1-11.34-.16zm15.41 0A62.7 62.7 0 0 0 42 4s9.73-.24 13.55 6c.15.76-12.91.64-12.91.64z"/></g></g></svg>