<svg xmlns="http://www.w3.org/2000/svg" viewBox="0 0 43.01 49.18"><defs><style>.cls-1{fill:#fff}.cls-1,.cls-2,.cls-3,.cls-4{fill-rule:evenodd}.cls-2,.cls-3{fill:#00a651;stroke:#231f20;stroke-width:1px}.cls-3{fill:url(#GradientFill_30)}.cls-4{fill:#231f20}</style><radialGradient id="GradientFill_30" cx="32.26" cy="18.7" r="28.67" gradientUnits="userSpaceOnUse"><stop offset="0" stop-color="#faa74a"/><stop offset="1" stop-color="#f58220"/></radialGradient></defs><title>Asset 10</title><g id="Layer_2" data-name="Layer 2"><g id="Layer_1-2" data-name="Layer 1"><path class="cls-1" d="M12.67 11.62S9.07 7.85.83 10.88c0 0 1.49-4.79 8.37-3.38-.89-2.31-4.78-5-7.81-5.21S3.34-3.34 12 5.76c0 0 0-4.33 2-4.33s-1.74 5 2.17 9.54z"/><path class="cls-2" d="M16.14 11l-3.47.65s-3.6-3.8-11.84-.77c0 0 1.49-4.79 8.37-3.38-.89-2.31-4.78-5-7.81-5.21S3.34-3.34 12 5.76c0 0 0-4.33 2-4.33S12.23 6.41 16.14 11z"/><path class="cls-1" d="M15.34 24.2s-6.62-3.72-7-7.63C7.5 6.77 23.4.89 26 14.18c0 0 5.23 2.61 6.75 10.67 0 0 4.57 5.66 5 10.89 0 0 5.77 11.64 4.57 12.85-.87.87-10-4.36-11.54-7.84 0 0-6.53-3.49-6.75-7.62.02 0-8.03-3.27-8.69-8.93z"/><path class="cls-3" d="M15.34 24.2s-6.62-3.72-7-7.63C7.5 6.77 23.4.89 26 14.18c0 0 5.23 2.61 6.75 10.67 0 0 4.57 5.66 5 10.89 0 0 5.77 11.64 4.57 12.85-.87.87-10-4.36-11.54-7.84 0 0-6.53-3.49-6.75-7.62.02 0-8.03-3.27-8.69-8.93z"/><path class="cls-4" d="M15.56 21.36s.87-7 8.71-6.75c0 0-8.69-1.54-8.71 6.75zM24.27 31s1.3-5.88 7-5.45c-.03-.05-6.7-2.19-7 5.45zm11.97 5.39s-3.92.22-4.35 3.27c0 0 .04-4.36 4.35-3.27z"/></g></g></svg>