<svg xmlns="http://www.w3.org/2000/svg" xmlns:xlink="http://www.w3.org/1999/xlink" viewBox="0 0 42.07 52.15"><defs><style>.cls-1,.cls-10,.cls-13,.cls-14,.cls-15,.cls-16,.cls-3,.cls-4,.cls-5,.cls-7{stroke:#231f20}.cls-1,.cls-10,.cls-13,.cls-14,.cls-15,.cls-16,.cls-3,.cls-4{stroke-linecap:round;stroke-linejoin:round}.cls-1,.cls-14{stroke-width:.95px}.cls-1{fill:url(#GradientFill_1)}.cls-2,.cls-7,.cls-8{fill:#fff}.cls-10,.cls-13,.cls-14,.cls-15,.cls-16,.cls-3{fill:none}.cls-10,.cls-12,.cls-13,.cls-16,.cls-4,.cls-5,.cls-6,.cls-7,.cls-8,.cls-9{fill-rule:evenodd}.cls-4{fill:url(#GradientFill_1-2)}.cls-5{fill:#ffe6cb}.cls-5,.cls-7{stroke-miterlimit:2.61}.cls-6{fill:url(#GradientFill_116)}.cls-10,.cls-7{stroke-width:.47px}.cls-11,.cls-9{fill:#231f20}.cls-12{fill:#f58220}.cls-13{stroke-width:.75px}.cls-15{stroke-width:1px}</style><radialGradient id="GradientFill_1" cx="8.66" cy="17.78" r="14.24" gradientUnits="userSpaceOnUse"><stop offset="0" stop-color="#f4bd7c"/><stop offset="1" stop-color="#f4a95b"/></radialGradient><radialGradient id="GradientFill_1-2" cx="33.61" cy="40.84" r="4.01" xlink:href="#GradientFill_1"/><radialGradient id="GradientFill_116" cx="31.18" cy="15.85" r="15.91" gradientUnits="userSpaceOnUse"><stop offset="0" stop-color="#f4bd7c"/><stop offset=".52" stop-color="#f4a95b"/><stop offset="1" stop-color="#f58220"/></radialGradient></defs><title>Asset 83</title><g id="Layer_2" data-name="Layer 2"><g id="Layer_1-2" data-name="Layer 1"><path class="cls-1" d="M11.56 34.2a.8.8 0 0 1 .58 1 .81.81 0 0 1-1 .58c-5-1.3-5.85-4.05-4.87-7.84A43.54 43.54 0 0 1 8.9 21.3l.54-1.19c1.43-4.3 1.46-6.87.22-7.9s-4-.64-8 1A.8.8 0 1 1 1 11.77c4.63-1.93 7.9-2.26 9.68-.77s1.94 4.63.28 9.64v.13L10.37 22a43.93 43.93 0 0 0-2.53 6.3c-.73 2.84-.12 4.91 3.72 5.9z"/><path class="cls-2" d="M4.14 12.31c-.78.25-1.62.56-2.53.94A.8.8 0 1 1 1 11.77c.67-.28 1.31-.53 1.93-.74a4.33 4.33 0 0 1 1.21 1.28z"/><path class="cls-3" d="M11.56 34.2a.8.8 0 0 1 .58 1 .81.81 0 0 1-1 .58c-5-1.3-5.85-4.05-4.87-7.84A43.54 43.54 0 0 1 8.9 21.3l.54-1.19c1.43-4.3 1.46-6.87.22-7.9s-4-.64-8 1A.8.8 0 1 1 1 11.77c4.63-1.93 7.9-2.26 9.68-.77s1.94 4.63.28 9.64v.13L10.37 22a42.8 42.8 0 0 0-2.53 6.3c-.73 2.84-.12 4.91 3.72 5.9z"/><path class="cls-4" d="M26 44.22l8.2.55c1.74 0 3.51-1.75 2.23-3.42-1.69-2.19-4.6-2.49-7.41-1.75a4.41 4.41 0 0 0-2.94 2c-.3.4-.5 2.4-.08 2.62z"/><path class="cls-5" d="M21.87 45.32q3.3-.06 5.81-3.37l3.16-6.73-5.61-4.39-10.61 5.41z"/><path class="cls-6" d="M22.07 7.86A17.44 17.44 0 0 1 18 3.76c-.88-1.17.07-1.24 1-1.24 2.69 0 4 .85 6.77 2.07A6.48 6.48 0 0 1 28 3.52c0-.16 1.62-2.53 2.26-2.46.18-.19-1 2-.64 2.16.19 0 .54.14.57-.05S32 .22 32.55.52c-.26 0-1.48 2.68-.66 2.71A5.6 5.6 0 0 1 35 4.39c1.62-1.92 2.4-2.16 5-2.23 1.47 0 2-.23 1.07 1.39a11.87 11.87 0 0 1-3.27 4.31c2.6 4 .74 7.1-4.15 9.51-.1 1.88-.5 3.45-.6 5.33 4.68 9.37 2.53 11.89-.75 21.94 1.47 1.26 2.93 1.57 2.43 3.66-1.09 4.52-6.37.66-6.67-3-.27-3.33.26-5.44.45-8.89-2.15 2.78-3.83 2.82-6.77.16.4 3.14.29 6.06.59 8.85.2 1.87-.79 3-1.64 4.1-1.17 1.5-3.57 2.52-4.92 2-2.83-1.17.65-5 1.55-6.22-.3-1-.76-3.11-1.06-4.1-.05.45-2.61.22 0 2.34.55.45 0 1.37 0 1.72-.12 2.23-2.58 1.54-4.2 1-6.54-2-5.63-9.28-3.36-14.8 2.3-5.69 8.74-9.17 14.3-10.87 1.64-.51 2-2.35 2.61-3.88-4.07-2.56-4.33-4.13-3.54-8.85z"/><path class="cls-7" d="M27.78 10.23a1.53 1.53 0 1 0-1.53-1.53 1.54 1.54 0 0 0 1.53 1.53z"/><path class="cls-8" d="M27.94 18.29a2.62 2.62 0 0 0 1.11-1.2s.49-1.42.56-.93a3.56 3.56 0 0 1-.09 1.39c-.16.41 1-.32 1.11-.56a10.75 10.75 0 0 1 .83-.92c.46-.56.14.26.1.65a5.73 5.73 0 0 1-1 1.76c-.33.47-1.43.74 0 .74.69 0 1.12-.47.64 0A4.5 4.5 0 0 1 30 20c-.23.12-.29.27-.56.37-1 .39 1.26.61 1 .75a1.25 1.25 0 0 1-1.48.09c-.33-.21-.92-.27-1.11-.47s1.14-1.05.18-.92c-.64.08 0-.5 0-.56.17-.26-.18-.67-.09-.97z"/><path class="cls-7" d="M33.14 10.23a1.53 1.53 0 1 0-1.53-1.53 1.54 1.54 0 0 0 1.53 1.53z"/><path class="cls-9" d="M27.78 9.61a.92.92 0 1 0-.92-.91.92.92 0 0 0 .92.91z"/><path class="cls-8" d="M28.16 8.78a.46.46 0 0 0 .46-.46.47.47 0 0 0-.46-.46.46.46 0 0 0-.46.46.45.45 0 0 0 .46.46z"/><path class="cls-9" d="M33.14 9.61a.92.92 0 1 0-.92-.91.91.91 0 0 0 .92.91z"/><path class="cls-8" d="M33.44 8.78a.46.46 0 0 0 .47-.46.47.47 0 0 0-.93 0 .46.46 0 0 0 .46.46z"/><path class="cls-10" d="M26.93 11.59a18 18 0 0 0-8.54 1m14.82-1a18.07 18.07 0 0 1 8.55 1"/><path class="cls-11" d="M27.13 12.21v-.38zm-8.06 2.73l-.21-.32.25-.16.25-.15.25-.15.25-.14.25-.14.25-.13.25-.13.26-.12.25-.12.25-.11.26-.11.25-.1.26-.1.26-.09.25-.09.26-.09.26-.08.26-.08.26-.07.26-.07.26-.07.26-.06.26-.06.26-.06.26-.05h.26l.27-.05L26 12h1.05v.38H25.5l-.26.05h-.25l-.26.05-.26.06-.25.06-.26.07-.25.06-.26.08-.25.07-.25.08-.25.09-.25.09-.26.09-.25.1-.25.1-.24.1-.25.11-.25.12-.25.12-.24.12-.25.13-.25.13-.24.14-.24.15-.25.14-.24.16zm-.21-.32l.21.32h-.21zM33 12.21v.38zm8.07 2.73l-.25-.16-.24-.14-.25-.15-.24-.14-.24-.13-.25-.13-.24-.09-.25-.12-.24-.12-.25-.11-.25-.1-.25-.1-.25-.1-.25-.09-.25-.09-.25-.09-.26-.08-.25-.07-.25-.08-.26-.06-.25-.07-.26-.06-.25-.06-.26-.05h-.26l-.25-.05h-1.56v-.38h1.32l.26.05h.27l.26.05.26.06.26.06.26.06.26.07.26.07.26.07.26.08.26.08.25.09.26.09.29.05.25.1.26.1.25.11.26.11.25.12.25.12.25.13.26.13.25.14.25.14.25.15.25.15.24.16-.2.32zm.2-.32h-.2zm-14.41-1.38v-.38zm-6.2 2.11l-.21-.35.19-.12.2-.12.19-.11.19-.11.2-.11.19-.1.19-.1.2-.09.2-.09.19-.09.2-.08.2-.08.2-.08.2-.07.2-.07.19-.07.2-.06.2-.06.2-.06h.21l.2-.06h1.21L26 13h.81v.38h-1.79l-.2.05h-.19l-.2.05-.19.05h-.2l-.19.06-.2.07-.19.06-.19.07-.2.07-.19.07-.19.08-.19.08-.19.09-.2.09-.11.33-.19.09-.19.1-.18.11-.19.1-.19.11-.19.12-.18.12zm-.21-.35l.21.33h-.21z"/><path class="cls-11" d="M33.28 13.24v.38zm6.21 2.11l-.19-.12-.19-.12-.18-.11-.19-.1-.19-.11-.19-.1-.19-.09-.17-.09-.19-.09-.19-.09-.19-.08-.19-.08-.24-.07-.17-.1h-.19l-.2-.06-.19-.07-.2-.06h-.19l-.2-.05-.19-.05h-.2l-.2-.05h-1.79v-.38h2.24l.2.06h.2l.2.06.2.06.2.06.2.07.2.07.2.07.2.08.19.08.2.08.2.09.19.09.2.09.2.1.19.1.19.11.2.11.19.11.2.12.19.12-.21.33zm.21-.35h-.21z"/><path class="cls-12" d="M39.27 4a6 6 0 0 0-2 2.9l-1.05-1.18 1.34-1.16z"/><path class="cls-9" d="M30.45 12.36c1.15 0 2.09-.37 2.09-.83s-.94-.84-2.09-.84-2.1.38-2.1.84.95.83 2.1.83z"/><path class="cls-13" d="M25.75 14c1.91 1.26 4.55.71 4.84-1.91M35.45 14c-1.91 1.26-4.55.71-4.84-1.91"/><path class="cls-9" d="M28.56 19.15c1.18-.39 2.73-1.15 3.13-2.44 0 1.85-1.83 3.07-3.13 2.44zm-.32.78a3.4 3.4 0 0 0 2.82-.72 1.77 1.77 0 0 1-2.82.72zm-.04.66a2.77 2.77 0 0 0 2.31.49 1.44 1.44 0 0 1-2.31-.49z"/><path class="cls-13" d="M15.94 41.31c-1.28.81-3.31.24-5 .24 1.19 0 4.84.46 5.19 2.26"/><path class="cls-14" d="M16.94 43.97l-2.26-6.98"/><path class="cls-13" d="M15.41 39.31a1.32 1.32 0 0 1-1.6-.58"/><path class="cls-8" d="M28.41 37.77c0-.42.07-.87.1-1.34-2.15 2.78-3.83 2.82-6.77.16 0 .33.08.65.11 1a2.62 2.62 0 0 1-.31-1.17c-.81-1-1.29-2.87.46-2.87a13.05 13.05 0 0 0 4.73-1.12c2.1-.71 1.45-1.61 2-3.15.11-.28.82 2.34.47 3.15-.28.64-1.66 1.71 0 1.12 1.2-.44 1.22-1.23.55.09a2.56 2.56 0 0 1-.92 1.3c-.67.4.74.34.74.09 0-.42-.42.8-.47.93-.1.43-.38 1.11-.69 1.81zM12 28.72c.38 1.68.53 2.48-.24 4-1.16 2.32-2.76 1.12-1.53 4.11.95 2.33-.86 3.31-3.15 3.31C7 34.57 10.26 25.57 12 28.72z"/><path class="cls-15" d="M21.89 37.91l-.24-3.22m6.66 3.85l.46-3.2"/><path class="cls-16" d="M22.07 7.86A17.44 17.44 0 0 1 18 3.76c-.88-1.17.07-1.24 1-1.24 2.69 0 4 .85 6.77 2.07A6.48 6.48 0 0 1 28 3.52c0-.16 1.62-2.53 2.26-2.46.18-.19-1 2-.64 2.16.19 0 .54.14.57-.05S32 .22 32.55.52c-.26 0-1.48 2.68-.66 2.71A5.6 5.6 0 0 1 35 4.39c1.62-1.92 2.4-2.16 5-2.23 1.47 0 2-.23 1.07 1.39a11.87 11.87 0 0 1-3.27 4.31c2.6 4 .74 7.1-4.15 9.51-.1 1.88-.5 3.45-.6 5.33 4.68 9.37 2.53 11.89-.75 21.94 1.47 1.26 2.93 1.57 2.43 3.66-1.09 4.52-6.37.66-6.67-3-.27-3.33.26-5.44.45-8.89-2.15 2.78-3.83 2.82-6.77.16.4 3.14.29 6.06.59 8.85.2 1.87-.79 3-1.64 4.1-1.17 1.5-3.57 2.52-4.92 2-2.83-1.17.65-5 1.55-6.22l-.9-3c-.09.79-.11 2.14-.21 2.93-.12 2.23-2.58 1.54-4.2 1-6.54-2-5.63-9.28-3.36-14.8 2.34-5.69 8.69-9.07 14.2-10.77 1.64-.51 2.24-2.45 2.71-4-4.02-2.51-4.28-4.08-3.49-8.8z"/><path class="cls-12" d="M21 4.19a5.86 5.86 0 0 1 2 2.9l1-1.19-1.32-1.15z"/><path class="cls-13" d="M23 7.16a6.22 6.22 0 0 1 1-1.31A5.44 5.44 0 0 0 21 4"/><path class="cls-13" d="M23 7.16a6.22 6.22 0 0 1 1-1.31A5.44 5.44 0 0 0 21 4m16.34 3a6.78 6.78 0 0 0-1.09-1.3 5.44 5.44 0 0 1 3.09-1.8"/></g></g></svg>