<svg xmlns="http://www.w3.org/2000/svg" viewBox="0 0 71.43 55.22"><defs><style>.cls-1{fill:none;stroke-linecap:round;stroke-linejoin:round}.cls-1,.cls-3,.cls-4,.cls-5{stroke:#231f20;stroke-width:1px}.cls-1,.cls-2,.cls-3,.cls-4,.cls-5,.cls-6,.cls-7{fill-rule:evenodd}.cls-2,.cls-5{fill:#fff}.cls-3{fill:#fcaf17}.cls-4{fill:#ffcb05}.cls-6{fill:#231f20}.cls-7{fill:#f8e199}</style></defs><title>Asset 109</title><g id="Layer_2" data-name="Layer 2"><g id="Layer_1-2" data-name="Layer 1"><path class="cls-1" d="M18.91 36c-5.68-6.57-7.41.73-7.41.73-1.29-5.32-2.64 1.52-2.64 1.52C6.11 36.51 3.33 32 3.33 32a19.72 19.72 0 0 0 2.25 7.32s-5.63-4-4.39 1.55m48.13-4.69c4.3-2.66 2-5.26 2-5.26 2.67 1.3 4.51 4.83 4.51 4.83.35-4.76 2.49.93 2.49.93-.42-4 3.86-6.14 3.86-6.14a6.42 6.42 0 0 0-.88 6.61s4.27-4.25 4 .7"/><path class="cls-2" d="M44.42 41.8s1.81 3.28-5.24 3.21c-7.92-.08-10.47-.27-10.47-.27-2.81 2.4-7 4.28-6.8.86s4.2-3.51 4.2-3.51a84 84 0 0 1 8.58-.66z"/><path class="cls-3" d="M34.69 41.43l9.73.37s1.81 3.28-5.24 3.21c-7.92-.08-10.47-.27-10.47-.27-2.81 2.4-7 4.28-6.8.86s4.2-3.51 4.2-3.51a84 84 0 0 1 8.58-.66z"/><path class="cls-2" d="M23.47 30.29c0 6.16-1.87 12.05-2.32 14.28-.62 3-6.91 3.06-7.12 1s3.6-2.18 3.6-2.18c1.09-3.84.56-11.08-.26-15.29z"/><path class="cls-3" d="M17.37 28.05l6.1 2.24c0 6.16-1.87 12.05-2.32 14.28-.62 3-6.91 3.06-7.12 1s3.6-2.18 3.6-2.18c1.09-3.89.56-11.13-.26-15.34z"/><path class="cls-2" d="M50.44 45.7a31 31 0 0 0 11.24 2.37 9.94 9.94 0 0 0 6.9-2.49 7.88 7.88 0 0 0 1.93-3 13.64 13.64 0 0 0-.11-7 17.15 17.15 0 0 0-4-8 10.05 10.05 0 0 0-6.16-3.12 14.93 14.93 0 0 0-8.67 2.05 1.7 1.7 0 0 0-.72 2.27 1.63 1.63 0 0 0 2.24.67 11.66 11.66 0 0 1 6.69-1.67 6.79 6.79 0 0 1 4.19 2.15 14.07 14.07 0 0 1 3.22 6.45 11.39 11.39 0 0 1 .23 5.1 4.5 4.5 0 0 1-1.1 1.72 6.57 6.57 0 0 1-4.61 1.53c-2.37.06-5.66-.56-10-2.17z"/><path class="cls-4" d="M51.68 42.56l-1.24 3.14a31 31 0 0 0 11.24 2.37 9.94 9.94 0 0 0 6.9-2.49 7.88 7.88 0 0 0 1.93-3 13.64 13.64 0 0 0-.11-7 17.15 17.15 0 0 0-4-8 10.05 10.05 0 0 0-6.16-3.12 14.93 14.93 0 0 0-8.67 2.05 1.7 1.7 0 0 0-.72 2.27 1.63 1.63 0 0 0 2.24.67 11.66 11.66 0 0 1 6.69-1.67 6.79 6.79 0 0 1 4.19 2.15 14.07 14.07 0 0 1 3.22 6.45 11.39 11.39 0 0 1 .23 5.1 4.5 4.5 0 0 1-1.1 1.72 6.57 6.57 0 0 1-4.61 1.53c-2.4.06-5.71-.56-10.03-2.17z"/><path class="cls-4" d="M31.49 14.54s20.2 11.09 21 25.69c.36 6.8-6.6 8.13-6.6 8.13s1.91 3.22-5.14 3.38c-7.91.19-10.47.07-10.47.07-2.72 2.49-6.85 4.51-6.76 1.09s4.08-3.64 4.08-3.64a83.69 83.69 0 0 1 8.55-.95c-1.3-6.78-6.51-13.87-10.15-13.54 0 6.15-1.87 12-2.33 14.27-.61 3-6.89 3.06-7.11 1s3.6-2.18 3.6-2.18c1.09-3.84-.06-11.17-.89-15.39-2.88-1.82-2.36-5.09-2.28-9.26.06-3.14-1.7-6.81-2.95-9C5.7 19.88 2.17 16.07.83 14c-.95-1.48.29-2.72 1.88-3.84a1.55 1.55 0 0 1-.08-.23c-.74-2.75 1.22-5.1 2.22-6.11-.6-1.67-1.52-5.28 3.08-2A7.17 7.17 0 0 1 12 1.71c.11 0 .21.06.32.09C14.12.49 17-.89 16.81 3.74c3.29 2 4 5.1 6.47 6.2 1.8.81 4.8.92 8.21 4.6z"/><path class="cls-5" d="M12.49 6.94c.39.71-.12 1.74-1.14 2.3S9.19 9.67 8.8 9s.12-1.74 1.14-2.3 2.17-.47 2.55.24z"/><path class="cls-6" d="M13 3s2.06-2.23 2.43-.35c0 0-.64-.67-2 .73zM7.15 13.82a.44.44 0 1 1-.88-.07.44.44 0 0 1 .47-.41.45.45 0 0 1 .41.48zm1.12 1.46a.44.44 0 0 1-.48.41.45.45 0 0 1-.4-.48.43.43 0 0 1 .47-.41.45.45 0 0 1 .41.48zm.49-1.78a.35.35 0 1 1-.32-.37.35.35 0 0 1 .32.37zm19.79 13a21.86 21.86 0 0 0-1.75 7s-1.31-4.5 1.75-7zm-10-9.76s-1.5-1.43-.06-2.25 2.85.32 2.28 1.77c0 0-.67-1.74-1.5-1.43a1.42 1.42 0 0 0-.72 1.91z"/><path class="cls-6" d="M20.07 16.3s-.86.78-1 .11 1.54-1 1-.11zm9.5-.69s-2.36 0-2.16-1.89 2.23-2 3.21-.28c0 0-2.09-1-2.36 0a2 2 0 0 0 1.31 2.17z"/><path class="cls-6" d="M30.19 14s.14 1.35-.61.92.12-2.09.61-.92zm-5.12 3.28s1.27-1.4 2.23-.26 0 2.43-1.52 2.08c0 0 1.65-.72 1.26-1.39a1.55 1.55 0 0 0-1.97-.43z"/><path class="cls-6" d="M25.67 18.52s-.86-.65-.21-.87 1.15 1.24.21.87zm3.98 7.15s-.89-2.18.89-2.72 2.7 1.26 1.52 2.83c0 0 .06-2.3-.89-2.18a2.05 2.05 0 0 0-1.52 2.07z"/><path class="cls-6" d="M31.36 25.62s-1.19.66-1.08-.2 1.97-.72 1.08.2zm14.3 16.53s-.65-2.27 1.17-2.62 2.55 1.54 1.22 3c0 0 .3-2.28-.66-2.27a2.05 2.05 0 0 0-1.73 1.89z"/><path class="cls-6" d="M47.37 42.27s-1.25.54-1.06-.31 2.05-.51 1.06.31zm-2.25-12.96S46.74 27.6 48 29s0 3-1.95 2.56c0 0 2.12-.89 1.62-1.71a2 2 0 0 0-2.55-.54z"/><path class="cls-6" d="M45.88 30.84s-1.09-.8-.27-1.06 1.48 1.5.27 1.06zm-3.79 8.83s-1.43-1.88.15-2.87 2.93.53 2.2 2.35c0 0-.54-2.24-1.42-1.88a2 2 0 0 0-.93 2.4z"/><path class="cls-6" d="M43.72 39.17s-1 .95-1.1.09 1.73-1.21 1.1-.09zM22.68 13.35s1.24-1.32 2.19-.25 0 2.29-1.5 2c0 0 1.62-.68 1.24-1.31a1.56 1.56 0 0 0-1.93-.44z"/><path class="cls-6" d="M23.26 14.52s-.84-.62-.21-.82 1.14 1.16.21.82zm-5.61-4.36S16.4 8.86 17.52 8s2.28.14 1.88 1.6c0 0-.6-1.66-1.25-1.32a1.59 1.59 0 0 0-.5 1.88z"/><path class="cls-6" d="M18.85 9.65s-.66.8-.82.16 1.21-1.07.82-.16zM5.21 11.06s-.52-1 .31-1.35 1.35.5.85 1.3c0 0-.07-1.11-.52-1a1 1 0 0 0-.64 1.05z"/><path class="cls-6" d="M6 11s-.54.37-.52-.05.94-.47.52.05zm32.25 20.24s-.52-1 .31-1.34 1.35.49.85 1.3c0 0-.06-1.11-.52-1a1 1 0 0 0-.64 1.04z"/><path class="cls-6" d="M39.07 31.14s-.54.37-.53-.05.92-.42.53.05zM21.31 38.5s-.52-1 .31-1.35 1.35.5.85 1.3c0 0-.07-1.1-.52-1a1 1 0 0 0-.64 1.05z"/><path class="cls-6" d="M22.12 38.4s-.54.37-.52 0 .92-.47.52 0zm1.3-.93s-.52-1 .31-1.34 1.35.49.85 1.3c0 0-.06-1.11-.52-1a1 1 0 0 0-.64 1.04z"/><path class="cls-6" d="M24.24 37.37s-.55.37-.53 0 .92-.47.53 0zM22.15 43s-.52-1 .31-1.35 1.35.5.85 1.3c0 0-.07-1.11-.52-1a1 1 0 0 0-.64 1.05z"/><path class="cls-6" d="M23 42.89s-.54.37-.52 0 .88-.48.52 0zM14.56 7.27s-.52-1 .31-1.34 1.35.49.84 1.3c0 0-.06-1.11-.51-1a1 1 0 0 0-.64 1.04z"/><path class="cls-6" d="M15.37 7.18s-.54.36-.53 0 .93-.48.53 0zM5 5.69s-.52-1 .31-1.34 1.35.49.85 1.29c0 0-.06-1.1-.52-1A1 1 0 0 0 5 5.69z"/><path class="cls-6" d="M5.79 5.59s-.55.37-.53 0 .92-.47.53 0zm1.9-1.98S8 2.53 8.86 2.88s.61 1.3-.31 1.51c0 0 .73-.83.34-1.08a1 1 0 0 0-1.2.3z"/><path class="cls-6" d="M8.34 4.11S7.69 4 8 3.71s1 .34.34.4zm2.15.32s.35-1.08 1.17-.74.61 1.31-.31 1.52c0 0 .73-.83.34-1.08a1 1 0 0 0-1.2.3z"/><path class="cls-6" d="M11.14 4.93s-.65-.12-.34-.4.95.34.34.4zm3.08 5.17s.35-1.08 1.17-.73.61 1.3-.31 1.52c0 0 .73-.83.34-1.09a1 1 0 0 0-1.2.3z"/><path class="cls-6" d="M14.87 10.61s-.64-.12-.34-.41.96.35.34.41zm2.33-4.93s.35-1.08 1.17-.74.61 1.31-.31 1.52c0 0 .73-.83.34-1.08a1 1 0 0 0-1.2.3z"/><path class="cls-6" d="M17.85 6.18s-.64-.12-.34-.4.95.34.34.4zM20 11.16s.35-1.09 1.17-.74.61 1.3-.31 1.52c0 0 .73-.83.34-1.08a1 1 0 0 0-1.2.3z"/><path class="cls-6" d="M20.64 11.66s-.64-.12-.34-.41.96.35.34.41zm12.11 9.83s-.8-1.56.48-2.07 2.08.76 1.31 2c0 0-.1-1.71-.8-1.56a1.51 1.51 0 0 0-.99 1.63z"/><path class="cls-6" d="M34 21.34s-.84.57-.81-.07 1.43-.66.81.07zm7.28 11.54s-.8-1.56.49-2.08 2.07.77 1.3 2c0 0-.1-1.71-.8-1.56a1.5 1.5 0 0 0-.99 1.64z"/><path class="cls-6" d="M42.54 32.73s-.83.56-.81-.08 1.42-.65.81.08zm7.09 5.21s-.8-1.56.48-2.08 2.08.77 1.31 2c0 0-.1-1.7-.8-1.56a1.52 1.52 0 0 0-.99 1.64z"/><path class="cls-6" d="M50.89 37.79s-.84.56-.81-.08 1.42-.66.81.08zm-18.52-5.46s-.8-1.55.48-2.07 2.08.76 1.31 2c0 0-.1-1.71-.8-1.56a1.52 1.52 0 0 0-.99 1.63z"/><path class="cls-6" d="M33.63 32.18s-.84.57-.82-.07 1.42-.66.82.07zm-1.98-14.36s.34-1.09 1.17-.74.61 1.3-.32 1.52c0 0 .74-.83.35-1.08a1 1 0 0 0-1.2.3z"/><path class="cls-6" d="M32.3 18.32s-.65-.12-.34-.41.95.35.34.41zM41.39 35s.35-1.08 1.17-.73.61 1.3-.31 1.52c0 0 .73-.83.34-1.08a1 1 0 0 0-1.2.29z"/><path class="cls-6" d="M42 35.54s-.64-.12-.34-.41.99.35.34.41zM22.42 23.92s-1.26-1.31-.14-2.2 2.29.15 1.89 1.6c0 0-.6-1.66-1.25-1.31a1.56 1.56 0 0 0-.5 1.91z"/><path class="cls-6" d="M23.62 23.4s-.66.81-.83.17 1.21-1.07.83-.17zm-3.86 4.12s-.52-1 .31-1.35 1.35.5.85 1.3c0 0-.07-1.1-.52-1a1 1 0 0 0-.64 1.05z"/><path class="cls-6" d="M20.57 27.42s-.54.37-.53-.05.96-.43.53.05zM19.32 21s-.52-1 .31-1.34 1.35.49.85 1.29c0 0-.07-1.1-.52-1a1 1 0 0 0-.64 1.05z"/><path class="cls-6" d="M20.13 20.93s-.54.37-.52-.05.92-.42.52.05zM19 23.86s.35-1.08 1.17-.73.61 1.3-.31 1.52c0 0 .73-.84.35-1.09a1 1 0 0 0-1.21.3z"/><path class="cls-6" d="M19.63 24.37s-.64-.13-.34-.41.96.35.34.41zM22 19.44s.35-1.09 1.17-.74.61 1.3-.31 1.52c0 0 .73-.83.34-1.08a1 1 0 0 0-1.2.3z"/><path class="cls-6" d="M22.61 19.94s-.64-.12-.34-.4.96.34.34.4zm4.11 2.74s.35-1.08 1.17-.73.61 1.3-.31 1.52c0 0 .73-.83.35-1.09a1 1 0 0 0-1.21.3z"/><path class="cls-6" d="M27.37 23.19s-.64-.12-.34-.41.97.35.34.41zm-2.62 1.73s.35-1.09 1.17-.74.61 1.3-.31 1.52c0 0 .73-.83.35-1.08a1 1 0 0 0-1.21.3z"/><path class="cls-6" d="M25.4 25.42s-.64-.12-.34-.41.94.35.34.41zm12.8 1.31s-1.25-1.31-.13-2.2 2.28.15 1.88 1.6c0 0-.6-1.66-1.25-1.31a1.57 1.57 0 0 0-.5 1.91z"/><path class="cls-6" d="M39.4 26.21s-.66.81-.83.16 1.22-1.07.83-.16zm-3.86 4.11s-.51-1 .32-1.34 1.34.49.84 1.3c0 0-.06-1.11-.51-1a1 1 0 0 0-.65 1.04z"/><path class="cls-6" d="M36.36 30.23s-.54.36-.53-.05.92-.43.53.05zm-1.26-6.39s-.52-1 .32-1.35 1.34.5.84 1.3c0 0-.06-1.1-.51-1a1 1 0 0 0-.65 1.05z"/><path class="cls-6" d="M35.92 23.74s-.54.37-.53 0 .92-.48.53 0zm-1.15 2.93s.34-1.09 1.17-.74.61 1.3-.31 1.52c0 0 .73-.83.34-1.08a1 1 0 0 0-1.2.3z"/><path class="cls-6" d="M35.42 27.17s-.64-.12-.34-.4.92.34.34.4zm2.33-4.93s.34-1.08 1.17-.73.61 1.3-.31 1.52c0 0 .73-.83.34-1.08a1 1 0 0 0-1.2.29z"/><path class="cls-6" d="M38.4 22.75s-.65-.12-.34-.41.94.35.34.41zm4.11 2.74s.34-1.08 1.17-.74.61 1.31-.32 1.53c0 0 .74-.84.35-1.09a1 1 0 0 0-1.2.3z"/><path class="cls-6" d="M43.16 26s-.65-.12-.34-.4.95.33.34.4zm26.11 13.14s-1.06-.41-.66-1.21 1.33-.53 1.49.4c0 0-.78-.78-1.06-.41a1 1 0 0 0 .23 1.22z"/><path class="cls-6" d="M69.81 38.52s-.16.64-.42.31.4-.93.42-.31zm-5.89 8.65s-1.06-.41-.67-1.22 1.34-.52 1.5.41c0 0-.79-.78-1.06-.41a1 1 0 0 0 .23 1.22z"/><path class="cls-6" d="M64.46 46.55s-.16.63-.43.31.41-.93.43-.31zM65.81 30s-1.06-.41-.66-1.21 1.33-.53 1.5.4c0 0-.79-.78-1.06-.41a1 1 0 0 0 .22 1.22z"/><path class="cls-6" d="M66.36 29.37s-.16.64-.43.32.4-.94.43-.32zm1.38 3.34s-1.06-.41-.67-1.22 1.34-.52 1.5.41c0 0-.78-.78-1.06-.41a1 1 0 0 0 .23 1.22z"/><path class="cls-6" d="M68.28 32.09s-.16.63-.43.31.41-.93.43-.31zm.19 4.44s-1-.41-.66-1.22 1.34-.52 1.5.41c0 0-.79-.78-1.06-.41a1 1 0 0 0 .22 1.22z"/><path class="cls-6" d="M69 35.91s-.16.63-.43.31.43-.93.43-.31zm-8.71-8.12s-1.06-.4-.66-1.21 1.33-.53 1.5.41c0 0-.79-.79-1.06-.41a1 1 0 0 0 .22 1.21z"/><path class="cls-6" d="M60.84 27.18s-.16.63-.43.31.4-.93.43-.31zm2.45.73s-1.06-.41-.66-1.21 1.33-.53 1.49.4c0 0-.78-.78-1.06-.41a1 1 0 0 0 .23 1.22z"/><path class="cls-6" d="M63.83 27.29s-.16.64-.42.32.4-.93.42-.32zm-5.93-1.03s-1.06-.41-.67-1.22 1.34-.52 1.5.41c0 0-.79-.78-1.06-.41a1 1 0 0 0 .23 1.22z"/><path class="cls-6" d="M58.44 25.64s-.16.64-.43.31.41-.95.43-.31zm-17.9 2.08s.35-1.08 1.17-.73.61 1.3-.31 1.51c0 0 .73-.82.34-1.08a1 1 0 0 0-1.2.3z"/><path class="cls-6" d="M41.19 28.23s-.65-.12-.34-.41.95.35.34.41zm9.37 13.51s-.52-1 .31-1.35 1.35.5.85 1.3c0 0-.07-1.11-.52-1a1 1 0 0 0-.64 1.05z"/><path class="cls-6" d="M51.37 41.64s-.54.37-.52 0 .92-.48.52 0zm17.71.55s-1 .45-1.33-.4.58-1.31 1.35-.77c0 0-1.11 0-1 .46a1 1 0 0 0 .98.71z"/><path class="cls-6" d="M69 41.37s.33.56-.08.52-.34-.95.08-.52zm-5.1 3.91s-1 .46-1.32-.39.57-1.32 1.34-.77c0 0-1.11 0-1 .45a1 1 0 0 0 .98.71z"/><path class="cls-6" d="M63.85 44.46s.34.56-.08.52-.37-.98.08-.52zM37.12 34s.35-1.08 1.17-.73.61 1.3-.31 1.52c0 0 .73-.83.34-1.08a1 1 0 0 0-1.2.29z"/><path class="cls-6" d="M37.77 34.5s-.64-.12-.34-.41.95.35.34.41zm-1.08 3.96s-1.25-1.31-.13-2.2 2.28.15 1.88 1.6c0 0-.6-1.66-1.25-1.31a1.58 1.58 0 0 0-.5 1.91z"/><path class="cls-6" d="M37.89 37.94s-.65.81-.82.16 1.21-1.1.82-.16zm6.29 6.96s-.52-1 .31-1.35 1.35.49.85 1.3c0 0-.06-1.11-.52-1a1 1 0 0 0-.64 1.05z"/><path class="cls-6" d="M45 44.8s-.54.37-.53 0 .92-.48.53 0zm-.51-9.86s-.51-1 .32-1.35 1.34.49.84 1.3c0 0-.06-1.11-.51-1a1 1 0 0 0-.65 1.05z"/><path class="cls-6" d="M45.31 34.84s-.54.36-.53-.05.92-.43.53.05zm1.83-1.5s.35-1.08 1.17-.73.61 1.3-.31 1.51c0 0 .73-.83.34-1.08a1 1 0 0 0-1.2.3z"/><path class="cls-6" d="M47.79 33.84s-.64-.12-.34-.4.95.35.34.4zm18.74 12.3s-.52-1 .31-1.34 1.35.49.85 1.29c0 0-.07-1.1-.52-1a1 1 0 0 0-.64 1.05z"/><path class="cls-6" d="M67.34 46s-.54.37-.52 0 .92-.43.52 0zm-14.4-18.9s.34-1.08 1.17-.73.6 1.3-.32 1.52c0 0 .74-.83.35-1.09a1 1 0 0 0-1.2.3z"/><path class="cls-6" d="M53.59 27.61s-.65-.12-.34-.41.95.35.34.41zM22.3 34.65s-.52-1 .31-1.35 1.35.5.85 1.3c0 0-.07-1.1-.52-1a1 1 0 0 0-.64 1.05z"/><path class="cls-6" d="M23.11 34.55s-.54.37-.52 0 .92-.47.52 0zm-1.25-6.39s-.52-1 .31-1.34 1.35.49.85 1.3c0 0-.07-1.11-.52-1a1 1 0 0 0-.64 1.04z"/><path class="cls-6" d="M22.67 28.06s-.54.37-.52 0 .92-.47.52 0zM21.52 31s.35-1.08 1.17-.73.61 1.3-.31 1.52c0 0 .73-.84.35-1.09a1 1 0 0 0-1.21.3z"/><path class="cls-6" d="M22.17 31.5s-.64-.13-.34-.41.96.35.34.41zm2.02-2.57s.35-1.08 1.18-.73.6 1.3-.32 1.52c0 0 .74-.83.35-1.09a1 1 0 0 0-1.21.3z"/><path class="cls-6" d="M24.84 29.44s-.64-.12-.34-.41.96.35.34.41zm12.75 13.32s-.22-1.12.68-1.2 1.15.85.44 1.48c0 0 .25-1.08-.21-1.12a1 1 0 0 0-.91.84z"/><path class="cls-6" d="M38.39 42.89s-.62.2-.49-.19 1.01-.15.49.19zM59 45.66s.75-.85 1.37-.2 0 1.43-.89 1.26c0 0 1-.47.74-.85a1 1 0 0 0-1.22-.21z"/><path class="cls-6" d="M59.42 46.38s-.55-.36-.15-.5.73.7.15.5zm-5.25-2.06s.75-.86 1.37-.21 0 1.44-.9 1.27c0 0 1-.47.75-.86a1 1 0 0 0-1.22-.2z"/><path class="cls-6" d="M54.56 45s-.54-.37-.15-.51.74.74.15.51zm-25.3-15.19s.35-1.08 1.17-.73.61 1.3-.31 1.52c0 0 .73-.83.35-1.09a1 1 0 0 0-1.21.3z"/><path class="cls-6" d="M29.91 30.32s-.64-.12-.34-.41.96.35.34.41zm-2.62 1.73s.35-1.09 1.17-.74.61 1.3-.31 1.52c0 0 .73-.83.35-1.08a1 1 0 0 0-1.21.3z"/><path class="cls-6" d="M27.94 32.55s-.64-.12-.34-.4.96.34.34.4zM7 5.83s.71-.83 1.33-.21 0 1.44-.89 1.27c0 0 1-.47.74-.85A1 1 0 0 0 7 5.83z"/><path class="cls-6" d="M7.36 6.55s-.55-.37-.15-.55.73.74.15.55zm2.97.64a2.61 2.61 0 0 1 1.48.07c.79.32.79 1.08 0 1.7A3.15 3.15 0 0 1 9 9.48c-.79-.32-.8-1.08 0-1.69a1.43 1.43 0 0 1 .22-.15zm-5.79 6.12c0 .6-1 1-2 .94S.55 13.6.6 13s1-1 2.06-.94 1.93.65 1.88 1.25z"/><path class="cls-7" d="M19.7 32.12c-2.39-1.06-2.45-4.27-2.25-7.68a18.69 18.69 0 0 0-1.36-7.26 1.66 1.66 0 0 0 .12-.42c1.4 2 1.53 4.26 2.61 6.32.7 1.33 1.04 9.92.88 9.04zm13.16 7.58c-1.67-2.79-3.69-4.79-5.54-5.23a2.6 2.6 0 0 0-.38-.47c1.56 0 2.55.58 4.23.58a10.6 10.6 0 0 0 4-.95c-1.9 2.24-2.08 3.26-2.31 6.07z"/><path class="cls-6" d="M34.85 43.41s-3.7-6.26 1.57-10.81c0 0-6.93 4.11-1.57 10.81z"/></g></g></svg>