<svg xmlns="http://www.w3.org/2000/svg" viewBox="0 0 20.61 21.33"><defs><style>.cls-1{fill:#e11b22;stroke-miterlimit:3.86;stroke-width:1px}.cls-1,.cls-3,.cls-4{stroke:#231f20}.cls-1,.cls-2,.cls-3,.cls-4{fill-rule:evenodd}.cls-2{fill:#fff;stroke:#000}.cls-2,.cls-3,.cls-4{stroke-linecap:round;stroke-linejoin:round;stroke-width:1px}.cls-3{fill:#4c3c2a}.cls-4{fill:none}</style></defs><title>Asset 9</title><g id="Layer_2" data-name="Layer 2"><g id="Layer_1-2" data-name="Layer 1"><path class="cls-1" d="M14.4 19.29A8.82 8.82 0 0 0 16.41 7 8.81 8.81 0 0 0 4.16 4.66 8.82 8.82 0 0 0 2.15 17a8.82 8.82 0 0 0 12.25 2.29z"/><path class="cls-2" d="M13.28 11.26C19.72 6.2 19.52 2.13 20.11.93A3.68 3.68 0 0 1 17.78.5a10 10 0 0 1-1 4.31 12.48 12.48 0 0 1-4.71 4.85c-.21.93.32 1.4 1.21 1.6z"/><path class="cls-3" d="M13.28 11.26C19.72 6.2 19.52 2.13 20.11.93A3.68 3.68 0 0 1 17.78.5a10 10 0 0 1-1 4.31 12.48 12.48 0 0 1-4.71 4.85c-.21.93.32 1.4 1.21 1.6z"/><path class="cls-4" d="M14.85 12.31a1.38 1.38 0 0 0-.26-.36l-2.16-.87c-1.26-.92 0-2.55-.95-3.87"/></g></g></svg>