<svg xmlns="http://www.w3.org/2000/svg" viewBox="0 0 43 43"><defs><style>.cls-1{fill:#fff;fill-rule:evenodd}.cls-2,.cls-3{fill-rule:evenodd;stroke:#231f20}.cls-2{stroke-width:1px;fill:url(#GradientFill_70)}.cls-3{stroke-width:.75px;fill:url(#GradientFill_69)}</style><radialGradient id="GradientFill_70" cx="29.9" cy="13.1" r="31.99" gradientUnits="userSpaceOnUse"><stop offset="0" stop-color="#d57bab"/><stop offset="1" stop-color="#c657a0"/></radialGradient><radialGradient id="GradientFill_69" cx="25.86" cy="16.41" r="17.39" gradientUnits="userSpaceOnUse"><stop offset="0" stop-color="#fffcd5"/><stop offset="1" stop-color="#fff9ae"/></radialGradient></defs><title>Asset 120</title><g id="Layer_2" data-name="Layer 2"><g id="Layer_1-2" data-name="Layer 1"><path class="cls-1" d="M42.5 21.5c0-2.47-2.12-4.71-5.58-6.39 1.26-3.63 1.17-6.72-.57-8.46s-4.83-1.83-8.46-.57C26.21 2.62 24 .5 21.5.5s-4.71 2.12-6.39 5.58c-3.63-1.26-6.72-1.17-8.46.57s-1.83 4.83-.57 8.46C2.62 16.79.5 19 .5 21.5s2.12 4.71 5.58 6.39c-1.26 3.63-1.17 6.72.57 8.46s4.83 1.83 8.46.57c1.68 3.46 3.89 5.58 6.39 5.58s4.71-2.12 6.39-5.58c3.63 1.26 6.71 1.17 8.46-.57s1.83-4.83.57-8.46c3.46-1.68 5.58-3.89 5.58-6.39z"/><path class="cls-2" d="M42.5 21.5c0-2.47-2.12-4.71-5.58-6.39 1.26-3.63 1.17-6.72-.57-8.46s-4.83-1.83-8.46-.57C26.21 2.62 24 .5 21.5.5s-4.71 2.12-6.39 5.58c-3.63-1.26-6.72-1.17-8.46.57s-1.83 4.83-.57 8.46C2.62 16.79.5 19 .5 21.5s2.12 4.71 5.58 6.39c-1.26 3.63-1.17 6.72.57 8.46s4.83 1.83 8.46.57c1.68 3.46 3.89 5.58 6.39 5.58s4.71-2.12 6.39-5.58c3.63 1.26 6.71 1.17 8.46-.57s1.83-4.83.57-8.46c3.46-1.68 5.58-3.89 5.58-6.39z"/><path class="cls-1" d="M32.71 21a3.05 3.05 0 0 0-1.08-2.17 3 3 0 0 0 .09-2.33 2.89 2.89 0 0 0-1.59-1.5 2.93 2.93 0 0 0-.77-2.1 3 3 0 0 0-2.3-.77 3 3 0 0 0-1.6-1.76 2.93 2.93 0 0 0-2.17.09 3 3 0 0 0-2-.91 3 3 0 0 0-2.15 1.06 3.06 3.06 0 0 0-2.41-.13 3 3 0 0 0-1.5 1.65 2.9 2.9 0 0 0-2 .77 3 3 0 0 0-.76 2.22 3 3 0 0 0-1.82 1.62 3 3 0 0 0 .1 2.26 2.93 2.93 0 0 0-.88 2 3 3 0 0 0 1 2.1 3 3 0 0 0-.13 2.41A2.91 2.91 0 0 0 12.45 27a2.91 2.91 0 0 0 .76 2.06 3 3 0 0 0 2.19.76 3 3 0 0 0 1.6 1.76 2.92 2.92 0 0 0 2.25-.13 3 3 0 0 0 2 .94 3 3 0 0 0 2.12-1 3 3 0 0 0 2.33.1 3 3 0 0 0 1.49-1.65 3 3 0 0 0 2.13-.77 3.06 3.06 0 0 0 .77-2.27 3 3 0 0 0 1.71-1.57 2.91 2.91 0 0 0-.1-2.18A3 3 0 0 0 32.71 21z"/><path class="cls-3" d="M32.71 21a3.05 3.05 0 0 0-1.08-2.17 3 3 0 0 0 .09-2.33 2.89 2.89 0 0 0-1.59-1.5 2.89 2.89 0 0 0-.77-2.1 3 3 0 0 0-2.3-.77 3 3 0 0 0-1.6-1.76 2.93 2.93 0 0 0-2.17.09 3 3 0 0 0-2-.91 3 3 0 0 0-2.15 1.06 3.06 3.06 0 0 0-2.41-.13 3 3 0 0 0-1.5 1.65 2.9 2.9 0 0 0-2 .77 3 3 0 0 0-.76 2.22 3 3 0 0 0-1.82 1.62 3 3 0 0 0 .1 2.26 2.93 2.93 0 0 0-.88 2 3 3 0 0 0 1 2.1 3 3 0 0 0-.13 2.41A2.91 2.91 0 0 0 12.45 27a2.91 2.91 0 0 0 .76 2.06 3 3 0 0 0 2.19.76 3 3 0 0 0 1.6 1.76 2.92 2.92 0 0 0 2.25-.13 3 3 0 0 0 2 .94 3 3 0 0 0 2.12-1 3 3 0 0 0 2.33.1 3 3 0 0 0 1.49-1.65 3 3 0 0 0 2.13-.77 3.1 3.1 0 0 0 .77-2.27 3 3 0 0 0 1.71-1.57 2.91 2.91 0 0 0-.1-2.18A3 3 0 0 0 32.71 21z"/></g></g></svg>