<svg xmlns="http://www.w3.org/2000/svg" viewBox="0 0 57.22 51.11"><defs><style>.cls-1{fill:#a7a9ac}.cls-1,.cls-2,.cls-4,.cls-5,.cls-7{stroke:#231f20}.cls-1,.cls-2,.cls-4,.cls-5{stroke-width:1px}.cls-1,.cls-2,.cls-3,.cls-4,.cls-5,.cls-6,.cls-7{fill-rule:evenodd}.cls-2{fill:#808285}.cls-3,.cls-7{fill:#fff}.cls-4{fill:#e6e7e8}.cls-5{fill:url(#GradientFill_46)}.cls-6{fill:#231f20}.cls-7{stroke-miterlimit:2.61;stroke-width:1px}</style><radialGradient id="GradientFill_46" cx="42.53" cy="15.17" r="18.04" gradientUnits="userSpaceOnUse"><stop offset="0" stop-color="#ffcb05"/><stop offset="1" stop-color="#f58220"/></radialGradient></defs><title>Asset 29</title><g id="Layer_2" data-name="Layer 2"><g id="Layer_1-2" data-name="Layer 1"><path class="cls-1" d="M29.92 8.32c.88.59 1.3 1.5.94 2L6.31 46.75c-.36.53-1.36.49-2.24-.11-.88-.59-1.3-1.5-.94-2L27.68 8.21c.36-.53 1.36-.48 2.24.11z"/><path class="cls-2" d="M13.6 14c-2.8 3.8-6.29 6-7.79 4.87S5.36 13.78 8.17 10 14.46 4 16 5.11s.41 5.09-2.4 8.89zM9.09 3.4L1.9 13.14a7.14 7.14 0 0 0 1.5 10l8.6 6.3a7.14 7.14 0 0 0 10-1.5l7.2-9.74a7.14 7.14 0 0 0-1.5-10l-8.63-6.3a7.13 7.13 0 0 0-9.98 1.5z"/><path class="cls-3" d="M16.68 37.24a3 3 0 0 1-.84 2.76c.26.5.55 1 .85 1.44a3.05 3.05 0 0 1 3.5 2.4 3 3 0 0 1-.1 1.6q.45.4.93.78a3.72 3.72 0 0 1 .59-.2 3.06 3.06 0 0 1 3.61 2.39 3.12 3.12 0 0 1 .06.41 17.72 17.72 0 0 0 1.87.74 3 3 0 0 1 4.62 1 18.89 18.89 0 0 0 2.61.06 3 3 0 0 1 4.77-.79c.6-.18 1.19-.38 1.77-.61a3.05 3.05 0 0 1 2.39-2.43 3 3 0 0 1 1.79.17 21.34 21.34 0 0 0 1.75-1.39 3.05 3.05 0 0 1 2.4-3.45A3.35 3.35 0 0 1 50 42c.35-.5.68-1 1-1.54a3 3 0 0 1-.37-.94 3 3 0 0 1 2.2-3.52 20.45 20.45 0 0 0 .51-2.35 3 3 0 0 1-.87-1.58 3 3 0 0 1 1.05-3c-.05-.67-.14-1.35-.26-2a3 3 0 0 1-1.47-4.78 20 20 0 0 0-37.91 12.29 2 2 0 0 0 0 .24 3.06 3.06 0 0 1 2.8 2.42z"/><path class="cls-4" d="M16.68 37.24a3 3 0 0 1-.84 2.76c.26.5.55 1 .85 1.44a3.05 3.05 0 0 1 3.5 2.4 3 3 0 0 1-.1 1.6q.45.4.93.78a3.72 3.72 0 0 1 .59-.2 3.06 3.06 0 0 1 3.61 2.39 2 2 0 0 1 .06.41 17.72 17.72 0 0 0 1.87.74 3 3 0 0 1 4.62 1 18.89 18.89 0 0 0 2.61.06 3 3 0 0 1 4.77-.79c.6-.18 1.19-.38 1.77-.61a3.05 3.05 0 0 1 2.39-2.43 3 3 0 0 1 1.79.17 21.34 21.34 0 0 0 1.75-1.39 3.05 3.05 0 0 1 2.4-3.45A3.35 3.35 0 0 1 50 42c.35-.5.68-1 1-1.54a3 3 0 0 1-.37-.94 3 3 0 0 1 2.2-3.52 20.45 20.45 0 0 0 .51-2.35 3 3 0 0 1-.87-1.58 3 3 0 0 1 1.05-3c-.05-.67-.14-1.35-.26-2a3 3 0 0 1-1.47-4.78 20 20 0 0 0-37.91 12.29v.24a3.06 3.06 0 0 1 2.8 2.42z"/><path class="cls-3" d="M21 31a12.45 12.45 0 0 1 24.74-2.9v.42l10.84-1.27a23.73 23.73 0 0 0-47 5.51l11.52-1.38c-.02-.14-.1-.28-.1-.38z"/><path class="cls-5" d="M21 31a12.45 12.45 0 0 1 24.74-2.9v.42l10.84-1.27a23.73 23.73 0 0 0-47 5.51l11.52-1.38A3.07 3.07 0 0 1 21 31z"/><path class="cls-6" d="M15.41 26.52s3-16.29 22.33-14.31c0 0-18.74-5.02-22.33 14.31z"/><path class="cls-7" d="M33.22 36a4.88 4.88 0 1 0-4.88-4.88A4.88 4.88 0 0 0 33.22 36z"/><path class="cls-6" d="M33.22 32.87a1.72 1.72 0 1 0-1.72-1.72 1.72 1.72 0 0 0 1.72 1.72z"/></g></g></svg>