<svg xmlns="http://www.w3.org/2000/svg" viewBox="0 0 37.81 41.03"><defs><style>.cls-1{fill:#ed1651}.cls-1,.cls-2,.cls-4,.cls-5,.cls-6,.cls-8{stroke:#231f20}.cls-1,.cls-4,.cls-8{stroke-linejoin:round}.cls-1,.cls-4,.cls-5,.cls-6,.cls-8{stroke-width:1px}.cls-1,.cls-2,.cls-3,.cls-4,.cls-5,.cls-6,.cls-7,.cls-8{fill-rule:evenodd}.cls-2{fill:#faa74a;stroke-miterlimit:2.61;stroke-width:.5px}.cls-3,.cls-8{fill:#fff}.cls-4{fill:#e6e7e8}.cls-5{fill:none}.cls-6{fill:#fff9ae}.cls-7{fill:#231f20}</style></defs><title>Asset 25</title><g id="Layer_2" data-name="Layer 2"><g id="Layer_1-2" data-name="Layer 1"><path class="cls-1" d="M37.31 8.36H.5V33c.5 4.18 8.5 7.53 18.41 7.53s18-3.35 18.36-7.53z"/><path class="cls-2" d="M24.86 21.72C27 21 29.3 28.31 30.38 38.86a40.12 40.12 0 0 1-12.17 1.6c1.24-8.39 4.55-18.05 6.65-18.74z"/><path class="cls-2" d="M30.27 38.85c3.81-1.38 6.32-3.48 6.53-5.85V21.58c-.63-2.78-1.31-4.2-2-3.83-1.32.8-3.47 11.16-4.53 21.1zm-17.6-17.22c-1.93-.69-4.3 6.59-5.59 17.14a34.25 34.25 0 0 0 11.24 1.6c-.92-8.37-3.73-18.05-5.65-18.74zM.5 20.44V33c.2 2 2.25 3.91 5.45 5.26h.62C6 29.85 3.69 20.19 1.94 19.5c-.45-.18-.94.16-1.44.94z"/><path class="cls-3" d="M37.31 7.51c0 3.88-8.24 7-18.4 7S.5 11.39.5 7.52 8.74.5 18.91.5s18.4 3.14 18.4 7.01z"/><path class="cls-4" d="M37.31 7.51c0 3.88-8.24 7-18.4 7S.5 11.39.5 7.52 8.74.5 18.91.5s18.4 3.14 18.4 7.01z"/><path class="cls-5" d="M.55 19s2.6-6.28 6.27 19.28c0 0 5.81-39.46 11.32 2 0 0 6.85-40.26 12.4-1.84 0 0 2.75-31.06 6.73-17"/><path class="cls-6" d="M3 18.84c0 1-.42 1.8-1 1.83S.83 19.91.79 18.92s.43-1.81 1-1.83S3 17.85 3 18.84zm33.4-.34c0 1-.43 1.8-1 1.83s-1.13-.76-1.17-1.75.43-1.81 1-1.83 1.14.76 1.17 1.75zm-22.32 4.34a1.64 1.64 0 0 1-1.38 1.84A1.65 1.65 0 0 1 11.18 23a1.65 1.65 0 0 1 1.38-1.84 1.65 1.65 0 0 1 1.52 1.68zm12.27.09A1.65 1.65 0 0 1 25 24.77 1.65 1.65 0 0 1 23.45 23a1.65 1.65 0 0 1 1.38-1.85 1.66 1.66 0 0 1 1.52 1.78z"/><path class="cls-7" d="M18.68 2.78c8 0 12.6 1.72 15.94 3.67C32.33 4 26 2.27 18.64 2.27S5 4 2.66 6.45C6 4.5 10.93 2.78 18.68 2.78z"/><path class="cls-8" d="M37.26 8.06c-.73 3.62-8.67 6.47-18.35 6.47-9.95 0-18-3-18.4-6.76 4.11-3.19 10.73-5.26 18.2-5.26 7.68 0 14.47 2.19 18.55 5.55z"/></g></g></svg>