<svg xmlns="http://www.w3.org/2000/svg" xmlns:xlink="http://www.w3.org/1999/xlink" viewBox="0 0 39.72 25.15"><defs><style>.cls-1,.cls-8{fill:#fff}.cls-1,.cls-2,.cls-3,.cls-4,.cls-5,.cls-6,.cls-7,.cls-8{fill-rule:evenodd}.cls-2{fill:#fffcd5}.cls-2,.cls-4,.cls-5,.cls-6,.cls-7,.cls-8{stroke:#231f20}.cls-2,.cls-5{stroke-width:1px}.cls-3{fill:#231f20}.cls-4{fill:none;stroke-width:.85px}.cls-4,.cls-8{stroke-linecap:round}.cls-5{fill:url(#GradientFill_71)}.cls-6,.cls-7{stroke-width:.5px}.cls-6{fill:url(#GradientFill_72)}.cls-7{fill:url(#GradientFill_72-2)}.cls-8{stroke-width:.5px}</style><radialGradient id="GradientFill_71" cx="27.6" cy="9.02" r="13.61" gradientUnits="userSpaceOnUse"><stop offset="0" stop-color="#fff"/><stop offset="1" stop-color="#f7f4e1"/></radialGradient><radialGradient id="GradientFill_72" cx="18.84" cy="9.2" r="13.34" gradientUnits="userSpaceOnUse"><stop offset="0" stop-color="#ffcb05"/><stop offset="1" stop-color="#f58345"/></radialGradient><radialGradient id="GradientFill_72-2" cx="30.19" cy="9.14" r="6.38" xlink:href="#GradientFill_72"/></defs><title>Asset 17</title><g id="Layer_2" data-name="Layer 2"><g id="Layer_1-2" data-name="Layer 1"><path class="cls-1" d="M7.43 7.37s3.12-14.09 13-1.91z"/><path class="cls-2" d="M20.41 5.46l-13 1.91s3.14-14.09 13-1.91z"/><path class="cls-3" d="M9.4 5.11s1.76-2.93 3.52-3.51A16.35 16.35 0 0 0 10 5.31zm1.6-.39s1.64-3.06 3.81-2.93a7.19 7.19 0 0 0-3 2.67zm2.31-1.07s1.56-1.47 2.74-1.17a3.41 3.41 0 0 0-1.76 1.27z"/><path class="cls-1" d="M12.26 21s4.62 10.46 11.27-3.82z"/><path class="cls-2" d="M23.53 17.13L12.26 21s4.62 10.41 11.27-3.87z"/><path class="cls-1" d="M24 16s8.75 5.23 9.35-2.31z"/><path class="cls-2" d="M33.38 13.71L24 16s8.78 5.25 9.38-2.29z"/><path class="cls-4" d="M30.51 6.36s-.33 5.41 2.05 7.87"/><path class="cls-3" d="M27.15 15.79a3.56 3.56 0 0 0 3.25 1 4 4 0 0 1-2.57-1.35zm1.46-.43a3.54 3.54 0 0 0 3.39.22 4 4 0 0 1-2.82-.71z"/><path class="cls-1" d="M21.71 5.86s10-6.44 9.76 1z"/><path class="cls-2" d="M31.47 6.86l-9.76-1s9.96-6.44 9.76 1z"/><path class="cls-5" d="M2.37 17.33s-4.42-.64.33-5.85C18-5.3 19.9 11.43 34.69 4.87c5.84-3.64 5.84 12.76 1.11 10.75-1.41-.61-3.42-3-9.26.5S12.9 26.58 2.37 17.33z"/><path class="cls-6" d="M6.85 7.46c3.62-3 6.39-3.83 8.89-3.71l.1.07s-2.13 2.05 1.64 5 6.8 4.75 6.47 8.77l-.07.22C20.67 19.86 17 22 12.62 21.94q3.06-11.26-5.77-14.48z"/><path class="cls-7" d="M25 6.2a14.22 14.22 0 0 0 5.42 0l-.12.35a11.14 11.14 0 0 0 2 7.6v.09c-1.34-.11-3.13.24-5.65 1.73v-.14C31.82 9.72 25 6.28 25 6.28z"/><path class="cls-3" d="M24.37 5.87a7 7 0 0 1 4-1.78A5.91 5.91 0 0 0 25 6.16zm1.63.31s2.1-2.36 3.75-1.74a6.1 6.1 0 0 0-3 1.7zm1.29.05s2.24-1.51 2.92-1a4.28 4.28 0 0 0-2 1.15zm10.24-.98a6 6 0 0 1-3.34 1.9 5.17 5.17 0 0 0 4-1.44zm1.07 1.64S37.53 8.43 34 8.73c0 0 3 .67 4.77-1.28zm-4 3.18a10.14 10.14 0 0 0 4.51-.87v1.23a13.45 13.45 0 0 1-4.51-.36zm.21 1.18a8.41 8.41 0 0 1 4 1.12l-.31.88a6.42 6.42 0 0 0-3.69-2zm3.59 2.92s-.72-1-3.49-1.33c0 0 2.77.71 3.18 2.25zm-23.93.34s5.45-3.77 6.06-.82-2.17 4.59-5.71 2.57c0 0 4.67 4.13 6.14-.83s-3.29-4.78-6.49-.92zM2.19 17.32L.48 16.21z"/><path class="cls-8" d="M10.45 11.32a1.58 1.58 0 0 1-1.64 1.47 1.58 1.58 0 0 1-1.07-1.92 1.57 1.57 0 0 1 1.63-1.48 1.59 1.59 0 0 1 1.08 1.93z"/><path class="cls-3" d="M9.31 9.71a1.31 1.31 0 0 0-1.45 1 1.3 1.3 0 0 0 .66 1.69 1.31 1.31 0 0 0 1.48-1 1.56 1.56 0 0 0-.12-1.25z"/></g></g></svg>