<svg xmlns="http://www.w3.org/2000/svg" viewBox="0 0 49.08 46.83"><defs><style>.cls-1,.cls-14,.cls-7{fill:#fff}.cls-1,.cls-10,.cls-11,.cls-12,.cls-13,.cls-14,.cls-3,.cls-4,.cls-5,.cls-6,.cls-7,.cls-8,.cls-9{fill-rule:evenodd}.cls-2,.cls-6{fill:#d2ab67}.cls-11,.cls-3{fill:none}.cls-11,.cls-12,.cls-14,.cls-3,.cls-6,.cls-7{stroke:#231f20;stroke-linecap:round}.cls-12,.cls-14,.cls-3,.cls-6,.cls-7{stroke-linejoin:round}.cls-11,.cls-12,.cls-3,.cls-6,.cls-7{stroke-width:1px}.cls-4{fill:#fffcd5}.cls-5{fill:#d6cc70}.cls-8{fill:#fff9ae}.cls-9{fill:#cec8ae}.cls-10{fill:#ffcb05}.cls-12{fill:#a78b6b}.cls-13{fill:#231f20}.cls-14{stroke-width:.5px}</style></defs><title>Asset 95</title><g id="Layer_2" data-name="Layer 2"><g id="Layer_1-2" data-name="Layer 1"><path class="cls-1" d="M29.65 46.33v-4.8h-1.71v4.41l1.71.39z"/><path class="cls-2" d="M27.8 42.31h1.77v3.44H27.8z"/><path class="cls-3" d="M29.65 46.33v-4.8h-1.71v4.41"/><path class="cls-1" d="M26.37 41.12c0 .9 1.08 1.63 2.43 1.63s2.43-.73 2.43-1.63-1.09-1.62-2.43-1.62-2.43.73-2.43 1.62z"/><path class="cls-3" d="M26.37 41.12c0 .9 1.08 1.63 2.43 1.63s2.43-.73 2.43-1.63-1.09-1.62-2.43-1.62-2.43.73-2.43 1.62z"/><path class="cls-1" d="M20.62 37c-2 1.81-10.42 8.56-10.2 5.11-2.71 1.7-5.07 2.78-5.35 1.8-.21-.75.76-1.84 2.19-3a1.43 1.43 0 0 1-1.72-.82c-.74-1.8 1.7-3.93 4.07-4.88z"/><path class="cls-4" d="M8.95 35.33l-2.93 2.16-.5 2.55 1.33 1.17-1.6 1.38-.12 1.55 2.33-.27 2.98-1.78.17.83 1.6-.11 3.93-2.05 4.2-3.66-5.36-.61-6.03-1.16z"/><path class="cls-5" d="M9 35.33l-2.43 1.76a3.63 3.63 0 0 1 2.16.07c1.62.62 1.55.92 1.55 2.49.77-.17 2.94-.8 2.59.61a5.56 5.56 0 0 1 2.55-.72 2.48 2.48 0 0 1 1.42.61l3.5-3-5.34-.66z"/><path class="cls-3" d="M20.62 37c-2 1.81-10.42 8.56-10.2 5.11-2.71 1.7-5.07 2.78-5.35 1.8-.21-.75.76-1.84 2.19-3a1.43 1.43 0 0 1-1.72-.82c-.74-1.8 1.7-3.93 4.07-4.88"/><path class="cls-6" d="M26.6 37.1c-3.17 4 0 6.46 4.91 3.82 1.42-.76 2.66-1.74 2.41-3.31a2.82 2.82 0 0 0-3.28-2.35c-1.57.26-3.07.61-4.04 1.84z"/><path class="cls-7" d="M29.1 34.49s3.34-.09 3.15 1.62-2.19-2.45-4.81 1.11C25.57 39.77 26 35 29.1 34.49z"/><path class="cls-7" d="M27.88 34.78s3.34-.08 3.15 1.63-1.33-2.17-4 1.39c-1.82 2.55-2.23-2.5.85-3.02z"/><path class="cls-1" d="M33.56 32.38c14.37-5 8.17-15.78 9.56-17.32 6.85-3.76 0-.83 1-3 .92-2-1-7.29 1.89-8.61a5.07 5.07 0 0 1 2.43 0s-3.7-5.8-7 5.06c0 0-1.24-6 1.36-7.9 0 0-4.94-1.6-3.34 7.29 0 0-4.81-3.83-3.21-7 0 0-5.67 1.85.62 7.9a8.59 8.59 0 0 1-4.57-1.85s-.56 2.78 3.49 3c-1.33 1.21-2.29 3.31-2.77 6.69 0 0-8.71 1.14-15.39 9.84-4.81 1.11-6.63 3.36-6.63 3.36C6.2 30 5.17 31 4.58 31.7c-4.53-.75-6.57-1 .78 2C32.64 44.57 40.78 24.83 40 19.51c-.7-4.53-7-2.92-7-2.92z"/><path class="cls-8" d="M33.06 16.45l2.96-.15 2.4.56 1.48 1.84.1 2.6-1.38 4.13-3.57 6.28 4.64-2.4 2.65-3.42.97-4.28-.51-6.53 1.38-3.52.36-6.33.92-1.63 2.6-.72-1.58-.87-2.09.31-1.69 2.6-1.37 3.01-.21-4.54L42.24.43l-2.6 1.18-.66 2.14.3 3.88-2.6-2.6-.66-2.15-.41-1.94-1.63 1.84-.05 1.99 1.32 2.6 1.33 1.43-1.99-.51-2.35-.97.41 1.58 1.28.77 1.53.36-1.69 3.06-.71 3.36z"/><path class="cls-9" d="M1.6 31.34l2.98.5 1.66-1.39 4.92-.72 1.83-1.55 4.58-1.83 3.98-4.38 6.64-3.88L33 16.32l5.03.39 1.61 1.66.27 2.88-1.66 5.77-4.97 5.43-4.04 2.49-5.09 1.66-7.18.12-6.09-1.06-.38-.05-9.18-3.66.28-.61z"/><path class="cls-8" d="M1.6 31.34l1.51.25c11 3.33 18.5 3.68 29.45 1.3l-3.32 2-5.09 1.67-7.15.16-6.09-1.06h-.38L1.32 32z"/><path class="cls-3" d="M33.56 32.38c14.37-5 8.17-15.78 9.56-17.32 6.85-3.76 0-.83 1-3 .92-2-1-7.29 1.89-8.61a5.07 5.07 0 0 1 2.43 0s-3.7-5.8-7 5.06c0 0-1.24-6 1.36-7.9 0 0-4.94-1.6-3.34 7.29 0 0-4.81-3.83-3.21-7 0 0-5.67 1.85.62 7.9a8.59 8.59 0 0 1-4.57-1.85s-.56 2.78 3.49 3c-1.33 1.21-2.29 3.31-2.77 6.69 0 0-8.71 1.14-15.39 9.84-4.81 1.11-6.63 3.36-6.63 3.36C6.2 30 5.17 31 4.58 31.7c-4.53-.75-6.57-1 .78 2C32.64 44.57 40.78 24.83 40 19.51c-.7-4.53-7-2.92-7-2.92"/><path class="cls-1" d="M44.1 12.06s5.52-.87 4.31 4.56a2.3 2.3 0 0 0-2.32-.69c-1.37.36-2.36.24-3-.5-.41-.52.39-2.96 1.01-3.37z"/><path class="cls-10" d="M44.06 11.89L42.9 14.6l.11 2.77h2.32l1.55-1.49 1.71.77-.05-2.49-1.28-1.66-3.2-.61z"/><path class="cls-11" d="M44.1 12.06s5.52-.87 4.31 4.56a2.3 2.3 0 0 0-2.32-.69c-1.37.36-2.36.24-3-.5-.41-.52.39-2.96 1.01-3.37z"/><path class="cls-12" d="M24.75 39.67A2.84 2.84 0 0 0 28 42a2.92 2.92 0 0 0 2.42-3.3 2.84 2.84 0 0 0-3.29-2.36 2.92 2.92 0 0 0-2.38 3.33z"/><path class="cls-13" d="M5.79 32.23s10.85 4.14 19.55.74c0 .03-6.06 4.66-19.55-.74zm6.66-1.83s10.48 1.57 18-1.62c-.05 0-6.07 3.92-18 1.62z"/><path class="cls-14" d="M37.92 13a1.54 1.54 0 0 0 1.78 1.28 1.58 1.58 0 0 0 1.3-1.8 1.53 1.53 0 0 0-1.77-1.27A1.57 1.57 0 0 0 37.92 13z"/><path class="cls-13" d="M40.37 12.32a1.13 1.13 0 0 1 .19.48 1.22 1.22 0 0 1-1 1.39 1.2 1.2 0 0 1-1.38-1 1.23 1.23 0 0 1 1-1.4 1.19 1.19 0 0 1 .77.14zm.05-2.18a2.1 2.1 0 0 0-2.49.74s.42-1.88 2.49-.74zM12.65 38s-3.48 2.67-6 2.85l.44.22s2.64-.17 5.56-3.07zm1.58.94A53.82 53.82 0 0 1 9 42.79l1.34-.5a16.62 16.62 0 0 0 3.89-3.35zm24.44-17.22s-3.21 2.59-3.08 0c0 0-2.6 2.59-2.6-.12 0 0-4.93 0-3.7-3.09 0 0 .49 3.46 4.2 2.35 0 0-.74 3.08 2.59.12 0 .02-.49 2.72 2.59.74zM7.07 37.77s-.93 2.93 1.6 2c0-.02-3.95 1.95-1.6-2z"/><path class="cls-13" d="M11.31 41.4s-.46 1.1 1.46.84c0 0-2.47.76-1.46-.84z"/><path class="cls-3" d="M46.94 15.92a3.69 3.69 0 0 1-4 1.43"/><path class="cls-13" d="M6.6 42a.94.94 0 0 0 1.32.87S5.61 43.88 6.6 42z"/></g></g></svg>