<svg xmlns="http://www.w3.org/2000/svg" viewBox="0 0 35.71 34.56"><defs><style>.cls-1,.cls-2,.cls-3,.cls-4,.cls-5,.cls-6{fill-rule:evenodd}.cls-1{fill:url(#GradientFill_16)}.cls-2{fill:url(#GradientFill_17)}.cls-3{fill:url(#GradientFill_18)}.cls-4{fill:#f4eae5}.cls-5{fill:#231f20}.cls-6{fill:none;stroke:#231f20;stroke-linecap:round;stroke-linejoin:round;stroke-width:1px}</style><linearGradient id="GradientFill_16" x1="-1.52" y1="41.02" x2="38.97" y2=".53" gradientUnits="userSpaceOnUse"><stop offset="0" stop-color="#fcd3c1"/><stop offset="1" stop-color="#fff"/></linearGradient><linearGradient id="GradientFill_17" x1="10.74" y1="27.29" x2="36.23" y2="1.81" gradientUnits="userSpaceOnUse"><stop offset="0" stop-color="#eb668d"/><stop offset="1" stop-color="#f8abad"/></linearGradient><linearGradient id="GradientFill_18" x1="37.8" y1="1.7" x2="-3.17" y2="42.67" gradientUnits="userSpaceOnUse"><stop offset="0" stop-color="#f9b5b2"/><stop offset="1" stop-color="#f48580"/></linearGradient></defs><title>Asset 21</title><g id="Layer_2" data-name="Layer 2"><g id="Layer_1-2" data-name="Layer 1"><path class="cls-1" d="M7.77 10a16.05 16.05 0 0 0 2.56-4.68C11.17 2.68 13.44.21 15.4.53c1.12.18 6.31.57 13.13 7.55 5.1 5.22 7.15 9.27 6.09 18.22 0 0 2.11 4.06-1.61 4.8a6.08 6.08 0 0 1-2.12-.29s-2.16-.57-.49-1.75c0 0 .08-.33-1.06-.78 0 0-.77.25-1.14-.16 0 0-.74.57-.94 0-.12-.33-.49 0-.49 0a12.06 12.06 0 0 1-3.37.71 1 1 0 0 1-1 .11 1.44 1.44 0 0 0-.42.12 1.09 1.09 0 0 1-.71-.06 4.36 4.36 0 0 0-1.38.17c-.17 0-2.43-.34-3.53 0s-3.22 4-3.22 4-.51.84-1.19.82c-.93 0-1.32-1.83-1.32-1.83s.42-2.91.39-3.7S9.07 24.62 9.13 24c0 0-.26.05-.34-.06a14.82 14.82 0 0 0-1.58 1.13s-.28.2-.48.11-.09-.48-.09-.48a12.06 12.06 0 0 0 .77-3 4.29 4.29 0 0 1-.68 0c-.37 0-1.35.26-.26-1.3.74-1.05-.87-.31-.87-.31a.46.46 0 0 1-.4.14c-.25 0-.53-.11-.36-.59a3.47 3.47 0 0 0 .33-1.39s-.87-.17-.28-.76a1 1 0 0 0-.65.08s-.67-.11-.36-.48c0 0-1.19.4-.23-.65 0 0-.37-.62-.74-.5 0 0-.53.11-.33-.12 0 0-.71.09-.43-.62a.45.45 0 0 0-.7-.2c-.48.31-.2-.59-.2-.59s-1 .12-.68-.82a1 1 0 0 1 1.73-.39s.36-.74 1-.06.6-.06.6-.06.34-1.3 1.24 0c0 0 1.55-.2 1.89-1.21s.97 1.82 1.06-.13c0 0 .34-.76-.11-.73z"/><path class="cls-2" d="M16.88 10.86c.77-.25.87-.86.95-1.51S19.2 7.63 20 8.29a4.84 4.84 0 0 1 1.84 2.18l2.91 5 1.11.89.45-.67 1.12 1L29.22 20z"/><path class="cls-3" d="M8.27 10.79s1.88.08 2.5-.95L11.86 8l.83-.84L17.05 11l6.92 5 5.59 3.35 2.34 2.29 2.77 4.21c0 .17 0 .34-.05.51 0 0 2.11 4.06-1.61 4.8a6.08 6.08 0 0 1-2.12-.29s-2.16-.57-.49-1.75c0 0 .08-.33-1.06-.78 0 0-.77.25-1.14-.16 0 0-.74.57-.94 0-.12-.33-.49 0-.49 0a12.06 12.06 0 0 1-3.37.71 1 1 0 0 1-1 .11 1.44 1.44 0 0 0-.42.12 1.09 1.09 0 0 1-.71-.06 4.36 4.36 0 0 0-1.38.17c-.17 0-2.43-.34-3.53 0s-3.22 4-3.22 4-.51.84-1.19.82c-.93 0-1.32-1.83-1.32-1.83s.42-2.91.39-3.7-1.95-3.84-1.89-4.46c0 0-.26.05-.34-.06a14.82 14.82 0 0 0-1.58 1.13s-.28.2-.48.11-.09-.48-.09-.48a12.06 12.06 0 0 0 .77-3 4.29 4.29 0 0 1-.68 0c-.37 0-1.35.26-.26-1.3.74-1.05-.87-.31-.87-.31a.46.46 0 0 1-.4.14c-.25 0-.53-.11-.36-.59a3.47 3.47 0 0 0 .33-1.39s-.87-.17-.28-.76a1 1 0 0 0-.65.08s-.67-.11-.36-.48c0 0-1.19.4-.23-.65 0 0-.37-.62-.74-.5 0 0-.53.11-.33-.12 0 0-.71.09-.43-.62a.45.45 0 0 0-.7-.2c-.48.31-.2-.59-.2-.59s-1 .12-.68-.82a1 1 0 0 1 1.73-.39s.36-.74 1-.06.6-.06.6-.06.34-1.3 1.24 0c0 0 1.55-.2 1.89-1.21s.97 1.76 1.06-.19c0 0 .34-.76-.11-.73z"/><path class="cls-4" d="M9.1 24.06s-.26 0-.33-.06a14.82 14.82 0 0 0-1.58 1.13s-.28.2-.48.11-.09-.48-.09-.48a12.06 12.06 0 0 0 .77-3 4.29 4.29 0 0 1-.68 0c-.37 0-1.35.26-.26-1.3.74-1.05-.87-.31-.87-.31a.46.46 0 0 1-.4.14c-.25 0-.53-.11-.36-.59a3.47 3.47 0 0 0 .33-1.39s-.87-.17-.28-.76a1 1 0 0 0-.65.08s-.67-.11-.36-.48c0 0-1.19.4-.23-.65 0 0-.37-.62-.74-.5 0 0-.53.11-.33-.12 0 0-.71.09-.43-.62a.45.45 0 0 0-.7-.2c-.48.31-.2-.59-.2-.59s-1 .12-.68-.82a1 1 0 0 1 1.73-.39s.36-.74 1-.06.6-.06.6-.06.34-1.3 1.24 0c0 0 1.55-.2 1.89-1.21s.99 1.76 1.08-.19c0 0 .24-.53.05-.69a2.8 2.8 0 0 1 1.58-.88 1.69 1.69 0 0 0 1.37-.72c.36-.58.79-2.49 1-.44a5.29 5.29 0 0 1-.46 1.6c-.11.42-.58.84-.65 1.06-1.41-.32-1.7.53-1.21 1.51.35.7 1 1.3.67 2.43a22.93 22.93 0 0 1-.7 2.61c-.22.52-.36 1-.51 1.35-1 2.15-2.38 2.41.59 3.39a13.14 13.14 0 0 1-.72 1.1z"/><path class="cls-5" d="M34.62 26.3s-2.35-5.05-6.12-7.4S14.06 9.83 12.79 7.09a67.93 67.93 0 0 0 6.82 5.66c2.54 1.86 5.81 3.85 9 5.76 4.14 2.46 6 7.35 6 7.35zM8.22 11s1-.77 1.58-.67c1.07.22 1.2-1 2-2.14s.95-1.05.95-1.05-.49-.19-1.95 2.54a.93.93 0 0 1-.93.34c-.59-.15-1.65.98-1.65.98zM28.2 28a2.69 2.69 0 0 0 .51-.54s-.29.66-.52.74zm-4.83.75a9.57 9.57 0 0 1 1.2-1.13 7.07 7.07 0 0 0-1.14 1.28zM9.84 18.77A19.11 19.11 0 0 1 8 21.05c-.71.63.08 2.09 2 2.05a15.52 15.52 0 0 1 5.12.48 25.62 25.62 0 0 0-5.2-.91c-3.11-.31-1.14-2-1.14-2a7.46 7.46 0 0 0 1.06-1.9z"/><path class="cls-5" d="M11.84 8.14a3.68 3.68 0 0 1-.92 3.52s1.92-1 1.21-4.08z"/><path class="cls-5" d="M12.79 12s-5.46-1.59-2.8 1.7a1.92 1.92 0 0 1 .41 1.84s.8-1-.6-2.69 2.99-.85 2.99-.85zM7.6 16.66a3.67 3.67 0 0 0 0-1.63c-.16-1.16.71-1.07 1-1.1 0 0-1 .31-.87.83a7.62 7.62 0 0 1-.13 1.9zm5.05-9.54s.14-.14.24.07l.07.19s-.27-.3-.46-.08z"/><path class="cls-5" d="M10.15 11.31s-.75-2-1.19.31c-.22 1.15-.22.83-.47 1 0 0 .52-.15.69-1.34s.97.03.97.03zM5.89 14.6a.84.84 0 0 0-.53 1.08c.24.84.29.95.08 1.26a2.43 2.43 0 0 0 .08-1.47.79.79 0 0 1 .37-.87zm-.68 3.69a.68.68 0 0 1 .55.34 1.29 1.29 0 0 0-.67-.22zm10.94 10.95s.58-.76 2.67-.82c0 0-2.13.19-2.61.94zm.07-18.97s1.3 1 1.3-.84 2.84-3.22 5.86 3 2.34 2.31 3.1 3.1A27.59 27.59 0 0 1 29 18.81l-.67-.29a13.45 13.45 0 0 0-1.93-2.68c-.5-.25.09 1.46-1.46 0s-2.68-4.4-3.35-5.28-2.46-4.22-3.71-.41a1 1 0 0 1-.9.75z"/><path class="cls-6" d="M7.77 10a16.05 16.05 0 0 0 2.56-4.68C11.17 2.68 13.44.21 15.4.53c1.12.18 6.31.57 13.13 7.55 5.1 5.22 7.15 9.27 6.09 18.22 0 0 2.11 4.06-1.61 4.8a6.08 6.08 0 0 1-2.12-.29s-2.16-.57-.49-1.75c0 0 .08-.33-1.06-.78 0 0-.77.25-1.14-.16 0 0-.74.57-.94 0-.12-.33-.49 0-.49 0a12.06 12.06 0 0 1-3.37.71 1 1 0 0 1-1 .11 1.44 1.44 0 0 0-.42.12 1.09 1.09 0 0 1-.71-.06 4.36 4.36 0 0 0-1.38.17c-.17 0-2.43-.34-3.53 0s-3.22 4-3.22 4-.51.84-1.19.82c-.93 0-1.32-1.83-1.32-1.83s.42-2.91.39-3.7S9.07 24.62 9.13 24c0 0-.26.05-.34-.06a14.82 14.82 0 0 0-1.58 1.13s-.28.2-.48.11-.09-.48-.09-.48a12.06 12.06 0 0 0 .77-3 4.29 4.29 0 0 1-.68 0c-.37 0-1.35.26-.26-1.3.74-1.05-.87-.31-.87-.31a.46.46 0 0 1-.4.14c-.25 0-.53-.11-.36-.59a3.47 3.47 0 0 0 .33-1.39s-.87-.17-.28-.76a1 1 0 0 0-.65.08s-.67-.11-.36-.48c0 0-1.19.4-.23-.65 0 0-.37-.62-.74-.5 0 0-.53.11-.33-.12 0 0-.71.09-.43-.62a.45.45 0 0 0-.7-.2c-.48.31-.2-.59-.2-.59s-1 .12-.68-.82a1 1 0 0 1 1.73-.39s.36-.74 1-.06.6-.06.6-.06.34-1.3 1.24 0c0 0 1.55-.2 1.89-1.21s.97 1.82 1.06-.13c0 0 .34-.76-.11-.73z"/></g></g></svg>