<svg xmlns="http://www.w3.org/2000/svg" viewBox="0 0 45.36 35.58"><defs><style>.cls-1{fill:#fff}.cls-1,.cls-2,.cls-3{fill-rule:evenodd}.cls-2{stroke:#231f20;stroke-width:1px;fill:url(#GradientFill_42)}.cls-3{fill:#231f20}</style><radialGradient id="GradientFill_42" cx="31.55" cy="10.87" r="24.77" gradientUnits="userSpaceOnUse"><stop offset="0" stop-color="#ffcb05"/><stop offset="1" stop-color="#faa74a"/></radialGradient></defs><title>Asset 69</title><g id="Layer_2" data-name="Layer 2"><g id="Layer_1-2" data-name="Layer 1"><path class="cls-1" d="M44.86 22.35c0-1.59-1.66-2.45-1.88-3.86C41.11 6.65 33.38.5 23.74.5 12.34.5 4.43 8 4.43 19.39A25.21 25.21 0 0 1 3.19 25c-4.35 10-6.07 2.17 16.09 9.4 8.07 2.63 14-3 17.52-5.78 6.14-2.69 8.06-6.27 8.06-6.27z"/><path class="cls-2" d="M44.86 22.35c0-1.59-1.66-2.45-1.88-3.86C41.11 6.65 33.38.5 23.74.5 12.34.5 4.43 8 4.43 19.39A25.21 25.21 0 0 1 3.19 25c-4.35 10-6.07 2.17 16.09 9.4 8.07 2.63 14-3 17.52-5.78 6.14-2.69 8.06-6.27 8.06-6.27z"/><path class="cls-3" d="M4 24.07c-1-.76-.1-.65-.1-.65a13.29 13.29 0 0 0 5.64 2.11S9.19 8.67 18.73 4.37c0 0-8.51 3.33-8.56 22A12.87 12.87 0 0 1 4 24.07zm35.3-2.5a32.08 32.08 0 0 1-20.81 6.14S15.58 13 23.43 4.67c0 0-7 8.33-4.05 22.25a31.05 31.05 0 0 0 19.92-5.35zM22.86 3a5.78 5.78 0 0 1-2.44-.44c0 .45 1.06.81 2.37.81s2.28-.33 2.36-.75a6.16 6.16 0 0 1-2.29.38z"/></g></g></svg>