<svg xmlns="http://www.w3.org/2000/svg" xmlns:xlink="http://www.w3.org/1999/xlink" viewBox="0 0 65.12 36.28"><defs><style>.cls-1{fill:#fff}.cls-1,.cls-2,.cls-3,.cls-4,.cls-5{fill-rule:evenodd}.cls-2,.cls-3,.cls-4{stroke:#231f20;stroke-linejoin:round;stroke-width:1px}.cls-2{fill:url(#GradientFill_40)}.cls-3{fill:url(#GradientFill_40-2)}.cls-4{fill:#f1ecd2}.cls-5{fill:#231f20}</style><radialGradient id="GradientFill_40" cx="45.39" cy="17.28" r="20.41" gradientUnits="userSpaceOnUse"><stop offset="0" stop-color="#fffde9"/><stop offset="1" stop-color="#f3f0dd"/></radialGradient><radialGradient id="GradientFill_40-2" cx="38.26" cy="7.74" r="10.41" xlink:href="#GradientFill_40"/></defs><title>Asset 71</title><g id="Layer_2" data-name="Layer 2"><g id="Layer_1-2" data-name="Layer 1"><path class="cls-1" d="M15.39 10S-4.12 21.82 1.53 29.85 57.4 39 63.59 25.28 46.2 9.36 46.2 9.36z"/><path class="cls-2" d="M46.2 9.36L15.39 10S-4.12 21.82 1.53 29.85 57.4 39 63.59 25.28 46.2 9.36 46.2 9.36z"/><path class="cls-3" d="M14.15 21C13 17.26 13 3.68 23.18 1.28s24.32.29 25.62 14.87c.91 10.08-33.45 8.6-34.65 4.85z"/><path class="cls-4" d="M3.8 31.7c9.8 5.4 42.83 6.08 55.45-1.88l1.94-1.44C51.66 34 40.84 34.23 25 32c-8-1.11-21.24-.49-21.24-.49z"/><path class="cls-5" d="M13.64 17.16a59.27 59.27 0 0 0-8.46 6.07 29.49 29.49 0 0 1 8.33-7.29zM36 12.26s-10.62 8.39-14.94 4c-1.89-1.92-.33-4 3.39-4s-5.06 2.23-.89 3.34S36 12.26 36 12.26z"/></g></g></svg>