<svg xmlns="http://www.w3.org/2000/svg" viewBox="0 0 79.72 39.12"><defs><style>.cls-1{fill:#fff}.cls-1,.cls-2,.cls-3,.cls-4{fill-rule:evenodd}.cls-2,.cls-3{fill:#bd633a;stroke:#231f20;stroke-linejoin:round;stroke-width:1px}.cls-3{fill:url(#GradientFill_83)}.cls-4{fill:#231f20}</style><radialGradient id="GradientFill_83" cx="55.79" cy="11.94" r="27.94" gradientUnits="userSpaceOnUse"><stop offset="0" stop-color="#e08247"/><stop offset="1" stop-color="#ca6c38"/></radialGradient></defs><title>Asset 81</title><g id="Layer_2" data-name="Layer 2"><g id="Layer_1-2" data-name="Layer 1"><path class="cls-1" d="M47.63 26.42s2.24 5.71 13.06 5.51c0 0 3.47 1.22 1.63 2.44 0 0-2.24 1.23-1.63 2.25 1 1.72 6.12 1 5.92-.41 0 0 .79-5.1-3.07-7.55z"/><path class="cls-2" d="M63.54 28.66l-15.91-2.24s2.24 5.71 13.06 5.51c0 0 3.47 1.22 1.63 2.44 0 0-2.24 1.23-1.63 2.25 1 1.72 6.12 1 5.92-.41 0 0 .79-5.1-3.07-7.55z"/><path class="cls-1" d="M15.26 25.82a36.15 36.15 0 0 1 .79 7.86s-2.78 1-2.37 2.79 6.47 1.34 6.59-.67a31.12 31.12 0 0 1 1.14-7.54z"/><path class="cls-2" d="M21.41 28.26l-6.15-2.44a36.15 36.15 0 0 1 .79 7.86s-2.78 1-2.37 2.79 6.47 1.34 6.59-.67a31.12 31.12 0 0 1 1.14-7.54z"/><path class="cls-1" d="M74.53 23.67c-7.23-6-9.83-6.78-10.74-6.74-1.56-1.23-3.85-1.72-7-1.83C52.7 15 30.64 17 27.4 10 24.75 4.29 21.28 1.43 18 .82c0 0-8.75-1.82-9.77 3.27A20.08 20.08 0 0 1 1.9 8.78s-2 0 .31 1.63c2 1.43 15.11-2.2 13 4.49 0 0-4.49 8 .21 11.83a9.92 9.92 0 0 0 3.34 1.8 22.9 22.9 0 0 1 .72 6.19s-2.77 1-2.37 2.79 6.48 1.34 6.59-.67a31.61 31.61 0 0 1 1.15-7.53c5.3 1.46 17 1.2 26.47-2.37 0 0 2.25 5.71 13.06 5.51 0 0 3.47 1.22 1.63 2.44 0 0-2.24 1.23-1.63 2.25 1 1.72 6.12 1 5.92-.41 0 0 .79-5.1-3.06-7.55-2.25-1.43-.44-3-.82-6.53a12.8 12.8 0 0 0-.4-2.16c2 .94 4 2.51 6.73 4.41 4.69 3.26 6.52 1.43 6.52 1.43a21.87 21.87 0 0 1-4.74-2.66z"/><path class="cls-3" d="M74.53 23.67c-7.23-6-9.83-6.78-10.74-6.74-1.56-1.23-3.85-1.72-7-1.83C52.7 15 30.64 17 27.4 10 24.75 4.29 21.28 1.43 18 .82c0 0-8.75-1.82-9.77 3.27A20.08 20.08 0 0 1 1.9 8.78s-2 0 .31 1.63c2 1.43 15.11-2.2 13 4.49 0 0-4.49 8 .21 11.83a9.92 9.92 0 0 0 3.34 1.8 22.9 22.9 0 0 1 .72 6.19s-2.77 1-2.37 2.79 6.48 1.34 6.59-.67a31.61 31.61 0 0 1 1.15-7.53c5.3 1.46 17 1.2 26.47-2.37 0 0 2.25 5.71 13.06 5.51 0 0 3.47 1.22 1.63 2.44 0 0-2.24 1.23-1.63 2.25 1 1.72 6.12 1 5.92-.41 0 0 .79-5.1-3.06-7.55-2.25-1.43-.44-3-.82-6.53a12.8 12.8 0 0 0-.4-2.16c2 .94 4 2.51 6.73 4.41 4.69 3.26 6.52 1.43 6.52 1.43a21.87 21.87 0 0 1-4.74-2.66z"/><path class="cls-4" d="M3.43 8.91c0 .63-.77 1.14-1.72 1.14S0 9.54 0 8.91s.76-1.14 1.71-1.14 1.72.51 1.72 1.14zM16.18 3.1s.38-2 3.22-1.9 9.1 12.7 4.11 15.8c-4.31 2.66-5.88-5.56-5.88-5.56s1.71 4.48 3.35 5.24 5.68-1.49 1.39-10.61C18.9-1.32 16.18 3.1 16.18 3.1zm-4.4 6.06s-.34.7-5.64 1.14l1.32.38s3.6.32 4.32-1.52zm-.64-4.78a.94.94 0 0 0-.39.92c.12.54.85.84 1.63.67s1.32-.77 1.2-1.31-.86-.85-1.64-.67h-.09zM43.37 23s5.07-.19 7.37 2.68c0-.04-1.34-4.35-7.37-2.68zm-16.45 1.3a11.5 11.5 0 0 0-1.53 3.7s-.57-2.75 1.53-3.7z"/></g></g></svg>