<svg xmlns="http://www.w3.org/2000/svg" xmlns:xlink="http://www.w3.org/1999/xlink" viewBox="0 0 39.53 50.97"><defs><style>.cls-1{fill:#a5c3d2}.cls-1,.cls-3,.cls-4,.cls-6,.cls-7,.cls-8{stroke:#231f20}.cls-1,.cls-3,.cls-4,.cls-8{stroke-linecap:round}.cls-1,.cls-3,.cls-4,.cls-7,.cls-8{stroke-linejoin:round}.cls-1,.cls-3,.cls-4,.cls-6,.cls-7,.cls-8,.cls-9{stroke-width:1px}.cls-1,.cls-2,.cls-3,.cls-4,.cls-5,.cls-7,.cls-8{fill-rule:evenodd}.cls-2{fill:#fff}.cls-3{fill:#bdd2dc}.cls-4{fill:url(#GradientFill_99)}.cls-5{fill:#231f20}.cls-6,.cls-9{fill:none}.cls-7{fill:url(#GradientFill_100)}.cls-8{fill:url(#GradientFill_99-2)}.cls-9{stroke:#000}</style><radialGradient id="GradientFill_99" cx="19.36" cy="9.33" r="13.55" gradientUnits="userSpaceOnUse"><stop offset="0" stop-color="#849daa"/><stop offset="1" stop-color="#647883"/></radialGradient><linearGradient id="GradientFill_100" x1="7.49" y1="30.2" x2="43.28" y2="-5.6" gradientUnits="userSpaceOnUse"><stop offset="0" stop-color="#ba131a"/><stop offset="1" stop-color="#ed1c24"/></linearGradient><radialGradient id="GradientFill_99-2" cx="22.36" cy="34.18" r="15.58" xlink:href="#GradientFill_99"/></defs><title>Asset 64</title><g id="Layer_2" data-name="Layer 2"><g id="Layer_1-2" data-name="Layer 1"><path class="cls-1" d="M24.41.5L38.9 22.4l-1.5.44-.12 20.65-9.93 6.59-24.99-1.91.13-24.3-1.99-.18L13.04.86 24.41.5z"/><path class="cls-2" d="M14.32.98l13.21 22.39-.22 27.1 9.96-7.03.07-22.18L22.96.74l-8.64.24z"/><path class="cls-3" d="M14.32.98l13.21 22.39-.22 27.1 9.96-7.03.07-22.18L22.96.74l-8.64.24z"/><path class="cls-4" d="M22.8 22.66L13.46 6.97 5.6 22.21l17.2.45z"/><path class="cls-5" d="M25.66 26.15l-22.22-.68a186.54 186.54 0 0 0 22.22.68zm11-1.85L28.57 26a26.08 26.08 0 0 0 8.09-1.7zm.01 3.13l-8 2a25.74 25.74 0 0 0 8-2zm-.12 3.36l-8 2.33a26.06 26.06 0 0 0 8-2.33zm-.14 3.04l-7.87 2.7a26.44 26.44 0 0 0 7.87-2.7zM36.23 37l-7.62 3.5a27.09 27.09 0 0 0 7.62-3.5zM36 40.59l-7.4 4.14a27.47 27.47 0 0 0 7.4-4.14zm-9.93-10.81l-21.84-.57a180.4 180.4 0 0 0 21.84.57zm-7.25 3.8c2.22 0 4.6 0 7.07-.1l-7.27-.19zm-9.46-.66H4.05s1.26.2 4.84.39zm17.44 4.41l-5.55-.13a12.78 12.78 0 0 0 5.55.13zm-.95 4.05l-3.53-.11a5.33 5.33 0 0 0 3.53.11zm.64 4.18L23 45.45a5.33 5.33 0 0 0 3.49.11zm-19-8.95l-4.06-.27a6.94 6.94 0 0 0 4.06.27zm-.94 3.67L3.45 40a4.24 4.24 0 0 0 3.1.28zM6.17 44l-3.09-.3a4.18 4.18 0 0 0 3.09.3z"/><path class="cls-6" d="M27.53 23.37l9.82-2.03"/><path class="cls-7" d="M13.04.86l13.99 23.91 12-2.34L24.41.5 13.04.86z"/><path class="cls-8" d="M2.54 48.22l24.77 2.25-4.31-.36c-.24-10.56-2.69-18.8-9.21-18.8s-8.18 7.31-8.32 17.2z"/><path class="cls-5" d="M5.49 48.51L23 50.11z"/><path class="cls-9" d="M5.49 48.51l17.53 1.6"/></g></g></svg>