<svg xmlns="http://www.w3.org/2000/svg" xmlns:xlink="http://www.w3.org/1999/xlink" viewBox="0 0 45.29 55.14"><defs><style>.cls-1,.cls-2,.cls-6,.cls-7{stroke:#231f20}.cls-1,.cls-2,.cls-7{stroke-width:1px}.cls-1,.cls-2,.cls-3,.cls-4,.cls-5,.cls-6,.cls-7{fill-rule:evenodd}.cls-1{fill:url(#GradientFill_15)}.cls-2{fill:url(#GradientFill_15-2)}.cls-3{fill:#fff}.cls-4{fill:#231f20}.cls-5{fill:url(#GradientFill_15-3)}.cls-6,.cls-7{fill:none;stroke-linecap:round}.cls-6{stroke-width:.75px}</style><radialGradient id="GradientFill_15" cx="19.68" cy="16.67" r="3.78" gradientUnits="userSpaceOnUse"><stop offset="0" stop-color="#d4effc"/><stop offset="1" stop-color="#8ed8f8"/></radialGradient><radialGradient id="GradientFill_15-2" cx="31.5" cy="16.74" r="36.69" xlink:href="#GradientFill_15"/><radialGradient id="GradientFill_15-3" cx="26.45" cy="17.96" r="6.48" xlink:href="#GradientFill_15"/></defs><title>Asset 22</title><g id="Layer_2" data-name="Layer 2"><g id="Layer_1-2" data-name="Layer 1"><path class="cls-1" d="M21 18.73L17.24 15a6.93 6.93 0 0 0-.53 4.64c.55 2.84 1.56-1.07 4.29-.91z"/><path class="cls-2" d="M.5 11.49c.08 2.27 12.87 4.88 16.39 3.06a57.6 57.6 0 0 0 15.92 13.08c3.26 4.39-3.12 15.18-5.58 13.54-9-6-13.94.74-13.94.74s8-1.95 9.5 5.85 10.47 6.84 10.47 6.84c-3.32-.22-4-3.81-3.83-4.68a36.44 36.44 0 0 0 .41-5.74 19.55 19.55 0 0 0 14.89-18.39A22.92 22.92 0 0 0 38 7.66c1.53-3.38 6.17-4.66 4-5.89C38.06-.4 33.6 1.59 31.29 3A24.38 24.38 0 0 0 19.1.55c-13.14.89-12.51 8-12.51 8S.42 9.21.5 11.49z"/><path class="cls-3" d="M.54 11.68c.74 2.22 13 4.23 16.45 2.46a59.93 59.93 0 0 0 16.07 13.08c1.73 2.33.91 7.06-.76 10.17 2.33-2.3 3.64-6.24 2.68-8.6-1.24-3-.64-5.8-3-7.89-1.86-1.64-4.78-1.46-7.36-3.36s-4.48-5.63-8-5.63l-2 .32-3.13 1-4.63.06-4.3-1.69-1.68-.28z"/><path class="cls-4" d="M16.19 6.31a.5.5 0 0 1 .1.7 1.61 1.61 0 0 1-1.47.56c-.55-.09-.79-.48-.53-.87a1.56 1.56 0 0 1 1.4-.57z"/><path class="cls-5" d="M21.52 15s-1.14 6.46 1.06 9.33 2.33-4.92 6.11-4.75C26.8 15.87 24 14.89 21.52 15z"/><path class="cls-4" d="M27.39 20.13s5.14-1.82 6.68 5.94c0 0 .54-1.47-1.17-4.36s-5.66-2.59-5.57-1.95zm2.17 22.22s10.12-3.5 11.22-16.41a17.42 17.42 0 0 1-11.22 16.41z"/><path class="cls-6" d="M.78 11.28c1.35-.64 3.45 2.47 9.36 2.13 4.57-.26 4.12-1.72 6.59-1.53"/><path class="cls-7" d="M21.52 15s-1.14 6.46 1.06 9.33 2.33-4.92 6.11-4.75"/></g></g></svg>