<svg xmlns="http://www.w3.org/2000/svg" viewBox="0 0 74.72 28.19"><defs><style>.cls-1{fill:#fff}.cls-1,.cls-2,.cls-3,.cls-4,.cls-5,.cls-6,.cls-7{fill-rule:evenodd}.cls-2{fill:#808285}.cls-2,.cls-3,.cls-4,.cls-5,.cls-6{stroke:#231f20;stroke-width:1px}.cls-3{fill:#8ed8f8}.cls-4{stroke-linejoin:round;fill:url(#GradientFill_7)}.cls-5{fill:#a7a9ac}.cls-6{fill:#58595b}.cls-7{fill:#231f20}</style><radialGradient id="GradientFill_7" cx="55.49" cy="11.18" r="16.42" gradientUnits="userSpaceOnUse"><stop offset="0" stop-color="#ed1c24"/><stop offset="1" stop-color="#ba131a"/></radialGradient></defs><title>Asset 45</title><g id="Layer_2" data-name="Layer 2"><g id="Layer_1-2" data-name="Layer 1"><path class="cls-1" d="M20.78 7.39s-3.15-5.77 0-6.82 5.08 10.49 5.08 10.49z"/><path class="cls-2" d="M25.86 11.06l-5.08-3.67s-3.15-5.77 0-6.82 5.08 10.49 5.08 10.49z"/><path class="cls-1" d="M33.38 12.29l-1.75-9.8a60.68 60.68 0 0 1 17.14 12.77z"/><path class="cls-3" d="M48.77 15.26l-15.39-3-1.75-9.8a60.68 60.68 0 0 1 17.14 12.8z"/><path class="cls-4" d="M11.78 22.17L14.9 5.94s57.82 9.64 59.31 15.61c.94 3.74-62.43.62-62.43.62z"/><path class="cls-5" d="M33.63 21.7a2.35 2.35 0 1 1-2.34-2.34 2.35 2.35 0 0 1 2.34 2.34z"/><path class="cls-5" d="M38.47 21.7a2.34 2.34 0 1 1-2.35-2.34 2.35 2.35 0 0 1 2.35 2.34z"/><path class="cls-5" d="M43.46 21.7a2.34 2.34 0 1 1-2.34-2.34 2.35 2.35 0 0 1 2.34 2.34z"/><path class="cls-6" d="M25.33 15.15A12.42 12.42 0 1 1 12.92 2.61a12.48 12.48 0 0 1 12.41 12.54z"/><path class="cls-7" d="M16.14 15.15a3 3 0 1 1-3-3 3 3 0 0 1 3 3z"/><path class="cls-6" d="M64.69 23a4.63 4.63 0 1 1-4.63-4.68A4.65 4.65 0 0 1 64.69 23z"/><path class="cls-7" d="M61.26 23a1.11 1.11 0 1 1-1.11-1.12A1.11 1.11 0 0 1 61.26 23zM25.51 12.11l22.21 3.85-21.87-1.59-.34-2.26z"/></g></g></svg>