<svg xmlns="http://www.w3.org/2000/svg" viewBox="0 0 43.34 42.19"><defs><style>.cls-1,.cls-4{fill:#fff}.cls-1,.cls-2,.cls-3,.cls-4,.cls-5,.cls-6,.cls-7,.cls-8{fill-rule:evenodd}.cls-2{fill:#ffcb05}.cls-2,.cls-4,.cls-6,.cls-7,.cls-8{stroke:#231f20;stroke-linecap:round;stroke-linejoin:round}.cls-2,.cls-6,.cls-7,.cls-8{stroke-width:1px}.cls-3{fill:url(#GradientFill_92)}.cls-4{stroke-width:.5px}.cls-5{fill:#231f20}.cls-6{fill:url(#GradientFill_113)}.cls-7{fill:none}.cls-8{fill:#faa74a}</style><radialGradient id="GradientFill_92" cx="30.98" cy="9.98" r="23.15" gradientUnits="userSpaceOnUse"><stop offset="0" stop-color="#3c8476"/><stop offset="1" stop-color="#3a6b61"/></radialGradient><radialGradient id="GradientFill_113" cx="30.98" cy="15.74" r="16.8" gradientUnits="userSpaceOnUse"><stop offset="0" stop-color="#a9a791"/><stop offset="1" stop-color="#58574b"/></radialGradient></defs><title>Asset 85</title><g id="Layer_2" data-name="Layer 2"><g id="Layer_1-2" data-name="Layer 1"><path class="cls-1" d="M17.64 29s-1.64 3.23-1.06 5.1c0 0 1.13.62.78 1.39S14.8 37 13.79 39.1c0 0-.87-2-3.53-1.07 0 0 .73-2.25-1.77-1.68A2.16 2.16 0 0 0 6.67 35a12.34 12.34 0 0 1 8.42-.62 14.86 14.86 0 0 1 .91-6.17z"/><path class="cls-2" d="M16 28.21l1.62.81s-1.64 3.23-1.06 5.1c0 0 1.13.62.78 1.39S14.8 37 13.79 39.1c0 0-.87-2-3.53-1.07 0 0 .73-2.25-1.77-1.68A2.16 2.16 0 0 0 6.67 35a12.34 12.34 0 0 1 8.42-.62 14.66 14.66 0 0 1 .91-6.17z"/><path class="cls-1" d="M24.58 31s-.91 3.5.06 5.2c0 0 1.24.37 1.06 1.19s-2.19 2-2.73 4.27c0 0-1.28-1.8-3.68-.29 0 0 .23-2.36-2.08-1.26a2.17 2.17 0 0 0-2.07-1 12.31 12.31 0 0 1 8.09-2.39 14.71 14.71 0 0 1-.4-6.22z"/><path class="cls-2" d="M22.83 30.57l1.75.46s-.91 3.5.06 5.2c0 0 1.24.37 1.06 1.19s-2.19 2-2.73 4.27c0 0-1.28-1.8-3.68-.29 0 0 .23-2.36-2.08-1.26a2.17 2.17 0 0 0-2.07-1 12.31 12.31 0 0 1 8.09-2.39 14.71 14.71 0 0 1-.4-6.18z"/><path class="cls-1" d="M40.73 12.93c1.75-3.48-1.15-2.39-4.71-1.72-.62.12.12-3.59-1.8-2.14A31.69 31.69 0 0 0 30 13.82a20.47 20.47 0 0 0-12.65 1.63s-1.21-.89 0-3.29c.79-1.62 2.11-4.28 1.4-6.87A6.25 6.25 0 0 0 12.2.5c-3.57.11-6.38 2.78-6.28 6a5.68 5.68 0 0 0 3.28 4.77 7.8 7.8 0 0 1-1.47 3.55C5 19 2.51 24.74 7.19 29.26s28.87 5.57 30.6-11.83c2.45-.79 8.11-5.02 2.94-4.5z"/><path class="cls-3" d="M40.73 12.93c1.75-3.48-1.15-2.39-4.71-1.72-.62.12.12-3.59-1.8-2.14A31.69 31.69 0 0 0 30 13.82a20.47 20.47 0 0 0-12.65 1.63s-1.21-.89 0-3.29c.79-1.62 2.11-4.28 1.4-6.87A6.25 6.25 0 0 0 12.2.5c-3.57.11-6.38 2.78-6.28 6a5.68 5.68 0 0 0 3.28 4.77 7.8 7.8 0 0 1-1.47 3.55C5 19 2.51 24.74 7.19 29.26s28.87 5.57 30.6-11.83c2.45-.79 8.11-5.02 2.94-4.5z"/><path class="cls-4" d="M15.35 5.49a1.57 1.57 0 0 1-1.71 1.4 1.63 1.63 0 0 1-1.83-1.32 1.57 1.57 0 0 1 1.71-1.41 1.65 1.65 0 0 1 1.83 1.33z"/><path class="cls-5" d="M14.39 6.28a1 1 0 0 0 .51-1.19 1.68 1.68 0 0 0-2-.77c-.84.18-1.34.82-1.1 1.42a1.51 1.51 0 0 0 1.42.81z"/><path class="cls-1" d="M13.45 5.35a.32.32 0 0 0 .16-.35.54.54 0 0 0-.61-.27c-.27.06-.43.26-.35.45a.49.49 0 0 0 .45.26z"/><path class="cls-5" d="M11.9 3.87s1.66-2.3 3.36-.21c0 0-1.52-3.01-3.36.21z"/><path class="cls-6" d="M40.73 12.93c1.75-3.48-1.15-2.39-4.71-1.72-.62.12.12-3.59-1.8-2.14A31.69 31.69 0 0 0 30 13.82a20.47 20.47 0 0 0-12.65 1.63 1.72 1.72 0 0 1-.54-1.34c-3 1.68-5.46 1.55-8.43-.14l-.3.24-.39.61C5 19 2.51 24.74 7.19 29.26s28.87 5.57 30.6-11.83c2.45-.79 8.11-5.02 2.94-4.5z"/><path class="cls-5" d="M15.6 17.85s-3 2.23-2.48 4.35 9.62 11.34 21.78-2.34c0 0-7.58 13.27-19.27 6.54-8.23-4.74-.03-8.55-.03-8.55z"/><path class="cls-5" d="M26.18 16.49s6.6-.62 7.25.59-2.28 2.21-2.28 2.21a2.26 2.26 0 0 0 2.93-1s.67 1.61-2.83 4c0 0 .76-1.66-1.4-2.31 0-.04 1.45-2.53-3.67-3.49zm7.19-4.85s2-2.84 1.41.66a2.72 2.72 0 0 0-1.41-.66zm2.69.85s5.83-2.27 2.93 1.06c.01 0-.63-1.48-2.93-1.06zm3.86 1.38s2.19-.53.38.92c0 0-.03-.79-.38-.92z"/><path class="cls-7" d="M40.73 12.93c1.75-3.48-1.15-2.39-4.71-1.72-.62.12.12-3.59-1.8-2.14A31.69 31.69 0 0 0 30 13.82a20.47 20.47 0 0 0-12.65 1.63s-1.21-.89 0-3.29c.79-1.62 2.11-4.28 1.4-6.87A6.25 6.25 0 0 0 12.2.5c-3.57.11-6.38 2.78-6.28 6a5.68 5.68 0 0 0 3.28 4.77 7.8 7.8 0 0 1-1.47 3.55C5 19 2.51 24.74 7.19 29.26s28.87 5.57 30.6-11.83c2.45-.79 8.11-5.02 2.94-4.5z"/><path class="cls-1" d="M10.58 10.75s-9.22 10.7-4.47 0z"/><path class="cls-8" d="M6.11 10.78h4.47s-9.22 10.67-4.47 0z"/><path class="cls-1" d="M5.85 7.54S3.65 9.87 1.07 10s4.23 5.77 10.21.59c0 0 .47-1.06-1-2.53-.98-.98-3.65-1.73-4.43-.52z"/><path class="cls-2" d="M5.85 7.54S3.65 9.87 1.07 10s4.23 5.77 10.21.59c0 0 .47-1.06-1-2.53-.98-.98-3.65-1.73-4.43-.52z"/><path class="cls-5" d="M4.46 10.93A2.73 2.73 0 0 0 6 10.58c.68-.43.12 1.12-1.54.35z"/></g></g></svg>