<svg xmlns="http://www.w3.org/2000/svg" viewBox="0 0 39.39 39.39"><defs><style>.cls-1,.cls-2{stroke:#231f20;stroke-width:1px;fill-rule:evenodd}.cls-1{fill:url(#GradientFill_62)}.cls-2{fill:url(#GradientFill_63)}</style><radialGradient id="GradientFill_62" cx="27.37" cy="12.02" r="29.24" gradientUnits="userSpaceOnUse"><stop offset="0" stop-color="#8ed8f8"/><stop offset="1" stop-color="#0095da"/></radialGradient><radialGradient id="GradientFill_63" cx="27.37" cy="12.67" r="24.75" gradientUnits="userSpaceOnUse"><stop offset="0" stop-color="#a6ce39"/><stop offset="1" stop-color="#54a275"/></radialGradient></defs><title>Asset 35</title><g id="Layer_2" data-name="Layer 2"><g id="Layer_1-2" data-name="Layer 1"><path class="cls-1" d="M38.89 19.69A19.2 19.2 0 1 1 19.7.5a19.19 19.19 0 0 1 19.19 19.19z"/><path class="cls-2" d="M8.37 4.2a19.19 19.19 0 0 1 30.52 15.49c-4.72 6.93-8.49-.94-12.59-7.23s-13.21 2.83-13.21-2.84c0-5.34-4.72-5.34-4.72-5.34V4.2zm0 31l.33-.38c6.61 6.3 8.18-9.44 12-6.61s4.09-3.46.94-9.12-6.64-.65-11.7 3.12c-4.47 3.35-8.44-3.45-9.28-5a20.75 20.75 0 0 0-.16 2.48 19.18 19.18 0 0 0 7.85 15.49z"/></g></g></svg>