<svg xmlns="http://www.w3.org/2000/svg" viewBox="0 0 32.98 26.54"><defs><style>.cls-1,.cls-2{fill-rule:evenodd}.cls-1{stroke:#231f20;stroke-linecap:round;stroke-linejoin:round;stroke-width:1px;fill:url(#GradientFill_79)}.cls-2{fill:#849daa}</style><radialGradient id="GradientFill_79" cx="22.89" cy="8.16" r="18.36" gradientUnits="userSpaceOnUse"><stop offset="0" stop-color="#e5ecee"/><stop offset="1" stop-color="#d3e3e8"/></radialGradient></defs><title>Asset 62</title><g id="Layer_2" data-name="Layer 2"><g id="Layer_1-2" data-name="Layer 1"><path class="cls-1" d="M32.12 18.17c-1.88 6.43-9.73 9.43-19 7.07C4.37 23-1 15.44.88 9s9.62-10.93 19-7.07c8.36 3.41 14.12 9.8 12.24 16.24z"/><path class="cls-2" d="M10.5 5.78A1.11 1.11 0 0 1 9 5.6a1.11 1.11 0 0 1-.32-1.48 1.11 1.11 0 0 1 1.51.18 1.1 1.1 0 0 1 .31 1.48zm-4.06 4.49a.72.72 0 0 1-.92.42.72.72 0 0 1-.52-.85.71.71 0 0 1 .92-.42.71.71 0 0 1 .52.85zm-.2-2.9a.73.73 0 0 1-.54.87.72.72 0 0 1-.93-.4A.73.73 0 0 1 5.3 7a.73.73 0 0 1 .94.37zM18 9.81a.77.77 0 1 1-1.47.47.78.78 0 0 1 .49-1 .79.79 0 0 1 .98.53z"/></g></g></svg>