<svg xmlns="http://www.w3.org/2000/svg" viewBox="0 0 72.27 54.35"><defs><style>.cls-1,.cls-7{fill:#fff}.cls-1,.cls-2,.cls-3,.cls-4,.cls-5,.cls-6,.cls-7,.cls-8{fill-rule:evenodd}.cls-2{fill:#fffcd5}.cls-2,.cls-3,.cls-7,.cls-8{stroke:#231f20;stroke-linecap:round;stroke-linejoin:round}.cls-2,.cls-3,.cls-8{stroke-width:1px}.cls-3{fill:url(#GradientFill_90)}.cls-4{fill:#231f20}.cls-5{fill:#81806f}.cls-6{fill:#efede8}.cls-7{stroke-width:.5px}.cls-8{fill:none}</style><radialGradient id="GradientFill_90" cx="50.39" cy="13.96" r="30.36" gradientUnits="userSpaceOnUse"><stop offset="0" stop-color="#edece4"/><stop offset="1" stop-color="#c7c6bf"/></radialGradient></defs><title>Asset 88</title><g id="Layer_2" data-name="Layer 2"><g id="Layer_1-2" data-name="Layer 1"><path class="cls-1" d="M36.1 27.25c1.55 4.73 1.44 7.85 1 8.72a6 6 0 0 0-.45 3.27c-1.81 3.11-6.76 9.91-9.18 11.33 0 0-3.12.9-5.41 1.67-1.67.55 6.46 1.1 7.34-.49a2.7 2.7 0 0 0 1.89-1.33c.3-.73 7.38-9.57 8-10.3 1-1.24 2.65-1.76 1.41-4.59s1.59-9 1.59-9z"/><path class="cls-2" d="M42.27 26.54l-6.17.71c1.55 4.73 1.44 7.85 1 8.72a6 6 0 0 0-.45 3.27c-1.81 3.11-6.76 9.91-9.18 11.33 0 0-3.12.9-5.41 1.67-1.67.55 6.46 1.1 7.34-.49a2.7 2.7 0 0 0 1.89-1.33c.3-.73 7.38-9.57 8-10.3 1-1.24 2.65-1.76 1.41-4.59s1.57-8.99 1.57-8.99z"/><path class="cls-1" d="M42.15 26.11c2.69 4.18 3.38 7.24 3.18 8.19a6.15 6.15 0 0 0 .39 3.28c-1 3.46-4 11.29-6 13.28a45 45 0 0 0-5 2.14c-1.55.83 6.92 1.5 7.37-.25a11.17 11.17 0 0 0 1.25-3c.11-.78 4.71-11.12 5.1-12 .66-1.45 2.12-2.37.2-4.79s-.75-9.1-.75-9.1z"/><path class="cls-2" d="M47.93 23.86l-5.78 2.25c2.69 4.18 3.38 7.24 3.18 8.19a6.15 6.15 0 0 0 .39 3.28c-1 3.46-4 11.29-6 13.28a45 45 0 0 0-5 2.14c-1.55.83 6.92 1.5 7.37-.25a11 11 0 0 0 1.25-3c.11-.78 4.71-11.12 5.1-12 .66-1.45 2.12-2.37.2-4.79s-.71-9.1-.71-9.1z"/><path class="cls-1" d="M65.73 18.76c-9.72-13.2-16-16-44.46-8C7.84 14.51 14.85-1 6.3.61c-4.77.88-3.47 3.64-3.47 3.64S.17 7.49.53 7.76 4.74 6 4.74 6s2.09-.76 2.73.6c1 2.16 3.41 8 5.19 6.86 0 0 1.16 2.55 1.48 1.09 0 0 .68 3 1.73 1.71A5 5 0 0 0 17.56 21s.13-3 1.2-3.15a8 8 0 0 0 1.46 6.43s2.39-.43 3.51.57c0 0 1.31-1.62 1-2.65 0 0 1.16 2.55.62 4.15a6.84 6.84 0 0 0 2.56-2.12s.84 2.29-.31 3.18 2.52 2.46 4.68.45 3.4 1.89 5 .53c0 0 3.18 2 3.85 3.32 0 0 1.45-1.4.51-4.09a5.94 5.94 0 0 1 2 3.11s7.62-.81 9.31-5c0 0 4.61 6 4 8.71-.34 1.53 1 2.35 2.31 2.45-.16 2.6.08 5.43 1.66 6.44s2.86-1 3.86-3.64a7.36 7.36 0 0 0 .9 3.72c2.18 3.15 4.1-8.27 4-11.16a21.6 21.6 0 0 1 .85 5.72s4.92-5.97-4.8-19.21z"/><path class="cls-3" d="M65.73 18.76c-9.72-13.2-16-16-44.46-8C7.84 14.51 14.85-1 6.3.61c-4.77.88-3.47 3.64-3.47 3.64S.17 7.49.53 7.76 4.74 6 4.74 6s2.09-.76 2.73.6c1 2.16 3.41 8 5.19 6.86 0 0 1.16 2.55 1.48 1.09 0 0 .68 3 1.73 1.71A5 5 0 0 0 17.56 21s.13-3 1.2-3.15a8 8 0 0 0 1.46 6.43s2.39-.43 3.51.57c0 0 1.31-1.62 1-2.65 0 0 1.16 2.55.62 4.15a6.84 6.84 0 0 0 2.56-2.12s.84 2.29-.31 3.18 2.52 2.46 4.68.45 3.4 1.89 5 .53c0 0 3.18 2 3.85 3.32 0 0 1.45-1.4.51-4.09a5.94 5.94 0 0 1 2 3.11s7.62-.81 9.31-5c0 0 4.61 6 4 8.71-.34 1.53 1 2.35 2.31 2.45-.16 2.6.08 5.43 1.66 6.44s2.86-1 3.86-3.64a7.36 7.36 0 0 0 .9 3.72c2.18 3.15 4.1-8.27 4-11.16a21.6 21.6 0 0 1 .85 5.72s4.92-5.97-4.8-19.21z"/><path class="cls-4" d="M30.53 9.8s-2.75.7-1.6 4.33.23 8.5.23 8.5a16 16 0 0 0 .51-7.69c-.83-3.94-.48-3.74.86-5.14zm3.36-1.08s-1.84 3.14.78 7.71c2.15 3.74 1.63 10.36 1.63 10.36A17.81 17.81 0 0 0 35 16c-2.07-4.42-1-6.21-1.11-7.28zM38 8.46s10.57 4.19 9.28 18.44c-.05 0 .55-12.41-9.28-18.44z"/><path class="cls-4" d="M38.91 8s8.25-.8 12.14 8.87c0-.02-3.73-8.27-12.14-8.87zm-3.41.69s7.65 3.16 6.55 13.52c0 0 .58-9.03-6.55-13.52zm12.65-.37s7.11-1.21 11.08 6.94c0 0-3.75-6.92-11.08-6.94zM23.12 23s-3.31-4.91 1.45-10.66c0 .04-3.92 5.2-1.45 10.66z"/><path class="cls-4" d="M20.39 21.66S18.15 16.17 24 11.51c0 0-4.91 4.26-3.61 10.15zM47 9.67s7.8 4.52 7.06 8.16 2.22 3 4 7.08c0 0-2.26-3.36-3.43-3.91s-.73-2.56-.86-4.35-4.23-5.19-6.77-6.98zm6.53 2.08s4.35 2.88 4.4 6.65 5.25 3.37 6.9 7.6c0 0-2.15-3.28-4.63-4s-2.43-3.93-2.76-5.12a11.66 11.66 0 0 0-3.91-5.13zm-6.63 1.6s5.91 6.51 4 11.61c.03.04 2.6-5.3-4-11.61zM5.6 2.07s1.15.79.58 1.87a4 4 0 0 0 1-.79C7.61 2.64 10 6.37 10 6.37s-1.24-4.44-4.4-4.3z"/><path class="cls-5" d="M53.17 26c.9 1.23 4.31 6.05 3.8 8.42-.34 1.53 1 2.35 2.31 2.45-.16 2.6.08 5.43 1.66 6.44s2.86-1 3.86-3.64a7.36 7.36 0 0 0 .9 3.72c2.18 3.15 4.1-8.27 4-11.16a21.6 21.6 0 0 1 .85 5.72s4.61-5.6-3.88-17.91l2.58 9.1c.56 2-2-3.95-3.26-5.77-.08-.11 2.73 15.85-.84 8.87-1.93-3.78-.43-1.24-.67 2.76-.1 1.71-2.09.88-2.09-.34a12.25 12.25 0 0 0-.25-3.51c-.58-1.86-3.88-5.2-3-3.85 2.21 3.47 1.21 5-1.51 1.09a9.07 9.07 0 0 0-4.43-2.93c-.04.17-.04.35-.03.54z"/><path class="cls-6" d="M21.47 10.7l.16.28C8.2 14.73 14.85-1 6.3.61c-4.77.88-3.47 3.64-3.47 3.64S.17 7.49.53 7.76 4.74 6 4.74 6s2.09-.76 2.73.6c1 2.16 3.41 8 5.19 6.86 0 0 1.16 2.55 1.48 1.09 0 0 .68 3 1.73 1.71a4.51 4.51 0 0 0 .18 2.5 30.39 30.39 0 0 1 1.38-3.64 15.86 15.86 0 0 1 3.24-3.2c.63-.51.33-.77.8-1.22z"/><path class="cls-7" d="M5.39 3.53a.8.8 0 1 1-.61-.95.8.8 0 0 1 .61.95z"/><path class="cls-1" d="M24.31 9.93l-3 .83C7.84 14.51 14.85-1 6.3.61c-3 .56-3.61 1.88-3.63 2.77 1.38-1.77 4.2-1.56 5.75 0 2.77 2.77 2.23 5.85 6.11 8.28 2.66 1.66 6.56.25 9.78-1.73z"/><path class="cls-4" d="M3.64 5.47S2 7.6.49 7.66c0 0 .11.23.52.07-.01 0 2.22-.8 2.63-2.26zM5 3.49a.64.64 0 0 1-.76.51.64.64 0 0 1-.45-.79.65.65 0 0 1 .74-.53.64.64 0 0 1 .47.81z"/><path class="cls-5" d="M18.8 21.23a8.07 8.07 0 0 0 1.42 3.05s2.39-.43 3.51.57c0 0 1.31-1.62 1-2.65 0 0 1.16 2.55.62 4.15a6.84 6.84 0 0 0 2.56-2.12s.84 2.29-.31 3.18 2.52 2.46 4.68.45 3.4 1.89 5 .53c0 0 3.18 2 3.85 3.32 0 0 1.45-1.4.51-4.09a5.94 5.94 0 0 1 2 3.11s5.52-.59 8.2-3.37c-.6 0-.72-.26-.77-1.15-.1-1.92-.54-.21-1.92.92-1.9 1.54-3.15 2.26-4.69-1.13-2.1-4.64.66-.36-2.25.84-2.52 1-3.26-2.31-3.26-2a4.42 4.42 0 0 1-1.34 2.93c-.22.22-1.33-.67-2.18-.67-.3 0-7.32-2.81-8.28-3.76-1.15-1.22-2.24-4.52-3.42-1.34-1 2.71-3.76 1.29-4.85-1.08a2.45 2.45 0 0 1-.08.31z"/><path class="cls-8" d="M65.73 18.76c-9.72-13.2-16-16-44.46-8C7.84 14.51 14.85-1 6.3.61c-4.77.88-3.47 3.64-3.47 3.64S.17 7.49.53 7.76 4.74 6 4.74 6s2.09-.76 2.73.6c1 2.16 3.41 8 5.19 6.86 0 0 1.16 2.55 1.48 1.09 0 0 .68 3 1.73 1.71A5 5 0 0 0 17.56 21s.13-3 1.2-3.15a8 8 0 0 0 1.46 6.43s2.39-.43 3.51.57c0 0 1.31-1.62 1-2.65 0 0 1.16 2.55.62 4.15a6.84 6.84 0 0 0 2.56-2.12s.84 2.29-.31 3.18 2.52 2.46 4.68.45 3.4 1.89 5 .53c0 0 3.18 2 3.85 3.32 0 0 1.45-1.4.51-4.09a5.94 5.94 0 0 1 2 3.11s7.62-.81 9.31-5c0 0 4.61 6 4 8.71-.34 1.53 1 2.35 2.31 2.45-.16 2.6.08 5.43 1.66 6.44s2.86-1 3.86-3.64a7.36 7.36 0 0 0 .9 3.72c2.18 3.15 4.1-8.27 4-11.16a21.6 21.6 0 0 1 .85 5.72s4.92-5.97-4.8-19.21z"/><path class="cls-4" d="M16.52 19s-.86-4 3.61-6.4c0-.04-3.78 2.24-3.61 6.4zm45.37 22.36a3.35 3.35 0 0 1-1-3.92c.91-2.36 1.92-8-.51-10.25 0 0 2.82 1.57 1.57 7.32-.72 3.13-1.54 4.77-.06 6.85z"/></g></g></svg>