<svg xmlns="http://www.w3.org/2000/svg" viewBox="0 0 42.93 24.73"><defs><style>.cls-1{fill:#fff}.cls-1,.cls-2,.cls-3,.cls-4{fill-rule:evenodd}.cls-2{fill:#fcd3c1;stroke:#231f20;stroke-linejoin:round;stroke-width:1px}.cls-3{fill:#f5c6b2}.cls-4{fill:#231f20}</style></defs><title>Asset 40</title><g id="Layer_2" data-name="Layer 2"><g id="Layer_1-2" data-name="Layer 1"><path class="cls-1" d="M34.09.5L4.29 11.95.5 15.93l8.34 8.3 27.04-10.4 6.55-5.03L34.09.5z"/><path class="cls-2" d="M34.09.5L4.29 11.95.5 15.93l8.34 8.3 27.04-10.4 6.55-5.03L34.09.5z"/><path class="cls-3" d="M4.66 12.36l-.2.08L1.19 16l7.65 8.23 27.04-10.4 6.2-4.76-29.36 11.24-8.06-7.95z"/><path class="cls-4" d="M12.06 19.68l-7.19-7.92-.58.19-.22.28 7.99 7.45zm.57.58L42.24 8.61l.19.19-.75.59-29.05 10.87z"/></g></g></svg>