<svg xmlns="http://www.w3.org/2000/svg" viewBox="0 0 61.81 44"><defs><style>.cls-1{fill:#fff}.cls-1,.cls-2,.cls-3,.cls-4,.cls-5{fill-rule:evenodd}.cls-2{fill:#fffcd5}.cls-2,.cls-3,.cls-5{stroke:#231f20}.cls-2,.cls-3{stroke-linejoin:round;stroke-width:1px}.cls-3{fill:#f05b72}.cls-4{fill:#231f20}.cls-5{fill:none;stroke-width:1.5px}</style></defs><title>Asset 123</title><g id="Layer_2" data-name="Layer 2"><g id="Layer_1-2" data-name="Layer 1"><path class="cls-1" d="M6.6 36C9 25.11 18.64 13.29 28.19 8.08a48.43 48.43 0 0 1 9-3.81A69.68 69.68 0 0 1 50 1.58C53.78 1.2 57.56 1 61.28.5v.15a18.54 18.54 0 0 0-9.44 5.23c-1.93 2-3.17 4.5-5.06 6.5a18.86 18.86 0 0 1-6.71 4.47c-2 .78-4.43 1.12-5.63 3 1-1.52 6.13-2.4 7.68-1.85-.17-.14-3.5 1.94-3.85 2.14-6.86 4-10 12.58-17.73 15.29-4.05 1.47-9.77.57-13.94.57z"/><path class="cls-2" d="M6.6 36C9 25.11 18.64 13.29 28.19 8.08a48.43 48.43 0 0 1 9-3.81A69.68 69.68 0 0 1 50 1.58C53.78 1.2 57.56 1 61.28.5v.15a18.54 18.54 0 0 0-9.44 5.23c-1.93 2-3.17 4.5-5.06 6.5a18.86 18.86 0 0 1-6.71 4.47c-2 .78-4.43 1.12-5.63 3 1-1.52 6.13-2.4 7.68-1.85-.17-.14-3.5 1.94-3.85 2.14-6.86 4-10 12.58-17.73 15.29-4.05 1.47-9.77.57-13.94.57z"/><path class="cls-3" d="M32.17 6.13a45.2 45.2 0 0 1 5-1.86A69.68 69.68 0 0 1 50 1.58C53.78 1.2 57.56 1 61.28.5v.15a18.54 18.54 0 0 0-9.44 5.23c-1.93 2-3.17 4.5-5.06 6.5a17.81 17.81 0 0 1-2.54 2.21c-2.14-3.83-5.37-4.61-9.36-3.37a5.36 5.36 0 0 0-2.71-5.09z"/><path class="cls-4" d="M.18 43.9c.33.31.79-.24.79-.24C8.44 33.08 20 21.57 38.83 8.59c0 0-24.9 14.69-38.76 34.53a.71.71 0 0 0 .11.78z"/><path class="cls-5" d="M31.48 6.6c2.43.08 3 2.33 3.44 4.57 3.12-.35 8.46-.9 9 3.46"/><path class="cls-4" d="M15.78 26.59s1.59-1 6.2-1.06c0 0-5.13.26-6.93 2zM25 18.56s1.44-1 6.38-1.66c0 0-5.58 1-7.37 2.7zm2.75-2.45s.8-.48 1.62-2.94a16.83 16.83 0 0 1-1 2.78z"/></g></g></svg>