<svg xmlns="http://www.w3.org/2000/svg" viewBox="0 0 65.84 50.05"><defs><style>.cls-1,.cls-5,.cls-7{fill:#fff}.cls-1,.cls-2,.cls-3,.cls-4,.cls-5,.cls-6,.cls-7,.cls-8,.cls-9{fill-rule:evenodd}.cls-2{fill:#864c3c}.cls-2,.cls-3,.cls-4,.cls-5,.cls-7,.cls-8{stroke:#231f20}.cls-2,.cls-3,.cls-4,.cls-8{stroke-linecap:round}.cls-2,.cls-3,.cls-4,.cls-5{stroke-width:1px}.cls-3,.cls-8{fill:none}.cls-4{stroke-linejoin:round;fill:url(#GradientFill_101)}.cls-6{fill:#231f20}.cls-7{stroke-width:.5px}.cls-8{stroke-miterlimit:2.61;stroke-width:1px}.cls-9{fill:#d2ab67}</style><radialGradient id="GradientFill_101" cx="45.95" cy="15.21" r="35" gradientUnits="userSpaceOnUse"><stop offset="0" stop-color="#c47b63"/><stop offset="1" stop-color="#a25641"/></radialGradient></defs><title>Asset 107</title><g id="Layer_2" data-name="Layer 2"><g id="Layer_1-2" data-name="Layer 1"><path class="cls-1" d="M50.32 18.33l-.08.25a45.68 45.68 0 0 0-12.51-1.93c-8.16-.07-12.95 2.35-13 2.37a4.91 4.91 0 0 1-1.95.46 2.4 2.4 0 0 1-1.72-.68 2.8 2.8 0 0 1-.36-.46l-.06-.11v-.11A36.51 36.51 0 0 0 23 7.27 11.15 11.15 0 0 0 21.43 1a1.43 1.43 0 0 0-1.09-.8c-.71 0-1.12.61-1.62 1.45-1.36 2.44-2.76 7.54-4.5 10.9l-.08.15H14a3.58 3.58 0 0 0-.51 0h-.14a18.46 18.46 0 0 1-5.7-5.59C6.91 6 6.29 5.05 5.77 4.34a6.51 6.51 0 0 0-.72-.87 1.11 1.11 0 0 0-.76-.39.74.74 0 0 0-.58.36 2.66 2.66 0 0 0-.33.88 4.83 4.83 0 0 0-.15 1.28c0 3.71 2.8 8.64 3.7 10.12l.08.13-.09.15a10.16 10.16 0 0 0-1.37 3.92 1.94 1.94 0 0 1-.15.37 9.12 9.12 0 0 1-3.45 3.74c-.95.27-1.57.7-1.63 1.42v.09a1.15 1.15 0 0 0 .42.72 3.11 3.11 0 0 0 .69.58 17.1 17.1 0 0 0 6.85 1.89h.23c.3 0 .59.05.86.05a7.14 7.14 0 0 0 1.9-.22l-.07-.07h.54l.1.06H12l.15.05.52.18a16.73 16.73 0 0 1 1.65.73 6.4 6.4 0 0 1 3 2.76v.59a8.14 8.14 0 0 0 .18 1.75v.12l-.07.09c-.74 1-3.68 4.29-10.14 5.86a6.88 6.88 0 0 0-1.93.32 3.2 3.2 0 0 0-2.3 2.49.31.31 0 0 0 0 .11H3a.85.85 0 0 0 .33.61 4.17 4.17 0 0 0 2.22.61h.18l.05.18a1 1 0 0 0 .34.49 6.11 6.11 0 0 0 3.3.73 11 11 0 0 0 3-.37 2.84 2.84 0 0 0 1.67-1l.07-.13h.15a39 39 0 0 0 14.81-3.24l.27.43a20.22 20.22 0 0 1-7.16 3.6 28.77 28.77 0 0 1-3.23.76l-1 .15h-.19l-.89.09.77.4a25.41 25.41 0 0 0 11.8 2.87c8.86.07 17.35-3.63 25.17-4.37 6.87-.64 11-5.43 11-10.91 0-6-4.67-12.76-15.44-15.91z"/><path class="cls-1" d="M17.75 34.64S15 39 7.21 40.89c0 0-3.59.07-4 2.64-.26 1.69 7.9 1.35 8.37-.67z"/><path class="cls-2" d="M11.6 42.86l10.51-3-4.36-5.21S15 39 7.21 40.89c0 0-3.59.07-4 2.64-.21 1.69 7.92 1.35 8.39-.67z"/><path class="cls-1" d="M12.21 28.35s4.3 1.22 5.28 3.9c0 0-.39 3.58 1.8 4.61 0 0-1.5 3.48-9.24 5.35 0 0-3.68 0-4.07 2.54-.26 1.69 7.52 1.72 8-.3a37.73 37.73 0 0 0 18-4.72z"/><path class="cls-3" d="M12.21 28.35s4.3 1.22 5.28 3.9c0 0-.39 3.58 1.8 4.61 0 0-1.5 3.48-9.24 5.35 0 0-3.68 0-4.07 2.54-.26 1.69 7.52 1.72 8-.3a37.73 37.73 0 0 0 18-4.72"/><path class="cls-1" d="M7.33 16S2.52 8.57 3.54 4.38 7.2 9.62 13.71 12.9z"/><path class="cls-2" d="M13.71 12.9L7.33 16S2.52 8.57 3.54 4.38 7.2 9.62 13.71 12.9z"/><path class="cls-4" d="M17.72 46.7c12.93 6.73 25.51-.45 36.83-1.52 14.18-1.35 16-20.34-4.46-26.36-15.51-4.55-25.3.43-25.3.43-3.52 1.53-4.5-1-4.5-1 1.45-4.28 4-12.19.85-17.06-2.2-3.38-4.09 6.59-6.94 11.81 0 0-7.19-1.36-8.49 7a8.94 8.94 0 0 1-4.26 4.6c-3.23 1.84 4.77 5 10.58 3.7l5.47 3.79q-.16 3.45 1.53 4.78A11.54 11.54 0 0 1 10 42c-3.33.64-4.57 1.8-4.37 3.32 2.52 1.28 6.86 1 8.4-1.13 4.45.46 10.2-.9 16.41-2.92-.31.92-10.02 5.61-12.72 5.43z"/><path class="cls-5" d="M4.19 25.17c.06.59-.72 1.15-1.74 1.25s-1.89-.3-1.95-.9.72-1.15 1.74-1.25 1.89.3 1.95.9z"/><path class="cls-6" d="M4 27.18s3.28 1.32 4.89-.83a2.57 2.57 0 0 1-2.57 1.71z"/><path class="cls-7" d="M14.24 17.56c.62.68.19 2.11-1 3.19s-2.62 1.42-3.25.75-.2-2.11 1-3.19 2.62-1.42 3.25-.75z"/><path class="cls-6" d="M17.79 11.85a10.61 10.61 0 0 0 2.09-5.22s.63.39.6 3.54c.9-4.14-.66-5.66-.66-5.66a15.36 15.36 0 0 1-2.25 6.74 3.48 3.48 0 0 0-.07 3.87 3.25 3.25 0 0 1 .29-3.27zM7.11 27.93s5.89.55 7.56-1.93c0 0-.11 3.63-6.67 2.92zM14 18.65a2.73 2.73 0 0 1-1.35 2.16c-1.1.79-2.35.92-2.8.3s.09-1.76 1.2-2.55a2.78 2.78 0 0 1 2.41-.6zm-.55-3s3.2-1.54 3.21 1.27c0 0 .6-3.35-3.21-1.27zm26.18 9.98S34.16 31 38.45 35l.64-.46s-3.29-2.32.54-8.91zm-8.5 6.18s3.16 2 3 4.45c.02 0 1.16-3.41-3-4.45z"/><path class="cls-8" d="M30.28 41.44c8.72-6.77 16-8 22.25-4.72"/><path class="cls-9" d="M19.4 46.9c5.27 2.52 10.53 2.53 15.51 1.76a2.7 2.7 0 0 0-.29-1.24c-.41-.68-.4-1-1-1.33s-1 .07-.38-.36a.81.81 0 0 0-.11-1.43 11.59 11.59 0 0 0-2.48 0c-.76-.37 1.14-2.5 1.2-2.84.11.32-.81.62-1.81.87C27.35 44 21.37 47 19.4 46.9z"/><path class="cls-6" d="M34 40.2a8.74 8.74 0 0 0-3.23 3.64s4.74-1.31 2.56 1.55c0 0 1.72.31 1.72 1.42 0 0-1.13-1.67-4.15-.33 0 0 5.21-2.85-.94-2.14-.02 0 1.66-3.34 4.04-4.14z"/></g></g></svg>