<svg xmlns="http://www.w3.org/2000/svg" xmlns:xlink="http://www.w3.org/1999/xlink" viewBox="0 0 39.79 24.45"><defs><style>.cls-1,.cls-6{fill:#fff}.cls-1,.cls-2,.cls-3,.cls-4,.cls-5,.cls-6,.cls-7,.cls-8{fill-rule:evenodd}.cls-2,.cls-3,.cls-4,.cls-6,.cls-8{stroke:#231f20}.cls-2,.cls-3,.cls-4,.cls-8{stroke-width:1px}.cls-2{fill:url(#GradientFill_73)}.cls-3{fill:url(#GradientFill_73-2)}.cls-4{fill:url(#GradientFill_74)}.cls-5{fill:url(#GradientFill_73-3)}.cls-6{stroke-linecap:round;stroke-width:.5px}.cls-7{fill:#231f20}.cls-8{fill:none}</style><radialGradient id="GradientFill_73" cx="26.99" cy="3.96" r="7.7" gradientUnits="userSpaceOnUse"><stop offset="0" stop-color="#8ed8f8"/><stop offset="1" stop-color="#00aeef"/></radialGradient><radialGradient id="GradientFill_73-2" cx="26.62" cy="16.88" r="7.7" xlink:href="#GradientFill_73"/><radialGradient id="GradientFill_74" cx="28.04" cy="10.8" r="11.63" gradientUnits="userSpaceOnUse"><stop offset="0" stop-color="#0095da"/><stop offset="1" stop-color="#0072bc"/></radialGradient><radialGradient id="GradientFill_73-3" cx="17.29" cy="20.07" r="3.42" xlink:href="#GradientFill_73"/></defs><title>Asset 23</title><g id="Layer_2" data-name="Layer 2"><g id="Layer_1-2" data-name="Layer 1"><path class="cls-1" d="M9 8.32s.73-5.12 7.93-4.63 15.73 1.22 17.8-2.44c0 0 2 6.22-2.8 9z"/><path class="cls-2" d="M31.89 10.27L9 8.32s.73-5.12 7.93-4.63 15.73 1.22 17.8-2.44c-.04 0 1.91 6.22-2.84 9.02z"/><path class="cls-1" d="M8.59 16.13s.74 5.12 7.93 4.63 15.74-1.22 17.81 2.44c0 0 2-6.22-2.81-9z"/><path class="cls-3" d="M31.52 14.18L8.59 16.13s.74 5.12 7.93 4.63 15.74-1.22 17.81 2.44c0 0 1.95-6.2-2.81-9.02z"/><path class="cls-1" d="M1.13 16.6s-1.92-.87.93-3.93C15.73-2 28.83 15.45 37.52 6.52c0 0 3.82 5.91.23 11-8-8.45-23.18 12.64-36.62-.92z"/><path class="cls-4" d="M1.13 16.6s-1.92-.87.93-3.93C15.73-2 28.83 15.45 37.52 6.52c0 0 3.82 5.91.23 11-8-8.45-23.18 12.64-36.62-.92z"/><path class="cls-5" d="M11.76 20.12a5.37 5.37 0 0 0 5.5 3.25c4.09-.4 2.47-3.84.21-4.72z"/><path class="cls-6" d="M8.74 13.34a1.22 1.22 0 1 1-2.35.66 1.22 1.22 0 1 1 2.35-.63z"/><path class="cls-7" d="M7.75 12.82a1.13 1.13 0 0 0-.32-.06 1 1 0 0 0 0 1.9.94.94 0 0 0 .92-.95 1 1 0 0 0-.24-.64zM16.1 9a5.51 5.51 0 0 1 .77 8.41s6.61-4.52-.77-8.41zm10.83-.63s4.56-.25 6.19-3.58c0 0-.82 4.31-6.19 3.58z"/><path class="cls-7" d="M19.53 6.82s6.84 1.95 12.12-2.2c0 0-2.65 5.05-12.12 2.2zm9.11 10.42s4.56.24 6.19 3.58c0 0-.83-4.32-6.19-3.58z"/><path class="cls-7" d="M20 19.75s6.47-2.92 12.31.41c-.01 0-3.4-4.6-12.31-.41zm9-14.56a18.48 18.48 0 0 1-8.79.17S22.3 7.8 29 5.19zm3.63 5.37s3.91-.24 5.53-2.36l.49.9a8.07 8.07 0 0 1-6.02 1.46zm5.78 5.21a7.51 7.51 0 0 0-5.41-2.2s3.74-.73 5.86 1.39zm.65-2.52s-.16-1.06-5-.73a9.62 9.62 0 0 1 5.12-.25zm-21.8 10.12a7.11 7.11 0 0 1-3.18-3.61s.66 3.88 3.18 3.61zm2.43-.9A7.07 7.07 0 0 1 15.56 20s1.81 3.49 4.13 2.47z"/><path class="cls-8" d="M11.76 20.12a5.37 5.37 0 0 0 5.5 3.25c4.09-.4 2.47-3.84.21-4.72"/></g></g></svg>