<svg xmlns="http://www.w3.org/2000/svg" viewBox="0 0 60.35 31.33"><defs><style>.cls-1,.cls-4,.cls-5{stroke:#231f20;stroke-width:1px}.cls-1,.cls-2,.cls-3,.cls-4,.cls-5{fill-rule:evenodd}.cls-1{fill:url(#GradientFill_47)}.cls-2{fill:#231f20}.cls-3,.cls-5{fill:#fff}.cls-4{fill:none}</style><radialGradient id="GradientFill_47" cx="42.05" cy="9.94" r="21.72" gradientUnits="userSpaceOnUse"><stop offset="0" stop-color="#c67961"/><stop offset="1" stop-color="#a25641"/></radialGradient></defs><title>Asset 53</title><g id="Layer_2" data-name="Layer 2"><g id="Layer_1-2" data-name="Layer 1"><path class="cls-1" d="M59.85 16c0 3.35-12.49 14.83-29.5 14.83S.5 19 .5 15.87 13.34 1 30.35 1s29.5 11.65 29.5 15z"/><path class="cls-2" d="M21.35 4a38.28 38.28 0 0 0-16 6.74 34 34 0 0 1 15.34-7zm14.38-1.06a38.27 38.27 0 0 1 16.53 5.33A34.07 34.07 0 0 0 36.37 2.6z"/><path class="cls-2" d="M23 3.28a42.48 42.48 0 0 1 15.32-.39l-.48.39a36.33 36.33 0 0 0-14.46.38z"/><path class="cls-3" d="M18.53 2.8a6.58 6.58 0 0 1 4.8 3.74A3.48 3.48 0 0 0 26 6.09c.9-.82-1.34-4.11-3.92-4.24a3.81 3.81 0 0 0-3.55.95z"/><path class="cls-4" d="M18.53 2.8a6.58 6.58 0 0 1 4.8 3.74A3.48 3.48 0 0 0 26 6.09c.9-.82-1.34-4.11-3.92-4.24a3.81 3.81 0 0 0-3.55.95z"/><path class="cls-5" d="M32 1a5.33 5.33 0 0 1 3.29 4.72 2.16 2.16 0 0 0 2.56-.48c.79-.93-.1-3.15-2.47-4.18-.01.03-2.1-.83-3.38-.06z"/><path class="cls-3" d="M24.43 1.37a7.18 7.18 0 0 1 5.24 4.73s1.65.56 2.57-.33S30.77 1 28.29.63a4.75 4.75 0 0 0-3.86.74z"/><path class="cls-4" d="M24.43 1.37a7.18 7.18 0 0 1 5.24 4.73s1.65.56 2.57-.33S30.77 1 28.29.63a4.75 4.75 0 0 0-3.86.74z"/><path class="cls-2" d="M.75 15.78a31.46 31.46 0 0 0 7.56 2.11s-5-.28-7.62-1.71zm58.95.09a19.75 19.75 0 0 1-6 2.38s3.93-.32 6-1.92z"/></g></g></svg>