<svg xmlns="http://www.w3.org/2000/svg" viewBox="0 0 47.01 42"><defs><style>.cls-1,.cls-3,.cls-5,.cls-6,.cls-7{stroke:#231f20;stroke-width:1px}.cls-1,.cls-2,.cls-3,.cls-4,.cls-5,.cls-6,.cls-7{fill-rule:evenodd}.cls-1{fill:url(#GradientFill_25)}.cls-2,.cls-7{fill:#fff}.cls-3,.cls-7{stroke-linejoin:round}.cls-3{fill:url(#GradientFill_20)}.cls-4{fill:#231f20}.cls-5{fill:#a3238e}.cls-6{fill:none}.cls-7{stroke-linecap:round}</style><radialGradient id="GradientFill_25" cx="30.45" cy="12.57" r="30.05" gradientUnits="userSpaceOnUse"><stop offset="0" stop-color="#f6adcd"/><stop offset="1" stop-color="#ed1651"/></radialGradient><linearGradient id="GradientFill_20" x1="20.46" y1="44.57" x2="43.38" y2="21.65" gradientUnits="userSpaceOnUse"><stop offset="0" stop-color="#e6e7e8"/><stop offset="1" stop-color="#fff"/></linearGradient></defs><title>Asset 50</title><g id="Layer_2" data-name="Layer 2"><g id="Layer_1-2" data-name="Layer 1"><path class="cls-1" d="M22.12 39.24l2.94-5.55a29.07 29.07 0 0 0-.58-5.23c-.47-4.21 1-7.6 9.17-6.87 4.89.44 7.85-.82 9.64-2.56a20.78 20.78 0 0 0-1-4.31 21.31 21.31 0 0 0-27.19-13 21.31 21.31 0 0 0-13.49 27A20.74 20.74 0 0 0 4 33.47a13.17 13.17 0 0 1 5.06 3C15 42.4 19.88 41 22.12 39.24z"/><path class="cls-2" d="M30.35 21.62c5.5 2.4 11.94 7.93 12.35 12.24-2.41 2.35-8.06 2.81-14.66.8A35.14 35.14 0 0 1 22 32.17c.09-.57-.6-1.36-1.64-1.85s-2.22-.48-2.45.08l-.76 1.89c-.14.35.09.82.54 1.25-.5 0-.88.14-1 .44l-.76 1.89c-.23.56.49 1.44 1.62 2s1.95.49 2.32.1a41 41 0 0 0 6.03 2.33c10.75 3.26 20.24-.3 20.6-8.3.16-3.41-2.71-7.27-7.4-10.61z"/><path class="cls-3" d="M39.1 21.4l-8.75.22c5.5 2.4 11.94 7.93 12.35 12.24-2.41 2.35-8.06 2.81-14.66.8A35.14 35.14 0 0 1 22 32.17c.09-.57-.6-1.36-1.64-1.85s-2.22-.48-2.45.08l-.76 1.89c-.14.35.09.82.54 1.25-.5 0-.88.14-1 .44l-.76 1.89c-.23.56.49 1.44 1.62 2s1.95.49 2.32.1a41 41 0 0 0 6.03 2.33c10.75 3.26 20.24-.3 20.6-8.3.16-3.4-2.71-7.26-7.4-10.6z"/><path class="cls-4" d="M15.68 28.31a3.25 3.25 0 0 1-1.76 4.21 3.24 3.24 0 0 1-4-2.24 3.24 3.24 0 0 1 1.77-4.22 3.24 3.24 0 0 1 3.99 2.25z"/><path class="cls-5" d="M10.76 3.74a20.69 20.69 0 0 1 25.8 17.7l4.26-.77C38.44 2.79 17.58-1.65 10.76 3.74z"/><path class="cls-6" d="M40.26 18.38c-.83-3.45-3.25-10.09-10-13.62C23 .94 17.28 1.33 13.88 2.27"/><path class="cls-7" d="M38.23 21.3s-1.4-1.91 1.52-2.8c3.24-1 3.13-1.86 3.13-1.86a14.36 14.36 0 0 1 .34 2.73 8.53 8.53 0 0 1-4.99 1.93z"/><path class="cls-4" d="M9 26s-2 3.43.5 6c.04 0-4.4-2.08-.5-6zm32.81 10.27s6-2.3.44-8.55c0 0 3.61 4.73-1.23 6.79zm-5.56-14.38A17.69 17.69 0 0 1 41.9 27a32.7 32.7 0 0 0-7.2-5zM21.85 35.1s11 6.24 20.46 1.59c0 0-6.65 6.18-20.69-.61zM20 32.72a.5.5 0 0 1-.51.5.5.5 0 0 1-.51-.5.51.51 0 0 1 .51-.51.51.51 0 0 1 .51.51zm-1.07 3.04a.5.5 0 0 1-.5.51.51.51 0 0 1 0-1 .5.5 0 0 1 .5.49z"/></g></g></svg>