<svg xmlns="http://www.w3.org/2000/svg" viewBox="0 0 44.8 45.11"><defs><style>.cls-1,.cls-3{stroke:#231f20}.cls-1{stroke-width:1px;fill:url(#GradientFill_45)}.cls-1,.cls-2,.cls-3,.cls-4,.cls-5{fill-rule:evenodd}.cls-2{fill:#231f20}.cls-3,.cls-4{fill:none}.cls-3{stroke-width:.62px}.cls-4{stroke:#ed1651;stroke-linecap:round;stroke-width:1.42px}.cls-5{fill:#ed1651}</style><radialGradient id="GradientFill_45" cx="31.16" cy="13.05" r="29.53" gradientUnits="userSpaceOnUse"><stop offset="0" stop-color="#f9f7ec"/><stop offset="1" stop-color="#f3f0dd"/></radialGradient></defs><title>Asset 60</title><g id="Layer_2" data-name="Layer 2"><g id="Layer_1-2" data-name="Layer 1"><path class="cls-1" d="M.69 32.3s-1.13 5.12 2.12 6.49c3.5 1.48 18.36 7 28.11-8.24 9.49-14.84 13.36-11.74 13.36-19.24 0 0 .5-10.24-5.24-10.74s-8.12 1.62-13.12 6.75a4.9 4.9 0 0 0-4.62 1l-.25 4s-1.5 4-7.5 6.75C9.13 21.09 2.06 25.3.69 32.3z"/><path class="cls-2" d="M1.19 30.8s.5 6.87 11.61 5.62a24 24 0 0 0 16.49-9.24s-6 11-18.73 10.49c-10.37-.37-9.62-5-9.62-5z"/><path class="cls-3" d="M23.34 25.43a1.43 1.43 0 1 1-1.42-1.59 1.5 1.5 0 0 1 1.42 1.59zm3.3-2.09a1.43 1.43 0 1 1-1.42-1.58 1.51 1.51 0 0 1 1.42 1.58zm2.07-3.49a1.43 1.43 0 1 1-1.42-1.59 1.5 1.5 0 0 1 1.42 1.59z"/><path class="cls-4" d="M18.43 16.31a9.42 9.42 0 0 1 8.86 3.53m-12.24-1.16a10 10 0 0 1 10.17 4.66m-3.3 2.09s-2.37-5.37-10.37-5.25"/><path class="cls-2" d="M21.55 8.69s4.37-1.37 10 2.87c0 0 1 2.5-.37 3.88a6.86 6.86 0 0 0 2.37-3.88S42 6.07 38.16 3.69s-9.62 4.13-9.62 4.13A12.11 12.11 0 0 0 26 6.69a7.83 7.83 0 0 0-4.45 2z"/><path class="cls-5" d="M31.67 24.8s-.75-7 1.25-10.36l1.87.12a17.57 17.57 0 0 0-3.12 10.24zm1.25-2.62s.62-4.87 3.37-7.24l2-.13s-3.5 2-5.37 7.37z"/><path class="cls-2" d="M.93 37.75s.68 9.55 3.19 1.17zm5.23 1.88s.69 9.55 3.2 1.17zM12 41.34s1.77 8.5 3.78 0zm7.84-1.17s1.25 8.17 3.14-1.46zm23.74-23.84s-.62 7.12-2.3 1.88zm-4.26 4.15s.41 9.22-2.1 2.31z"/></g></g></svg>