<svg xmlns="http://www.w3.org/2000/svg" xmlns:xlink="http://www.w3.org/1999/xlink" viewBox="0 0 57.94 71.04"><defs><style>.cls-1,.cls-6{fill:#e6e7e8}.cls-1,.cls-3,.cls-4,.cls-5,.cls-6,.cls-7,.cls-8{stroke:#231f20;stroke-width:1px}.cls-1,.cls-3,.cls-4,.cls-5,.cls-8{stroke-linecap:round}.cls-1,.cls-3,.cls-4,.cls-5,.cls-6,.cls-8{stroke-linejoin:round}.cls-1,.cls-2,.cls-3,.cls-4,.cls-5,.cls-6,.cls-7,.cls-8,.cls-9{fill-rule:evenodd}.cls-2,.cls-4{fill:#fff}.cls-3{fill:url(#GradientFill_48)}.cls-5{fill:url(#GradientFill_48-2)}.cls-7{fill:none}.cls-8{fill:url(#GradientFill_48-3)}.cls-9{fill:#231f20}</style><radialGradient id="GradientFill_48" cx="47.94" cy="54.36" r="9.66" gradientUnits="userSpaceOnUse"><stop offset="0" stop-color="#fff685"/><stop offset="1" stop-color="#ffcb05"/></radialGradient><radialGradient id="GradientFill_48-2" cx="33.3" cy="21.27" r="43.09" xlink:href="#GradientFill_48"/><radialGradient id="GradientFill_48-3" cx="28.86" cy="45.59" r="26.87" xlink:href="#GradientFill_48"/></defs><title>Asset 26</title><g id="Layer_2" data-name="Layer 2"><g id="Layer_1-2" data-name="Layer 1"><path class="cls-1" d="M57.18 48.61a1.42 1.42 0 0 1-.34 2l-5.15 3.59a1.4 1.4 0 0 1-2-.34 1.4 1.4 0 0 1 .34-2l5.15-3.63a1.42 1.42 0 0 1 2 .34z"/><path class="cls-2" d="M35.56 60.68s9.94-6.13 14.08-9.28c0 0 .35-2.46 2.49 0s.83 4.31-1 3.32c0 0-10.11 7.46-14.25 9.11z"/><path class="cls-3" d="M36.89 63.83l-1.33-3.15s9.94-6.13 14.08-9.28c0 0 .35-2.46 2.49 0s.83 4.31-1 3.32c.01 0-10.13 7.46-14.24 9.11z"/><path class="cls-4" d="M9.24 46.37C6.23 54.15 9 61.61 17 64.51c10.76 3.92 28-9.67 19.77-21.36-4.07-5.81-12.17-6.54-17.88-3.92a34.36 34.36 0 0 0-9.65 7.14zm1.89-3.75a24.06 24.06 0 0 0-1.55 2.9z"/><path class="cls-5" d="M9.58 45.52a24.06 24.06 0 0 1 1.55-2.9l-1.55 2.9zm27.16-2.37c-4.07-5.81-12.17-6.54-17.88-3.92a34.36 34.36 0 0 0-9.62 7.14C6.23 54.15 9 61.61 17 64.51c10.76 3.92 28-9.67 19.77-21.36zm-1.06-31.69C27.67 3.82 19-1 18 .9c-2.13 4 7 10-1.79 18.71-6 6-24.85 28.19-10.46 43.59s38.5.73 37.34-14.24C42 34.65 25 29.91 13.81 39.07c3.4-3.83 8.44-7.2 14.93-10.16 10.39-4.74 16.79 1.36 18.26-.31 1.7-1.88-3.32-9.49-11.32-17.14z"/><path class="cls-6" d="M36.94 67c.35.62-.29 1.65-1.43 2.3s-2.34.7-2.7.08.29-1.64 1.43-2.3 2.34-.69 2.7-.08zm4.76-3.29c.35.61-.29 1.64-1.42 2.3s-2.35.69-2.71.08.29-1.65 1.42-2.3 2.35-.69 2.71-.08z"/><path class="cls-2" d="M30.84 39.6c-.28 0-.86.12-1.76 1.14-.09.12-.12.15-.14.49-.08.85.94 3.13 2.52 5.42l.6.88a7.55 7.55 0 0 0 1-3.74 5.72 5.72 0 0 0-.92-3.27c-.53-.74-.99-.92-1.3-.92z"/><path class="cls-7" d="M30.84 39.6c-.28 0-.86.12-1.76 1.14-.09.12-.14.15-.14.49-.08.85.94 3.13 2.52 5.42l.6.88a7.55 7.55 0 0 0 1-3.74 5.8 5.8 0 0 0-.92-3.27c-.53-.74-.99-.92-1.3-.92z"/><path class="cls-2" d="M7.86 53.5c-.16 2.82 1.9 4.32 3.15 4.33 2.27.14 2.13-1.68 2.13-1.68.1-.59-.71-2.27-.77-4.76A8.78 8.78 0 0 1 13.56 47a6.76 6.76 0 0 1 2-2.31c.83-.56-7.17-.69-7.7 8.81z"/><path class="cls-7" d="M7.86 53.5c-.16 2.82 1.9 4.32 3.15 4.33 2.27.14 2.13-1.68 2.13-1.68.1-.59-.71-2.27-.77-4.76A8.88 8.88 0 0 1 13.56 47a6.76 6.76 0 0 1 2-2.31c.83-.56-7.17-.69-7.7 8.81z"/><path class="cls-2" d="M32.05 47.53l-.6-.88c-1.58-2.29-2.6-4.57-2.52-5.42 0-.34.05-.37.14-.49.91-1 1.48-1.13 1.76-1.14.31 0 .77.18 1.3.92a5.72 5.72 0 0 1 .92 3.27 7.55 7.55 0 0 1-1 3.74zM15.57 44.7a6.76 6.76 0 0 0-2 2.31 8.78 8.78 0 0 0-1.19 4.38c.06 2.49.87 4.17.77 4.76 0 0 .14 1.82-2.13 1.68-1.25 0-3.31-1.51-3.15-4.33.53-9.48 8.53-9.37 7.71-8.8zm24.12 17.74l-1.71-3a3.54 3.54 0 0 0 .16-1.13 9.35 9.35 0 0 0-1.8-4.67c-.42-.64-.89-1.34-1.34-2.04a12.56 12.56 0 0 0 2.8-7.81 10.42 10.42 0 0 0-1.76-6 6.42 6.42 0 0 0-5.17-2.93 7.11 7.11 0 0 0-5.3 2.75 5.39 5.39 0 0 0-1.3 3.58 8.63 8.63 0 0 0 .1 1.15 7.89 7.89 0 0 0-1.06-1.17A9.21 9.21 0 0 0 17 39a13.52 13.52 0 0 0-11.45 6.4 16.73 16.73 0 0 0-2.39 8.1A9.52 9.52 0 0 0 5.51 60 7.5 7.5 0 0 0 11 62.53a6.64 6.64 0 0 0 3.9-1.26 7.75 7.75 0 0 0 2.22-2.37 5.45 5.45 0 0 0 .71-2.75c-.09-2.28-.83-3.6-.77-4.76a4.07 4.07 0 0 1 .59-2.08c1.8-2.91 3.63 1.76 3.44 10.11a9.57 9.57 0 0 0 .55 3.69A4 4 0 0 0 23 64.85a3.8 3.8 0 0 0 1.9.63l2.51 4.37a1.37 1.37 0 0 0 2.38-1.37l-2.08-3.62a3.72 3.72 0 0 0 1.35-1.38 4.47 4.47 0 0 0 .53-1.48l3 5.14a1.37 1.37 0 1 0 2.37-1.37l-2.12-3.67a4.37 4.37 0 0 0 .88.08A5.59 5.59 0 0 0 35.3 62a4.54 4.54 0 0 0 .77-.3l1.25 2.16a1.37 1.37 0 1 0 2.37-1.37z"/><path class="cls-8" d="M32.05 47.53l-.6-.88c-1.58-2.29-2.6-4.57-2.52-5.42 0-.34.05-.37.14-.49.91-1 1.48-1.13 1.76-1.14.31 0 .77.18 1.3.92a5.8 5.8 0 0 1 .92 3.27 7.55 7.55 0 0 1-1 3.74zM15.57 44.7a6.76 6.76 0 0 0-2 2.31 8.88 8.88 0 0 0-1.19 4.38c.06 2.49.87 4.17.77 4.76 0 0 .14 1.82-2.13 1.68-1.25 0-3.31-1.51-3.15-4.33.53-9.48 8.53-9.37 7.71-8.8zm24.12 17.74l-1.71-3a3.85 3.85 0 0 0 .16-1.13 9.35 9.35 0 0 0-1.8-4.67c-.42-.64-.89-1.34-1.34-2.04a12.56 12.56 0 0 0 2.8-7.81 10.42 10.42 0 0 0-1.76-6 6.42 6.42 0 0 0-5.17-2.93 7.11 7.11 0 0 0-5.3 2.75 5.44 5.44 0 0 0-1.3 3.58 7.23 7.23 0 0 0 .1 1.15 7.89 7.89 0 0 0-1.06-1.17A9.21 9.21 0 0 0 17 39a13.52 13.52 0 0 0-11.45 6.4 16.73 16.73 0 0 0-2.39 8.1A9.57 9.57 0 0 0 5.51 60 7.5 7.5 0 0 0 11 62.53a6.64 6.64 0 0 0 3.9-1.26 7.75 7.75 0 0 0 2.22-2.37 5.56 5.56 0 0 0 .71-2.75c-.09-2.28-.83-3.6-.77-4.76a4 4 0 0 1 .59-2.08c1.8-2.91 3.63 1.76 3.44 10.11a9.57 9.57 0 0 0 .55 3.69A4 4 0 0 0 23 64.85a3.8 3.8 0 0 0 1.9.63l2.51 4.37a1.37 1.37 0 0 0 2.38-1.37l-2.08-3.62a3.72 3.72 0 0 0 1.35-1.38 4.47 4.47 0 0 0 .53-1.48l3 5.14a1.37 1.37 0 1 0 2.37-1.37l-2.12-3.67a4.37 4.37 0 0 0 .88.08A5.59 5.59 0 0 0 35.3 62a4.54 4.54 0 0 0 .77-.3l1.25 2.16a1.37 1.37 0 1 0 2.37-1.37z"/><path class="cls-9" d="M26.61 47.37s7.83 8.4 6.38 9.87-6.38-9.87-6.38-9.87zm-3.29 1.46s4.39 9.71 2.92 11.35-2.93-11.35-2.92-11.35zM21.72 6S35 14.15 42.19 25.89c0 0-5.48-14.49-20.47-19.89z"/></g></g></svg>