<svg xmlns="http://www.w3.org/2000/svg" viewBox="0 0 81 53.11"><defs><style>.cls-1,.cls-5{fill:#fff}.cls-1,.cls-2,.cls-3,.cls-4,.cls-5{fill-rule:evenodd}.cls-2{fill:#aaa576}.cls-2,.cls-3,.cls-5{stroke:#231f20}.cls-2,.cls-3{stroke-linejoin:round;stroke-width:1px}.cls-3{fill:url(#GradientFill_84)}.cls-4{fill:#231f20}.cls-5{stroke-width:.35px}</style><radialGradient id="GradientFill_84" cx="56.83" cy="16.13" r="36.85" gradientUnits="userSpaceOnUse"><stop offset="0" stop-color="#d6cc70"/><stop offset="1" stop-color="#d2ab67"/></radialGradient></defs><title>Asset 80</title><g id="Layer_2" data-name="Layer 2"><g id="Layer_1-2" data-name="Layer 1"><path class="cls-1" d="M18.08 27.34c-.69 4.58-3 16.89-3.66 18.85 0 0-4 1.37-3.36 3.21s6.57 1.94 7-.37c0 0 .46-4 1.54-2.76s1.73-.76.73-3.13c1.63 1.16 3.7 2 2.33-2.18 1.74 1 3.56 1.34 4-1a8.15 8.15 0 0 0 .15-2.18z"/><path class="cls-2" d="M26.85 37.78l-8.77-10.44c-.69 4.58-3 16.89-3.66 18.85 0 0-4 1.37-3.36 3.21s6.57 1.94 7-.37c0 0 .46-4 1.54-2.76s1.73-.76.73-3.13c1.63 1.16 3.7 2 2.33-2.18 1.74 1 3.56 1.34 4-1a8.15 8.15 0 0 0 .19-2.18z"/><path class="cls-1" d="M44.55 35.89c5.19 3.8 10.49 3.7 13 5.48 5.58 4 5.45 7.05 5.45 7.05-6.26 4.76 7 5.3 4.62.77-5.71-11.07-2.29-11.74-6.93-14z"/><path class="cls-2" d="M60.66 35.2l-16.11.69c5.19 3.8 10.49 3.7 13 5.48 5.58 4 5.45 7.05 5.45 7.05-6.26 4.76 7 5.3 4.62.77-5.74-11.07-2.32-11.74-6.96-13.99z"/><path class="cls-1" d="M73.33 19.54c3.17 4.59.84-5.28 1.87-6.32 1.36-1.39 1.63 4.3 2.58-2.31s4.35-6.15 1.77-7.38-14.42 14.6-21.21 16-26-2-30.18-4.77-6.26-8.3-8.3-11.68S15.65.61 11.43.61s-3.06 4-5.3 5.54a26.34 26.34 0 0 1-3 1.38c-1.77.31-2.17 1.07-.27 4s7.48-1.08 8.43.76 5.24 7.5 5.1 11.84a12 12 0 0 0 3.61 9.2c-.68 4.57-2.2 12.82-2.8 14.78 0 0-3.84 1.38-3.22 3.23s6 1.69 6.45-.62c0 0 .46-4 1.54-2.77s1.72-.76.72-3.12c1.64 1.16 3.71 2 2.34-2.18 1.74 1 3.55 1.34 4-1a9.07 9.07 0 0 0 .15-2.18c8.19.62 18-1.43 24.76-3.27 5.2 3.79 11.32 3.37 13.8 5.15 5.57 4 4.62 7.37 4.62 7.37-6.25 4.77 7 5.3 4.62.77-5.71-11.06-2.29-11.73-6.93-14-2.85-1.38-2.31-11.22-2.31-11.22 2.81 4.31 4.15.63 5.59-4.73z"/><path class="cls-3" d="M73.33 19.54c3.17 4.59.84-5.28 1.87-6.32 1.36-1.39 1.63 4.3 2.58-2.31s4.35-6.15 1.77-7.38-14.42 14.6-21.21 16-26-2-30.18-4.77-6.26-8.3-8.3-11.68S15.65.61 11.43.61s-3.06 4-5.3 5.54a26.34 26.34 0 0 1-3 1.38c-1.77.31-2.17 1.07-.27 4s7.48-1.08 8.43.76 5.24 7.5 5.1 11.84a12 12 0 0 0 3.61 9.2c-.68 4.57-2.2 12.82-2.8 14.78 0 0-3.84 1.38-3.22 3.23s6 1.69 6.45-.62c0 0 .46-4 1.54-2.77s1.72-.76.72-3.12c1.64 1.16 3.71 2 2.34-2.18 1.74 1 3.55 1.34 4-1a9.07 9.07 0 0 0 .15-2.18c8.19.62 18-1.43 24.76-3.27 5.2 3.79 11.32 3.37 13.8 5.15 5.57 4 4.62 7.37 4.62 7.37-6.25 4.77 7 5.3 4.62.77-5.71-11.06-2.29-11.73-6.93-14-2.85-1.38-2.31-11.22-2.31-11.22 2.81 4.31 4.15.63 5.59-4.73z"/><path class="cls-4" d="M18.77 4.3s.43 1.52.76 3.25c.38 2 2.3 2.68 1 4s.77 3-1.4 3.66c-2.71.89-3.45-3.66-3.06-8.6 0 0-2.81 9.87 2.16 9.73s1.66-1.83 3.32-3.66S20 6.7 18.77 4.3zm25.3 25.52a19.16 19.16 0 0 1 8.76 4.61s-1.08-4.3-8.76-4.61zm-4.14 2.28a17.26 17.26 0 0 1 8.59 2.25s-1.82-3.55-8.59-2.25zm-3.08 1.54a16.91 16.91 0 0 1 6.91.94s-1.31-2.08-6.91-.94zm16.21-3.07a17 17 0 0 1 4.62 5.23s.37-2.42-4.62-5.23zm-25.78 9.6a14 14 0 0 1-.23-7.47s-2.51 2.45.23 7.47zm-4.14 2.92a13.85 13.85 0 0 1 .06-7.47s-2.61 2.38-.06 7.47zm45.69-26.36a13.92 13.92 0 0 1 .59 7.45s2.39-2.57-.59-7.45zm2.94-3.54a14 14 0 0 1-.68 7.44s2.79-2.12.68-7.44zm1.53-.02a11.25 11.25 0 0 1 3.5-4.89s-2.8.34-3.5 4.89zM25.75 41.13a10.5 10.5 0 0 1-1.21-5.2s-1.36 1.93 1.21 5.2zm38.46-3.02a16.89 16.89 0 0 1-2.62-6.47s-1.15 2.17 2.62 6.47zm-3.38-1.84a17 17 0 0 1-2.62-6.47s-1.15 2.2 2.62 6.47zm-30.9.62s-.77-5.23 1.54-6.46c0 0-4.47.62-1.54 6.46zm7.83-.52s-5-1.55-5.16-4.16c0 0-1.37 4.28 5.16 4.16zM3.13 8.35a1.45 1.45 0 0 1-1.56 1.31A1.46 1.46 0 0 1 0 8.35 1.45 1.45 0 0 1 1.57 7a1.45 1.45 0 0 1 1.56 1.35z"/><path class="cls-5" d="M14.06 4.83c.39.56 0 1.26-.88 1.56a2.13 2.13 0 0 1-2.31-.47c-.39-.56 0-1.26.88-1.56a2.11 2.11 0 0 1 2.31.47z"/><path class="cls-4" d="M11.55 4.91a.89.89 0 0 0-.49.74c0 .54.64 1 1.43 1s1.42-.45 1.42-1-.64-1-1.42-1h-.22z"/></g></g></svg>