<svg xmlns="http://www.w3.org/2000/svg" viewBox="0 0 61.14 51.41"><defs><style>.cls-1{fill:#fff}.cls-1,.cls-10,.cls-2,.cls-3,.cls-4,.cls-5,.cls-6,.cls-7,.cls-8,.cls-9{fill-rule:evenodd}.cls-2{fill:#ffcb05}.cls-10,.cls-2,.cls-4,.cls-5,.cls-6,.cls-8,.cls-9{stroke:#231f20}.cls-2,.cls-4,.cls-9{stroke-linejoin:round}.cls-10,.cls-2,.cls-4,.cls-9{stroke-width:1px}.cls-3,.cls-5{fill:#231f20}.cls-4{fill:url(#GradientFill_93)}.cls-5{stroke-width:.5px}.cls-6,.cls-7{fill:#e1dad0}.cls-6,.cls-8{stroke-miterlimit:2.61;stroke-width:.5px}.cls-8{fill:url(#GradientFill_110)}.cls-10,.cls-9{fill:none}</style><radialGradient id="GradientFill_93" cx="39.33" cy="12.85" r="29.3" gradientUnits="userSpaceOnUse"><stop offset="0" stop-color="#d0ded3"/><stop offset="1" stop-color="#a9c0b1"/></radialGradient><radialGradient id="GradientFill_110" cx="36.65" cy="24.59" r="13.99" gradientUnits="userSpaceOnUse"><stop offset="0" stop-color="#a9c0b1"/><stop offset="1" stop-color="#809083"/></radialGradient></defs><title>Asset 92</title><g id="Layer_2" data-name="Layer 2"><g id="Layer_1-2" data-name="Layer 1"><path class="cls-1" d="M34.45 37.66S36.13 44 35.71 45c0 0-1.27.72-.1 1.25s1.73 1.92 5.62 2.35c0 0 .31-1.58 1.67-1.76 0 0-1-.72.76-1.35a24.28 24.28 0 0 0-5.8-.53c-1.24 0-1.58-5-1.37-7.52z"/><path class="cls-2" d="M36.49 37.47l-2 .19S36.13 44 35.71 45c0 0-1.27.72-.1 1.25s1.73 1.92 5.62 2.35c0 0 .31-1.58 1.67-1.76 0 0-1-.72.76-1.35a24.28 24.28 0 0 0-5.8-.53c-1.24.04-1.58-4.96-1.37-7.49z"/><path class="cls-3" d="M36.52 46.25A11.34 11.34 0 0 0 41 47.84a7 7 0 0 1-4.48-1.59zm1.92-.1a20.54 20.54 0 0 0 3.52.61 9 9 0 0 1-3.52-.61zm-.02-.65a39.38 39.38 0 0 1 4 .19 30.68 30.68 0 0 1-4-.19z"/><path class="cls-1" d="M27.86 39.13s.81 6.53.27 7.48c0 0-1.36.55-.27 1.23s1.46 2.13 5.26 3.07c0 0 .52-1.52 1.88-1.52 0 0-.87-.85.94-1.24a24.63 24.63 0 0 0-5.68-1.3c-1.23-.14-.9-5.18-.36-7.62z"/><path class="cls-2" d="M29.9 39.23l-2-.1s.81 6.53.27 7.48c0 0-1.36.55-.27 1.23s1.46 2.13 5.26 3.07c0 0 .52-1.52 1.88-1.52 0 0-.87-.85.94-1.24a24.63 24.63 0 0 0-5.68-1.3c-1.3-.14-.94-5.18-.4-7.62z"/><path class="cls-3" d="M28.77 47.92A11.32 11.32 0 0 0 33 50.1a7 7 0 0 1-4.23-2.18zm1.92.17a21.15 21.15 0 0 0 3.4 1.07 9 9 0 0 1-3.4-1.07zm.06-.65a38.37 38.37 0 0 1 3.89.71 32.39 32.39 0 0 1-3.89-.71z"/><path class="cls-1" d="M55 3.38s.87 1.29 4 2.29S61.5 8.91 51.48 7c0 0 1.04-3.21 3.52-3.62z"/><path class="cls-2" d="M55 3.38s.87 1.29 4 2.29S61.5 8.91 51.48 7c0 0 1.04-3.21 3.52-3.62z"/><path class="cls-1" d="M50.89.5c-8.84.08-7.77 10-8.27 19-12-3.35-34.8 13-38.86 15.18-4.69 2.52-3.44 4.71-1.66 4.5s-.94-4 20.46 1 36.8-3.79 30.61-15.38c-5-9.41-3.89-11.66-3.57-14.48S53 7.24 53 7.24c-1.15-1.57 1.52-1.13 1.36-2.51C54.19 3 56 4.21 56 4.21A5.32 5.32 0 0 0 50.89.5z"/><path class="cls-4" d="M50.89.5c-8.84.08-7.77 10-8.27 19-12-3.35-34.8 13-38.86 15.18-4.69 2.52-3.44 4.71-1.66 4.5s-.94-4 20.46 1 36.8-3.79 30.61-15.38c-5-9.41-3.89-11.66-3.57-14.48S53 7.24 53 7.24c-1.15-1.57 1.52-1.13 1.36-2.51C54.19 3 56 4.21 56 4.21A5.32 5.32 0 0 0 50.89.5z"/><path class="cls-3" d="M52.75 6.38A26.66 26.66 0 0 0 59 7.4a23 23 0 0 1-6.29-.87z"/><path class="cls-1" d="M51.8 3.59a.78.78 0 0 1-.78.78.78.78 0 0 1 0-1.56.78.78 0 0 1 .78.78z"/><path class="cls-5" d="M51.8 3.59a.78.78 0 0 1-.78.78.78.78 0 0 1 0-1.56.78.78 0 0 1 .78.78z"/><path class="cls-1" d="M51.63 3.33a.35.35 0 1 1-.35-.33.35.35 0 0 1 .35.33z"/><path class="cls-6" d="M24.58 40.61l-.6-2.91-2.06-1.29 2.06-.17 1.71-1.37 7.87 2.23 7.88.34 4.45-1.71 2.91-3.51 1.03-4.28-1.45-4.37 1.02-.77 2.31-.09 1.72 2.4 1.37 4.28-1.03 4.37-2.65 3.08-5.31 3.08-6.51 1.71-6.93.17-7.79-1.19z"/><path class="cls-7" d="M50.03 8.67L48.2 6.81l-.35-1.79.48-.64 1.22.58 2.08 1.98.26.67-1.86 1.06z"/><path class="cls-8" d="M5.9 33.25l9.64-5.5 9.11-4.7 4.82-2.22 7.36-1.67 5.29.2 4.02 1.54 2.41 2.62 1.27 4.5-1.2 4.36-3.02 3.49-4.08 1.41-7.83-.2-11.18-3.43-9.85-.74-6.76.34z"/><path class="cls-9" d="M50.89.5c-8.84.08-7.77 10-8.27 19-12-3.35-34.8 13-38.86 15.18-4.69 2.52-3.44 4.71-1.66 4.5s-.94-4 20.46 1 36.8-3.79 30.61-15.38c-5-9.41-3.89-11.66-3.57-14.48S53 7.24 53 7.24c-1.15-1.57 1.52-1.13 1.36-2.51C54.19 3 56 4.21 56 4.21A5.32 5.32 0 0 0 50.89.5z"/><path class="cls-9" d="M42.57 19.49c2.47.73 6.22 2.57 7.09 7.22.84 4.49-2.79 15.22-21 8.92-10.79-3.73-19-2.85-23.83-1.51"/><path class="cls-10" d="M25.65 34.76a3.38 3.38 0 0 1-3.8 1.36 3.36 3.36 0 0 0 2.44 1.5 2.45 2.45 0 0 0 .82 3.12m23.25-17.26s2-1.64 3.81-.55m.31-15.56a2.88 2.88 0 0 1-1.25-1c-3.51-4.26-5.35-.42-1 2.32"/></g></g></svg>