<svg xmlns="http://www.w3.org/2000/svg" viewBox="0 0 58.72 59.47"><defs><style>.cls-1{fill:#a7a9ac}.cls-1,.cls-3,.cls-4{stroke:#231f20;stroke-linecap:round;stroke-width:1px}.cls-1,.cls-2,.cls-3,.cls-4,.cls-5,.cls-6{fill-rule:evenodd}.cls-2{fill:#fff}.cls-3{fill:url(#GradientFill_49)}.cls-4{fill:url(#GradientFill_12)}.cls-5{fill:#231f20}.cls-6{fill:#e6e7e8}</style><linearGradient id="GradientFill_49" x1=".17" y1="58.81" x2="44.17" y2="14.81" gradientUnits="userSpaceOnUse"><stop offset="0" stop-color="#d2ab67"/><stop offset="1" stop-color="#eaca8c"/></linearGradient><radialGradient id="GradientFill_12" cx="49.25" cy="8.62" r="19.99" gradientUnits="userSpaceOnUse"><stop offset="0" stop-color="#e6e7e8"/><stop offset="1" stop-color="#bcbec0"/></radialGradient></defs><title>Asset 31</title><g id="Layer_2" data-name="Layer 2"><g id="Layer_1-2" data-name="Layer 1"><path class="cls-1" d="M39.76 12.78c-3.88-8.07-11.84-3.15-7-7.21 4.07-3.42 9.61-.35 11.34.78 1.78-1.23-5.24 8.93-4.34 6.43z"/><path class="cls-2" d="M36 12.89s-14.88 14-22.72 23C5.65 44.71.5 48.44.5 48.44S.62 58.19 10.42 59l30.66-41z"/><path class="cls-3" d="M41.08 18L36 12.89s-14.88 14-22.72 23C5.65 44.71.5 48.44.5 48.44S.62 58.19 10.42 59z"/><path class="cls-2" d="M45.37 26.39A4.47 4.47 0 0 1 44 23l-3-3.64a6.13 6.13 0 0 1-4-1.56 7.1 7.1 0 0 1-1.3-8.09c-2.38-8.61-11.08-5.17-5.6-8.32 4.6-2.65 9.51 1.35 11 2.76a6.25 6.25 0 0 1 7 1.15 6.51 6.51 0 0 1 2.07 4.84l3 3.16a5.74 5.74 0 0 1 3.25 1.39c2.26 2 2.88 5.88-1.4 9.8-3.64 3.37-7.4 3.9-9.65 1.9z"/><path class="cls-4" d="M45.37 26.39A4.4 4.4 0 0 1 44 23l-3-3.64a6.13 6.13 0 0 1-4-1.56 7.1 7.1 0 0 1-1.3-8.09c-2.38-8.61-11.08-5.17-5.6-8.32 4.6-2.65 9.51 1.35 11 2.76a6.25 6.25 0 0 1 7 1.15 6.51 6.51 0 0 1 2.07 4.84l3 3.16a5.74 5.74 0 0 1 3.25 1.39c2.26 2 2.88 5.88-1.4 9.8-3.64 3.37-7.4 3.9-9.65 1.9z"/><path class="cls-5" d="M37.15 17.38S19.85 36.35 20.63 43c0 0-3.76-4.34 16.29-26.13z"/><path class="cls-5" d="M39.59 18.77s-13.44 12-17.07 22.12c0 0 .37-8.3 17.07-22.12zM4.1 55.6s7.84 1.46 12.13-9.1c1.85-4.55 1.5-15.13 17.55-30.8 0 0-12.28 7.23-18 29.63C13.21 55.4 4.1 55.6 4.1 55.6z"/><path class="cls-5" d="M17.25 32.24S11.15 50.23 2.46 53c0 0 8.6.08 14.79-20.76z"/><path class="cls-5" d="M.91 48.84S5.88 50 11 43c0 0-3.75 7.85-10.09 5.84z"/><path class="cls-6" d="M57 21.32c-1.53 3-6.34 7.09-10.53 5.25-.32-.95-.45.17-.45-2.55s3.16-7.84 6.1-7.84 4.41.82 4.88 5.14z"/><path class="cls-5" d="M48.27 18.76c2.35-2.42 5.63-3.07 7.31-1.43a3.06 3.06 0 0 1 .85 1.53 3.29 3.29 0 0 0-1-2.24c-1.68-1.63-4.95-1-7.31 1.43a6.66 6.66 0 0 0-2.08 5.83 7.05 7.05 0 0 1 2.23-5.12z"/></g></g></svg>