<svg xmlns="http://www.w3.org/2000/svg" viewBox="0 0 45.77 31.84"><defs><style>.cls-1{fill:#81806f}.cls-1,.cls-3,.cls-4,.cls-6{stroke:#231f20}.cls-1,.cls-3,.cls-6{stroke-width:1px}.cls-1,.cls-2,.cls-3,.cls-4,.cls-5,.cls-6{fill-rule:evenodd}.cls-2,.cls-4{fill:#fff}.cls-3{fill:url(#GradientFill_75)}.cls-4{stroke-width:.5px}.cls-5{fill:#231f20}.cls-6{fill:none;stroke-linecap:round}</style><radialGradient id="GradientFill_75" cx="32.33" cy="9.75" r="21.88" gradientUnits="userSpaceOnUse"><stop offset="0" stop-color="#a9a791"/><stop offset="1" stop-color="#81806f"/></radialGradient></defs><title>Asset 100</title><g id="Layer_2" data-name="Layer 2"><g id="Layer_1-2" data-name="Layer 1"><path class="cls-1" d="M4.28 25.1s-6.57 1.45-2.39 2c0 0-1.45 2.13 2.3.6 0 0 1 4.18 3.59-1.11a5.34 5.34 0 0 1 4.94-1.37L7 23.05s-1-2.22-2.72 2.05z"/><path class="cls-2" d="M41.4 20.71a9.87 9.87 0 0 0-.71-1.85 10 10 0 0 0 2.76-6.33c0-6.64-7.72-12-17.24-12C18.84.5 12.56 3.72 10.09 8.25a11.2 11.2 0 0 0-3.17 1.21c-5.12-3.34-4.16.43-3.19 2.85a8.35 8.35 0 0 0-1.6 4.87c0 5.09 4.71 9.22 10.53 9.22a11.62 11.62 0 0 0 5.18-1.2 16.28 16.28 0 0 0 4.11 1A5 5 0 0 1 23 27.73c.52 5.85 3 2.27 3 2.27 3 2.77 2.37.26 2.37.26 4.91-.41-1.54-2.68-1.54-2.68a13.59 13.59 0 0 0-.1-1.47 24.41 24.41 0 0 0 11-4.49l.15.17c2.05 5.5 3.46 1.44 3.46 1.44 3.59 1.88 2.35-.38 2.35-.38 4.69-1.35-2.29-2.14-2.29-2.14z"/><path class="cls-3" d="M41.4 20.71a9.87 9.87 0 0 0-.71-1.85 10 10 0 0 0 2.76-6.33c0-6.64-7.72-12-17.24-12C18.84.5 12.56 3.72 10.09 8.25a11.2 11.2 0 0 0-3.17 1.21c-5.12-3.34-4.16.43-3.19 2.85a8.35 8.35 0 0 0-1.6 4.87c0 5.09 4.71 9.22 10.53 9.22a11.62 11.62 0 0 0 5.18-1.2 16.28 16.28 0 0 0 4.11 1A5 5 0 0 1 23 27.73c.52 5.85 3 2.27 3 2.27 3 2.77 2.37.26 2.37.26 4.91-.41-1.54-2.68-1.54-2.68a11.43 11.43 0 0 0-.1-1.47 24.41 24.41 0 0 0 11-4.49l.15.17c2.05 5.5 3.46 1.44 3.46 1.44 3.59 1.88 2.35-.38 2.35-.38 4.69-1.35-2.29-2.14-2.29-2.14z"/><path class="cls-4" d="M12.92 17.17a1.37 1.37 0 0 0 .61 1.92 1.66 1.66 0 0 0 1.83-1.16 1.38 1.38 0 0 0-.61-1.93 1.64 1.64 0 0 0-1.83 1.17z"/><path class="cls-5" d="M10.77 23.22c1.33 0 2.55-2.22 2.55-2.22a7.35 7.35 0 0 1-2.47 1.2c-.94.08-2.14-1.28-2.14-1.28a3.38 3.38 0 0 0 1.46 2.15c-.18.55-.64 1.53-1.37.65a1 1 0 0 0 1.67.1s.29 1.47 1.86.2c0-.02-1.76.45-1.56-.8z"/><path class="cls-4" d="M9.24 16.93c.32.9.06 1.81-.58 2s-1.41-.32-1.73-1.21a1.54 1.54 0 0 1 .58-2c.64-.24 1.42.28 1.73 1.21z"/><path class="cls-5" d="M7.44 16.6a1.75 1.75 0 0 0 0 1.23c.26.76.87 1.24 1.34 1.07s.64-.92.38-1.68-.83-1.22-1.31-1.06zm7.36-.02h-.1a1.46 1.46 0 0 0-1.56.95c-.29.69-.08 1.37.48 1.53a1.46 1.46 0 0 0 1.55-1 1.36 1.36 0 0 0 .06-1zm17.79-5.29s0 .11-.09.3a6.42 6.42 0 0 0 3.71 7.82s-6.76-.19-3.62-8.12zM20.74 17a4.34 4.34 0 0 1-2 5.77s5.82-1.4 2-5.77z"/><path class="cls-6" d="M21.43 13.44c2.64-7.63-3.82-3.23-3.82-3.23a8.8 8.8 0 0 0-7.93-1.86"/></g></g></svg>