<svg xmlns="http://www.w3.org/2000/svg" viewBox="0 0 40.79 37"><defs><style>.cls-1{fill:#fff}.cls-1,.cls-2,.cls-3{fill-rule:evenodd}.cls-2{stroke:#231f20;stroke-width:1px;fill:url(#GradientFill_34)}.cls-3{fill:#231f20}</style><radialGradient id="GradientFill_34" cx="28.04" cy="11.06" r="25.94" gradientUnits="userSpaceOnUse"><stop offset="0" stop-color="#d2e288"/><stop offset="1" stop-color="#a6ce39"/></radialGradient></defs><title>Asset 115</title><g id="Layer_2" data-name="Layer 2"><g id="Layer_1-2" data-name="Layer 1"><path class="cls-1" d="M39.57 27.19a14.65 14.65 0 0 0-1.84-7.12 9.48 9.48 0 0 0 1.63-.22s-.8-.41-2.11-3.72a18.83 18.83 0 0 0-3.08-5.34 7.12 7.12 0 0 1 1.68-.09C34.2 7.3 31.9 6.2 30 5.93a16.29 16.29 0 0 1 1.88-1S29-2 18.55 1.45c-5.45 1.78-7.91 5.22-9 8.12C6.6 7 1.8 3.13.67 4.33s4.1 5.05 7.33 7.2a13.7 13.7 0 0 0-4.15 10.88c.35 11 7.86 11.37 7.86 11.37a18.11 18.11 0 0 1 .27-2.1c.88 1.66 2.7 3.45 6.46 3.84a7.25 7.25 0 0 1-.44-1.61A18.84 18.84 0 0 0 24 35c3.57.09 4.22.71 4.22.71a9.19 9.19 0 0 0-.35-1.61 14.66 14.66 0 0 0 7.32-.69c2.44-.89 4.63-1.49 4.63-1.49a33.83 33.83 0 0 1-.25-4.73z"/><path class="cls-2" d="M39.57 27.19a14.65 14.65 0 0 0-1.84-7.12 9.48 9.48 0 0 0 1.63-.22s-.8-.41-2.11-3.72a18.83 18.83 0 0 0-3.08-5.34 7.12 7.12 0 0 1 1.68-.09C34.2 7.3 31.9 6.2 30 5.93a16.29 16.29 0 0 1 1.88-1S29-2 18.55 1.45c-5.45 1.78-7.91 5.22-9 8.12C6.6 7 1.8 3.13.67 4.33s4.1 5.05 7.33 7.2a13.7 13.7 0 0 0-4.15 10.88c.35 11 7.86 11.37 7.86 11.37a18.11 18.11 0 0 1 .27-2.1c.88 1.66 2.7 3.45 6.46 3.84a7.25 7.25 0 0 1-.44-1.61A18.84 18.84 0 0 0 24 35c3.57.09 4.22.71 4.22.71a9.19 9.19 0 0 0-.35-1.61 14.66 14.66 0 0 0 7.32-.69c2.44-.89 4.63-1.49 4.63-1.49a33.83 33.83 0 0 1-.25-4.73z"/><path class="cls-3" d="M33.67 26.34a100 100 0 0 0-19-12.94"/></g></g></svg>