<svg xmlns="http://www.w3.org/2000/svg" viewBox="0 0 44.56 26.35"><defs><style>.cls-1{fill:#fff}.cls-1,.cls-2,.cls-3,.cls-4,.cls-5,.cls-6{fill-rule:evenodd}.cls-2,.cls-4{fill:#a9a791}.cls-2,.cls-3,.cls-4,.cls-5{stroke:#231f20}.cls-2{stroke-linejoin:round}.cls-2,.cls-3,.cls-4{stroke-width:1px}.cls-3{fill:url(#GradientFill_89)}.cls-5{fill:none;stroke-width:.5px}.cls-6{fill:#231f20}</style><radialGradient id="GradientFill_89" cx="26.21" cy="7.61" r="16.76" gradientUnits="userSpaceOnUse"><stop offset="0" stop-color="#f2f0e3"/><stop offset="1" stop-color="#d9d2b7"/></radialGradient></defs><title>Asset 102</title><g id="Layer_2" data-name="Layer 2"><g id="Layer_1-2" data-name="Layer 1"><path class="cls-1" d="M30.91 18.17s1.36 2.73 3.55 2.36A2 2 0 0 1 37 21.9s-2.72 1-3.54-.09c0 0-4.82-.09-7-3.1z"/><path class="cls-2" d="M26.45 18.71l4.46-.54s1.36 2.73 3.55 2.36A2 2 0 0 1 37 21.9s-2.72 1-3.54-.09c0 0-4.82-.09-7.01-3.1z"/><path class="cls-1" d="M27.48 20s1.07 2.86 3.28 2.73 2.39 1.62 2.39 1.62-2.81.71-3.51-.46c0 0-4.79-.59-6.65-3.81z"/><path class="cls-2" d="M23 20.09l4.48-.09s1.07 2.86 3.28 2.73 2.39 1.62 2.39 1.62-2.81.71-3.51-.46c0 .01-4.79-.58-6.64-3.8z"/><path class="cls-1" d="M14.08 21.55s1.14 2.66 3.45 2.59 2.52 1.55 2.52 1.55-2.95.59-3.69-.51c0 0-5-.66-7-3.66z"/><path class="cls-2" d="M9.38 21.52h4.7s1.14 2.66 3.45 2.59 2.52 1.55 2.52 1.55-2.95.59-3.69-.51c0 .03-5.01-.63-6.98-3.63z"/><path class="cls-1" d="M34.55 11.07s-1.09-.36.45-2.63c.19-.27 4.55-4.19.55-3.1 1.18-1.91.63-3.18-.73-1.26-.36-2.1-1.36-1.19-2.2.2-.44-2.12-1.26-1.21-1.61.21-.92-2.15-1.56-1.15-2.37.13-.46-2.19-1.37-1.91-1.91.16-1.1-1.71-2-2.07-2.1.11-.91-1.55-1.36-1.91-2-.64-.64-2.64-1-1.82-1.67-.54-1.33-2.91-1.4-.53-1.4-.53-.66-1.2-1.84 0-1.84 0s-1.26-2.91-2.09-.96C14.54.16 14.08.85 14.26 2.05 12.35.07 12.72 2 12.72 2c-2.09-2.39-2.41-1.59-1.93.1C8.35.16 8.73 1 9.09 2.45 7.44.8 5.36 1.76 6.81 3.41c-2.55-.89-2.56-.33-1.24.89-3-.14-2.88 1.26-1.86 2.5C.28 5.86 2 8 2.43 9.37c-3.17.43-.26 1-.35 1.43s-3.38.91-.19 1.55c-2.36 2.36 0 2.13.29 3.15.14.53-2.11 1.31.53 1.53-1.64 2 .6 1.17 1 1.7.26.35-2.24 1.85.88 1-1.43 2.79.66.6 1 .87s-1.09 2.44 1.5.91c-.47 2.39 1.11.49 1.71.69s-.54 2.43 1.71.44c.3 2.08 1 .18 1.57.24s-.55 2.66 1.45.1c-.08 2.74 1.37 0 2.1 0 .44 0 .54 2.1 1.38-.1 1 1.75.83-.08 1.26-.14s.42 1.7 1.39-.21c.33 1 0 2.25 1.3-.24 1 1.88 1.09-.23 1.66-.36.36-.09.75 1.84 1.11-.28 1.54 1.79 1.26-.34 1.92-.53s1.15 2.11 1.89-.6c1.37 2.2 1.55.38 1.56-.54 2.35 1.55 2.21-.82 3.38-1.29z"/><path class="cls-3" d="M32.48 18.69l2.07-7.62s-1.09-.36.45-2.63c.19-.27 4.55-4.19.55-3.1 1.18-1.91.63-3.18-.73-1.26-.36-2.1-1.36-1.19-2.2.2-.44-2.12-1.26-1.21-1.61.21-.92-2.15-1.56-1.15-2.37.13-.46-2.19-1.37-1.91-1.91.16-1.1-1.71-2-2.07-2.1.11-.91-1.55-1.36-1.91-2-.64-.64-2.64-1-1.82-1.67-.54-1.33-2.91-1.4-.53-1.4-.53-.66-1.2-1.84 0-1.84 0s-1.26-2.91-2.09-.96C14.54.16 14.08.85 14.26 2.05 12.35.07 12.72 2 12.72 2c-2.09-2.39-2.41-1.59-1.93.1C8.35.16 8.73 1 9.09 2.45 7.44.8 5.36 1.76 6.81 3.41c-2.55-.89-2.56-.33-1.24.89-3-.14-2.88 1.26-1.86 2.5C.28 5.86 2 8 2.43 9.37c-3.17.43-.26 1-.35 1.43s-3.38.91-.19 1.55c-2.36 2.36 0 2.13.29 3.15.14.53-2.11 1.31.53 1.53-1.64 2 .6 1.17 1 1.7.26.35-2.24 1.85.88 1-1.43 2.79.66.6 1 .87s-1.09 2.44 1.5.91c-.47 2.39 1.11.49 1.71.69s-.54 2.43 1.71.44c.3 2.08 1 .18 1.57.24s-.55 2.66 1.45.1c-.08 2.74 1.37 0 2.1 0 .44 0 .54 2.1 1.38-.1 1 1.75.83-.08 1.26-.14s.42 1.7 1.39-.21c.33 1 0 2.25 1.3-.24 1 1.88 1.09-.23 1.66-.36.36-.09.75 1.84 1.11-.28 1.54 1.79 1.26-.34 1.92-.53s1.15 2.11 1.89-.6c1.37 2.2 1.56.38 1.56-.54 2.35 1.55 2.21-.82 3.38-1.29z"/><path class="cls-1" d="M29.68 18.13s3-.79-.94-1.33c1.08-1.09-1.08-1.8-1.83-2.09a3.35 3.35 0 0 0 1.36-2.27c-5-4.55.91-3.09.91-3.09a3.11 3.11 0 0 1 1-2c1.09 1 1.91 1.28 3 0a1.64 1.64 0 0 0 1.55 1c2.09 1.55.82 4.39 3.67 4.86 4.25.7 6.57-.24 5.32 2-1 1.74-5.1 1.34-6 2.22-1.26 1.26-4 3.31-6.66 1.78-1.33-.04-1.38-1.08-1.38-1.08z"/><path class="cls-4" d="M29.68 18.13s3-.79-.94-1.33c1.08-1.09-1.08-1.8-1.83-2.09a3.35 3.35 0 0 0 1.36-2.27c-5-4.55.91-3.09.91-3.09a3.11 3.11 0 0 1 1-2c1.09 1 1.91 1.28 3 0a1.64 1.64 0 0 0 1.55 1c2.09 1.55.82 4.39 3.67 4.86 4.25.7 6.57-.24 5.32 2-1 1.74-5.1 1.34-6 2.22-1.26 1.26-4 3.31-6.66 1.78-1.33-.04-1.38-1.08-1.38-1.08z"/><path class="cls-1" d="M34 13.47c0 .61-.37 1.1-.82 1.1s-.83-.49-.83-1.1.37-1.1.83-1.1.82.49.82 1.1z"/><path class="cls-5" d="M34 13.47c0 .61-.37 1.1-.82 1.1s-.83-.49-.83-1.1.37-1.1.83-1.1.82.49.82 1.1z"/><path class="cls-6" d="M32.54 13.66a.71.71 0 1 0 .7-.8.66.66 0 0 0-.55.31zm-3.45-2.31s-.55-1.46-1.09-1 1.09 1 1.09 1zm4.46-.02a1.6 1.6 0 0 0-2.46.73s.46-2.64 2.46-.73zm-9.73-5.26a6.93 6.93 0 0 1 1.81 2.82s.91-1.89-1.81-2.82zm3.81-.64A5.65 5.65 0 0 1 26.45 8s1.77 0 1.18-2.57zM23.14 10A7 7 0 0 1 26 11.79s0-2.12-2.86-1.79zM2.13 13.69a7 7 0 0 1 2.81 1.83S5 13.4 2.13 13.69zM21.6 6.12A7 7 0 0 1 23.3 9s.99-1.85-1.7-2.88zm-2.79 3.6a6.92 6.92 0 0 1 3.35-.17s-1.16-1.74-3.35.17zm-.04-4.65A7.05 7.05 0 0 1 21 7.55s.61-2.04-2.23-2.48zm2.76 6.47a7 7 0 0 1 3 1.54s-.18-2.08-3-1.54zm.9 4.16a7.08 7.08 0 0 1 3.35.19s-1.01-1.89-3.35-.19zm-2.84-2.59a7 7 0 0 1 2.91 1.67s-.07-2.11-2.91-1.67zM18 17.1a6.86 6.86 0 0 1 2.82-1.8S19 14.38 18 17.1zm-1.89-4.38a6.93 6.93 0 0 1 3.2 1s-.51-2.03-3.2-1zm-1.04-5.18a7 7 0 0 1 3 1.54s-.18-2.08-3-1.54zm1.35 3.71a6.93 6.93 0 0 1 3.35.19s-1.01-1.86-3.35-.19zM6.6 19.52a7.08 7.08 0 0 1 3.35.19s-1.01-1.86-3.35-.19zm6.98-10.86a6.89 6.89 0 0 1 2.91 1.67s-.06-2.12-2.91-1.67zm-5.78 3.7a7 7 0 0 1 3.36-.17s-1.16-1.74-3.36.17zM4.25 10.9a7 7 0 0 1 3 1.55s-.18-2.11-3-1.55zm1.35 3.71a7.08 7.08 0 0 1 3.4.19s-1.06-1.86-3.4-.19zm-.2-9.14a7 7 0 0 1 2.91 1.67S8.24 5 5.4 5.47zm6.6 7.18a7 7 0 0 1 2.83-1.81s-1.89-.92-2.83 1.81zm-3.8 5.54a7.06 7.06 0 0 1 2.8-1.8s-1.88-.92-2.8 1.8zm-4.09-.09a7 7 0 0 1 2.83-1.8S5 15.38 4.11 18.1zm6.09-8.93a7.08 7.08 0 0 1 3.2 1s-.51-2.03-3.2-1zm5.15 8.01a7 7 0 0 1 3 1.54s-.18-2.11-3-1.54zm-1.49 1.12a6.89 6.89 0 0 1 2.91 1.7s-.07-2.15-2.91-1.7zm-3.39.52a7 7 0 0 1 3.2 1s-.51-2.03-3.2-1zm3.81-5.17a6.94 6.94 0 0 1 2.31 2.42s.54-2.07-2.31-2.42zm-1.78.57a7 7 0 0 1 2.21 2.53s.63-2.02-2.21-2.53zm-3.36-.61a7.1 7.1 0 0 1 2.69 2s.17-2.1-2.69-2zm6.37-9.38A6.9 6.9 0 0 1 17.42 7s.85-1.95-1.91-2.77zM5.78 7.78a7 7 0 0 1 2.87 1.74S8.63 7.4 5.78 7.78zm7.71-3.62A7 7 0 0 1 15.28 7s.93-1.9-1.79-2.84zM9.15 7.77a7 7 0 0 1 3.34-.27s-1.25-1.71-3.34.27zm1.38-3.92a6.88 6.88 0 0 1 2.34 2.4s.52-2.05-2.34-2.4z"/></g></g></svg>