<svg xmlns="http://www.w3.org/2000/svg" viewBox="0 0 82.76 47.18"><defs><style>.cls-1{fill:#231f20}.cls-1,.cls-2,.cls-3{fill-rule:evenodd}.cls-2{fill:#fff}.cls-3{stroke:#231f20;stroke-width:1px;fill:url(#GradientFill_62)}</style><radialGradient id="GradientFill_62" cx="59.27" cy="12.19" r="27.85" gradientUnits="userSpaceOnUse"><stop offset="0" stop-color="#8ed8f8"/><stop offset="1" stop-color="#0095da"/></radialGradient></defs><title>Asset 41</title><g id="Layer_2" data-name="Layer 2"><g id="Layer_1-2" data-name="Layer 1"><path class="cls-1" d="M52.09 35.9l-6.18 2.27a8.62 8.62 0 0 0-2.91-6.1l-1.87.51s3.17 2.6 3.13 6.2l-9.18 3.37a8.51 8.51 0 0 0-2.93-6.35l-1.86.51s3.32 2.72 3.12 6.45L27 45.12 24.43 44s-1.59-.79-1.59 1.12L27 47.18l25.76-9.53c1.08-1.44-.67-1.75-.67-1.75zM8.14 40.75l4.13 2.07L38 33.28c1.11-1.43-.64-1.75-.64-1.75l-25.09 9.22-2.54-1.11s-1.59-.8-1.59 1.11z"/><path class="cls-2" d="M81.85.68l-5.34 1-6 12.44L48 19.2s-.64-7.78-5.25-7.78-19.11-.16-15.62 1.58l-.79 2.87s-12.4 1.9-8.9 3.81c0 0-18 11-7.63 16.85s30 .32 34.65-5.08c3.13-3.67 19.33-10.46 26-13.16l2.11 6.48 4.24.27-3.13-8.65z"/><path class="cls-3" d="M81.85.68l-5.34 1-6 12.44L48 19.2s-.64-7.78-5.25-7.78-19.11-.16-15.62 1.58l-.79 2.87s-12.4 1.9-8.9 3.81c0 0-18 11-7.63 16.85s30 .32 34.65-5.08c3.13-3.67 19.33-10.46 26-13.16l2.11 6.48 4.24.27-3.13-8.65z"/><path class="cls-1" d="M34.93 15.44a1.18 1.18 0 0 1-1.24 1.14l-3.49-.14a1.18 1.18 0 0 1-1.14-1.23 1.19 1.19 0 0 1 1.23-1.15l3.5.14a1.19 1.19 0 0 1 1.14 1.24zm1.58-4.94a1.29 1.29 0 0 1-1.35 1.22 1.3 1.3 0 0 1-1.35-1.22V4.76a1.29 1.29 0 0 1 1.35-1.22 1.28 1.28 0 0 1 1.35 1.22z"/><path class="cls-1" d="M37 3.12a1.91 1.91 0 0 1-3.82 0 1.91 1.91 0 0 1 3.82 0z"/><path class="cls-1" d="M.27 6.5C-5.32 4 76.55 3 72.76 4.87S5.86 9 .27 6.5zm11.85 23.75c2.73.89 4.61 2.63 4.2 3.9s-2.84 1.56-5.49.75c.2.08.41.16.63.23 2.59.84 5.05.4 5.5-1s-1.29-3.17-3.88-4a7.66 7.66 0 0 0-3.32-.37 10.27 10.27 0 0 1 2.36.49zm34.25-5.96l24.32-8.58-24.16 9.54v-.64l-.16-.32zM73.1 14.12c-3.86-2.52-7.18-4.26-7.42-3.89s2.13 2.82 5.58 5.2a1.19 1.19 0 0 0 1.19 1.19 1.14 1.14 0 0 0 .49-.11c3.48 2.13 6.5 3.18 6.72 2.84S77 16.64 73.1 14.12z"/><path class="cls-2" d="M17.21 20.4a31.21 31.21 0 0 0-7.19 6l1.21.55 4.93 1.41 5.79.95 4.85.07 4.3-1.33 3.76-2.12 1.72-4.31-6 .86-4.69-.08-4.62-.78-2.82-.79z"/><path class="cls-1" d="M9.15 26c6 2.55 14.69 3.57 17.81 2.93a15.29 15.29 0 0 0 7.62-3.46L36.09 22c-12.74 2.38-19.26-1.87-19.26-1.87S25 23.61 37 21.17l-1.91 5s-4 3.13-8 3.74c-1.67.22-11.32.03-17.94-3.91z"/></g></g></svg>