<svg xmlns="http://www.w3.org/2000/svg" viewBox="0 0 74.53 53.72"><defs><style>.cls-1{fill:#fff;fill-rule:evenodd}.cls-2,.cls-3{fill-rule:evenodd;stroke:#231f20;stroke-width:1px}.cls-2{fill:url(#GradientFill_51)}.cls-3{fill:url(#GradientFill_52)}</style><radialGradient id="GradientFill_51" cx="51.97" cy="16.85" r="36.83" gradientUnits="userSpaceOnUse"><stop offset="0" stop-color="#00a1e4"/><stop offset="1" stop-color="#0095da"/></radialGradient><radialGradient id="GradientFill_52" cx="50.04" cy="16.32" r="38.11" gradientUnits="userSpaceOnUse"><stop offset="0" stop-color="#8cd3d8"/><stop offset="1" stop-color="#56c5d0"/></radialGradient></defs><title>Asset 58</title><g id="Layer_2" data-name="Layer 2"><g id="Layer_1-2" data-name="Layer 1"><path class="cls-1" d="M7.76 25.45C4.92 24.5.5 17.89.5 9.67.5 6.82 8.07 1.46 26.38.51c0 0 11.68 15.15 24.93.32 0 0 19 2.11 21.46 7.57 2.84 6.32.63 17.68-4.1 19.57-3.16-.63-10.1-2.52-10.1-2.52l2.52 24.61s-22.4 7.89-47-1.26c0-7.89 3.16-25.25 3.16-25.25s-6.34-.95-9.49 1.9z"/><path class="cls-2" d="M7.76 25.45C4.92 24.5.5 17.89.5 9.67.5 6.82 8.07 1.46 26.38.51c0 0 11.68 15.15 24.93.32 0 0 19 2.11 21.46 7.57 2.84 6.32.63 17.68-4.1 19.57-3.16-.63-10.1-2.52-10.1-2.52l2.52 24.61s-22.4 7.89-47-1.26c0-7.89 3.16-25.25 3.16-25.25s-6.34-.95-9.49 1.9z"/><path class="cls-3" d="M60.15 43.75c-19.25 10.73-45.76-1-45.76-1 0 2-.08 4-.11 6 15.36 5.65 30.92 5.57 46.61 1.57l-.74-6.61zM64.57 27c7.57-10.08 3.59-21.9 3.59-21.9L63.3 3.38c3.42 9.22 2.7 16.38-1.3 22.7l2.6.94zM21.9.85c1.42-.14 2.91-.26 4.48-.34 0 0 11.68 15.15 24.93.32 0 0 1.11.12 2.82.38l-.29.25C39.32 24.5 22 1.14 22 1.14l-.1-.29zM15 23.24C8.39 15.66 9.34 3.67 9.34 3.67l-4 1.64C5.26 14.11 8.2 19.38 12 23.67z"/></g></g></svg>