<svg xmlns="http://www.w3.org/2000/svg" viewBox="0 0 57.3 33.74"><defs><style>.cls-1,.cls-5{fill:#fff}.cls-1,.cls-2,.cls-3,.cls-4,.cls-5,.cls-6,.cls-7,.cls-8{fill-rule:evenodd}.cls-2,.cls-3{fill:#abc13a}.cls-2,.cls-5,.cls-7,.cls-8{stroke:#231f20}.cls-2,.cls-7,.cls-8{stroke-linecap:round;stroke-linejoin:round}.cls-2,.cls-8{stroke-width:1px}.cls-4{fill:#231f20}.cls-5,.cls-7{stroke-width:.5px}.cls-6{fill:#2f6c3d}.cls-7,.cls-8{fill:none}</style></defs><title>Asset 97</title><g id="Layer_2" data-name="Layer 2"><g id="Layer_1-2" data-name="Layer 1"><path class="cls-1" d="M12.73 19.78c-1.19 1.33-5.54 3.31-5.54 3.31s1.73 1.81 1 2.91c0 0-.85-2.25-1.77-2.44a13.53 13.53 0 0 1-2 2.09c-1.75 1.4-2.07.49-2.07.49a5.52 5.52 0 0 0 1.72-1.42 7.87 7.87 0 0 1 1.28-1.52s-3.44-.16-4.44 1c0 0 .12-2.18 4-2a3.75 3.75 0 0 0-2.76-1.66S4 19.43 6 21.94a39.77 39.77 0 0 0 4.25-3.13z"/><path class="cls-2" d="M10.22 18.81l2.51 1c-1.19 1.33-5.54 3.31-5.54 3.31s1.73 1.81 1 2.91c0 0-.85-2.25-1.77-2.44a13.53 13.53 0 0 1-2 2.09c-1.75 1.4-2.07.49-2.07.49a5.52 5.52 0 0 0 1.72-1.42 7.87 7.87 0 0 1 1.28-1.55s-3.44-.16-4.44 1c0 0 .12-2.18 4-2a3.75 3.75 0 0 0-2.76-1.66S4 19.43 6 21.94a39.77 39.77 0 0 0 4.22-3.13z"/><path class="cls-1" d="M55.4 9.78C53 4.18 42.56 2.51 34.75 5.47 30 7.28 24.09 7.94 21.7 7.39c.61-.49 1.05-1 .73-1.23-.73-.59-4.55.88-4.55.88S21.11 4.25 19.93 4s-4.26 1.77-4.26 1.77 2.21-3.38 1.47-3.82-4 3.08-4 3.08.59-5.29-.59-3.67a10 10 0 0 0-1.31 3.37C10.81 3.16 9.78 0 9.44.57a32.09 32.09 0 0 0-.71 4.36S6.68 0 6.14 1.22a9.71 9.71 0 0 0 .45 3.5 2.69 2.69 0 0 0-.4 0c-2 0-3.55 2-3.6 4.58a3.5 3.5 0 0 0-2.06 1.3c-.52 1 5.75 10.2 7.9 9a5.83 5.83 0 0 0 2.24 2.4c1.58.9 3.16-.43 4.29-2 .68.46 11.52 5.19 17.18-5.13a11.24 11.24 0 0 0 1.41-3.73A14.42 14.42 0 0 1 45.72 7.8C56.1 9.32 55.52 18 51.2 21.69c-4.55 3.94-13.3 5.71-18.08 8.63a5.8 5.8 0 0 0-2.57 2.92c7.82-7.12 32.33-6.36 24.85-23.46z"/><path class="cls-2" d="M55.4 9.78C53 4.18 42.56 2.51 34.75 5.47 30 7.28 24.09 7.94 21.7 7.39c.61-.49 1.05-1 .73-1.23-.73-.59-4.55.88-4.55.88S21.11 4.25 19.93 4s-4.26 1.77-4.26 1.77 2.21-3.38 1.47-3.82-4 3.08-4 3.08.59-5.29-.59-3.67a10 10 0 0 0-1.31 3.37C10.81 3.16 9.78 0 9.44.57a32.09 32.09 0 0 0-.71 4.36S6.68 0 6.14 1.22a9.71 9.71 0 0 0 .45 3.5 2.69 2.69 0 0 0-.4 0c-2 0-3.55 2-3.6 4.58a3.5 3.5 0 0 0-2.06 1.3c-.52 1 5.75 10.2 7.9 9a5.83 5.83 0 0 0 2.24 2.4c1.58.9 3.16-.43 4.29-2 .68.46 11.52 5.19 17.18-5.13a11.24 11.24 0 0 0 1.41-3.73A14.42 14.42 0 0 1 45.72 7.8C56.1 9.32 55.52 18 51.2 21.69c-4.55 3.94-13.3 5.71-18.08 8.63a5.8 5.8 0 0 0-2.57 2.92c7.82-7.12 32.33-6.36 24.85-23.46z"/><path class="cls-3" d="M32.19 10.6s3.92.49 5.29 2.35c0 0 1.47.69 1.38 1.87-.09 1 2.84 2.34 1.66 4.21a3.62 3.62 0 0 1-2.25 2.15 2.49 2.49 0 0 0-1.76 2.26s-1.57-2 .68-2.94c0 0-2.74.88-2.94 2.05s-2-2 1.67-2.84c0 0-1.67-1.17-2.45-.29s.49-2.74 3.43-.29c0 0-1.86-2.75-.69-4.81a7 7 0 0 1-4.34.12zM18.3 14.68s2.45 1.29 1.28 3.16c0 0 8.29 3.15 7.59 4.78s-4.2 4.9-4.2 4.9 2.21 1.17 1.86 2.45c0 0-1.51-1.87-2.45-1.75a3.55 3.55 0 0 0-1.51 2.22A1.83 1.83 0 0 1 19.35 32a2.87 2.87 0 0 0 .82-1.75c0-.93 1.51-2.33 1.51-2.33s-3.68 1.23-4.31 2.63c0 0-.59-2.1 3.15-3.15a3.81 3.81 0 0 0-3.15-.7s1.4-1.63 4.08.12a40 40 0 0 0 3-4.32s-6.88-1.16-9.33-4.43z"/><path class="cls-4" d="M30.89 11.09a2.53 2.53 0 0 0 0 2.85 1.89 1.89 0 0 1 0-2.85zm-13.35 3.34s-2.28-.89-3 .67c.01 0 .36-2 3-.67zm3.75-6.6a10.85 10.85 0 0 1-3.89 1.56s3 1.56 3.13 2.5-4.78-.31-4.78-.31 4.39 1.63 5.05.45c.44-.81-2.95-2.55-2.95-2.55a8.2 8.2 0 0 0 3.44-1.65zM8.21 6a4.62 4.62 0 0 0-1.88 3.17A3.34 3.34 0 0 1 8.21 6zM.8 10.86s.61-.27 2.46 1c2.81 1.92 9.46 6 10.39 2.14 0 0 0 2.92-3.65 1.69C4.28 13.77 4.06 12 .8 10.86zm2.1 1.97s4.1 6.43 7.1 5c0 0-2.64 2.32-7.1-5zm8.3 4.73a2.8 2.8 0 0 1-2.41 1.56 2 2 0 0 0 2.41-1.56z"/><path class="cls-5" d="M11.66 9.77A1.34 1.34 0 0 1 10 9.05c-.13-.54.38-1.08 1.14-1.22a1.36 1.36 0 0 1 1.62.73c.17.53-.34 1.08-1.1 1.21z"/><path class="cls-4" d="M10.37 9.09a.35.35 0 0 0 0 .14 1.08 1.08 0 0 0 1.33.53c.59-.14.95-.6.81-1a1.11 1.11 0 0 0-1.34-.54 1.18 1.18 0 0 0-.71.47z"/><path class="cls-6" d="M23 8s-.92.84.62 1.76c.87.53 4.17 2.33 3.52 6 0 0 2.7-3.9-2.15-6C25 9.79 23.2 9.12 23 8zm3.66.08s-.27.27.12.65 2.8 1.93 2.69 3.39c0 0 1.31-1.89-1.46-3.08a2.82 2.82 0 0 1-1.35-.96z"/><path class="cls-7" d="M40 27.27a.56.56 0 0 1 .47.42.93.93 0 0 1-.28.76"/><path class="cls-4" d="M11.91 6.46a2.07 2.07 0 0 1 2.18 2.18s.65-2.76-2.18-2.18z"/><path class="cls-8" d="M18.3 14.68s2.45 1.29 1.28 3.16c0 0 8.29 3.15 7.59 4.78s-4.2 4.9-4.2 4.9 2.21 1.17 1.86 2.45c0 0-1.51-1.87-2.45-1.75a3.55 3.55 0 0 0-1.51 2.22A1.83 1.83 0 0 1 19.35 32a2.87 2.87 0 0 0 .82-1.75c0-.93 1.51-2.33 1.51-2.33s-3.68 1.23-4.31 2.63c0 0-.59-2.1 3.15-3.15a3.81 3.81 0 0 0-3.15-.7s1.4-1.63 4.08.12a40 40 0 0 0 3-4.32s-6.88-1.16-9.33-4.43m17.07-7.47s3.92.49 5.29 2.35c0 0 1.47.69 1.38 1.87-.09 1 2.84 2.34 1.66 4.21a3.62 3.62 0 0 1-2.25 2.15 2.49 2.49 0 0 0-1.76 2.26s-1.57-2 .68-2.94c0 0-2.74.88-2.94 2.05s-2-2 1.67-2.84c0 0-1.67-1.17-2.45-.29s.49-2.74 3.43-.29c0 0-1.86-2.75-.69-4.81a7 7 0 0 1-4.34.12"/><path class="cls-6" d="M19.16 9l1.27-.57a.8.8 0 0 0 .39.77c.46.3 4.65 3.5 1.88 7.65A7.23 7.23 0 0 0 19.16 9zm19.95-4.18l-.73.11c-2 .35-4 1.32-6.12 1.85a1.4 1.4 0 0 0 1.17.35c.87 0 2.17.09 1.9 2.09a17.3 17.3 0 0 1 6.23-2c.4-.62-.82-2.75-2-2.42z"/><path class="cls-7" d="M39.33 4.27a3 3 0 0 0 .76.23c.38 0 2.28 1.38 1.61 3.09m-9.54-.94a3.7 3.7 0 0 0 1.09.51c1.11-.12 2.66.48 2 2.19"/><path class="cls-4" d="M28.15 8.36a33.62 33.62 0 0 0 5.69-1.91C40.23 3.6 44 4.27 44 4.27s-4-.43-9.9 2.28c-4.32 1.97-5.96 1.81-5.95 1.81z"/><path class="cls-6" d="M53.55 8a11.62 11.62 0 0 0-5.78-3 1.89 1.89 0 0 0-.48 2.62 11.23 11.23 0 0 1 4.9 2.38 2.57 2.57 0 0 1 1.36-2z"/><path class="cls-7" d="M48.34 4.69c-1.14-.42-2.27 2.52-.57 3.51m6.74.14s-.9-.8-1.71.53a2.83 2.83 0 0 0-.33 2"/><path class="cls-6" d="M54.4 17c-.51 2.7-3.55 5.82-6 7.17l.34.62c3.69-1.73 6.52-3.87 7.44-7.23-.3-.75-.88-1.34-1.79-.81z"/><path class="cls-7" d="M56.31 18.59a2.49 2.49 0 0 0-.62-2c-.8-.66-1.66.47-1.85.9M47.77 24s.67 0 .81.28.28.76 0 1.05"/></g></g></svg>