<svg xmlns="http://www.w3.org/2000/svg" viewBox="0 0 70.36 42.23"><defs><style>.cls-1{fill:#496e6e}.cls-1,.cls-10,.cls-2,.cls-3,.cls-4,.cls-5,.cls-6,.cls-7,.cls-8,.cls-9{stroke:#231f20}.cls-1,.cls-5,.cls-6,.cls-9{stroke-miterlimit:2.61;stroke-width:.5px}.cls-1,.cls-2,.cls-3,.cls-4,.cls-5,.cls-6,.cls-7,.cls-9{fill-rule:evenodd}.cls-10,.cls-2{fill:none}.cls-10,.cls-2,.cls-3,.cls-4,.cls-7,.cls-8{stroke-width:1px}.cls-3{fill:#6d6e71}.cls-4,.cls-6,.cls-8{fill:#fff}.cls-5{fill:#000101}.cls-7{fill:url(#GradientFill_78)}.cls-9{fill:#231f20}</style><radialGradient id="GradientFill_78" cx="48.01" cy="16.85" r="15.97" gradientUnits="userSpaceOnUse"><stop offset="0" stop-color="#c0d4c4"/><stop offset="1" stop-color="#a9c0b1"/></radialGradient></defs><title>Asset 44</title><g id="Layer_2" data-name="Layer 2"><g id="Layer_1-2" data-name="Layer 1"><path class="cls-1" d="M22.89 15.28c7.56 0 19-6.61 22.68 0 3.42 6.2 7.23 8 11.88 0 1.37-2.34 5.42 0 8.13 0V28.2H22.89z"/><path class="cls-2" d="M64.49 13.48l-7-.38c.85 6-10.76 12.49-12-.65l-23.84-1.28 3-10L47 .5s14.2.74 16.15 1.57c1.03.47 1.34 11.41 1.34 11.41z"/><path class="cls-3" d="M13.24 24.75h-5c-2 0-3.62 3.8-3.62 8.49s1.62 8.49 3.62 8.49h5c2 0 3.62-3.8 3.62-8.49s-1.62-8.49-3.62-8.49z"/><path class="cls-4" d="M14.64 33.12c0 2.93-.8 5.3-1.8 5.3S11 36.05 11 33.12s.81-5.3 1.81-5.3 1.83 2.37 1.83 5.3z"/><path class="cls-5" d="M36.9 33.12h-8.13a2.3 2.3 0 0 0-2.15-1.46h-4a2.3 2.3 0 0 0-2.15 1.46h-7.63v1.52h7.58a2.32 2.32 0 0 0 2.22 1.66h4a2.3 2.3 0 0 0 2.21-1.66h8.05z"/><path class="cls-5" d="M57.14 33.12H49a2.3 2.3 0 0 0-2.15-1.46h-4a2.33 2.33 0 0 0-2.16 1.46h-7.62v1.52h7.59a2.32 2.32 0 0 0 2.22 1.66h4a2.3 2.3 0 0 0 2.21-1.66h8.07z"/><path class="cls-3" d="M42.07 24.75h-5c-2 0-3.62 3.8-3.62 8.49s1.62 8.49 3.62 8.49h5c2 0 3.62-3.8 3.62-8.49s-1.62-8.49-3.62-8.49z"/><path class="cls-6" d="M43.47 33.12c0 2.93-.81 5.3-1.81 5.3s-1.81-2.37-1.81-5.3.81-5.3 1.81-5.3 1.81 2.37 1.81 5.3z"/><path class="cls-2" d="M43.47 33.12c0 2.93-.81 5.3-1.81 5.3s-1.81-2.37-1.81-5.3.81-5.3 1.81-5.3 1.81 2.37 1.81 5.3z"/><path class="cls-4" d="M69.86 25.85c0 1.16-.13 2.09-.29 2.09h-4.63c-.16 0-.3-.93-.3-2.09 0-1.15.14-2.08.3-2.08h4.63c.16 0 .29.93.29 2.08z"/><path class="cls-3" d="M60 24.75h-5c-2 0-3.61 3.8-3.61 8.49S53 41.73 55 41.73h5c2 0 3.61-3.8 3.61-8.49S62 24.75 60 24.75z"/><path class="cls-4" d="M61.39 33.12c0 2.93-.81 5.3-1.81 5.3s-1.81-2.37-1.81-5.3.81-5.3 1.81-5.3 1.81 2.37 1.81 5.3z"/><path class="cls-7" d="M57.21 12.83c-.4 4.09-3 7.24-6.07 7.24s-5.93-3.49-6.1-7.89L41.68 12S8 10.89 5.51 13.39s0 14.75 0 14.75h31.17V25.5a4.73 4.73 0 1 1 9.46 0v2.64h8.34V25.5a4.73 4.73 0 1 1 9.46 0v2.64h2.44s1.53-14-2.12-14.69a28.09 28.09 0 0 0-7.05-.62z"/><path class="cls-8" d="M13.86 17.29h13.36v6.28H13.86z"/><path class="cls-9" d="M11.35 19.1A2.37 2.37 0 1 1 9 16.73a2.37 2.37 0 0 1 2.35 2.37zm23.52 0a2.37 2.37 0 1 1-2.37-2.37 2.37 2.37 0 0 1 2.37 2.37z"/><path class="cls-4" d="M37.23 28.56a2.08 2.08 0 0 1-2.09 2.09H2.59A2.08 2.08 0 0 1 .5 28.56a2.09 2.09 0 0 1 2.09-2.09h32.55a2.09 2.09 0 0 1 2.09 2.09z"/><path class="cls-10" d="M45.04 12.18L46.95.5m11.33 11.73l.28-10.58m-25.3 9.77L35.91.8"/></g></g></svg>