<svg xmlns="http://www.w3.org/2000/svg" xmlns:xlink="http://www.w3.org/1999/xlink" viewBox="0 0 93.55 34.82"><defs><style>.cls-1,.cls-5{fill:#fff}.cls-1,.cls-10,.cls-11,.cls-2,.cls-3,.cls-4,.cls-5,.cls-6,.cls-7,.cls-8,.cls-9{fill-rule:evenodd}.cls-11,.cls-2,.cls-5,.cls-6,.cls-7,.cls-8,.cls-9{stroke:#231f20}.cls-11,.cls-2,.cls-6,.cls-8,.cls-9{stroke-width:1px}.cls-2{fill:url(#GradientFill_61)}.cls-3{fill:#231f20}.cls-4{fill:#ffcb05}.cls-5,.cls-7{stroke-linecap:round;stroke-linejoin:round;stroke-width:1.27px}.cls-6{fill:url(#GradientFill_61-2)}.cls-7{fill:#e6e7e8}.cls-8{fill:url(#GradientFill_61-3)}.cls-9{fill:url(#GradientFill_61-4)}.cls-10,.cls-11{fill:#fffcd5}</style><radialGradient id="GradientFill_61" cx="64.97" cy="4.4" r="26.42" gradientUnits="userSpaceOnUse"><stop offset="0" stop-color="#fd0"/><stop offset="1" stop-color="#ffcb05"/></radialGradient><radialGradient id="GradientFill_61-2" cx="41.42" cy="26.34" r="7.04" xlink:href="#GradientFill_61"/><radialGradient id="GradientFill_61-3" cx="46.93" cy="27.56" r="7.04" xlink:href="#GradientFill_61"/><radialGradient id="GradientFill_61-4" cx="61.47" cy="21.99" r="10.97" xlink:href="#GradientFill_61"/></defs><title>Asset 46</title><g id="Layer_2" data-name="Layer 2"><g id="Layer_1-2" data-name="Layer 1"><path class="cls-1" d="M92.6.92l-10-.41-15.13 12.37C57.92 12 45.2 11.12 35.24 8c-23.44-6.7-23.66 2.47-23.66 2.47S.5 14.59.5 17.25c0 5.09 15.56 9.21 34.74 9.21s46.05-4.54 46.05-9.63c0-.43 11.3-15.9 11.31-15.91z"/><path class="cls-2" d="M92.6.92l-10-.41-15.13 12.37C57.92 12 45.2 11.12 35.24 8c-23.44-6.7-23.66 2.47-23.66 2.47S.5 14.59.5 17.25c0 5.09 15.56 9.21 34.74 9.21s46.05-4.54 46.05-9.63C81.29 16.4 92.6.92 92.6.92z"/><path class="cls-3" d="M86.51 14.74c0 .81-3.84 1.47-8.58 1.47s-8.58-.66-8.58-1.47 3.84-1.47 8.58-1.47 8.58.66 8.58 1.47z"/><path class="cls-4" d="M84.9 14.74c0 .32-3.12.58-7 .58s-7-.26-7-.58 3.12-.58 7-.58 7 .26 7 .58z"/><path class="cls-5" d="M46.65 27.47h-5.24a1.66 1.66 0 1 0 0 3.3h5.24a1.66 1.66 0 1 0 0-3.3z"/><path class="cls-6" d="M42.23 25.14H37c-1 0-1.88 1.78-1.88 4s.84 4 1.88 4h5.23c1 0 1.89-1.78 1.89-4s-.85-4-1.89-4z"/><path class="cls-3" d="M37.73 29c0 1.19-.24 2.15-.55 2.15s-.55-1-.55-2.15.25-2.14.55-2.14.55.97.55 2.14z"/><path class="cls-7" d="M52.16 28.7h-5.23a1.66 1.66 0 1 0 0 3.29h5.23a1.66 1.66 0 1 0 0-3.29z"/><path class="cls-8" d="M47.75 26.37h-5.23c-1 0-1.89 1.78-1.89 4s.85 4 1.89 4h5.23c1 0 1.88-1.78 1.88-4s-.84-4-1.88-4z"/><path class="cls-3" d="M43.25 30.24c0 1.18-.25 2.14-.55 2.14s-.55-1-.55-2.14.24-2.15.55-2.15.55.96.55 2.15z"/><path class="cls-9" d="M28.13 23.53s-4.19-4.19 24.28-1.67L75.85 26 57 27.3S36.08 26 28.13 23.53z"/><path class="cls-3" d="M12.77 9s7.76-1.22 8.3 1-5.9.37-9.83 1.6z"/><path class="cls-10" d="M76.84 20c2.07-.93 3.76-1.86 4-2.94-12.92-.22-24.86-2-37.8-3.29-12.66-1.23-24.79-1.29-37.11 1.5v2.5a310.19 310.19 0 0 1 37 0c11.51.56 22.39 1.77 33.91 2.23z"/><path class="cls-3" d="M29.19 15a2.15 2.15 0 1 1-2.1-2.2 2.15 2.15 0 0 1 2.1 2.2zm7.03.24a2.15 2.15 0 1 1-2.1-2.19 2.14 2.14 0 0 1 2.1 2.19zm6.99.16a2.15 2.15 0 1 1-2.1-2.2 2.16 2.16 0 0 1 2.1 2.2z"/><path class="cls-11" d="M4.27 21c-4.06-2-4.44-4.8-.11-6.74 0-.04 5.38 3.14.11 6.74z"/></g></g></svg>