<svg xmlns="http://www.w3.org/2000/svg" viewBox="0 0 49.5 49.94"><defs><style>.cls-1{fill:#e6e7e8}.cls-1,.cls-3,.cls-4,.cls-6{stroke:#231f20;stroke-width:1px}.cls-1,.cls-2,.cls-3,.cls-4,.cls-5,.cls-6{fill-rule:evenodd}.cls-2{fill:#fff}.cls-3{fill:#4fa392}.cls-4{fill:url(#GradientFill_55)}.cls-5{fill:#231f20}.cls-6{fill:#939598}</style><radialGradient id="GradientFill_55" cx="31.09" cy="8.71" r="9.68" gradientUnits="userSpaceOnUse"><stop offset="0" stop-color="#bbddc5"/><stop offset="1" stop-color="#9bd3ae"/></radialGradient></defs><title>Asset 30</title><g id="Layer_2" data-name="Layer 2"><g id="Layer_1-2" data-name="Layer 1"><path class="cls-1" d="M45.31 44.49c-.19-.76.38-1.56 1.32-2L46.26 41a1.92 1.92 0 0 1-2.09-1.17c-.19-.76.38-1.56 1.32-2l-.35-1.42a1.9 1.9 0 0 1-2.08-1.16c-.19-.76.38-1.56 1.32-2L44 31.64a1.92 1.92 0 0 1-2.09-1.17 1.91 1.91 0 0 1 1.33-2l-.95-3.91A3 3 0 1 0 36.52 26l5.15 21.21a3 3 0 0 0 5.76-1.4v-.13a1.9 1.9 0 0 1-2.12-1.19z"/><path class="cls-2" d="M29.6 21.64s-1.83-.57-4.31 1.27-3.15-2.73-3.15-2.73L28 15l4.78 4.82z"/><path class="cls-3" d="M32.78 19.85l-3.18 1.79s-1.83-.57-4.31 1.27-3.15-2.73-3.15-2.73L28 15z"/><path class="cls-4" d="M42 12.65c2.28 9.4 3.79 13.3-.55 14.47-1.89.57-9.15 2.67-11.22-4.39-2-6.74-7.38-2.95-7.38-2.95S3.55 28.64.8 18.25 14.86 3.67 28.88 2.41C34-2.56 39.55 2.64 42 12.65z"/><path class="cls-5" d="M5.18 11.21a9.62 9.62 0 0 0 2.46 9.22s-5.56-2.94-2.46-9.22zm35.76 13.88s1.56-.15-3.77-18c0-.04 6.29 14.91 3.77 18z"/><path class="cls-6" d="M48 30.41l-12 2.93-2.21-9.09a.75.75 0 0 0-.92-.57.78.78 0 0 0-.57.93l2.21 9.09L29 35a.91.91 0 0 0-.51 1.16c.13.54.57.9 1 .8l19-4.61a.92.92 0 0 0 .51-1.14c-.17-.54-.61-.9-1-.8z"/></g></g></svg>