<svg xmlns="http://www.w3.org/2000/svg" viewBox="0 0 57.42 26.76"><defs><style>.cls-1{fill:#fff}.cls-1,.cls-2,.cls-3{fill-rule:evenodd}.cls-2{stroke:#231f20;stroke-linecap:round;stroke-width:1px;fill:url(#GradientFill_57)}.cls-3{fill:#231f20}</style><radialGradient id="GradientFill_57" cx="40" cy="8.23" r="19.22" gradientUnits="userSpaceOnUse"><stop offset="0" stop-color="#fff200"/><stop offset="1" stop-color="#ffcb05"/></radialGradient></defs><title>Asset 114</title><g id="Layer_2" data-name="Layer 2"><g id="Layer_1-2" data-name="Layer 1"><path class="cls-1" d="M54 8.91s-.87-1.52-4.35-1.74a4.18 4.18 0 0 0-4.13-1.53 5 5 0 0 0-5-2.39S38.34.86 36 2c0 0-2-1.74-5.22-.44 0 0-1.95-1.95-3.91-.43a4.29 4.29 0 0 0-4.62 1.47S19.43 3 19 5.21c0 0-2.17.43-2 2.18A2.6 2.6 0 0 0 14.64 10s-2.46 2.3-3 4.66C8.5 14.92.16 15.76.51 17.17s7.83-.12 11.56-.69a11.19 11.19 0 0 0 4 3.67 2.61 2.61 0 0 0 3 1.91c.24 1.73 2.45 1.6 2.45 1.6 1 2 3.82 1.68 3.82 1.68a4.26 4.26 0 0 0 4.8.3c2.29 1 3.68-1.42 3.68-1.42a5.07 5.07 0 0 0 4.93-1.75c2.59.43 4.08-2.43 4.08-2.43a5 5 0 0 0 4.17-3.6 4.18 4.18 0 0 0 3.6-2.53c3.31-1.1 3.76-2.79 3.76-2.79s2.73-.6 2.51-1.57S54 8.91 54 8.91z"/><path class="cls-2" d="M54 8.91s-.87-1.52-4.35-1.74a4.18 4.18 0 0 0-4.13-1.53 5 5 0 0 0-5-2.39S38.34.86 36 2c0 0-2-1.74-5.22-.44 0 0-1.95-1.95-3.91-.43a4.29 4.29 0 0 0-4.62 1.47S19.43 3 19 5.21c0 0-2.17.43-2 2.18A2.6 2.6 0 0 0 14.64 10s-2.46 2.3-3 4.66C8.5 14.92.16 15.76.51 17.17s7.83-.12 11.56-.69a11.19 11.19 0 0 0 4 3.67 2.61 2.61 0 0 0 3 1.91c.24 1.73 2.45 1.6 2.45 1.6 1 2 3.82 1.68 3.82 1.68a4.26 4.26 0 0 0 4.8.3c2.29 1 3.68-1.42 3.68-1.42a5.07 5.07 0 0 0 4.93-1.75c2.59.43 4.08-2.43 4.08-2.43a5 5 0 0 0 4.17-3.6 4.18 4.18 0 0 0 3.6-2.53c3.31-1.1 3.76-2.79 3.76-2.79s2.73-.6 2.51-1.57S54 8.91 54 8.91z"/><path class="cls-3" d="M18.42 14.71a134.79 134.79 0 0 0 29-3.11"/></g></g></svg>