<svg xmlns="http://www.w3.org/2000/svg" viewBox="0 0 33.24 40.22"><defs><style>.cls-1{fill:#fff}.cls-1,.cls-2,.cls-3,.cls-4{fill-rule:evenodd}.cls-2{fill:#00a651;stroke-linejoin:round}.cls-2,.cls-4{stroke:#231f20;stroke-width:1px}.cls-3{fill:#231f20}.cls-4{fill:url(#GradientFill_31)}</style><radialGradient id="GradientFill_31" cx="23.07" cy="18.78" r="22.25" gradientUnits="userSpaceOnUse"><stop offset="0" stop-color="#fff9ae"/><stop offset="1" stop-color="#ffcb05"/></radialGradient></defs><title>Asset 4</title><g id="Layer_2" data-name="Layer 2"><g id="Layer_1-2" data-name="Layer 1"><path class="cls-1" d="M29.52 11.68s-5.61-2.49-2.26-7.5c.88-1.31-.17-3.68-.17-3.68s5.97 3.09 2.43 11.18z"/><path class="cls-2" d="M29.52 11.68s-5.61-2.49-2.26-7.5c.88-1.31-.17-3.68-.17-3.68s5.97 3.09 2.43 11.18z"/><path class="cls-3" d="M28.39 3.55a17.45 17.45 0 0 1 .84 6.23 8.09 8.09 0 0 0-.84-6.23z"/><path class="cls-4" d="M29.35 11.73h-.06C24.51 8.2 15.88 9.55 8.87 15.3s-10.06 14-7.43 19.4l-.09.07a2 2 0 0 0-.25 2.77 2 2 0 0 0 2.76.31l.14-.09c4.79 3.56 13.4 2.21 20.41-3.53S34.36 20.42 31.9 15h.1a2.08 2.08 0 0 0-2.64-3.22z"/><path class="cls-3" d="M30.33 14.72s-1.58 7.78-12.85 15.36c0 0 11.07-5.83 12.85-15.36z"/></g></g></svg>