<svg xmlns="http://www.w3.org/2000/svg" viewBox="0 0 44.4 54.74"><defs><style>.cls-1{fill:#a78b6b}.cls-1,.cls-2,.cls-4,.cls-5,.cls-7,.cls-8{stroke:#231f20;stroke-width:1px}.cls-1,.cls-2,.cls-3,.cls-4,.cls-5,.cls-6,.cls-8{fill-rule:evenodd}.cls-2{fill:#a9a791}.cls-3{fill:#fff}.cls-4{fill:#a5c3d2}.cls-5{fill:url(#GradientFill_29)}.cls-6{fill:#231f20}.cls-7,.cls-8{fill:#808285;stroke-linejoin:round}.cls-8{fill:#647883}</style><radialGradient id="GradientFill_29" cx="30.46" cy="25.83" r="24.31" gradientUnits="userSpaceOnUse"><stop offset="0" stop-color="#a5c3d2"/><stop offset="1" stop-color="#849daa"/></radialGradient></defs><title>Asset 24</title><g id="Layer_2" data-name="Layer 2"><g id="Layer_1-2" data-name="Layer 1"><path class="cls-1" d="M43.67 13l-1.94.24-.31-8.45c0-1.42-2.74-2.58-6.11-2.58H8.79c-3.38 0-6.12 1.16-6.12 2.58v8.45L.73 13a51.3 51.3 0 0 0-.18 6.4l9.73.36v-7.44h23.84v7.44l7.61-.26c1.24 0 2.12-.1 2.12-.1a51.3 51.3 0 0 0-.18-6.4z"/><path class="cls-2" d="M20.56 12.82a1 1 0 0 1-.42 1.31 1 1 0 0 1-1.31-.42L12.74 1.92a1 1 0 0 1 .42-1.31 1 1 0 0 1 1.31.39zm3.86 0a1 1 0 0 0 .42 1.31 1 1 0 0 0 1.31-.42l6.09-11.79a1 1 0 0 0-.42-1.31 1 1 0 0 0-1.31.39z"/><path class="cls-3" d="M27.62 12.68a1.24 1.24 0 0 0-1.24-1.24H19a1.25 1.25 0 0 0-1.24 1.24 1.22 1.22 0 0 0 .07.38 1.41 1.41 0 0 0-.07.41v3.72a1.51 1.51 0 1 0 3 0v-3.27h3.81v3.27a1.5 1.5 0 1 0 3 0v-3.72a2.45 2.45 0 0 0 0-.27 1.31 1.31 0 0 0 .05-.52z"/><path class="cls-4" d="M27.62 12.68a1.24 1.24 0 0 0-1.24-1.24H19a1.25 1.25 0 0 0-1.24 1.24 1.22 1.22 0 0 0 .07.38 1.41 1.41 0 0 0-.07.41v3.72a1.51 1.51 0 1 0 3 0v-3.27h3.81v3.27a1.5 1.5 0 1 0 3 0V13.2a1.31 1.31 0 0 0 .05-.52z"/><path class="cls-3" d="M39.58 40.39c-5.43-4.83-5.42-19.28-5.42-19.65 0-2.79-5.42-5-12.11-5S9.94 18 9.94 20.74c0 .11.91 15.4-6 21.2S.36 49.09 23 49.48s23.09-3.29 16.58-9.09z"/><path class="cls-5" d="M39.58 40.39c-5.43-4.83-5.42-19.28-5.42-19.65 0-2.79-5.42-5-12.11-5S9.94 18 9.94 20.74c0 .11.91 15.4-6 21.2S.36 49.09 23 49.48s23.09-3.29 16.58-9.09z"/><path class="cls-6" d="M19.31 44.13s.41-2.45-.54-3a1 1 0 0 1-.54-1.29 3 3 0 0 1-.8-2.32c.13-1.41-1.22-2.31-.68-3.47a13 13 0 0 0 0-6.44c-.54-1.42 1.62.77.81 6.82 0 0 1.22 2.84.81 3.48s.68 1.93 1.08 2.57a14.58 14.58 0 0 1 .55 3.65z"/><path class="cls-7" d="M7.1 1.35h3.54v7.79H7.1zm26.54 0h3.54v7.79h-3.54z"/><path class="cls-3" d="M21.85 43.62a9.85 9.85 0 0 1-.19 3.38 2.51 2.51 0 0 0 .23 4.84v2.45h2v-2.5a2.51 2.51 0 0 0-.08-4.83 5 5 0 0 1-.31-3.19z"/><path class="cls-8" d="M23.48 43.72l-1.63-.1a9.85 9.85 0 0 1-.19 3.38 2.51 2.51 0 0 0 .23 4.84v2.45h2v-2.5a2.51 2.51 0 0 0-.08-4.83 5 5 0 0 1-.33-3.24z"/><path class="cls-6" d="M22 44.37c7.41 0 14 .91 18.08 2.31-2.17-2-9.44-3.51-18.08-3.51h-2.67c-7.44.27-13.47 1.65-15.42 3.46C8 45.28 14.57 44.37 22 44.37z"/><path class="cls-3" d="M18.05 17.65a28.09 28.09 0 0 1 9.63.66c3.92 1.05 3.46 1.46 3.77 5.22.2 2.39.47 4.65.75 6.88.09 3.05 1.94 5.51 3.66 8-5.73-5.37-5-13.73-7-17.19-1.59-2.85-5.75-2.97-10.81-3.57z"/></g></g></svg>