<svg xmlns="http://www.w3.org/2000/svg" viewBox="0 0 89.1 44.3"><defs><style>.cls-1{fill:#231f20}.cls-1,.cls-2,.cls-3,.cls-4,.cls-5,.cls-6,.cls-7,.cls-8{fill-rule:evenodd}.cls-2{fill:#fff}.cls-3{fill:#ffcb05}.cls-3,.cls-5,.cls-6,.cls-7,.cls-8{stroke:#231f20}.cls-3,.cls-5,.cls-6,.cls-7{stroke-width:1px}.cls-4{fill:#eee6b1}.cls-5,.cls-8{fill:none}.cls-6{fill:#e5dca0}.cls-7{fill:url(#GradientFill_102)}.cls-8{stroke-width:.5px}</style><radialGradient id="GradientFill_102" cx="47.83" cy="23.53" r="21.7" gradientUnits="userSpaceOnUse"><stop offset="0" stop-color="#f1ebce"/><stop offset="1" stop-color="#eee6b1"/></radialGradient></defs><title>Asset 111</title><g id="Layer_2" data-name="Layer 2"><g id="Layer_1-2" data-name="Layer 1"><path class="cls-1" d="M6.42 38.37A2.3 2.3 0 0 0 5.6 41s-1.73-1.76.82-2.63zm-2.68-.24s-1.64 1.12-.91 2.69c0 0-1.98-1.82.91-2.69z"/><path class="cls-2" d="M86.6 24.25a2.45 2.45 0 0 0-.51-2.2c-1.22-1.32-3.81-3.74-4.28-6.85a7.36 7.36 0 0 0-.81 4.32c-1.6-1.35-1.81-.59-1 1.24a7 7 0 0 0 4.94 4.34 1 1 0 0 0 .19.34 9.2 9.2 0 0 1 1.57 5.73 4.78 4.78 0 0 1-1.23 3.06 5.44 5.44 0 0 1-3.94 1.38h-.8c-3.27-.25-4.8-2.34-6.5-5.49s-3.25-7-6.66-10A15.84 15.84 0 0 0 58.33 16a11.71 11.71 0 0 0-5.62.9 1 1 0 0 0 .87 1.73h.06a9.76 9.76 0 0 1 4.55-.67 13.83 13.83 0 0 1 8.07 3.62c3 2.55 4.49 6.19 6.21 9.44s3.81 6.2 8 6.52h1a7.31 7.31 0 0 0 5.29-2 6.66 6.66 0 0 0 1.78-4.27 10.94 10.94 0 0 0-1.94-7.02z"/><path class="cls-3" d="M86.6 24.25a2.45 2.45 0 0 0-.51-2.2c-1.22-1.32-3.81-3.74-4.28-6.85a7.36 7.36 0 0 0-.81 4.32c-1.6-1.35-1.81-.59-1 1.24a7 7 0 0 0 4.94 4.34 1 1 0 0 0 .19.34 9.2 9.2 0 0 1 1.57 5.73 4.78 4.78 0 0 1-1.23 3.06 5.44 5.44 0 0 1-3.94 1.38h-.8c-3.27-.25-4.8-2.34-6.5-5.49s-3.25-7-6.66-10A15.84 15.84 0 0 0 58.33 16a11.71 11.71 0 0 0-5.62.9 1 1 0 0 0 .87 1.73h.06a9.76 9.76 0 0 1 4.55-.67 13.83 13.83 0 0 1 8.07 3.62c3 2.55 4.49 6.19 6.21 9.44s3.81 6.2 8 6.52h1a7.31 7.31 0 0 0 5.29-2 6.66 6.66 0 0 0 1.78-4.27 10.94 10.94 0 0 0-1.94-7.02z"/><path class="cls-1" d="M81.59 20.42a5.32 5.32 0 0 0 2.86 2.9s-2.12.68-2.86-2.9zM82.7 20a14.66 14.66 0 0 0 2 2.15s-1.31-.15-2-2.15z"/><path class="cls-4" d="M86.6 24.25v-.08l-1.87.9h.14a1 1 0 0 0 .19.34 9.2 9.2 0 0 1 1.57 5.73 4.78 4.78 0 0 1-1.23 3.06 5.44 5.44 0 0 1-3.94 1.38h-.8c-3.27-.25-4.8-2.34-6.5-5.49s-3.25-7-6.66-10A15.84 15.84 0 0 0 58.33 16a11.71 11.71 0 0 0-5.62.9 1 1 0 0 0 .87 1.73h.06a9.76 9.76 0 0 1 4.55-.67 13.83 13.83 0 0 1 8.07 3.62c3 2.55 4.49 6.19 6.21 9.44s3.81 6.2 8 6.52h1a7.31 7.31 0 0 0 5.29-2 6.66 6.66 0 0 0 1.78-4.27 10.94 10.94 0 0 0-1.94-7.02z"/><path class="cls-5" d="M84.88 25c.15.16.17.27.26.37a9.4 9.4 0 0 1 1.51 5.78 4.78 4.78 0 0 1-1.23 3.06 5.44 5.44 0 0 1-3.94 1.38h-.8c-3.27-.25-4.8-2.34-6.5-5.49s-3.25-7-6.66-10a15.84 15.84 0 0 0-9.19-4.1 11.71 11.71 0 0 0-5.62.9 1 1 0 0 0 .87 1.73h.06a9.76 9.76 0 0 1 4.55-.67 13.83 13.83 0 0 1 8.07 3.62c3 2.55 4.49 6.19 6.21 9.44s3.81 6.2 8 6.52h1a7.31 7.31 0 0 0 5.29-2 6.66 6.66 0 0 0 1.78-4.27 11.48 11.48 0 0 0-2.14-7.23"/><path class="cls-2" d="M28.92 33.87c.8 3.44-14.92 5.29-14.92 5.29a9.22 9.22 0 0 1-7.88 2.53 4.36 4.36 0 0 1-3.82-.38A1.64 1.64 0 0 1 .52 40c-.55-4 9.66-4.17 11.22-4.44 5.34-.92 6.82-2.76 7.74-5.34 0 0-3.5-.55-3.87-3.86z"/><path class="cls-6" d="M15.61 26.31l13.31 7.56c.8 3.44-14.92 5.29-14.92 5.29a9.22 9.22 0 0 1-7.88 2.53 4.36 4.36 0 0 1-3.82-.38A1.64 1.64 0 0 1 .52 40c-.55-4 9.66-4.17 11.22-4.44 5.34-.92 6.82-2.76 7.74-5.34 0-.05-3.48-.6-3.87-3.91z"/><path class="cls-7" d="M65 33.76c4-5-1-10.9-2.77-13.11C54.6 11.1 27 15.37 27 15.37L25.25 30c-1.32 1.72-2.77 7.53-9.11 7.53-1.59 0-10.46.27-9.91 4.23A1.64 1.64 0 0 0 8 43.15a4.36 4.36 0 0 0 3.82.38A9.22 9.22 0 0 0 19.7 41s15.72-1.85 14.93-5.29c5.7.06 11.91-1 14.14-2.11A21.31 21.31 0 0 0 52 35.11 19.14 19.14 0 0 1 46.39 37c-7.18.88-9.75 3.2-7.47 4.84a2.31 2.31 0 0 0 1.82.39 3.7 3.7 0 0 0 4-.12c3.3 1.79 6.12-2.07 6.12-2.07 7.95-1.5 17.86-3.27 14.14-6.28z"/><path class="cls-2" d="M35.07 13.56a6.79 6.79 0 0 1 7.27 1.58 9 9 0 0 0-9.27-6.94c.93-1.51 3.85-1.78 5.83-1.38 0 0-7.45-11.06-15.94-3.92A9.72 9.72 0 0 0 9.84 4.05s4.89-.93 6.08 1.72c-2.41-.12-7-.14-9.52 2.11 0 0 5.42-.53 8.58 2.29C7.2 9.07 4.5 11.43 3.9 12.9c-.49 1.17 2.64-.27 6 .74a8.84 8.84 0 0 0-4 4c-1.41 3.42 2.31.42 5.27-.4-2.17 2.32-4.84 6.6-2.12 11.51 0 0 1.06-5.28 4.75-4.89 0 0-4.75 4-.39 7s10.3 1.71 11.76 6.73c0 0 7.26-2 7.92-7.4 0 0 1.32 2.12.66 3.7 0 0 9.51-5.94 2.25-14.53a8.2 8.2 0 0 1 5 3.3s1.47-6.46-5.93-9.1z"/><path class="cls-3" d="M35.07 13.56a6.79 6.79 0 0 1 7.27 1.58 9 9 0 0 0-9.27-6.94c.93-1.51 3.85-1.78 5.83-1.38 0 0-7.45-11.06-15.94-3.92A9.72 9.72 0 0 0 9.84 4.05s4.89-.93 6.08 1.72c-2.41-.12-7-.14-9.52 2.11 0 0 5.42-.53 8.58 2.29C7.2 9.07 4.5 11.43 3.9 12.9c-.49 1.17 2.64-.27 6 .74a8.84 8.84 0 0 0-4 4c-1.41 3.42 2.31.42 5.27-.4-2.17 2.32-4.84 6.6-2.12 11.51 0 0 1.06-5.28 4.75-4.89 0 0-4.75 4-.39 7s10.3 1.71 11.76 6.73c0 0 7.26-2 7.92-7.4 0 0 1.32 2.12.66 3.7 0 0 9.51-5.94 2.25-14.53a8.2 8.2 0 0 1 5 3.3s1.47-6.46-5.93-9.1z"/><path class="cls-1" d="M12.17 40.07a2.23 2.23 0 0 0-.66 2.65s-1.98-1.59.66-2.65zm33.16-1.2a2.21 2.21 0 0 0-.66 2.65s-1.99-1.59.66-2.65zM8.63 40a2.65 2.65 0 0 0-.45 2.54A1.57 1.57 0 0 1 8.63 40zm32.72-.66s-1.47 1-.66 2.31c0 0-2-1.39.66-2.31zm5.18-15.17s-6.63 3.7 1.57 8.55c0 0-9.72-4.47-1.57-8.55z"/><path class="cls-2" d="M17.63 18a2.56 2.56 0 0 0-2 2.54c.08 2.07 1.69 4.22 7.06 4s7.75-3.53 5.38-6c0 0 2.84-5.37-.54-4.37 0 0-3.93 1.53-3.84-4.15a4.19 4.19 0 0 0-2.23 2.76s-1.23-.23-1.07-2.22c-2.76 3.76-3.3 1-3.3 1a6.81 6.81 0 0 0 .54 6.44z"/><path class="cls-6" d="M17.63 18a2.56 2.56 0 0 0-2 2.54c.08 2.07 1.69 4.22 7.06 4s7.75-3.53 5.38-6c0 0 2.84-5.37-.54-4.37 0 0-3.93 1.53-3.84-4.15a4.19 4.19 0 0 0-2.23 2.76s-1.23-.23-1.07-2.22c-2.76 3.76-3.3 1-3.3 1a6.81 6.81 0 0 0 .54 6.44z"/><path class="cls-8" d="M19.49 11.58a2 2 0 0 1 1.1 2c0 1.15-.62 2.08-1.38 2.08s-1.39-.93-1.39-2.08a2.75 2.75 0 0 1 .34-1.37m6.44 1.23v.24c0 1.26-.57 2.28-1.28 2.28S22 14.94 22 13.68s.58-2.28 1.29-2.28"/><path class="cls-1" d="M20 20.31a2.8 2.8 0 0 0 .84 2.76 2.78 2.78 0 0 1-.15-2.61z"/><path class="cls-2" d="M22.41 19.81a2.38 2.38 0 0 1-2.31 1.72 2.22 2.22 0 0 1-2.19-1.72c0-.66 1-1.19 2.25-1.19s2.25.53 2.25 1.19z"/><path class="cls-3" d="M22.41 19.81a2.38 2.38 0 0 1-2.31 1.72 2.22 2.22 0 0 1-2.19-1.72c0-.66 1-1.19 2.25-1.19s2.25.53 2.25 1.19z"/><path class="cls-1" d="M17.77 22.6a.28.28 0 1 1-.28-.27.28.28 0 0 1 .28.27zm5.74-.82a.29.29 0 0 1-.28.28.28.28 0 0 1 0-.56.29.29 0 0 1 .28.28zm.91 1.03a.28.28 0 1 1-.55 0 .28.28 0 0 1 .55 0zm.91-1.4a.28.28 0 1 1-.27-.27.27.27 0 0 1 .27.27zm-8.27-.12a.27.27 0 0 1-.27.28.28.28 0 1 1 0-.55.27.27 0 0 1 .27.27zm1.58.61a.28.28 0 0 1-.27.28.28.28 0 0 1 0-.56.28.28 0 0 1 .27.28zm-.43-8.69a2.22 2.22 0 0 0-.19.92c0 .9.49 1.62 1.11 1.62s1.11-.72 1.11-1.62-.5-1.63-1.11-1.63a.85.85 0 0 0-.54.21zm4.19.1a3 3 0 0 0-.18 1c0 1 .45 1.85 1 1.85s1-.83 1-1.85-.45-1.85-1-1.85a.7.7 0 0 0-.49.24zm3.14-6.55A11 11 0 0 1 35 5.61s-5.45-3.16-9.46 1.15zm-10.4-3.71s4.63.67 6.09 4.68a5.62 5.62 0 0 0-6.09-4.68zm4.57 22.14s-3.23 3.28.91 6.13c0 0-5.29-2.43-.91-6.13zm7.53-.49s3 3.71-.42 9.3c0 0 4.68-4.93.42-9.3zm-3.99.74s-1.34 2.66.88 6.23c0 0-3.55-2.67-.88-6.23zm7.12-6.54a8.3 8.3 0 0 1 5 8s1.41-6.48-5-8zm-2.53-6.97s5.2-2.23 9.5-.3a9.07 9.07 0 0 0-9.5.3zM9.45 23.36a7.72 7.72 0 0 1 4.45-3.42s-2.97-.14-4.45 3.42z"/></g></g></svg>