<svg xmlns="http://www.w3.org/2000/svg" viewBox="0 0 56.75 48.66"><defs><style>.cls-1{fill:#58574b}.cls-1,.cls-3,.cls-5,.cls-6,.cls-8,.cls-9{stroke:#231f20;stroke-width:1px}.cls-1,.cls-2,.cls-3,.cls-4,.cls-5,.cls-7,.cls-8,.cls-9{fill-rule:evenodd}.cls-2{fill:#fff}.cls-3{fill:#d2ab67}.cls-4{fill:#c19a5a}.cls-5{fill:#889976}.cls-6{fill:none}.cls-7{fill:#231f20}.cls-8{fill:#fffcd5}.cls-9{fill:#6f7e61}</style></defs><title>Asset 66</title><g id="Layer_2" data-name="Layer 2"><g id="Layer_1-2" data-name="Layer 1"><path class="cls-1" d="M41 16.54a1.34 1.34 0 0 1-1.34 1.34 1.34 1.34 0 0 1-1.33-1.34V1.84A1.34 1.34 0 0 1 39.66.5 1.34 1.34 0 0 1 41 1.84z"/><path class="cls-2" d="M6.3 18.11a2.77 2.77 0 0 0-2.82 2.72 2.68 2.68 0 0 0 .9 2 2.68 2.68 0 0 0-.9 2 2.64 2.64 0 0 0 .9 2 2.66 2.66 0 0 0 .43 4.3 2.64 2.64 0 0 0-.13 4.51v.19A2.67 2.67 0 0 0 3.48 38c0 1.42 11.3 9.21 13 10s34.11-2.72 34.11-2.72a2.78 2.78 0 0 0 2.83-2.72 2.7 2.7 0 0 0-1.34-2.31 2.65 2.65 0 0 0 0-4.6 2.65 2.65 0 0 0 0-4.6 2.65 2.65 0 0 0 0-4.61 2.69 2.69 0 0 0 1.34-2.3 2.78 2.78 0 0 0-2.83-2.72z"/><path class="cls-3" d="M50.56 21.46L6.3 18.11a2.77 2.77 0 0 0-2.82 2.72 2.68 2.68 0 0 0 .9 2 2.68 2.68 0 0 0-.9 2 2.64 2.64 0 0 0 .9 2 2.66 2.66 0 0 0 .43 4.3 2.64 2.64 0 0 0-.13 4.51v.19A2.67 2.67 0 0 0 3.48 38c0 1.42 11.3 9.21 13 10s34.11-2.72 34.11-2.72a2.78 2.78 0 0 0 2.83-2.72 2.7 2.7 0 0 0-1.34-2.31 2.65 2.65 0 0 0 0-4.6 2.65 2.65 0 0 0 0-4.6 2.65 2.65 0 0 0 0-4.61 2.69 2.69 0 0 0 1.34-2.3 2.78 2.78 0 0 0-2.86-2.68z"/><path class="cls-4" d="M11.91 18.52l-5.44-.41a2.74 2.74 0 0 0-2.79 2.68 2.62 2.62 0 0 0 .89 1.95 2.6 2.6 0 0 0 0 3.92A2.6 2.6 0 0 0 5 30.88a2.61 2.61 0 0 0-.14 4.45v.18a2.64 2.64 0 0 0-1.16 2.17c0 1.4 11.14 9.06 12.8 9.88a1.32 1.32 0 0 0 .5.1l.55-.16c-2.78 0-4.68-4.5-1.5-5.67-3.34-2.35-.9-4.9.24-5.78-3.43-1.93-.94-4.78 1.2-4.28-2.43-.21-2.28-4.58.25-4.58-1.41-.46-1.62-2.88 0-3.25l.36.24z"/><path class="cls-5" d="M.99 17.73l17.2 6 37.19-2L35.65 6.4 17.39 3.87.99 17.73z"/><path class="cls-6" d="M18.19 23.73L35.65 6.4"/><path class="cls-7" d="M3.66 21.87l12.93 5.06L4.46 23.2l-.8-1.33zm.09 3.64l12.67 6.21-11.88-4.46-.79-1.75zm-.12 3.68l12.71 7.24-11.75-4.8-.96-2.44zm-.15 4.2l12.23 9.01-11.18-6.01-1.05-3zm49.09-7.74l-19.04 1.78 18.92-.6.12-1.18zm.24 4.73l-19.14 1.85 18.92-.6.22-1.25zm-.47 4.72l-18.92 2.29 18.9-1.05.02-1.24zm.16 4.65l-18.94 2.31 18.9-1.07.04-1.24z"/><path class="cls-1" d="M32.12 44.19l-9.68.71.26-17.85 9.49-.65-.07 17.79z"/><path class="cls-8" d="M46.84 38.47l-8.09.61.04-10.06 8.09-.6-.04 10.05z"/><path class="cls-6" d="M42.79 38.82l.04-9.8m4.29 4.58l-8.38.62"/><path class="cls-7" d="M26.3 37.48A1.36 1.36 0 0 1 25.11 39a1.52 1.52 0 0 1 0-3 1.37 1.37 0 0 1 1.19 1.48z"/><path class="cls-9" d="M24.02 21.08l11.69-11.07 13.03 9.71-24.72 1.36zM.99 17.73l17.2 6 .85-.04L35.75 6.48l-.1-.08-18.26-2.53L.99 17.73z"/></g></g></svg>