<svg xmlns="http://www.w3.org/2000/svg" viewBox="0 0 48.16 43.2"><defs><style>.cls-1{fill:#fff}.cls-1,.cls-2,.cls-3,.cls-4,.cls-5,.cls-6{fill-rule:evenodd}.cls-2{fill:#00a651}.cls-2,.cls-4,.cls-5,.cls-6{stroke:#231f20}.cls-2,.cls-4,.cls-6{stroke-width:1px}.cls-3{fill:#231f20}.cls-4{fill:#ed1651}.cls-5{fill:#f6adcd;stroke-linecap:round;stroke-linejoin:round;stroke-width:.5px}.cls-6{fill:#fff200}</style></defs><title>Asset 119</title><g id="Layer_2" data-name="Layer 2"><g id="Layer_1-2" data-name="Layer 1"><path class="cls-1" d="M15.51 19.51S2.79 19.25.56 34.32c0 0 14.55 2.76 22-11.14z"/><path class="cls-2" d="M22.58 23.18l-7.07-3.67S2.79 19.25.56 34.32c0 0 14.55 2.76 22.02-11.14z"/><path class="cls-3" d="M20 23.59s-7.17-1.21-16.51 8.64c-.04 0 7-10 16.51-8.64z"/><path class="cls-1" d="M32.8 24.92s12.46 2.57 11.28 17.76c0 0-14.79-.55-19-15.75z"/><path class="cls-2" d="M25.09 26.93l7.71-2s12.46 2.57 11.28 17.76c0-.01-14.79-.56-18.99-15.76z"/><path class="cls-3" d="M27.55 27.91s7.27.41 14.19 12.09c0 0-4.65-11.31-14.19-12.09z"/><path class="cls-4" d="M16.22 22.54a7 7 0 0 0-2.36 6.1c.56 3.74.42 4.44 4.57 8.32s10.12.14 12.2-2.77 5-4 4.44-9.71S24 16.59 16.22 22.54z"/><path class="cls-1" d="M18.77 21.71s-3.83 2.79-2.7 5.14-2 3.13 1.05 6.35S24.34 40 31 31.37c4.71-6.06-1.83-9.16-3.87-10.63z"/><path class="cls-5" d="M27.17 20.74l-8.4 1s-3.83 2.79-2.7 5.14-2 3.13 1.05 6.35S24.34 40 31 31.37c4.75-6.06-1.79-9.16-3.83-10.63z"/><path class="cls-1" d="M32.29 7.3s6.93-6.1 10.81-1.94 2.08 4.57 4 6.79-1.64 12.33-5.38 8.85S29 26.84 26.47 19.5z"/><path class="cls-4" d="M26.47 19.5l5.82-12.2s6.93-6.1 10.81-1.94 2.08 4.57 4 6.79-1.64 12.33-5.38 8.85S29 26.84 26.47 19.5z"/><path class="cls-1" d="M33.54 7.58s7.21-4.3 8.87-.42 3.88 5 3.33 7.9c-.68 3.58-1.67 7.62-4 6-4.53-3.19-8-.28-14.55-.28-1.67 0 .55-5.13.55-8.73s5.8-4.47 5.8-4.47z"/><path class="cls-5" d="M33.54 7.58s7.21-4.3 8.87-.42 3.88 5 3.33 7.9c-.68 3.58-1.67 7.62-4 6-4.53-3.19-8-.28-14.55-.28-1.67 0 .55-5.13.55-8.73s5.8-4.47 5.8-4.47z"/><path class="cls-4" d="M16.63 8.69s-1-6.52 4.44-7.9S37.7 3.28 33.54 7.58s-7.21 11.64-6.37 13.86A53.08 53.08 0 0 1 16.63 8.69z"/><path class="cls-1" d="M19.27 7s-1.94-1.11.83-3.6 15.52.16 11.9 3.07-5.27 8-5.69 10.39A45.21 45.21 0 0 0 19.27 7z"/><path class="cls-5" d="M19.27 7s-1.94-1.11.83-3.6 15.52.16 11.9 3.07-5.27 8-5.69 10.39A45.21 45.21 0 0 0 19.27 7z"/><path class="cls-4" d="M26.69 21.45a5.17 5.17 0 0 0-4.61.78c-2.22 1.67-7.53 3.64-11.82-1.07s2.49-8.45 4.43-12.75 12.83 10.82 12 13.04z"/><path class="cls-5" d="M16.22 9.79s-.84 3.05-2.36 3.05-3 2.36-2.49 3.33S9.05 19 12.75 21.3c5.58 3.54 9.18-1.53 12.55-1.33 0 .03-3.96-7.4-9.08-10.18z"/><path class="cls-4" d="M26.75 20.88c.55-2.13 7.9-6.24 13-2.49s4.43-3.05 6.23 7.76-13.7 10.12-14.88 2.17c-.94-6.51-4.9-5.32-4.35-7.44z"/><path class="cls-5" d="M28.17 21a5.87 5.87 0 0 1 4.4-1.94c2.36.06 3.15-1.73 6.24.69 1.94 1.53 4.85-.55 5.68 6 .6 4.75-2.5 9.84-9.15 5.68-6.06-3.81.31-6.26-7.17-10.43z"/><path class="cls-1" d="M26.91 22.53s-1.72.9-2.62 0 1.18-1.84 1.18-1.84-2.34-1.42-1.47-2.17 2.26.9 2.26.9 1.35-2.26 1.81-1.5-.46 2.71-.46 2.71 2-1.06 2.41.3-2.81 2.95-3.11 1.6z"/><path class="cls-6" d="M26.91 22.53s-1.72.9-2.62 0 1.18-1.84 1.18-1.84-2.34-1.42-1.47-2.17 2.26.9 2.26.9 1.35-2.26 1.81-1.5-.46 2.71-.46 2.71 2-1.06 2.41.3-2.81 2.95-3.11 1.6z"/></g></g></svg>