<svg xmlns="http://www.w3.org/2000/svg" viewBox="0 0 43.15 54.07"><defs><style>.cls-1{fill:#fff}.cls-1,.cls-2,.cls-3{fill-rule:evenodd}.cls-2{stroke:#231f20;stroke-width:1px;fill:url(#GradientFill_30)}.cls-3{fill:#231f20}</style><radialGradient id="GradientFill_30" cx="29.5" cy="17.21" r="34.12" gradientUnits="userSpaceOnUse"><stop offset="0" stop-color="#faa74a"/><stop offset="1" stop-color="#f58220"/></radialGradient></defs><title>Asset 117</title><g id="Layer_2" data-name="Layer 2"><g id="Layer_1-2" data-name="Layer 1"><path class="cls-1" d="M34.66 36.27c-2.62 1.33-5.5-2.22-2-2.15a5.83 5.83 0 0 1 2.85-2.52s-4.62-1.05-3.81-3.24 4-1.55 4-1.55a27.07 27.07 0 0 1 5.77-6.53S36 21 32.71 20c0 0-2.05 4.05-5.55 3s-.15-4.44 1-4.7a6.94 6.94 0 0 1 1.44-3.85s-2.49 1.26-3.53-.33c-1.26-1.95 2.32-2.88 2.32-2.88s-1.43-.91-.5-3.08c0 0-2.33 1.27-3.1 0a1.46 1.46 0 0 1 .71-2.33 17.83 17.83 0 0 1-1.5-4.2 9.9 9.9 0 0 1-2.43 4A1.63 1.63 0 0 1 21.76 8c-1.36 1.4-3-.61-3-.61a2.77 2.77 0 0 1-1.09 2.92s3.27 1.26 1.63 2.9c-1.23 1.22-3.45 0-3.45 0a13.06 13.06 0 0 1 .85 3.88c1.09.49 3.52 4.62-.12 5s-4.86-4-4.86-4c-3.2.65-8.63-1.45-8.63-1.45a32.24 32.24 0 0 1 4.33 7.56s3.53-.09 3.65 2.31-4.37 2.43-4.37 2.43C9.37 30.74 9 32 9 32c3.41.61-.12 3.53-2.42 1.7a7.18 7.18 0 0 0-5-1.45c3.41 1.82 4.86 6.19 9 9 2.93 2 6.52.73 8.37-.17-.15 3.36-.38 7-.75 9.58-.17 1.22.14 2.51.69 2.86a.51.51 0 0 0 .28.09c.46 0 .89-.64 1-1.67.4-2.84.8-6.95 1.08-10.69 1.7 1.24 4.84 3 8 1.66 4.6-1.93 6.89-5.94 10.58-7a7.19 7.19 0 0 0-5.17.36z"/><path class="cls-2" d="M34.66 36.27c-2.62 1.33-5.5-2.22-2-2.15a5.83 5.83 0 0 1 2.85-2.52s-4.62-1.05-3.81-3.24 4-1.55 4-1.55a27.07 27.07 0 0 1 5.77-6.53S36 21 32.71 20c0 0-2.05 4.05-5.55 3s-.15-4.44 1-4.7a6.94 6.94 0 0 1 1.44-3.85s-2.49 1.26-3.53-.33c-1.26-1.95 2.32-2.88 2.32-2.88s-1.43-.91-.5-3.08c0 0-2.33 1.27-3.1 0a1.46 1.46 0 0 1 .71-2.33 17.57 17.57 0 0 1-1.5-4.2 9.9 9.9 0 0 1-2.43 4A1.63 1.63 0 0 1 21.76 8c-1.36 1.4-3-.61-3-.61a2.77 2.77 0 0 1-1.09 2.92s3.27 1.26 1.63 2.9c-1.23 1.22-3.45 0-3.45 0a13.06 13.06 0 0 1 .85 3.88c1.09.49 3.52 4.62-.12 5s-4.86-4-4.86-4c-3.2.65-8.63-1.45-8.63-1.45a32.24 32.24 0 0 1 4.33 7.56s3.53-.09 3.65 2.31-4.37 2.43-4.37 2.43C9.37 30.74 9 32 9 32c3.41.61-.12 3.53-2.42 1.7a7.18 7.18 0 0 0-5-1.45c3.41 1.82 4.86 6.19 9 9 2.93 2 6.52.73 8.37-.17-.15 3.36-.38 7-.75 9.58-.17 1.22.14 2.51.69 2.86a.51.51 0 0 0 .28.09c.46 0 .89-.64 1-1.67.4-2.84.8-6.95 1.08-10.69 1.7 1.24 4.84 3 8 1.66 4.6-1.93 6.89-5.94 10.58-7a7.19 7.19 0 0 0-5.17.36z"/><path class="cls-3" d="M20.29 38a99.68 99.68 0 0 1 2.32-22.88"/></g></g></svg>