<svg xmlns="http://www.w3.org/2000/svg" viewBox="0 0 44.88 31.89"><defs><style>.cls-1{fill:#a6ce39}.cls-1,.cls-3,.cls-5{stroke:#231f20}.cls-1,.cls-3{stroke-width:1px}.cls-1,.cls-2,.cls-3,.cls-4,.cls-5{fill-rule:evenodd}.cls-2{fill:#fff}.cls-3{fill:url(#GradientFill_28)}.cls-4{fill:#231f20}.cls-5{fill:none;stroke-width:.2px}</style><linearGradient id="GradientFill_28" x1=".67" y1="36.59" x2="36.43" y2=".83" gradientUnits="userSpaceOnUse"><stop offset="0" stop-color="#a6ce39"/><stop offset="1" stop-color="#d2e288"/></linearGradient></defs><title>Asset 37</title><g id="Layer_2" data-name="Layer 2"><g id="Layer_1-2" data-name="Layer 1"><path class="cls-1" d="M44.16 5a1.78 1.78 0 1 1-3.54 0 1.78 1.78 0 1 1 3.54 0z"/><path class="cls-2" d="M32.31 5.93a33.54 33.54 0 0 1 6-5.29 23.73 23.73 0 0 1 6 10.45 33.59 33.59 0 0 1-7.5 2.7z"/><path class="cls-1" d="M36.8 13.79l-4.49-7.86a33.54 33.54 0 0 1 6-5.29 23.73 23.73 0 0 1 6 10.45 33.59 33.59 0 0 1-7.51 2.7z"/><path class="cls-3" d="M4.91 31.37C2.49 30.82.26 26 .52 23.34L32.31 5.93s3.79 3.4 4.39 8z"/><path class="cls-4" d="M7.53 22.07L30.32 9.86A131.49 131.49 0 0 1 7.53 22.07z"/><path class="cls-5" d="M34.26 7.55l6-4.34m-4.9 6L41.7 5.4m-5.42 6.11l6.91-3.24"/></g></g></svg>