<svg xmlns="http://www.w3.org/2000/svg" viewBox="0 0 39.02 56.68"><defs><style>.cls-1,.cls-8{fill:#fff}.cls-1,.cls-2,.cls-3,.cls-4,.cls-5,.cls-6,.cls-7,.cls-8,.cls-9{fill-rule:evenodd}.cls-2,.cls-4,.cls-5,.cls-6,.cls-7,.cls-8{stroke:#231f20}.cls-2,.cls-6,.cls-7,.cls-8{stroke-linecap:round;stroke-linejoin:round}.cls-2,.cls-6{stroke-width:1px}.cls-2{fill:url(#GradientFill_20)}.cls-3{fill:#231f20}.cls-4,.cls-6{fill:#8ed8f8}.cls-4,.cls-5{stroke-miterlimit:2.61;stroke-width:.5px}.cls-5,.cls-7{fill:none}.cls-7{stroke-width:.75px}.cls-8{stroke-width:.25px}.cls-9{fill:#d1d3d4}</style><linearGradient id="GradientFill_20" x1="-7.05" y1="58.61" x2="47.35" y2="4.22" gradientUnits="userSpaceOnUse"><stop offset="0" stop-color="#e6e7e8"/><stop offset="1" stop-color="#fff"/></linearGradient></defs><title>Asset 15</title><g id="Layer_2" data-name="Layer 2"><g id="Layer_1-2" data-name="Layer 1"><path class="cls-1" d="M2.84 49.13s-4.37-30.3-1.17-33.43 9.62-11 9.62-11S9.93 0 12.46.55c3.5.78 14.87 2.87 15.16 5.22a21.89 21.89 0 0 1 0 4.7s9 9.4 10.49 12.8-1.45 31.08-1.45 31.08l-20.12 1.83z"/><path class="cls-2" d="M2.84 49.13s-4.37-30.3-1.17-33.43 9.62-11 9.62-11S9.93 0 12.46.55c3.5.78 14.87 2.87 15.16 5.22a21.89 21.89 0 0 1 0 4.7s9 9.4 10.49 12.8-1.45 31.08-1.45 31.08l-20.12 1.83z"/><path class="cls-3" d="M6.34 37.19c-.09 0-.15-.18-.21-.41a5.93 5.93 0 0 1-.13-.94l-.09-1c-.06-.61-.17-1.94-.3-4l-.46 3-.14 1a7.28 7.28 0 0 1-.18.91c-.06.24-.15.33-.26.27s-.16-.2-.21-.46a6 6 0 0 1-.1-.63l-.06-.64c-.16-1.36-.3-2.79-.42-4.31l-.08.92-.3 2.7c0 .33-.05.8-.11 1.43 0 .25-.13.35-.23.29a.45.45 0 0 1-.19-.28 1.94 1.94 0 0 1-.06-.43A18.17 18.17 0 0 1 3 32.48l.26-2 .13-1.64a6.9 6.9 0 0 1 .22-1.44c.06-.18.13-.24.23-.19s.17.23.22.52.13 1 .2 2.07c.08 1.23.21 2.58.38 4.06.23-1.27.43-2.61.59-4l.05-.86a5.68 5.68 0 0 1 .11-.71c.06-.23.14-.32.25-.26s.23.42.3 1.06c0 .22.06.66.09 1.33.1 1.68.21 3.13.35 4.36l.11 1c.06.53.09.85.09 1a.68.68 0 0 1-.07.35c-.05.08-.11.1-.17.06z"/><path class="cls-1" d="M38.15 23.36a2.8 2.8 0 0 1 .1.37l-1.67 30.43-20 1.89 1.82-30.83 8.77-14.78 7.76 8.23z"/><path class="cls-4" d="M1.36 16.92l17.14 8.23 8.9-14.78-15.99-5.59L1.36 16.92z"/><path class="cls-3" d="M.8 16.74l16.91 7.05 8.16-12.53-13.12-6.01 14.87 5.22-7.29 13.06 13.12.26-14.29 1.31-2.62 31.08.29-30.82L.8 16.74z"/><path class="cls-5" d="M27.13 10.44l-8.77 14.78-1.82 30.83 20.04-1.89 1.69-30.63-3.38-4.86-7.76-8.23z"/><path class="cls-3" d="M9 31.42a2 2 0 0 1-.38-.27l-.37-.31c0 1-.05 2-.05 3v2.8l.73.37c.07 0 .12.12.17.25a1.42 1.42 0 0 1 .07.42.9.9 0 0 1-.07.37c0 .08-.1.1-.16.07l-.39-.2-.39-.19a1.65 1.65 0 0 0-.46-.15 1.45 1.45 0 0 1-.46-.15c-.07 0-.12-.12-.17-.25a1.42 1.42 0 0 1-.07-.44.84.84 0 0 1 .06-.36c0-.09.1-.11.17-.08a1.71 1.71 0 0 0 .5.16v-2.84q0-1.25.06-3.09l-.3-.14-.3-.14A.41.41 0 0 1 7 30a1.2 1.2 0 0 1-.07-.44c0-.33.07-.48.22-.43a5.71 5.71 0 0 1 .7.33 7 7 0 0 1 1.15.87.89.89 0 0 1 .21.69.64.64 0 0 1-.08.36c-.04.06-.13.08-.13.04zm2.74 8.01a1.47 1.47 0 0 1-.83.07 2.53 2.53 0 0 1-.84-.25.8.8 0 0 1-.34-.34 2.37 2.37 0 0 1-.14-.91l.05-1.77c0-1.63.06-3.45 0-5.47a.88.88 0 0 1 .07-.36c0-.08.1-.11.16-.07s.12.12.17.25a1.49 1.49 0 0 1 .07.43c0 2 0 3.88-.06 5.53v1.6a2.18 2.18 0 0 0 1.53.16.09.09 0 0 1 .07 0c.07 0 .12.13.17.27a1.47 1.47 0 0 1 .06.42c.01.24-.04.38-.14.44zm2.91 2.01a4.87 4.87 0 0 1-1-2l-.7-2v2.91c0 .36-.06.5-.2.43a.59.59 0 0 1-.21-.39 2.24 2.24 0 0 1-.07-.51v-7.54a.7.7 0 0 1 .13-.34c0-.09.1-.11.16-.07s.12.12.17.25a1.44 1.44 0 0 1 .06.43v3.24a14.25 14.25 0 0 0 .7-1.34l.67-1.45c0-.11.11-.15.18-.11s.11.11.16.25a1.21 1.21 0 0 1 .07.43 5.24 5.24 0 0 1-.59 1.58c-.28.56-.56 1.1-.86 1.61.19.56.48 1.37.88 2.43l.24.61a2.37 2.37 0 0 0 .29.51 1 1 0 0 1 .18.64.8.8 0 0 1 0 .32c-.14.1-.19.14-.26.11z"/><path class="cls-1" d="M34.31 38c0 5.76-2.77 10.42-6.18 10.42S22 43.76 22 38s2.76-10.43 6.17-10.43 6.14 4.67 6.14 10.43z"/><path class="cls-6" d="M34.31 38c0 5.76-2.77 10.42-6.18 10.42S22 43.76 22 38s2.76-10.43 6.17-10.43 6.14 4.67 6.14 10.43z"/><path class="cls-1" d="M36.25 33.08c-1.44-.48-3.82-.38-4.5.55a1.91 1.91 0 0 1-.85.65 3.29 3.29 0 0 0-2.31-1.87 3.9 3.9 0 0 0-3.11 1.82 2 2 0 0 1-1.1-.85c-.58-1-2.94-1.29-4.42-1s1.79 3 3 2.74a1.75 1.75 0 0 1 1.76.39 3.52 3.52 0 0 0 0 3.43 11 11 0 0 1 1.53 2.61 1.24 1.24 0 0 0-.35.79c-.05.89.91 1.65 2.14 1.7s2.26-.62 2.31-1.5a1.33 1.33 0 0 0-.22-.77 4.78 4.78 0 0 1 1-2.37 4.19 4.19 0 0 0 .31-3.85 1.68 1.68 0 0 1 1.56-.01c1.14.39 4.69-1.99 3.25-2.46z"/><path class="cls-7" d="M36.25 33.08c-1.44-.48-3.82-.38-4.5.55a1.91 1.91 0 0 1-.85.65 3.29 3.29 0 0 0-2.31-1.87 3.9 3.9 0 0 0-3.11 1.82 2 2 0 0 1-1.1-.85c-.58-1-2.94-1.29-4.42-1s1.79 3 3 2.74a1.75 1.75 0 0 1 1.76.39 3.52 3.52 0 0 0 0 3.43 11 11 0 0 1 1.53 2.61 1.19 1.19 0 0 0-.35.79c-.05.89.91 1.65 2.14 1.7s2.26-.62 2.31-1.5a1.41 1.41 0 0 0-.22-.77 4.78 4.78 0 0 1 1-2.37 4.19 4.19 0 0 0 .31-3.85 1.68 1.68 0 0 1 1.56-.01c1.14.39 4.69-1.99 3.25-2.46z"/><path class="cls-8" d="M30.33 37.41c-.18.88 0 1.73.36 1.9s.85-.4 1-1.28 0-1.73-.36-1.9-.81.4-1 1.28z"/><path class="cls-3" d="M27.11 41.28s-1.4 1.08-.56 1.95l-.7-1.14s.15-.86 1.26-.81zm4.23-4.05a.85.85 0 0 1-.68.79A2.55 2.55 0 0 0 31.1 37a.43.43 0 0 0-.18-.06c-.36 0-.68.49-.71 1.13s.23 1.18.58 1.19.67-.49.71-1.13a1.72 1.72 0 0 0-.16-.9zM25 34.77s-2.28-1.71-3.44-1.57 1.96.8 3.44 1.57zm6.09.07s4.24-1.48 4.4-1-4.4 1-4.4 1zM27 42.34s.52 1 1 1-1.16.17-1-1zm2.71.3s-.43.79-1 .77a.78.78 0 0 0 1-.77zm-4.21-7.32s0 .74.39.94l-.15.08s-.46-.09-.24-1.02zm-.5.5s.21.7.63.8l-.13.11s-.44.03-.5-.91zm1.14-.73s-.25.6.06.94H26s-.43-.29.14-.94zm5.96.54s-.1.72-.49.89l.13.09s.48-.05.36-.98zm.41.53s-.28.68-.71.74l.11.13s.47.07.6-.87zm-1.02-.83s.18.63-.16.94h.17s.5-.27-.01-.94z"/><path class="cls-8" d="M27.49 37.36c.2.94 0 1.79-.56 1.89s-1.09-.56-1.29-1.5 0-1.78.55-1.89 1.09.57 1.3 1.5z"/><path class="cls-3" d="M26.81 36.94a1 1 0 0 1-.54 1.06 2.63 2.63 0 0 0 .17-1.26.45.45 0 0 0-.23 0c-.42.1-.63.74-.46 1.43s.65 1.16 1.07 1.06.63-.74.46-1.43a1.72 1.72 0 0 0-.47-.86z"/><path class="cls-9" d="M27.27 11c.89 6.38 3.89 11.11 10.66 12.62l-18.76.94z"/></g></g></svg>