<svg xmlns="http://www.w3.org/2000/svg" xmlns:xlink="http://www.w3.org/1999/xlink" viewBox="0 0 64.66 44.51"><defs><style>.cls-1{fill:#a7a9ac;stroke-width:1.33px}.cls-1,.cls-10,.cls-11,.cls-12,.cls-13,.cls-2,.cls-4,.cls-5,.cls-6,.cls-7,.cls-8{stroke:#231f20}.cls-1,.cls-6,.cls-8{stroke-linecap:round}.cls-1,.cls-11,.cls-12,.cls-2,.cls-5,.cls-6,.cls-8{stroke-linejoin:round}.cls-1,.cls-10,.cls-11,.cls-12,.cls-13,.cls-2,.cls-3,.cls-4,.cls-5,.cls-6,.cls-7,.cls-8,.cls-9{fill-rule:evenodd}.cls-10,.cls-11,.cls-12,.cls-13,.cls-2,.cls-4,.cls-5,.cls-6,.cls-7,.cls-8{stroke-width:1px}.cls-2{fill:url(#GradientFill_7)}.cls-3,.cls-7{fill:#fff}.cls-4{fill:#58595b}.cls-5{fill:url(#GradientFill_7-2)}.cls-6{fill:#939598}.cls-13,.cls-8{fill:#d1d3d4}.cls-9{fill:#231f20}.cls-10{fill:#e6e7e8}.cls-11{fill:url(#GradientFill_7-3)}.cls-12{fill:url(#GradientFill_7-4)}</style><radialGradient id="GradientFill_7" cx="19.34" cy="20.38" r="7.73" gradientUnits="userSpaceOnUse"><stop offset="0" stop-color="#ed1c24"/><stop offset="1" stop-color="#ba131a"/></radialGradient><radialGradient id="GradientFill_7-2" cx="57.55" cy="19.79" r="6.46" xlink:href="#GradientFill_7"/><radialGradient id="GradientFill_7-3" cx="37.72" cy="12.29" r="6.99" xlink:href="#GradientFill_7"/><radialGradient id="GradientFill_7-4" cx="31.37" cy="31.09" r="2.59" xlink:href="#GradientFill_7"/></defs><title>Asset 43</title><g id="Layer_2" data-name="Layer 2"><g id="Layer_1-2" data-name="Layer 1"><path class="cls-1" d="M62.75 34a9.88 9.88 0 1 1-9.88-9.88A9.88 9.88 0 0 1 62.75 34z"/><path class="cls-2" d="M5.07 19s14.78-.55 20.38 8.94c0-.05-2.07-16.44-20.38-8.94z"/><path class="cls-3" d="M39.84 12.86s18.25-4.18 21.67-.38-.38 5.33-.38 5.33l-21.66-1.52z"/><path class="cls-4" d="M39.47 16.29l.37-3.43s18.25-4.18 21.67-.38-.38 5.33-.38 5.33z"/><path class="cls-5" d="M42.11 22.26s14.07-4.56 22 3c.05.04-6.41-15.16-22-3z"/><path class="cls-6" d="M20.27 34a9.89 9.89 0 1 1-9.88-9.88A9.88 9.88 0 0 1 20.27 34z"/><path class="cls-7" d="M16.27 34.09a5.76 5.76 0 1 1-5.76-5.75 5.76 5.76 0 0 1 5.76 5.75z"/><path class="cls-8" d="M29.26 2.93c-3.53 0-6.16 1-7.81 2.72a6.06 6.06 0 0 0-1.68 3.84c-.14.29-8.36 17.68-10.5 22.23A2.51 2.51 0 1 0 12.9 34a2.67 2.67 0 0 0-.09-.64L24.28 10.6l-.12-.38a1.45 1.45 0 0 1 .13-1.28c.81-1.25 4.34-2.06 5.24-2.17l1-.26.07-3.6z"/><path class="cls-9" d="M39.39 3.84a2.23 2.23 0 0 0-2.34-1.59l-5.41.63C31.31 1.22 30.72 0 30.13 0c-.78 0-1.28 1.93-1.1 4.42S30 9 30.76 9c.57 0 1-1 1.1-2.53a2.22 2.22 0 0 0 .63 0l5.51-.6a1.58 1.58 0 0 0 1.39-2.03z"/><path class="cls-3" d="M39 18h-4c-1.12 0-1.71-1.37-2.32-.52 0 0-.24-.38-.26-.38s-1.33-1-1.42-1c-.48-1.72-.89.39-2.51.39-2 0-3.68 1.94-3.68 4.33s1.65 4.32 3.68 4.32h.24a3.67 3.67 0 0 0-.44 1.7 4.25 4.25 0 0 0 4.45 4 4.25 4.25 0 0 0 4.46-4 3.69 3.69 0 0 0-.66-2.07H39A3.36 3.36 0 1 0 39 18z"/><path class="cls-10" d="M39 18h-4c-1.12 0-1.71-1.37-2.32-.52l-.26-.38c-.09 0-1.33-1-1.42-1-.48-1.72-.89.39-2.51.39-2 0-3.68 1.94-3.68 4.33s1.65 4.32 3.68 4.32h.24a3.67 3.67 0 0 0-.44 1.7 4.25 4.25 0 0 0 4.45 4 4.25 4.25 0 0 0 4.46-4 3.69 3.69 0 0 0-.66-2.07H39A3.36 3.36 0 1 0 39 18z"/><path class="cls-11" d="M43.65 14.2c0 2.62-4.43 4.75-9.89 4.75s-9.88-2.13-9.88-4.75 4.42-4.76 9.88-4.76 9.89 2.13 9.89 4.76z"/><path class="cls-12" d="M32.76 31.81a2.11 2.11 0 0 1-2.32 1.81 2.12 2.12 0 0 1-2.33-1.81A2.12 2.12 0 0 1 30.44 30a2.11 2.11 0 0 1 2.32 1.81z"/><path class="cls-7" d="M58.9 34.09a5.75 5.75 0 1 1-5.75-5.75 5.75 5.75 0 0 1 5.75 5.75z"/><path class="cls-13" d="M34.26 25.96l21.65 7.11-1.55 3.91-20.99-9.27.89-1.75z"/></g></g></svg>