<svg xmlns="http://www.w3.org/2000/svg" viewBox="0 0 50.18 31.41"><defs><style>.cls-1{fill:#fff}.cls-1,.cls-2,.cls-3{fill-rule:evenodd}.cls-2{stroke:#231f20;stroke-width:1px;fill:url(#GradientFill_37)}.cls-3{fill:#231f20}</style><radialGradient id="GradientFill_37" cx="39.84" cy="8.1" r="10.56" gradientUnits="userSpaceOnUse"><stop offset="0" stop-color="#e3c282"/><stop offset="1" stop-color="#d2ab67"/></radialGradient></defs><title>Asset 63</title><g id="Layer_2" data-name="Layer 2"><g id="Layer_1-2" data-name="Layer 1"><path class="cls-1" d="M2.85 15s-5.44-3 .24-3.13c0 0-2-4.4-.7-5.56s3 2.43 3 2.43S7.8 1.63 10.73 4.9a1.75 1.75 0 0 1 2.78-1.39 13.42 13.42 0 0 1 9.87-2.27C21.91 3 26.53 2.89 26.53 2.89s1.83-2.16 3-.08c0 0 .81.46 2.54-1.27s6.59-1.28 7.51 1.27c0 0 1.2-2.08 4.45 1.51a2.42 2.42 0 0 1 2.74.34c1.39 1.16-1.39 2.79-1.39 2.79l.23 1.27s3.82-.93 4 .23-3.47 1.62-3.47 1.62 7.18 3.48.58 4.64a2.39 2.39 0 0 1-.23 2.9c1.62 1.62 2.2 3.59-1.39 3.59 0 0 4.63 4.05-2.09 3.47a16 16 0 0 1-13.9 5.1s-2.09 1.51-5.91-.11c0 0-3.36 1.62-5.68-.7 0 0-9.73-.81-11.36-3.94 0 0-1.85 1.39-1.27-1.5 0 0-4.29-2-1.16-4.87.05 0-6.55-2.32-.88-4.15z"/><path class="cls-2" d="M2.85 15s-5.44-3 .24-3.13c0 0-2-4.4-.7-5.56s3 2.43 3 2.43S7.8 1.63 10.73 4.9a1.75 1.75 0 0 1 2.78-1.39 13.42 13.42 0 0 1 9.87-2.27C21.91 3 26.53 2.89 26.53 2.89s1.83-2.16 3-.08c0 0 .81.46 2.54-1.27s6.59-1.28 7.51 1.27c0 0 1.2-2.08 4.45 1.51a2.42 2.42 0 0 1 2.74.34c1.39 1.16-1.39 2.79-1.39 2.79l.23 1.27s3.82-.93 4 .23-3.47 1.62-3.47 1.62 7.18 3.48.58 4.64a2.39 2.39 0 0 1-.23 2.9c1.62 1.62 2.2 3.59-1.39 3.59 0 0 4.63 4.05-2.09 3.47a16 16 0 0 1-13.9 5.1s-2.09 1.51-5.91-.11c0 0-3.36 1.62-5.68-.7 0 0-9.73-.81-11.36-3.94 0 0-1.85 1.39-1.27-1.5 0 0-4.29-2-1.16-4.87.05 0-6.55-2.32-.88-4.15z"/><path class="cls-3" d="M7 24.6A18.43 18.43 0 0 1 18.5 21S11.89 19.73 7 24.6zm18.22-.6s-4.52.34-3.48 2.08 4.64-.35 4.64-.35-3.25 1.16-4.29.24S25.22 24 25.22 24zm-5.33-.22s-3.36 2.22-3.48 3.13c0 0-2.67-.7 3.48-3.13zM7.72 18.45S4 17.64 4.94 20.07s3.71.93 3.71.93-3.36.35-3.13-1 2.2-1.55 2.2-1.55zM29 24.6s-2.2 2.31-.81 2.66 2.55-2.43 2.55-2.43-.12 3.12-2.9 3S29 24.6 29 24.6zm8.5-3.83a19.07 19.07 0 0 1-7.3 8.34l2-.58s3.21-2.2 5.3-7.76zM4.69 7.9s-.28 2.65 2.55 6c0 .03-.7-3.9-2.55-6zm36.24-2.39s2.09 1 .81 2.55c0 0 2.32-2.06-.81-2.55zm2.71 7.27s2-1.63 2.78-.12-3.13 2.66-3.13 2.66 2.44-1.15 2.44-2.54c0-.93-2.09 0-2.09 0zm-4.98 5.44s2.55 4.4 5.33 5c.01-.02-3.36.33-5.33-5zm-27.81 5.33s12.15-2.9 20.15 0c0 0-5.78-4.28-20.15 0zM4 16.48a52.92 52.92 0 0 1 12.4 3.25A29.14 29.14 0 0 0 4 16.48zM8.48 6a23.77 23.77 0 0 1 4.37 5.85A7.29 7.29 0 0 0 8.48 6zm4.14-2.33a14.56 14.56 0 0 1 3.75 5.43s-.46-3.86-3.75-5.43zM38.61 6a14.63 14.63 0 0 0-6-2.66s3.83-.34 6 2.66zM30 5.64a4.58 4.58 0 0 0-2.42-1.41A1.91 1.91 0 0 1 30 5.64zM19.5 4.07a14.72 14.72 0 0 1 6 2.74s-2.37-3.07-6-2.74zm2.86 14.56a3.49 3.49 0 0 1 5.3 1.28s.66-2.48 4.71-.89-.48-2.06 3.39-1.49c0 0 .92-3.66 4.44-3.08a10.21 10.21 0 0 0 1.37-3.92 6.21 6.21 0 0 1-1.86 5.34s.55-1.33-1.61-.61-2.11 2.25-1.69 3.5c0 0-2.57-2.15-1.66 1.15 0 0-2.51.63-3.27-.25a2.68 2.68 0 0 0-4.32 1.44s.53-3.34-4.8-2.47zM9.57 12.35a6.13 6.13 0 0 0 3.94 4.13s1.13-4.44 3.21.31c0 0 2.78-1 3 1.4 0 0 1.55-1.48 2.47 1.54 0 0-1.39-2.09-3.36.11 0 0 1.79-4.72-2.66-2 0 0-.94-5.67-2.55-.58.01.03-4.62-.92-4.05-4.91zM16 6.85s3.85-.2 10.14 3c-.03-.04-3.07-3.79-10.14-3zm13.73 2.94s4.19-3.94 9.46-2.29c0 0-5.84-3.17-9.46 2.29z"/><path class="cls-3" d="M33.79 10.8s4.57.32 6.22 4.51c-.01 0 .7-4.31-6.22-4.51zm-22.97 4.13s.06-3.81 8.82-4.44c0 0-7.3-1-9.58 3.62z"/></g></g></svg>