<svg xmlns="http://www.w3.org/2000/svg" viewBox="0 0 46.57 34.07"><defs><style>.cls-1,.cls-3{fill:#fff}.cls-1,.cls-2,.cls-3,.cls-4{fill-rule:evenodd}.cls-2,.cls-3{stroke:#231f20}.cls-2{stroke-linejoin:round;stroke-width:1px;fill:url(#GradientFill_77)}.cls-3{stroke-width:.5px}.cls-4{fill:#231f20}</style><radialGradient id="GradientFill_77" cx="39.23" cy="5.46" r="25.27" gradientUnits="userSpaceOnUse"><stop offset="0" stop-color="#c7c4e2"/><stop offset="1" stop-color="#827da9"/></radialGradient></defs><title>Asset 103</title><g id="Layer_2" data-name="Layer 2"><g id="Layer_1-2" data-name="Layer 1"><path class="cls-1" d="M36.19.5c-5.86.1-7.78 5.36-16.56 2.24C8.21-1.32-6.7 15.62 4.42 27.12s24.18 4.1 24.18 4.1C9.69 29.66 8.12 20.49 13 18.74s8.08 2.63 8.08 2.63c-6.73 2.46.3 2.55.3 2.55 1.35 1.19 3.75.12 3.75.12s3.15.75 3.08-.43c-.15-2.72-3.51-2.53-3.51-2.53a10.55 10.55 0 0 0-1-3.32c.76-.61 2.25-1.82 2.85-2.32a7 7 0 0 1 3.75 2.42c-5.61 2 .25 2.12.25 2.12 1.12 1 3.11.1 3.11.1s2.63.63 2.57-.35c-.13-2.27-2.92-2.11-2.92-2.11a37.64 37.64 0 0 0-1.16-4.47c3.54 1.18 11.85 1.13 13.66-3C47.23 7.05 42.06.4 36.19.5z"/><path class="cls-2" d="M36.19.5c-5.86.1-7.78 5.36-16.56 2.24C8.21-1.32-6.7 15.62 4.42 27.12s24.18 4.1 24.18 4.1C9.69 29.66 8.12 20.49 13 18.74s8.08 2.63 8.08 2.63c-6.73 2.46.3 2.55.3 2.55 1.35 1.19 3.75.12 3.75.12s3.15.75 3.08-.43c-.15-2.72-3.51-2.53-3.51-2.53a10.55 10.55 0 0 0-1-3.32c.76-.61 2.25-1.82 2.85-2.32a7 7 0 0 1 3.75 2.42c-5.61 2 .25 2.12.25 2.12 1.12 1 3.11.1 3.11.1s2.63.63 2.57-.35c-.13-2.27-2.92-2.11-2.92-2.11a37.64 37.64 0 0 0-1.16-4.47c3.54 1.18 11.85 1.13 13.66-3C47.23 7.05 42.06.4 36.19.5z"/><path class="cls-3" d="M34.84 6.67a1.64 1.64 0 0 0 2.1.11A1.22 1.22 0 0 0 36.59 5a1.63 1.63 0 0 0-2.09-.11 1.23 1.23 0 0 0 .34 1.78z"/><path class="cls-4" d="M35.9 4.93a1.75 1.75 0 0 1 .52.31 1.13 1.13 0 0 1 .3 1.53 1.13 1.13 0 0 1-1.55-.13 1.13 1.13 0 0 1-.3-1.53.82.82 0 0 1 .44-.23zm1.76 7.45a9.22 9.22 0 0 0 7-.8l-2.19 1.27s-3.24.97-4.81-.47zM9.57 14.49S.29 23.4 14.66 29.58c0 0-16.91-4.36-5.09-15.09zm2.36-4.18s8.36 1.45 13.27-2.73c0 0-3.09 6.18-13.27 2.73z"/></g></g></svg>