<svg xmlns="http://www.w3.org/2000/svg" viewBox="0 0 38.14 38.21"><defs><style>.cls-1,.cls-2,.cls-3{stroke:#231f20;stroke-linecap:round;stroke-width:1px;fill-rule:evenodd}.cls-1{fill:url(#GradientFill_36)}.cls-2{fill:#008a4b}.cls-3{fill:#ffc20e}</style><radialGradient id="GradientFill_36" cx="26.5" cy="13.52" r="25.72" gradientUnits="userSpaceOnUse"><stop offset="0" stop-color="#fcaf17"/><stop offset="1" stop-color="#f7941d"/></radialGradient></defs><title>Asset 1</title><g id="Layer_2" data-name="Layer 2"><g id="Layer_1-2" data-name="Layer 1"><path class="cls-1" d="M37.56 21.45C38.17 14.21 35.1 6.86 28.41 3A18.6 18.6 0 1 0 30 34.16a16.64 16.64 0 0 0 7.56-12.71z"/><path class="cls-2" d="M9.25 16.36l-.03-2.25 2.63.4-1.16-2.5 1.78-1.77-2.01.06-.08-2.24-1.64 2.57-1.02-1.66-.57 2.47-2.41.75 1.92.9-1.55 2.51 2.47-1.01 1.67 1.77z"/><path class="cls-3" d="M15 6.06c-.41.11-.9-.38-1.09-1.09s0-1.39.4-1.5.91.38 1.1 1.09 0 1.39-.41 1.5zm1.13 2.5c.15-.25-.13-.68-.62-1s-1-.31-1.16 0 .13.69.63 1 1 .31 1.15.05zm3.14-2.23a.86.86 0 0 0-.44-1.11.85.85 0 0 0-1.18.18.85.85 0 0 0 .44 1.11.85.85 0 0 0 1.18-.18zm1.5 2.78c.24-.4.23-.84 0-1s-.62.08-.85.48-.23.84 0 1 .62-.08.85-.48zm1.61-4.26c.17-.28 0-.7-.43-.93s-.86-.19-1 .09 0 .7.43.93.86.19 1-.09zM18 3.67a.62.62 0 0 1-.84.2.59.59 0 1 1 .59-1 .62.62 0 0 1 .25.83zm6.36 5.76A.84.84 0 1 1 24 8.28a.84.84 0 0 1 .31 1.15zM26.15 6a.87.87 0 0 0-.34-1.17.85.85 0 0 0-1.17.3.87.87 0 0 0 1.51.87zm-.85 7.14a.63.63 0 1 0-.87.25.65.65 0 0 0 .87-.25zm3.17-.9c.17-.29.18-.61 0-.71s-.44.07-.61.37-.18.62 0 .71.43-.07.61-.37zm-.83 4.61a.68.68 0 0 0-1.13-.65.68.68 0 0 0 1.13.65zm-6.5-4.74a.27.27 0 0 0-.08-.37.25.25 0 0 0-.35.12.27.27 0 0 0 .07.37.28.28 0 0 0 .36-.12zm7.72-3.83a.75.75 0 1 0-1 .24.73.73 0 0 0 1-.24zm2.59 1.9a1 1 0 0 0-.36-1.32 1 1 0 0 0-1.31.35 1 1 0 0 0 1.67 1zm1.71 2.18a.85.85 0 0 0-.35-1.14.84.84 0 0 0-1.16.27.83.83 0 0 0 .35 1.14.84.84 0 0 0 1.16-.26zm-2.55 3.21c-.17.3-.67.33-1.12.07s-.67-.71-.5-1a.84.84 0 0 1 1.12-.07c.45.26.67.71.5 1.01z"/></g></g></svg>