<svg xmlns="http://www.w3.org/2000/svg" viewBox="0 0 89.47 58.97"><defs><style>.cls-1{fill:#231f20}.cls-1,.cls-2,.cls-3,.cls-4,.cls-5,.cls-6{fill-rule:evenodd}.cls-2,.cls-5{fill:#fff}.cls-3{fill:none}.cls-3,.cls-4,.cls-5,.cls-6{stroke:#231f20;stroke-linecap:round;stroke-linejoin:round}.cls-3,.cls-5{stroke-width:.5px}.cls-4,.cls-6{stroke-width:1px}.cls-4{fill:url(#GradientFill_104)}.cls-6{fill:url(#GradientFill_20)}</style><radialGradient id="GradientFill_104" cx="62.43" cy="17.89" r="40.99" gradientUnits="userSpaceOnUse"><stop offset="0" stop-color="#0e586e"/><stop offset="1" stop-color="#1b495a"/></radialGradient><linearGradient id="GradientFill_20" x1="19.79" y1="47.88" x2="45.54" y2="22.12" gradientUnits="userSpaceOnUse"><stop offset="0" stop-color="#e6e7e8"/><stop offset="1" stop-color="#fff"/></linearGradient></defs><title>Asset 18</title><g id="Layer_2" data-name="Layer 2"><g id="Layer_1-2" data-name="Layer 1"><path class="cls-1" d="M88 57.38c-5.6-2.62-3.32-9.27-3.32-9.27s.23-1.5-1.32-4.4c4.12-2.7 4.67-10.94 2-7.51a7.68 7.68 0 0 1-5.06 3.14c-3.27-3.89-9-9-18.92-15.39a42.41 42.41 0 0 0-21.58-7A16.16 16.16 0 0 1 41 8.07 16.57 16.57 0 0 0 42.13.5c-7.31 5.18-11.35 13.44-13 17.44-9.26 2-15.95 6.43-18.37 7.24C6.07 26.75 4.84 32 4.84 32c-8.75 4.73-1.57 7.18-1.57 7.18 4.67 3.21 11.07 3.85 18.2 3.41a12.2 12.2 0 0 0 4.72 6c7.36 5.25 17.94 6.6 9.46-2.62a7.09 7.09 0 0 1-1.95-4.89c7.35-1.16 14.88-2.59 21.73-3 17.85-1 21.57 5.48 21.57 5.48C73.45 58.78 93.58 60 88 57.38z"/><path class="cls-2" d="M55.43 38.13c1-6.82 13.47-6 3-8.93S36.17 40.06 34.25 38c-5.62-6.12-10.68-1.39-11.2-2.1-2.09-2.77-7.7-4.55-9.63-2.62s.53 2.62.53 2.62c-3.51 5.25-11.56 3-11.56 3s5.18 4.49 19.08 3.76c0 0 2.13 7.87 15.44 10.27 0 0 4.46-.28-.15-5.57-3.64-4.18-3.06-6.17-3.06-6.17s5.69-1.11 12-2 9.73-1.06 9.73-1.06z"/><path class="cls-3" d="M55.43 38.13c1-6.82 13.47-6 3-8.93S36.17 40.06 34.25 38c-5.62-6.12-10.68-1.39-11.2-2.1-2.09-2.77-7.7-4.55-9.63-2.62s.53 2.62.53 2.62c-3.51 5.25-11.56 3-11.56 3s5.18 4.49 19.08 3.76c0 0 2.13 7.87 15.44 10.27 0 0 4.46-.28-.15-5.57-3.64-4.18-3.06-6.17-3.06-6.17s5.69-1.11 12-2 9.73-1.06 9.73-1.06z"/><path class="cls-4" d="M88 57.38c-5.6-2.62-3.32-9.27-3.32-9.27s.23-1.5-1.32-4.4c4.12-2.7 4.67-10.94 2-7.51a7.68 7.68 0 0 1-5.06 3.14c-3.27-3.89-9-9-18.92-15.39a42.41 42.41 0 0 0-21.58-7A16.16 16.16 0 0 1 41 8.07 16.57 16.57 0 0 0 42.13.5c-7.31 5.18-11.35 13.44-13 17.44-9.26 2-15.95 6.43-18.37 7.24C6.07 26.75 4.84 32 4.84 32c-8.75 4.73-1.57 7.18-1.57 7.18 4.67 3.21 11.07 3.85 18.2 3.41a12.2 12.2 0 0 0 4.72 6c7.36 5.25 17.94 6.6 9.46-2.62a7.09 7.09 0 0 1-1.95-4.89c7.35-1.16 14.88-2.59 21.73-3 17.85-1 21.57 5.48 21.57 5.48C73.45 58.78 93.58 60 88 57.38z"/><path class="cls-5" d="M14.18 28.48c.52.82-.18 2.19-1.57 3.07s-2.93.94-3.45.13.18-2.19 1.57-3.08 2.93-.93 3.45-.12z"/><path class="cls-6" d="M2.57 38.87a5.24 5.24 0 0 0 .7.31c4.67 3.21 11.07 3.85 18.2 3.41a12.2 12.2 0 0 0 4.72 6c7.36 5.25 17.94 6.6 9.46-2.62a7.09 7.09 0 0 1-1.95-4.89c7.35-1.16 14.88-2.59 21.73-3 1-6.82 13.47-6 3-8.93S36.17 40.06 34.25 38c-5.62-6.12-10.68-1.4-11.2-2.1-2.09-2.77-7.7-4.55-9.63-2.62s.53 2.62.53 2.62c-3.2 4.75-10.2 3.27-11.38 2.97z"/><path class="cls-1" d="M22 38s-1.25 3 1 7l-2.07-2.2A4.78 4.78 0 0 1 22 38zm-10.34-7.86a1.46 1.46 0 0 1 .34 1 1.26 1.26 0 0 1-1.15 1.35 1.37 1.37 0 0 1 0-2.7 1 1 0 0 1 .34.08z"/><path class="cls-2" d="M13.14 26.94s1.27-.09 2 2.51c.05 0 1.34-3.68-2-2.51z"/></g></g></svg>