<svg xmlns="http://www.w3.org/2000/svg" viewBox="0 0 36.63 49.95"><defs><style>.cls-1,.cls-2{stroke:#231f20;stroke-width:1px}.cls-1,.cls-2,.cls-3{fill-rule:evenodd}.cls-1{fill:url(#GradientFill_53)}.cls-2{fill:url(#GradientFill_54)}.cls-3{fill:#231f20}</style><linearGradient id="GradientFill_53" x1="-.71" y1="35.85" x2="37.53" y2="-2.39" gradientUnits="userSpaceOnUse"><stop offset="0" stop-color="#fff9ae"/><stop offset="1" stop-color="#fffcd5"/></linearGradient><linearGradient id="GradientFill_54" x1="8.01" y1="51.72" x2="44.98" y2="14.75" gradientUnits="userSpaceOnUse"><stop offset="0" stop-color="#ed1651"/><stop offset="1" stop-color="#f05b72"/></linearGradient></defs><title>Asset 32</title><g id="Layer_2" data-name="Layer 2"><g id="Layer_1-2" data-name="Layer 1"><path class="cls-1" d="M27.81.6C24.53 3 14.35 4.86 7.38 6.74c.32 1.48.14 2.7-.5 2.92S5.3 9 4.64 7.55C2.2 8.33.57 9.13.51 10c-.3 4 8.1 23.58 8.1 23.58l27.3-9.37S30.37-1.25 27.81.6z"/><path class="cls-2" d="M36 22.77L7.78 32.45c1.19 3.16 6.65 4.27 13 2.9l4 11.59a3.7 3.7 0 1 0 7-2.41l-4-11.62C33.45 30.09 37 25.94 36 22.77z"/><path class="cls-3" d="M10.22 31.45a17.71 17.71 0 0 0-1.56-5.09s3.46 4.71 1.56 5.09zm2.01-.33a29.48 29.48 0 0 0-2-6.48s3.92 6.18 2 6.48zM34 23.73a29 29 0 0 1-2.37-6.37s.7 7.31 2.37 6.37zm-2 .89A52.37 52.37 0 0 1 28.82 16s1.46 9.67 3.18 8.62zm-13.8 4.46A30.66 30.66 0 0 1 16 23s.75 6.91 2.2 6.08zM26 1.72a30.37 30.37 0 0 1 3 5.71S27.3.71 26 1.72z"/></g></g></svg>