<svg xmlns="http://www.w3.org/2000/svg" xmlns:xlink="http://www.w3.org/1999/xlink" viewBox="0 0 59.29 43.71"><defs><style>.cls-1,.cls-15,.cls-2,.cls-4,.cls-5,.cls-9{stroke:#231f20}.cls-1,.cls-2,.cls-4{stroke-miterlimit:2.61;stroke-width:1px}.cls-1,.cls-10,.cls-11,.cls-12,.cls-13,.cls-14,.cls-15,.cls-2,.cls-3,.cls-4,.cls-5,.cls-6,.cls-7,.cls-8,.cls-9{fill-rule:evenodd}.cls-1{fill:url(#GradientFill_94)}.cls-2{fill:url(#GradientFill_94-2)}.cls-3,.cls-9{fill:#fff}.cls-4{fill:url(#GradientFill_95)}.cls-5,.cls-9{stroke-width:1px}.cls-5{fill:url(#GradientFill_96)}.cls-6{fill:url(#GradientFill_95-2)}.cls-7{fill:url(#GradientFill_95-3)}.cls-8{fill:url(#GradientFill_95-4)}.cls-10{fill:#231f20}.cls-11{fill:url(#GradientFill_95-5)}.cls-12{fill:url(#GradientFill_95-6)}.cls-13{fill:url(#GradientFill_95-7)}.cls-14{fill:#a9a791}.cls-15{fill:none;stroke-linecap:round;stroke-linejoin:round;stroke-width:.5px}</style><radialGradient id="GradientFill_94" cx="53.98" cy="32.58" r="8.12" gradientUnits="userSpaceOnUse"><stop offset="0" stop-color="#122933"/><stop offset="1" stop-color="#001522"/></radialGradient><radialGradient id="GradientFill_94-2" cx="23.92" cy="33.75" r="7.45" xlink:href="#GradientFill_94"/><radialGradient id="GradientFill_95" cx="56.69" cy="14.54" r="4.41" gradientUnits="userSpaceOnUse"><stop offset="0" stop-color="#395765"/><stop offset="1" stop-color="#001522"/></radialGradient><radialGradient id="GradientFill_96" cx="40" cy="13.31" r="30.47" gradientUnits="userSpaceOnUse"><stop offset="0" stop-color="#fff"/><stop offset="1" stop-color="#fffde9"/></radialGradient><radialGradient id="GradientFill_95-2" cx="41.16" cy="13.47" r="4.26" xlink:href="#GradientFill_95"/><radialGradient id="GradientFill_95-3" cx="55.97" cy="14.54" r="4.41" xlink:href="#GradientFill_95"/><radialGradient id="GradientFill_95-4" cx="44.84" cy="22.37" r="3.95" xlink:href="#GradientFill_95"/><radialGradient id="GradientFill_95-5" cx="52.48" cy="23.15" r="3.87" xlink:href="#GradientFill_95"/><radialGradient id="GradientFill_95-6" cx="15.6" cy="23.78" r="17.44" xlink:href="#GradientFill_95"/><radialGradient id="GradientFill_95-7" cx="45.47" cy="15.02" r="24.3" xlink:href="#GradientFill_95"/></defs><title>Asset 106</title><g id="Layer_2" data-name="Layer 2"><g id="Layer_1-2" data-name="Layer 1"><path class="cls-1" d="M53.16 29.09s-.27 4 1.06 5.56c0 0 5.71 3.05 4.37 5-1 1.54-12 1.62-12.36-1.56 0 0-1.16-6.39-4-8.78z"/><path class="cls-2" d="M23.88 30.91s-1.12 3.05.33 4.45 3.79 2.24 4.16 3.85-6.43 3.61-13-.67 5.82-9.24 8.51-7.63z"/><path class="cls-3" d="M47.24 5.29C28-9.07 2.58 12.65.76 20.69s6.45 11 7.05 18.2c.27 3.27 9.2 4.8 13.22 3.53 4.66-1.46-2.2-5.67-2.2-5.67-.72-2.48 0-2.73 0-2.73 4.62.2 7.56.53 10.07-1.65.61 2.38 1.65 6.48 2.09 8.16.71 2.71 9.95 3.76 13.07 1.28 2.38-1.88-3.92-5.3-3.92-5.3a13 13 0 0 1-.75-8 3.74 3.74 0 0 0 3.07 2.21s3.9 7.1 9.07.23c3.76 1.18 11.88-13.58-4.29-25.66z"/><path class="cls-4" d="M52.73 16s.18-3.19 2.08-3.26 7 4.24.44 5.91A1.66 1.66 0 0 0 55.4 17a1.14 1.14 0 0 1-.65 1s.6-1.23-.09-1.82a1.61 1.61 0 0 1-.86.73s.6-4.37 2.77-2.68c0 0-2.4-2.36-3.36 2z"/><path class="cls-5" d="M47.24 5.29C28-9.07 2.58 12.65.76 20.69s6.45 11 7.05 18.2c.27 3.27 9.2 4.8 13.22 3.53 4.66-1.46-2.2-5.67-2.2-5.67-.72-2.48 0-2.73 0-2.73 4.62.2 7.56.53 10.07-1.65.61 2.38 1.65 6.48 2.09 8.16.71 2.71 9.95 3.76 13.07 1.28 2.38-1.88-3.92-5.3-3.92-5.3a13 13 0 0 1-.75-8 3.74 3.74 0 0 0 3.07 2.21s3.9 7.1 9.07.23c3.76 1.18 11.88-13.58-4.29-25.66z"/><path class="cls-6" d="M42.75 15.59s.72-3.12-1.08-3.72-7.88 2.1-2.1 5.55a1.67 1.67 0 0 1 .33-1.65 1.16 1.16 0 0 0 .33 1.23s-.22-1.35.6-1.71a1.67 1.67 0 0 0 .62.94s.67-4.36-1.9-3.36c0 0 3-1.58 2.65 2.9z"/><path class="cls-7" d="M52 16s.18-3.19 2.08-3.26 7 4.24.44 5.91a1.66 1.66 0 0 0 .16-1.65 1.14 1.14 0 0 1-.65 1s.6-1.23-.09-1.82a1.61 1.61 0 0 1-.86.73s.6-4.37 2.77-2.68c0 0-2.4-2.36-3.36 2z"/><path class="cls-8" d="M45.63 24.27c2.25-1.83-1.28-4.87-3-2.87-1.35 1.6-3.15 7.85 3 2.87z"/><path class="cls-9" d="M45.59 23.63a1.23 1.23 0 1 1-2.23-.83 1.23 1.23 0 1 1 2.23.83z"/><path class="cls-10" d="M44.71 22.52a.93.93 0 0 0-.7.15 1.51 1.51 0 0 0 .57 1.09 1.77 1.77 0 0 1-1-.6 1.31 1.31 0 0 0-.09.28 1 1 0 1 0 1.92.42 1.08 1.08 0 0 0-.7-1.34z"/><path class="cls-11" d="M49.71 24.64c-1.88-2.2 2.15-4.55 3.45-2.27 1.05 1.84 1.69 8.3-3.45 2.27z"/><path class="cls-9" d="M49.87 24c.15.84.79 1.43 1.43 1.32a1.4 1.4 0 0 0 .91-1.72 1.23 1.23 0 1 0-2.34.4z"/><path class="cls-10" d="M50.93 23.1a.88.88 0 0 1 .66.27 1.51 1.51 0 0 1-.75 1 1.81 1.81 0 0 0 1.07-.41 1.35 1.35 0 0 1 0 .29 1 1 0 1 1-1-1.12z"/><path class="cls-12" d="M8.42 39.05s2.22 3.25 8.53 3.2 6-2.8 1.34-5.34c0 0-1.44-2.65.44-3.74 0 0-2.15.54-1.88 1.09A2.26 2.26 0 0 1 18.53 32a2.91 2.91 0 0 0-2.66-1.93 1.88 1.88 0 0 1 2.19.2s1-11.68-7.95-14.07c0 0 4.89 1.6 5.71 6.41 0 0-5.93-10.35-12-5.42-4.77 3.87-2 11.27.85 13.53 0 0-.68-1.74-1.25-3.48 0 0 4.37 7.24 5 11.81z"/><path class="cls-13" d="M38.82 28.4s-.75 7.08 1.09 8.72c0 0 5.26 2.27 4.14 4.16s-8.82 2.24-12.23-.7c0 0-2.44-7.69-2.37-9.68a4.34 4.34 0 0 1-1.6 1.43s1.34-.82 1.19-3.78c0 0-1.34.83-1.64.69 0 0 1.83-2.77 1.63-5.1s-2.63-18.32 9-20.5c0 0-4.72-.12-7.2 2.81 0 0 4.41-7.07 13.44-2.13C51 8 53.22 12.39 53.22 12.39a7.3 7.3 0 0 0-.83 1.08 11.75 11.75 0 0 0-9.26-1S42 10 38.67 11.79s-2.83 4.47.21 5.8c0 0-1.29 1.35-.34 2.49 0 0-1.37-1.08-1.21-1.69 0 0-.76 3.71.82 6a1.23 1.23 0 0 1-1.39-.87s-.66 2.53 2.06 4.88z"/><path class="cls-3" d="M53.74 35.35s3.85 1.37 4.41 3.45a19.43 19.43 0 0 0-4.41-3.45zm-30.83.41s3.86 1.37 4.41 3.46a19.63 19.63 0 0 0-4.41-3.46z"/><path class="cls-14" d="M58.18 32.87a50.73 50.73 0 0 1-7.12-.45l-.62-.08a7.86 7.86 0 0 1-1.36 1l2.31.16s4.16.32 7.08.31c0 .03.18-.66-.29-.94zm-13.86.03l-2.56-.19-.55.19c-1.68-.31-6.54-.36-7.09-.53s.28-.53.28-.53a45.36 45.36 0 0 1 7.23 0c.59.08 1.28.16 1.79.18 0 .04.85.86.9.88z"/><path class="cls-10" d="M41.6 32.2l-.34.66.5-.15-.16-.51zm10.55 1.35s-.31-.66 0-.76c0 0 .16.76.48.82zm-2.59-2.31a2.26 2.26 0 0 1-2.64 1.69c-1.37-.13-2.39-1.09-2.29-2.15a2.25 2.25 0 0 1 2.64-1.69c1.36.13 2.39 1.09 2.29 2.15z"/><path class="cls-15" d="M58.18 32.87a50.73 50.73 0 0 1-7.12-.45l-.62-.08a7.86 7.86 0 0 1-1.36 1l2.31.16s4.16.32 7.08.31c0 .03.18-.66-.29-.94zm-13.86.03l-2.56-.19-.55.19c-1.68-.31-6.54-.36-7.09-.53s.28-.53.28-.53a45.36 45.36 0 0 1 7.23 0c.59.08 1.28.16 1.79.18z"/></g></g></svg>