<svg xmlns="http://www.w3.org/2000/svg" viewBox="0 0 37.56 30.45"><defs><style>.cls-1{fill:none}.cls-1,.cls-3,.cls-5,.cls-7{stroke:#231f20}.cls-1,.cls-3,.cls-5{stroke-width:1px}.cls-1,.cls-2,.cls-3,.cls-4,.cls-5,.cls-6,.cls-7,.cls-8{fill-rule:evenodd}.cls-2,.cls-7{fill:#fff}.cls-3{fill:url(#GradientFill_34)}.cls-4{fill:#231f20}.cls-5{fill:#d2ab67;stroke-linejoin:round}.cls-6{fill:#fff685}.cls-7{stroke-width:.25px}.cls-8{fill:#ffcb05}</style><radialGradient id="GradientFill_34" cx="22.77" cy="8.73" r="10.01" gradientUnits="userSpaceOnUse"><stop offset="0" stop-color="#d2e288"/><stop offset="1" stop-color="#a6ce39"/></radialGradient></defs><title>Asset 91</title><g id="Layer_2" data-name="Layer 2"><g id="Layer_1-2" data-name="Layer 1"><path class="cls-1" d="M24.59 19.07a5 5 0 0 0 .53 1.93"/><path class="cls-2" d="M22.56 20a3.84 3.84 0 0 1 .37 1.36s-2.18 1.13-1.43 2 2-1.36 2-1.36l4.14-.15s-.53-2.19-3.39-1.06c0 0-.23 0-.75-1.43z"/><path class="cls-1" d="M22.56 20a3.84 3.84 0 0 1 .37 1.36s-2.18 1.13-1.43 2 2-1.36 2-1.36l4.14-.15s-.53-2.19-3.39-1.06c0 0-.23 0-.75-1.43"/><path class="cls-2" d="M31.63 7.69c1.39-1.81.26-3.09.26-3.09a.72.72 0 0 0 .11-.76 2 2 0 0 0-.9-2.41A5.21 5.21 0 0 0 24 2.6a18.22 18.22 0 0 0-1.9 3.29C16.71 8.06 15.61 12 12.29 18 4.74 23.68 1 25.87.51 27.22c-.25.7 5-2.6 7.19-2.71a31.43 31.43 0 0 1-3.93 2.71c-3 1.61 3.21.85 10.86-5.93 4.34-.54 16.18-.67 15.87-9.82 1.78-2.04 1.13-3.78 1.13-3.78z"/><path class="cls-3" d="M31.63 7.69c1.39-1.81.26-3.09.26-3.09a.72.72 0 0 0 .11-.76 2 2 0 0 0-.9-2.41A5.21 5.21 0 0 0 24 2.6a18.22 18.22 0 0 0-1.9 3.29C16.71 8.06 15.61 12 12.29 18 4.74 23.68 1 25.87.51 27.22c-.25.7 5-2.6 7.19-2.71a31.43 31.43 0 0 1-3.93 2.71c-3 1.61 3.21.85 10.86-5.93 4.34-.54 16.18-.67 15.87-9.82 1.78-2.04 1.13-3.78 1.13-3.78z"/><path class="cls-4" d="M18 11.29s-.48 1.35.67.87c0 0-.3 1.26 1 .68 0 0-.29 1.41 1.21.54 0 0-1.46 1.42-1.57-.1 0 0-1.57.58-.91-.72.01 0-1.4.87-.4-1.27zm-3.91 3.55s.24 1.56 3.11-.09c0 0 .54.9 1.9 0 0 0-1.16 1.29-2 .41a2.69 2.69 0 0 1-3.29.12zM26 14.62s-2.26 3.92-9.8 5.43c.02 0 7.41-.38 9.8-5.43z"/><path class="cls-2" d="M14.34 28.72s-1.81-2.94 2.47-3.72c2.52-.46 6.67-4.5 10.27-3.52s5.87-1.94 7.77-2a2.13 2.13 0 0 1 2.15 2.6c-.22 1.74-5.2 4.15-10.89 2.73-2.7-.67-8.98 8.35-11.77 3.91z"/><path class="cls-5" d="M14.34 28.72s-1.81-2.94 2.47-3.72c2.52-.46 6.67-4.5 10.27-3.52s5.87-1.94 7.77-2a2.13 2.13 0 0 1 2.15 2.6c-.22 1.74-5.2 4.15-10.89 2.73-2.7-.67-8.98 8.35-11.77 3.91z"/><path class="cls-4" d="M14.87 26.53s.9-1.13 1.73-.68 2.64 2.19.6 3.55a1.7 1.7 0 0 0-.2-2.72c-1.28-.84-1.51-.15-2.13-.15z"/><path class="cls-4" d="M16.32 27.35s.73.74.41 1.33-1.56.23-1.79-1.24c0 0-.37.78.6 1.47s2.52-.36.78-1.56zM18 25.8s1.77.14 4.54-2.06c2.12-1.68 7.15 1.07 12.25-2.76a14.83 14.83 0 0 1-7.44 1.91c-7.41 0-5.29 1.99-9.35 2.91z"/><path class="cls-4" d="M37 21.05a10.64 10.64 0 0 1-7.86 2.84 9.52 9.52 0 0 0 7.93-2.48zm-18.34 6.38s5.81-4 7.08-3.47c0 .04-1.48-1.07-7.08 3.47zM24.11 5.4s0 .59.65.41c0 0 .14.83 1 .37 0 0-.87.64-1.24-.14.05-.04-.82.41-.41-.64zm-7.69 5.24s-.14.95 1.33.14c0 0 .15 1.23 1.81.09 0 0-1.95.62-1.43-.66 0 0-1.47 1.33-1.23-.19zm-.81 1.28s-.41 1.17 1.19.9c0 0-1.28.9-1.61-.28zm3.81-4.37s-.67 1.52 1 1.14c0 0-2 .76-1.52-.76zm-6.23 11.83a31.14 31.14 0 0 1-7 5.4l1 .16s2.91-1.09 6-5.56z"/><path class="cls-6" d="M31.63 7.69c1.39-1.81.26-3.09.26-3.09a.72.72 0 0 0 .11-.76 2 2 0 0 0-.9-2.41A5.21 5.21 0 0 0 24 2.6a18.22 18.22 0 0 0-1.9 3.29c-.3.12.4.23.12.36 4.43.75 7.83 1.18 7.83 5.47l.45.1v-.35c1.78-2.04 1.13-3.78 1.13-3.78z"/><path class="cls-7" d="M30.52 3.84a.75.75 0 0 1-.86.62.79.79 0 0 1-.66-.82.75.75 0 0 1 .81-.64.8.8 0 0 1 .71.84z"/><path class="cls-4" d="M24.57 3.47s.1.64.69.5c0 .03-.96.56-.69-.5zm1.91-.26a.55.55 0 0 0 .41.7s-1.07-.03-.41-.7zM28.1 1.3a.55.55 0 0 0-.14.8s-.8-.71.14-.8zm-2.64.27s-.55.19-.07.81c0 0-.34.31.35.77 0 0-.73-.14-.52-.76 0 0-.67-.58.24-.82zM27 1.33s-.55.18-.09.81c0 0-.34.3.35.77 0 0-.74-.14-.51-.77-.02 0-.69-.59.25-.81zm-3.16 2.78s.09.87.69.74c0 0-1.06.41-.69-.74z"/><path class="cls-8" d="M31.84 7.39a2.31 2.31 0 0 0 .05-2.79.65.65 0 0 0 .11-.16l-.75.16-.65.51v.32L31.23 7z"/><path class="cls-4" d="M28.87 2.46A.86.86 0 0 1 30 2.27s-.7-.81-1.13.19zM31.2 4.6s-1.15.45-.65 1.22a6.68 6.68 0 0 1 .94 3.53l.36-1.7A4.53 4.53 0 0 0 31 6.1a1.06 1.06 0 0 1 .2-1.5zm-2.64 3.55a4.27 4.27 0 0 1 1.38 2.38 2.09 2.09 0 0 0-1.38-2.38zm1.13-4.87a.47.47 0 0 0-.17 0 1.15 1.15 0 0 1 .13.48.77.77 0 0 0-.38-.27.58.58 0 0 0-.1.32.52.52 0 1 0 .52-.56zm-4.2 1.15s-.18.55.6.55c0 0 0 .46.82.19 0 0-.55.5-.91 0 0-.05-.88.14-.51-.74z"/><path class="cls-1" d="M31.63 7.69c1.39-1.81.26-3.09.26-3.09a.72.72 0 0 0 .11-.76 2 2 0 0 0-.9-2.41A5.21 5.21 0 0 0 24 2.6a18.22 18.22 0 0 0-1.9 3.29C16.71 8.06 15.61 12 12.29 18 4.74 23.68 1 25.87.51 27.22c-.25.7 5-2.6 7.19-2.71a31.43 31.43 0 0 1-3.93 2.71c-3 1.61 3.21.85 10.86-5.93 4.34-.54 16.18-.67 15.87-9.82 1.78-2.04 1.13-3.78 1.13-3.78z"/><path class="cls-4" d="M22.92 5.85s-.18.88 1 .69c-.03 0-1.32.83-1-.69z"/></g></g></svg>