<svg xmlns="http://www.w3.org/2000/svg" viewBox="0 0 38.53 43.83"><defs><style>.cls-1{fill:#fff}.cls-1,.cls-10,.cls-11,.cls-2,.cls-3,.cls-4,.cls-5,.cls-6,.cls-7,.cls-8,.cls-9{fill-rule:evenodd}.cls-2,.cls-3{fill:#a9a791}.cls-10,.cls-11,.cls-2,.cls-3,.cls-4,.cls-6,.cls-7,.cls-9{stroke:#231f20}.cls-11,.cls-2,.cls-3,.cls-4,.cls-6,.cls-7,.cls-9{stroke-width:1px}.cls-10,.cls-3{stroke-linejoin:round}.cls-4{fill:#ffcb05}.cls-5{fill:#231f20}.cls-6{fill:#d2e288}.cls-7{fill:#a6ce39}.cls-8{fill:#fff9ae}.cls-10,.cls-9{fill:none}.cls-10{stroke-width:.5px}.cls-11{fill:url(#GradientFill_111)}</style><radialGradient id="GradientFill_111" cx="19.82" cy="14.07" r="15.27" gradientUnits="userSpaceOnUse"><stop offset="0" stop-color="#e5ebb8"/><stop offset="1" stop-color="#d2e288"/></radialGradient></defs><title>Asset 89</title><g id="Layer_2" data-name="Layer 2"><g id="Layer_1-2" data-name="Layer 1"><path class="cls-1" d="M24.4 25.66s9.14-3.28 12.69-3.28a1.26 1.26 0 0 1 .81 1.77s-8.72 1.93-11.45 3.14z"/><path class="cls-2" d="M26.45 27.29l-2.05-1.63s9.14-3.28 12.69-3.28a1.26 1.26 0 0 1 .81 1.77s-8.72 1.93-11.45 3.14z"/><path class="cls-1" d="M18.67 28.66s-7.09 3.82-9.54 7a42.46 42.46 0 0 1-4.91 5s-1 1.66.27 2.45c1.09.69 2.73-.41 2.86-.81s1.91-3.82 3.82-4.51c0 0 1.23-3.41 4.37-4.09 0 0-.49 3.13-.49 3.95a17.13 17.13 0 0 0 2.89-.39v-3.08s-.19-3.23 2.32-3.49z"/><path class="cls-3" d="M20.26 30.69l-1.59-2s-7.09 3.82-9.54 7a42.46 42.46 0 0 1-4.91 5s-1 1.66.27 2.45c1.09.69 2.73-.41 2.86-.81s1.91-3.82 3.82-4.51c0 0 1.23-3.41 4.37-4.09 0 0-.49 3.13-.49 3.95a17.13 17.13 0 0 0 2.89-.39v-3.11s-.19-3.18 2.32-3.49z"/><path class="cls-1" d="M23.35 25.79s2.55-.73 3.37 1c0 0 .44 1.64-.45 1.54 0 0-.19 1.64-1.19.91 0 0-1.18.91-1.82-.27s-.91-2.18-3-2.36-.54-3.01 3.09-.82z"/><path class="cls-4" d="M23.35 25.79s2.55-.73 3.37 1c0 0 .44 1.64-.45 1.54 0 0-.19 1.64-1.19.91 0 0-1.18.91-1.82-.27s-.91-2.18-3-2.36-.54-3.01 3.09-.82z"/><path class="cls-5" d="M24.46 26.51a2.68 2.68 0 0 1 1.41 1.21s.23-1.08-1.41-1.21zm-.92.24a2.58 2.58 0 0 1 1.17 1.44s.42-1.02-1.17-1.44z"/><path class="cls-1" d="M20.35 27.5s2.55-.73 3.37 1c0 0 .43 1.65-.46 1.55 0 0-.18 1.64-1.18.91 0 0-1.19.91-1.82-.27s-.91-2.19-3-2.37-.55-3 3.09-.82z"/><path class="cls-4" d="M20.35 27.5s2.55-.73 3.37 1c0 0 .43 1.65-.46 1.55 0 0-.18 1.64-1.18.91 0 0-1.19.91-1.82-.27s-.91-2.19-3-2.37-.55-3 3.09-.82z"/><path class="cls-5" d="M21.45 28.23a2.59 2.59 0 0 1 1.41 1.21s.23-1.08-1.41-1.21zm-.91.23a2.67 2.67 0 0 1 1.17 1.45s.42-1.02-1.17-1.45z"/><path class="cls-1" d="M25.74 10s6.66-5 7.15 1.91c.83 11.76-14.31 16.3-15.89 15.34z"/><path class="cls-6" d="M17 27.25L25.74 10s6.66-5 7.15 1.91c.83 11.76-14.31 16.3-15.89 15.34z"/><path class="cls-7" d="M30.53.64C25-.56 22.85 6.23 22.85 6.23A17.24 17.24 0 0 0 18 10.3a27.38 27.38 0 0 0-5.19 10.39c-1 3.38-2.54 5.26-5 6.49-2.58.78-4.93 1.26-5.4 2.9-.19.66 3.2-.68 5.64-.28-2.41 1.42-6.57 4.8-4.61 5.08 1.47.2 5.45-1.88 9.08-3.69 4.06-2 10.26-4.3 15.06-9.55 5.39-5.91 1.22-10.31 1.22-10.31l.15-1a2.43 2.43 0 0 0 2.45.67 3.62 3.62 0 0 1-.12 1.53c5.31-1.66 3.18-6.85 3.18-6.85s1.6-3.83-3.93-5.04z"/><path class="cls-8" d="M29.23 10.57a2.26 2.26 0 0 0 2.17.43 3.62 3.62 0 0 1-.12 1.53c5-1.55 3.43-6.18 3.2-6.79l-1.38-.63-1.85-.23-1.34.83-1.25 2-.38 1.56z"/><path class="cls-9" d="M34.27 5.69s-3.05-2.57-5 1.06c0 0-1.89 2.08-.11 3.67"/><path class="cls-5" d="M29.79 7.28a6.06 6.06 0 0 0 1.54 2.6 2.39 2.39 0 0 1-1.54-2.6z"/><path class="cls-1" d="M27.11 3.3s1.17-1.53 2.35-.38c1.33 1.31-.66 2.63-1.13 1.22 0 0-.13-.69-1.22-.84z"/><path class="cls-10" d="M27.11 3.3s1.17-1.53 2.35-.38c1.33 1.31-.66 2.63-1.13 1.22 0 0-.13-.69-1.22-.84z"/><path class="cls-5" d="M28.44 3.26a1.26 1.26 0 0 0-.13.23.85.85 0 1 0 1.57.63.9.9 0 0 0-.44-1.18.86.86 0 0 0-.59 0z"/><path class="cls-9" d="M30.53.64C25-.56 22.85 6.23 22.85 6.23A17.24 17.24 0 0 0 18 10.3a27.38 27.38 0 0 0-5.19 10.39c-1 3.38-2.54 5.26-5 6.49-2.58.78-4.93 1.26-5.4 2.9-.19.66 3.2-.68 5.64-.28-2.41 1.42-6.57 4.8-4.61 5.08 1.47.2 5.45-1.88 9.08-3.69 4.06-2 10.26-4.3 15.06-9.55 5.39-5.91 1.22-10.31 1.22-10.31l.15-1a2.43 2.43 0 0 0 2.45.67 3.62 3.62 0 0 1-.12 1.53c5.31-1.66 3.18-6.85 3.18-6.85s1.6-3.83-3.93-5.04z"/><path class="cls-11" d="M22.88 7.66c-8.28.34-7.1 8.65-14.29 13.82-4 .08-3.69.92-2.73 1.69-2.6-.26-5-.38-5.07.56 0 .5 1 1.28 1.31 1.61-4.29 1.11 1.42 1.87 1.42 1.87 9.82 3.26 18.24 2.28 22.69-4.61 5.01-7.74-1.27-15.01-3.33-14.94z"/><path class="cls-5" d="M20 10.56s-3.33 1.91-1.19 2.75c0 0-.59 2.62 2.27.47 0 0 .23 2.74 2.38.36 0 0-.24 3.22 2.38.48 0 0-2 3.93-2.86.47 0 0-2 2.39-2.38-.36 0 0-3.22 1.91-2.5-1.07.01 0-2.38-2.14 1.9-3.1zM9.76 21.66a8.11 8.11 0 0 0 4.5-.49 7.89 7.89 0 0 0-1.67 2.45s1.7.7 3.37-1.26c0 0-.58 2.49-.12 3a7.37 7.37 0 0 0 6.56-2.16s-1.4 3.69-7.63 2.38c0 0 2.19-2.94-2.95-.81 0 0-.13-1.8.64-2.29 0 0-2.58 0-2.7-.82z"/></g></g></svg>