<svg xmlns="http://www.w3.org/2000/svg" viewBox="0 0 27.29 42.91"><defs><style>.cls-1{fill:#fff}.cls-1,.cls-2,.cls-3,.cls-4{fill-rule:evenodd}.cls-2{fill:#00a651}.cls-2,.cls-4{stroke:#231f20;stroke-width:1px}.cls-3{fill:#231f20}.cls-4{fill:url(#GradientFill_34)}</style><radialGradient id="GradientFill_34" cx="17.26" cy="15.24" r="23.35" gradientUnits="userSpaceOnUse"><stop offset="0" stop-color="#d2e288"/><stop offset="1" stop-color="#a6ce39"/></radialGradient></defs><title>Asset 8</title><g id="Layer_2" data-name="Layer 2"><g id="Layer_1-2" data-name="Layer 1"><path class="cls-1" d="M14 5.85s-.07-2.57 4.43-2 8.34-1.13 8.33-.57C26.77 4.65 18 10.85 14 5.85z"/><path class="cls-2" d="M14 5.85s-.07-2.57 4.43-2 8.33-1.13 8.33-.57C26.79 4.65 18 10.85 14 5.85z"/><path class="cls-3" d="M15.32 5.55s1.31-.8 4.33-.55a9.79 9.79 0 0 0 5.22-1s-1.56 1.5-5.53 1.15a9.12 9.12 0 0 0-4.02.4z"/><path class="cls-2" d="M13.92 5.35s.45 1.94-3.63 2S3.06 9.16 3 8.74C2.79 7.67 9.65 2 13.92 5.35z"/><path class="cls-3" d="M12.82 5.72a7.48 7.48 0 0 1-3.76.9 9.52 9.52 0 0 0-4.49 1.31s1.16-1.3 4.74-1.47a9.32 9.32 0 0 0 3.51-.74zM11.09.42s2.52 1.8 2.48 6.35l.48.05s.73-4.29-1.8-6.47c-.97-.83-1.16.07-1.16.07z"/><path class="cls-4" d="M22.22 22.42c3.27 8.36 5 19.94-10.14 20-10.7 0-15.31-10.1-8.1-19.64 5.24-6.94 2.18-16.36 9.77-16.6s5.49 8.6 8.47 16.24z"/></g></g></svg>