<svg xmlns="http://www.w3.org/2000/svg" viewBox="0 0 54 49.13"><defs><style>.cls-1,.cls-7{fill:#fff}.cls-1,.cls-10,.cls-2,.cls-3,.cls-4,.cls-5,.cls-6,.cls-7,.cls-8,.cls-9{fill-rule:evenodd}.cls-2,.cls-8{fill:#dddcd0}.cls-10,.cls-2,.cls-3,.cls-6,.cls-7{stroke:#231f20}.cls-10,.cls-2,.cls-3{stroke-width:1px}.cls-3{fill:#e7e6dd}.cls-4{fill:#231f20}.cls-5{fill:#ed1c24}.cls-10,.cls-6{fill:none}.cls-6,.cls-7{stroke-width:.35px}.cls-9{fill:#f2f1e6}</style></defs><title>Asset 78</title><g id="Layer_2" data-name="Layer 2"><g id="Layer_1-2" data-name="Layer 1"><path class="cls-1" d="M5.16 4.51s-4 6.08-4.59 3.7C.24 6.89 1 .12 3.39.52c3.55.59 4.29 4.88 4.29 4.88z"/><path class="cls-2" d="M7.68 5.4l-2.52-.89s-4 6.08-4.59 3.7C.24 6.89 1 .12 3.39.52c3.55.59 4.29 4.88 4.29 4.88z"/><path class="cls-1" d="M12.44 27.91s2.22 8.44 1.18 12.88c0 0-3.25 1.93-2.22 3.85 1.26 2.32 8.15.59 7.11-4s1.63-12 3.41-14.66z"/><path class="cls-2" d="M21.92 26l-9.48 1.93s2.22 8.44 1.18 12.88c0 0-3.25 1.93-2.22 3.85 1.26 2.32 8.15.59 7.11-4S20.14 28.65 21.92 26z"/><path class="cls-1" d="M32.13 24c2.58 4.55 5.25 4.62 6.37 6.31 1.48 2.22 0 7 0 7a4.65 4.65 0 0 0-2.5 3.04c-.29 2.07 6.57 1.92 6.37-2.82-.3-7.11 3.2-8.38 1-10.8z"/><path class="cls-2" d="M44.4 24.8l-3.34-.8h-8.93c2.58 4.55 5.25 4.62 6.37 6.31 1.48 2.22 0 7 0 7a4.65 4.65 0 0 0-2.5 3.04c-.29 2.07 6.57 1.92 6.37-2.82-.32-7.11 4.19-10.31 2.03-12.73z"/><path class="cls-1" d="M52.57 13a4.59 4.59 0 0 0-1.2-1.89A4.38 4.38 0 0 0 53.31 6C52 1 41.61 1.55 42.65 4.66a10.66 10.66 0 0 0 1.47 2.89c-1.86-.83-4.12.1-5.16.34-6.35 1.44-10.08.48-10.08.48C26.66 5.4 25 8.22 25 8.22c-.45-3.85-3.26-1.49-3.26-1.49a5.08 5.08 0 0 0-2-3.52c-.46-1.58-1.2-2.87-2.26-2.69a4.37 4.37 0 0 0-2.26 1.09 28.62 28.62 0 0 0-6.63.09C.75 2.59 3.56 9 3.56 9s-3.13 7.43 4.37 9.64c-1 1.27-1.56 2.61-.08 3.79-1.92 5.18 1.93 8 4 8.89 5 2.15 9.33-.3 11 1.72.59 2.81 1.39 7.69.69 10.71 0 0-3.26 1.93-2.22 3.85 1.25 2.32 8.14.59 7.1-4-.71-3.18.34-7.7 1.65-11.07A7 7 0 0 0 33 29.09c4.15-.94 4.89-2.18 7-3.94 2.58 4.56 5.24 4.62 6.37 6.31 1.48 2.22 0 7 0 7a4.67 4.67 0 0 0-2.52 3.11c-.29 2.07 6.57 1.92 6.37-2.81-.3-7.11 3.2-8.39 1-10.81C48.72 25.1 55.24 22 52.57 13z"/><path class="cls-3" d="M52.57 13a4.59 4.59 0 0 0-1.2-1.89A4.38 4.38 0 0 0 53.31 6C52 1 41.61 1.55 42.65 4.66a10.66 10.66 0 0 0 1.47 2.89c-1.86-.83-4.12.1-5.16.34-6.35 1.44-10.08.48-10.08.48C26.66 5.4 25 8.22 25 8.22c-.45-3.85-3.26-1.49-3.26-1.49a5.08 5.08 0 0 0-2-3.52c-.46-1.58-1.2-2.87-2.26-2.69a4.37 4.37 0 0 0-2.26 1.09 28.62 28.62 0 0 0-6.63.09C.75 2.59 3.56 9 3.56 9s-3.13 7.43 4.37 9.64c-1 1.27-1.56 2.61-.08 3.79-1.92 5.18 1.93 8 4 8.89 5 2.15 9.33-.3 11 1.72.59 2.81 1.39 7.69.69 10.71 0 0-3.26 1.93-2.22 3.85 1.25 2.32 8.14.59 7.1-4-.71-3.18.34-7.7 1.65-11.07A7 7 0 0 0 33 29.09c4.15-.94 4.89-2.18 7-3.94 2.58 4.56 5.24 4.62 6.37 6.31 1.48 2.22 0 7 0 7a4.67 4.67 0 0 0-2.52 3.11c-.29 2.07 6.57 1.92 6.37-2.81-.3-7.11 3.2-8.39 1-10.81C48.72 25.1 55.24 22 52.57 13z"/><path class="cls-4" d="M48.28 9.55s2.21-.55 2.66-2.22-3-2.67-3.7-1.93a1.19 1.19 0 0 0 1.33 1.93s-1.63 1.18-2.07-1.19 2.5-2.51 4.74-.29-2.67 4.29-2.96 3.7z"/><path class="cls-5" d="M6.12 14.23l-.24 1.02 1.14.75 1.44-.15.99-1.05v-.51l-1.32-.99-2.01.93z"/><path class="cls-4" d="M7.7 9.87s.71 5.28-3.46 3.66c0 0 4.63 3.25 4.17-3.56z"/><path class="cls-4" d="M8.62 10s-1.28 5.44 4.26 3.81c0 0-5.59 3-5.13-3.6z"/><path class="cls-4" d="M6.72 13.83s-1.17 1.17 0 1.67 3-.55 2.69-1.67l.41.35a2.5 2.5 0 0 1-2.8 2c-2.49-.11-1.02-2.3-.3-2.35z"/><path class="cls-4" d="M8.51 13.73s-1.32.51-1.42 1.42c0 0-.3-1 1-2.08zm6.95-9.53s1 4.35 2.26 5 1.45-1.2 2-3c0 0 .77 3.73-1.73 4.23-1.9.34-2.92-4.43-2.53-6.23z"/><path class="cls-1" d="M8.9 7.82a2 2 0 0 1-2.07 1.92 2 2 0 0 1-2.08-1.92 2 2 0 0 1 2.08-1.93A2 2 0 0 1 8.9 7.82z"/><path class="cls-6" d="M8.9 7.82a2 2 0 0 1-2.07 1.92 2 2 0 0 1-2.08-1.92 2 2 0 0 1 2.08-1.93A2 2 0 0 1 8.9 7.82z"/><path class="cls-4" d="M5.77 6.71a1.75 1.75 0 1 0 .85-.44z"/><path class="cls-7" d="M14.38 7.89a2 2 0 0 1-2.09 1.92 2 2 0 0 1-2.09-1.92A2 2 0 0 1 12.29 6a2 2 0 0 1 2.09 1.89z"/><path class="cls-8" d="M11.12 10.42c0 .64-1.23 1.13-3 1.13S5 11 5 10.38s1.4-1.17 3.14-1.17 2.98.56 2.98 1.21z"/><path class="cls-4" d="M10.55 10.63c0 .56-1.12 1-2.5 1s-2.48-.46-2.48-1 1.11-1 2.48-1 2.5.44 2.5 1zm10.06 1.58S18.43 18 10.49 18.46c0 0 8.09 1.98 10.12-6.25zM24.32 11S23 18.2 16 20.44c0 0 8.06.05 8.32-9.44zm4.47-1a13.24 13.24 0 0 1 .05 6.25 5.57 5.57 0 0 0-.05-6.25zm4.63 10s4 .55 5.44 3.65c0 .04-.41-4.07-5.44-3.65zM9.89 22.78s6.2 2.13 11.79-1a10.73 10.73 0 0 1-11.79 1zm1.36-16a1.77 1.77 0 0 0-.47 1.79 1.75 1.75 0 1 0 1.32-2.23z"/><path class="cls-1" d="M12.64 6.81a.64.64 0 1 0 .36-.16zM8 7.48A.51.51 0 0 0 8.13 7a.49.49 0 0 0-.6-.32.48.48 0 0 0-.31.6.46.46 0 0 0 .55.32z"/><path class="cls-9" d="M7.65 18.55l.28.09c-1 1.27-1.56 2.61-.08 3.79-1.92 5.18 1.93 8 4 8.89 4.83 2.06 9-.12 10.8 1.51-1.28-4.41-10.34-3.38-12.65-7.93-1-2-3.25-4-1.67-6.42a2.84 2.84 0 0 0-.68.07zM33.46 29c3.76-.93 4.53-2.14 6.52-3.84.18.33.36.63.55.91a2.28 2.28 0 0 0-.3-1.32c-1-1-6.3 0-6.72 1.3a9.81 9.81 0 0 0-.05 2.95z"/><path class="cls-10" d="M52.57 13a4.59 4.59 0 0 0-1.2-1.89A4.38 4.38 0 0 0 53.31 6C52 1 41.61 1.55 42.65 4.66a10.66 10.66 0 0 0 1.47 2.89c-1.86-.83-4.12.1-5.16.34-6.35 1.44-10.08.48-10.08.48C26.66 5.4 25 8.22 25 8.22c-.45-3.85-3.26-1.49-3.26-1.49a5.08 5.08 0 0 0-2-3.52c-.46-1.58-1.2-2.87-2.26-2.69a4.37 4.37 0 0 0-2.26 1.09 28.62 28.62 0 0 0-6.63.09C.75 2.59 3.56 9 3.56 9s-3.13 7.43 4.37 9.64c-1 1.27-1.56 2.61-.08 3.79-1.92 5.18 1.93 8 4 8.89 5 2.15 9.33-.3 11 1.72.59 2.81 1.39 7.69.69 10.71 0 0-3.26 1.93-2.22 3.85 1.25 2.32 8.14.59 7.1-4-.71-3.18.34-7.7 1.65-11.07A7 7 0 0 0 33 29.09c4.15-.94 4.89-2.18 7-3.94 2.58 4.56 5.24 4.62 6.37 6.31 1.48 2.22 0 7 0 7a4.67 4.67 0 0 0-2.52 3.11c-.29 2.07 6.57 1.92 6.37-2.81-.3-7.11 3.2-8.39 1-10.81C48.72 25.1 55.24 22 52.57 13z"/></g></g></svg>