<svg xmlns="http://www.w3.org/2000/svg" viewBox="0 0 24.25 47.54"><defs><style>.cls-1{fill:#fff}.cls-1,.cls-2,.cls-3,.cls-4,.cls-5{fill-rule:evenodd}.cls-2,.cls-5{fill:#e6e7e8}.cls-2,.cls-4,.cls-5{stroke:#231f20}.cls-2,.cls-4{stroke-width:1px}.cls-3{fill:#231f20}.cls-4{fill:#0095da}.cls-5{stroke-linecap:round;stroke-width:1.07px}</style></defs><title>Asset 36</title><g id="Layer_2" data-name="Layer 2"><g id="Layer_1-2" data-name="Layer 1"><path class="cls-1" d="M7.66 6.77s.78-3.31 2.56-.88c1.5 2 5.65 9.51 4.89 12-.45 1.48-4.44 2.49-3.17.32z"/><path class="cls-2" d="M11.94 18.25L7.66 6.77s.78-3.31 2.56-.88c1.5 2 5.65 9.51 4.89 12-.45 1.52-4.44 2.53-3.17.36z"/><path class="cls-3" d="M18.6 37.06c-.76.39-.19 3 1.28 5.92s3.27 4.9 4 4.51.19-3-1.27-5.92-3.25-4.89-4.01-4.51z"/><path class="cls-4" d="M3.13 4.34c-4 2 .84 10.36 6 21.17S20 44.36 21.85 43.47s-.84-10.37-6-21.18S7.12 2.3 3.13 4.34z"/><path class="cls-2" d="M1.34.72C2 .39 2.66.44 2.87.84l1.46 2.8c.21.4-.14 1-.77 1.33S2.24 5.24 2 4.85L.56 2c-.21-.36.14-.95.78-1.28z"/><path class="cls-5" d="M16.18 22.93c.7 1.46-.29 3.32-2.19 4.14s-4 .31-4.73-1.15l-2.52-5.28c.7 1.46 2.82 2 4.73 1.15s2.89-2.68 2.19-4.15z"/></g></g></svg>