<svg xmlns="http://www.w3.org/2000/svg" viewBox="0 0 37.96 37.71"><defs><style>.cls-1{fill:#fff}.cls-1,.cls-2,.cls-3,.cls-4{fill-rule:evenodd}.cls-2,.cls-4{stroke:#231f20}.cls-2{stroke-width:1px;fill:url(#GradientFill_68)}.cls-3{fill:#231f20}.cls-4{stroke-width:.75px;fill:url(#GradientFill_69)}</style><radialGradient id="GradientFill_68" cx="26.37" cy="11.51" r="27.89" gradientUnits="userSpaceOnUse"><stop offset="0" stop-color="#fcdfeb"/><stop offset="1" stop-color="#f6adcd"/></radialGradient><radialGradient id="GradientFill_69" cx="21.05" cy="17.47" r="7.26" gradientUnits="userSpaceOnUse"><stop offset="0" stop-color="#fffcd5"/><stop offset="1" stop-color="#fff9ae"/></radialGradient></defs><title>Asset 121</title><g id="Layer_2" data-name="Layer 2"><g id="Layer_1-2" data-name="Layer 1"><path class="cls-1" d="M13.11 29.82s-5 6.3-10.58-1.26 2-8.07 2-8.07-5.29-3.27-1.77-9.82 11.11-4.79 11.11-4.79A7.39 7.39 0 0 1 19.92.59c6.3-1 9.07 6.8 9.07 6.8s9.82 3 8.31 10.84-7.3 7.3-7.3 7.3 3.78 8.82-2.27 11.09-8.32-2.77-8.32-2.77-6.55 6.05-6.3-4.03z"/><path class="cls-2" d="M13.11 29.82s-5 6.3-10.58-1.26 2-8.07 2-8.07-5.29-3.27-1.77-9.82 11.11-4.79 11.11-4.79A7.39 7.39 0 0 1 19.92.59c6.3-1 9.07 6.8 9.07 6.8s9.82 3 8.31 10.84-7.3 7.3-7.3 7.3 3.78 8.82-2.27 11.09-8.32-2.77-8.32-2.77-6.55 6.05-6.3-4.03z"/><path class="cls-3" d="M15.13 8.91s3.28 5.79 2.27 9.82h1.26s.5-6.05-3.53-9.82zm6.3 9.82s1.26-5.54 5.79-8.57c0 0-5.54.76-5.79 8.57zM20.17 20s5 1 7.56 3.78c0 0-5.8-2-8.32-3zm-3.28.24l-2.52 5.55a11.47 11.47 0 0 0 3.53-5.55zm2.77 2.02a31.7 31.7 0 0 1 .26 8.06s1.76-4.79 1-8.06zm-4.28-1.77s-5.29.76-6.3.26a13.78 13.78 0 0 0 7.06.75z"/><path class="cls-4" d="M23.76 17.79a2.71 2.71 0 0 0-3-1.8 2.71 2.71 0 0 0-5 1.74 2.71 2.71 0 0 0 1.73 5 2.71 2.71 0 0 0 5-1.74 2.7 2.7 0 0 0 1.27-3.2z"/></g></g></svg>