<svg xmlns="http://www.w3.org/2000/svg" viewBox="0 0 56.97 19.08"><defs><style>.cls-1,.cls-2{fill-rule:evenodd}.cls-1{stroke:#231f20;stroke-linejoin:round;stroke-width:1px;fill:url(#GradientFill_35)}.cls-2{fill:#231f20}</style><linearGradient id="GradientFill_35" x1="24.52" y1="28.84" x2="32.13" y2="-14.31" gradientUnits="userSpaceOnUse"><stop offset="0" stop-color="#6ea756"/><stop offset="1" stop-color="#a6ce39"/></linearGradient></defs><title>Asset 13</title><g id="Layer_2" data-name="Layer 2"><g id="Layer_1-2" data-name="Layer 1"><path class="cls-1" d="M1 4.73C1.53 2.8 3.46 0 10 1.93A66.86 66.86 0 0 0 25.12 4c15.09.68 29.41-7.83 31.15-.39 2 8.71-11.42 14.7-28.82 15C14.64 18.78-2.49 16.18 1 4.73z"/><path class="cls-2" d="M4.89 4.77s2.25-.51 2.41.46c0 0 2.05-.52 2.79.47A12 12 0 0 1 15.76 7c2.37 1.43 3-1 5.5.37 0 0 3-.58 3.95.61 0 0 3.7-.95 4.46-.25 0 0-3.19-.29-4.77.91 0 0-.43-1.85-3.76-.69 0 0-.72-1.48-2.89-.19S17 6.11 9.59 6.07c0 0-.24-1.36-2.7-.37.01 0 .32-.86-2-.93zm9.21 9.57s2.16-.79 2.45.16c0 0 2-.77 2.83.12a12 12 0 0 1 5.79.61c2.53 1.11 2.88-1.35 5.5-.34 0 0 2.92-1 4 .1 0 0 3.55-1.41 4.39-.81 0 0-3.2.12-4.62 1.52 0 0-.65-1.79-3.81-.22 0 0-.91-1.37-2.89.18s-1.41-1.52-8.81-.61c0 0-.42-1.32-2.72 0 0-.05.2-.93-2.11-.71zm20.02-7.19s.77-1.25 2.51-.09a1.8 1.8 0 0 1 2.23-.39A5 5 0 0 1 42.15 6c2.13.19 4.45-2.13 6.19-1.55 0 0-.54-.74-4.45.78-3 1.16-2.9-.2-5.13.87 0 0-1.45-.68-2.22.29 0-.01-1.74-.78-2.42.76zm6.75 6.61s.38-1.42 2.33-.75c0 0 .68-1.4 2-1a4.71 4.71 0 0 1 2.89-1.52c2-.37 3.59-3.23 5.38-3.13 0 0-.71-.57-4 1.92-2.49 1.91-2.76.58-4.56 2.19 0 0-1.54-.27-2 .87.01.04-1.83-.25-2.04 1.42zm-13.5-3.14a2.17 2.17 0 0 1 2.22-.14 2.28 2.28 0 0 1 2.3-.37s1.78-1 3.08-.34a3.82 3.82 0 0 1 2.51-.24 6 6 0 0 0-2.76.84s-.48-1.35-3 .19a1.91 1.91 0 0 0-2.41.3s-.4-.41-1.94-.24zm-9.37.89a1.79 1.79 0 0 0-2.2-.34 1.92 1.92 0 0 0-2.25-.63s-1.65-1.36-3-.65c0 0-1.52-1-2.47-.48a5 5 0 0 1 2.64 1.23s.65-1.63 3 .47c0 0 1.12-.93 2.36.55-.08 0 .39-.48 1.92-.15zM1.82 6.18S2.4 5 3.07 5.7s-.19 2.13-.77 2.13c0 0 .87-1 .39-1.74-.31-.47-.87.1-.87.09z"/></g></g></svg>