<svg xmlns="http://www.w3.org/2000/svg" viewBox="0 0 38.4 44.02"><defs><style>.cls-1{fill:url(#GradientFill_26)}.cls-2{fill:none}.cls-2,.cls-4,.cls-5{stroke:#231f20;stroke-linecap:round;stroke-width:1px;fill-rule:evenodd}.cls-3{fill:#231f20}.cls-4{fill:#a78b6b;stroke-linejoin:round}.cls-5{fill:#00a651}</style><radialGradient id="GradientFill_26" cx="26.88" cy="20.24" r="24.95" gradientUnits="userSpaceOnUse"><stop offset="0" stop-color="#c7a0cb"/><stop offset="1" stop-color="#7c51a1"/></radialGradient></defs><title>Asset 3</title><g id="Layer_2" data-name="Layer 2"><g id="Layer_1-2" data-name="Layer 1"><path class="cls-1" d="M15.68 12.07a23.58 23.58 0 0 1 8-2 15 15 0 0 1 7.79 1.49 11.79 11.79 0 0 1 5.46 5.88 18.37 18.37 0 0 1 1.45 6.48 12.68 12.68 0 0 1-.55 4.26 25.32 25.32 0 0 1-1.71 4.12 19.41 19.41 0 0 1-3.67 4.78 19 19 0 0 1-5 3.33 9.82 9.82 0 0 1-2.23.62 6.33 6.33 0 0 0-2.76 1 2.66 2.66 0 0 0-.44.63A2.56 2.56 0 0 1 20.7 44h-.17a2.27 2.27 0 0 1-2.14-1.48 1.67 1.67 0 0 0-.82-.89 18.87 18.87 0 0 1-10.18-2.34A14.59 14.59 0 0 1 0 27a18.5 18.5 0 0 1 2.68-10 10.74 10.74 0 0 1 5.41-4.33 16.61 16.61 0 0 1 7.59-.6z"/><path class="cls-2" d="M13.92 41s12.31 1.09 11.49-5.47"/><path class="cls-3" d="M15.53 13.14a.51.51 0 0 1-.41-.58.5.5 0 0 1 .58-.4 10 10 0 0 1 6.56 4.09 19.24 19.24 0 0 1 3.1 8.44.5.5 0 0 1-1 .16 18.25 18.25 0 0 0-2.91-8 9.08 9.08 0 0 0-5.92-3.71zM25 35.48a.5.5 0 0 1 .49-.51.5.5 0 0 1 .51.49 5 5 0 0 1-2.46 4.66c-1.63 1-4.1 1.57-7.49 1.6a.5.5 0 0 1 0-1c3.2 0 5.5-.52 7-1.44a4.09 4.09 0 0 0 1.95-3.8z"/><path class="cls-3" d="M15.68 12.07a23.58 23.58 0 0 1 8-2 15 15 0 0 1 7.79 1.49 11.79 11.79 0 0 1 5.46 5.88 18.37 18.37 0 0 1 1.45 6.48 12.68 12.68 0 0 1-.55 4.26 25.32 25.32 0 0 1-1.71 4.12 19.41 19.41 0 0 1-3.67 4.78 19 19 0 0 1-5 3.33 9.82 9.82 0 0 1-2.23.62 6.33 6.33 0 0 0-2.76 1 2.66 2.66 0 0 0-.44.63A2.56 2.56 0 0 1 20.7 44h-.17a2.27 2.27 0 0 1-2.14-1.48 1.67 1.67 0 0 0-.82-.89 18.87 18.87 0 0 1-10.18-2.34A14.59 14.59 0 0 1 0 27a18.5 18.5 0 0 1 2.68-10 10.74 10.74 0 0 1 5.41-4.33 16.61 16.61 0 0 1 7.56-.65zm8.05-1A22.46 22.46 0 0 0 16 13h-.26a15.6 15.6 0 0 0-7.23.58 9.77 9.77 0 0 0-4.91 3.91A17.55 17.55 0 0 0 1 27a13.67 13.67 0 0 0 1.93 6.61 14 14 0 0 0 4.95 4.82 18 18 0 0 0 9.73 2.23h.15a2.39 2.39 0 0 1 1.49 1.38c.26.45.52.91 1.2 1a2.39 2.39 0 0 0 .69-.86 2.67 2.67 0 0 1 .73-.94A7 7 0 0 1 25 40.07a9 9 0 0 0 2-.54 17.6 17.6 0 0 0 8.19-7.69 23.87 23.87 0 0 0 1.63-3.93 11.57 11.57 0 0 0 .57-3.91A17.54 17.54 0 0 0 36 17.86a10.92 10.92 0 0 0-5-5.41 14.12 14.12 0 0 0-7.27-1.37z"/><path class="cls-4" d="M19.94 5.29C20.48 3 23.9.5 23.9.5L25.54 2c-5.06 1.91-5.33 12.44-5.33 12.44l-2-.95c-.4-2.99.79-5.49 1.73-8.2z"/><path class="cls-5" d="M20.07 7.48s-9.3 5.06-13.95-4.11c0 0 6.84-6.43 14.09 2.46z"/></g></g></svg>