<svg xmlns="http://www.w3.org/2000/svg" viewBox="0 0 50.32 28.85"><defs><style>.cls-1,.cls-2,.cls-4,.cls-5,.cls-6{stroke:#231f20;stroke-width:1px}.cls-1,.cls-2,.cls-3,.cls-4,.cls-5,.cls-6,.cls-7{fill-rule:evenodd}.cls-1{fill:url(#GradientFill_22)}.cls-2{fill:url(#GradientFill_23)}.cls-3{fill:#fff}.cls-4{fill:#939598}.cls-5{fill:#d6cc70}.cls-6{fill:#fffcd5}.cls-7{fill:#231f20}</style><radialGradient id="GradientFill_22" cx="35.03" cy="8.85" r="19.87" gradientUnits="userSpaceOnUse"><stop offset="0" stop-color="#3e7b96"/><stop offset="1" stop-color="#485e88"/></radialGradient><radialGradient id="GradientFill_23" cx="30.74" cy="19.11" r="10.63" gradientUnits="userSpaceOnUse"><stop offset="0" stop-color="#6d6e71"/><stop offset="1" stop-color="#58595b"/></radialGradient></defs><title>Asset 73</title><g id="Layer_2" data-name="Layer 2"><g id="Layer_1-2" data-name="Layer 1"><path class="cls-1" d="M11.72 17l-2.3-6.19S-3.28 8.3 1.63 4.46c8.14-6.37 70.61-5.84 39.64 7.43L38.44 17s4.6 3.9 2.3 6.73S28 29.59 15.61 27.82 3.58 19 11.72 17z"/><path class="cls-2" d="M11.72 17l-.16-.41 12.63-1.46 14.53 1.36-.28.51s4.6 3.9 2.3 6.73S28 29.59 15.61 27.82 3.58 19 11.72 17z"/><path class="cls-3" d="M9.42 10.83s17.16-5.66 31.85 1.06z"/><path class="cls-4" d="M9.42 10.83s17.16-5.66 31.85 1.06l-2.69 5.21-26.7-.23z"/><path class="cls-5" d="M23.57 17.11l-4.29-2.48V9.68l4.29-2.48 4.29 2.48v4.95l-4.29 2.48z"/><path class="cls-6" d="M25.16 12.51a1.77 1.77 0 0 1-1.77 1.77 1.77 1.77 0 0 1-1.77-1.77V12a1.77 1.77 0 0 1 1.77-1.77A1.77 1.77 0 0 1 25.16 12z"/><path class="cls-7" d="M8.89 19.85s-1.42 5.85 9.55 6.2c0 0-9.02-1.42-9.55-6.2z"/></g></g></svg>