<svg xmlns="http://www.w3.org/2000/svg" xmlns:xlink="http://www.w3.org/1999/xlink" viewBox="0 0 50.46 57.43"><defs><style>.cls-1,.cls-3,.cls-4,.cls-5,.cls-7{stroke:#231f20}.cls-1,.cls-3,.cls-4,.cls-5{stroke-width:1px}.cls-1,.cls-2,.cls-3,.cls-4,.cls-5,.cls-6,.cls-7{fill-rule:evenodd}.cls-1{fill:url(#GradientFill_9)}.cls-2,.cls-7{fill:#fff}.cls-3{fill:url(#GradientFill_14)}.cls-4{fill:url(#GradientFill_14-2)}.cls-5{fill:url(#GradientFill_9-2)}.cls-6{fill:#231f20}.cls-7{stroke-width:.35px}</style><radialGradient id="GradientFill_9" cx="7.62" cy="8.13" r="9.76" gradientUnits="userSpaceOnUse"><stop offset="0" stop-color="#fff"/><stop offset="1" stop-color="#e6e7e8"/></radialGradient><radialGradient id="GradientFill_14" cx="37.79" cy="36.95" r="12.69" gradientUnits="userSpaceOnUse"><stop offset="0" stop-color="#e6e7e8"/><stop offset="1" stop-color="#d1d3d4"/></radialGradient><radialGradient id="GradientFill_14-2" cx="13.86" cy="38.82" r="12.64" xlink:href="#GradientFill_14"/><radialGradient id="GradientFill_9-2" cx="35.12" cy="17.43" r="39.68" xlink:href="#GradientFill_9"/></defs><title>Asset 75</title><g id="Layer_2" data-name="Layer 2"><g id="Layer_1-2" data-name="Layer 1"><path class="cls-1" d="M9.24 12.82c-1.76 4.53-4.76 7.59-6.71 6.83s-2.09-5-.32-9.56S7 2.5 8.91 3.26s2.09 5.04.33 9.56z"/><path class="cls-2" d="M28.9 33.34c2.1 2.66 2.81 4.25 7.33 5.86a1.35 1.35 0 0 1 .26.15 5.54 5.54 0 0 0-2.14 3.87 5.07 5.07 0 0 0 1.83 4.9c-.93.63-2.55 1.87-2.44 2.81.14 1.32 4.83 1.76 5.86-1.76a15.77 15.77 0 0 0 .4-1.64 5.76 5.76 0 0 0 1.58-3.41 5.43 5.43 0 0 0-1.21-4.38v-.83c0-3.81-2.34-2.93-2.49-6.74z"/><path class="cls-3" d="M37.84 32.17q-4.7-2.55-8.94 1.17c2.1 2.66 2.81 4.25 7.33 5.86a1.35 1.35 0 0 1 .26.15 5.54 5.54 0 0 0-2.14 3.87 5.07 5.07 0 0 0 1.83 4.9c-.93.63-2.55 1.87-2.44 2.81.14 1.32 4.83 1.76 5.86-1.76a15.77 15.77 0 0 0 .4-1.64 5.76 5.76 0 0 0 1.58-3.41 5.43 5.43 0 0 0-1.21-4.38v-.83C40.33 35.1 38 36 37.84 32.17z"/><path class="cls-2" d="M9.85 32.46c.17 1.15.52 5.93.65 7.4a6.6 6.6 0 0 0-3 5.16c-.29 2.72.8 5.16 2.55 6.15s-3.22.88-2.63 2.94 6 .87 6.15-2.5v-.47A6.62 6.62 0 0 0 16.64 46a6.57 6.57 0 0 0-2-5.79c.24-1.67.53-3.27.86-4.61z"/><path class="cls-4" d="M15.48 35.6l-5.63-3.14c.17 1.15.52 5.93.65 7.4a6.6 6.6 0 0 0-3 5.16c-.29 2.72.8 5.16 2.55 6.15s-3.22.88-2.63 2.94 6 .87 6.15-2.5a4.09 4.09 0 0 1 0-.47A6.62 6.62 0 0 0 16.64 46a6.57 6.57 0 0 0-2-5.79c.22-1.67.51-3.27.84-4.61z"/><path class="cls-2" d="M48.69 41.35v-.83c0-3.81-2.35-2.93-2.49-6.74-.14-3.64 4.25-10.75-.58-16.36a11.25 11.25 0 0 0 .22-5.35 4.87 4.87 0 0 0 1.88-5.16c-.55-2.65-2.83-4.42-5.09-3.91S39 6 39.54 8.62c.52 2.5 2.58 4.22 4.71 4a11.13 11.13 0 0 1-.48 3.11c-4.31-3-9.76-1.05-11.32 2.17a16.53 16.53 0 0 0-10-3.52c-.2-2.53-1.33-5.76-4.86-9 .9-1.61.89-3.51-2.95-4.57-7-1.92-24.09 5.83-6.43 8.37-.73 1.94-2.25 4.77-5.14 5.7 0 0-.3 1.91 2.05 2.2a8.62 8.62 0 0 0 1.71.05c-1.93 3-3.35 6.83-2 10.65a14.9 14.9 0 0 0 11.33 9.89c.17 1.15.34 2.49.46 4a6.62 6.62 0 0 0-3 5.16c-.29 2.72.79 5.16 2.55 6.15s-3.23.88-2.64 2.93 6 .88 6.16-2.49v-.47a6.62 6.62 0 0 0 3.1-5.2 6.54 6.54 0 0 0-2-5.79c.25-1.66.54-3.26.86-4.6a11.81 11.81 0 0 0 2.58-1.09c4.4-2.49 6-4.36 9.09-4.83 1.9-.3 1.9.88 4 3.51s2.82 4.26 7.33 5.87a.68.68 0 0 1 .26.15 5.46 5.46 0 0 0-2.13 3.86 5 5 0 0 0 1.83 4.9c-.94.63-2.55 1.87-2.45 2.81.15 1.32 4.84 1.76 5.87-1.76.15-.52.26-1.07.37-1.64a5.82 5.82 0 0 0 1.58-3.4 5.44 5.44 0 0 0-1.29-4.39z"/><path class="cls-5" d="M48.69 41.35v-.83c0-3.81-2.35-2.93-2.49-6.74-.14-3.64 4.25-10.75-.58-16.36a11.25 11.25 0 0 0 .22-5.35 4.87 4.87 0 0 0 1.88-5.16c-.55-2.65-2.83-4.42-5.09-3.91S39 6 39.54 8.62c.52 2.5 2.58 4.22 4.71 4a11.13 11.13 0 0 1-.48 3.11c-4.31-3-9.76-1.05-11.32 2.17a16.53 16.53 0 0 0-10-3.52c-.2-2.53-1.33-5.76-4.86-9 .9-1.61.89-3.51-2.95-4.57-7-1.92-24.09 5.83-6.43 8.37-.73 1.94-2.25 4.77-5.14 5.7 0 0-.3 1.91 2.05 2.2a8.62 8.62 0 0 0 1.71.05c-1.93 3-3.35 6.83-2 10.65a14.9 14.9 0 0 0 11.33 9.89c.17 1.15.34 2.49.46 4a6.62 6.62 0 0 0-3 5.16c-.29 2.72.79 5.16 2.55 6.15s-3.23.88-2.64 2.93 6 .88 6.16-2.49v-.47a6.62 6.62 0 0 0 3.1-5.2 6.54 6.54 0 0 0-2-5.79c.25-1.66.54-3.26.86-4.6a11.81 11.81 0 0 0 2.58-1.09c4.4-2.49 6-4.36 9.09-4.83 1.9-.3 1.9.88 4 3.51s2.82 4.26 7.33 5.87a.68.68 0 0 1 .26.15 5.46 5.46 0 0 0-2.13 3.86 5 5 0 0 0 1.83 4.9c-.94.63-2.55 1.87-2.45 2.81.15 1.32 4.84 1.76 5.87-1.76.15-.52.26-1.07.37-1.64a5.82 5.82 0 0 0 1.58-3.4 5.44 5.44 0 0 0-1.29-4.39z"/><path class="cls-6" d="M22.07 15.67s-.43 3.32-2.23 3.85-5.37-3.41-5.35-9.28A11.73 11.73 0 0 0 16.55 19c3.06 4.15 6.09.27 5.52-3.33zm-16.81-.5c0 .68-.72 1.22-1.61 1.22S2 15.85 2 15.17 2.76 14 3.65 14s1.61.5 1.61 1.17z"/><path class="cls-6" d="M4.53 16.23s5.4 1.06 7.31-2.1c0 0 .16 3.11-5.08 3.31z"/><path class="cls-7" d="M12 12.16a1.51 1.51 0 0 1-2 .6 1.47 1.47 0 0 1-.13-2.07 1.52 1.52 0 0 1 2-.61 1.47 1.47 0 0 1 .13 2.08z"/><path class="cls-6" d="M10.67 10.24a1.64 1.64 0 0 0-.94.74 1.34 1.34 0 0 0 .27 1.87 1.39 1.39 0 0 0 1.8-.66 1.34 1.34 0 0 0-.26-1.87 1 1 0 0 0-.27-.1zM9.14 9S14 9.42 16 6.72c0 0-.6 3.75-6.86 2.28zm24.69 21s2.69-5.9-.83-10.3a7.05 7.05 0 0 1 .83 10.3z"/></g></g></svg>