<svg xmlns="http://www.w3.org/2000/svg" viewBox="0 0 75.51 47.15"><defs><style>.cls-1{fill:#fff}.cls-1,.cls-2,.cls-3{fill-rule:evenodd}.cls-2{fill:#ca6c38;stroke:#231f20;stroke-linecap:round;stroke-linejoin:round;stroke-width:1px}.cls-3{fill:#231f20}</style></defs><title>Asset 6</title><g id="Layer_2" data-name="Layer 2"><g id="Layer_1-2" data-name="Layer 1"><path class="cls-1" d="M45.74 8.55s-.85 8.1-11.14 8.84c-3 .21-2.65-2.68-2.58-5.45l.1-.28c1.07-3.24 11-8.59 7.26-10.57s3.11 1.18-7.14 5.78a4.92 4.92 0 0 0-5.65 4.57c-.8 5.35-7.16 5.4-5.41 10.73 1.19 2.88-.43-3.3 4-4.66a13.84 13.84 0 0 0 3.88-1.77 25.25 25.25 0 0 0-.75 6.49c-5.21 4.8-14.24 2.27-14.24 2.27C.84 34.37.5 46.65.5 46.65c9.14-13.35 24-7.67 24-7.67 4.47-2.76 10.34-2.17 12.89-1.72a8.9 8.9 0 0 0 1 1.54s-1.89 2.88-.72 3.55S39.5 40 39.5 40s.82 2.83 2.26 3.05-.85-3.12-.85-3.12 2.88 2.13 3.21.78c.37-1.52-4.3-2.53-4.3-2.53a6.67 6.67 0 0 1 .36-3.42c.34 1.16 1.48 2.77 5 3.66C50.54 39.77 47.6 42 47.6 42s5.78-3-2.49-5.33c-4.45-1.23-3.71-3.63-2.7-5.12a10.63 10.63 0 0 0 6.14 2.07s.42 4.17 1.69 4 .33-2.68.33-2.68 4.67 3.41 3.76 1.1a7.34 7.34 0 0 0-3.1-2.37c1.61.48 4.68 1.24 3.72-.37s-4.88-1.52-4.88-1.52 1.36-9.4 8.71-11.45c0 0 2.72-14.86 16.22-16.79 0 .02-10.46-4.72-29.26 5.01z"/><path class="cls-2" d="M45.74 8.55s-.85 8.1-11.14 8.84c-3 .21-2.65-2.68-2.58-5.45l.1-.28c1.07-3.24 11-8.59 7.26-10.57s3.11 1.18-7.14 5.78a4.92 4.92 0 0 0-5.65 4.57c-.8 5.35-7.16 5.4-5.41 10.73 1.19 2.88-.43-3.3 4-4.66a13.84 13.84 0 0 0 3.88-1.77 25.25 25.25 0 0 0-.75 6.49c-5.21 4.8-14.24 2.27-14.24 2.27C.84 34.37.5 46.65.5 46.65c9.14-13.35 24-7.67 24-7.67 4.47-2.76 10.34-2.17 12.89-1.72a8.9 8.9 0 0 0 1 1.54s-1.89 2.88-.72 3.55S39.5 40 39.5 40s.82 2.83 2.26 3.05-.85-3.12-.85-3.12 2.88 2.13 3.21.78c.37-1.52-4.3-2.53-4.3-2.53a6.67 6.67 0 0 1 .36-3.42c.34 1.16 1.48 2.77 5 3.66C50.54 39.77 47.6 42 47.6 42s5.78-3-2.49-5.33c-4.45-1.23-3.71-3.63-2.7-5.12a10.63 10.63 0 0 0 6.14 2.07s.42 4.17 1.69 4 .33-2.68.33-2.68 4.67 3.41 3.76 1.1a7.34 7.34 0 0 0-3.1-2.37c1.61.48 4.68 1.24 3.72-.37s-4.88-1.52-4.88-1.52 1.36-9.4 8.71-11.45c0 0 2.72-14.86 16.22-16.79 0 .02-10.46-4.72-29.26 5.01z"/><path class="cls-3" d="M26.69 16.6s3.45-1.4 3.07-3.33a2.24 2.24 0 0 1-1 3.3zM29 18.42s-2.35 9.18 7.69 14c0 0-8.24-1.88-8.69-10zm-1.67 7.38A13.73 13.73 0 0 1 16 26.91s4.37 5.69 7.35 8.16c0 0-6.54-5.22-8-7.82 0 0-5.87 2.07-11.7 13.61 0 0 3.75-11 11.88-14.76-.07 0 6.96 2.11 11.8-.3zm9.23-6.1s9.15-1.08 11.86-9.07a51 51 0 0 1 7.29 8.1 29.77 29.77 0 0 0-6.6-8.51 43.54 43.54 0 0 1 16.55-5.49s-7.88-.4-18 5c-.04.04.08 5.84-11.1 9.97zm-7.2-9.76a1.33 1.33 0 0 0-.43.81 1 1 0 0 0 .64 1.25c.45.07.9-.37 1-1a1 1 0 0 0-.64-1.25h-.14z"/></g></g></svg>