<svg xmlns="http://www.w3.org/2000/svg" viewBox="0 0 39.11 52.48"><defs><style>.cls-1,.cls-6{fill:#fff}.cls-1,.cls-10,.cls-11,.cls-12,.cls-13,.cls-2,.cls-3,.cls-4,.cls-5,.cls-6,.cls-7,.cls-8,.cls-9{fill-rule:evenodd}.cls-2{fill:#e67329}.cls-11,.cls-13,.cls-2,.cls-3,.cls-4,.cls-6,.cls-8,.cls-9{stroke:#231f20}.cls-11,.cls-13,.cls-2,.cls-3,.cls-4,.cls-6,.cls-9{stroke-linejoin:round;stroke-width:1px}.cls-10,.cls-3{fill:#f58220}.cls-4{fill:url(#GradientFill_5)}.cls-5{fill:#231f20}.cls-11,.cls-6{stroke-linecap:round}.cls-7{fill:#e6e7e8}.cls-11,.cls-13,.cls-8{fill:none}.cls-8{stroke-width:.5px}.cls-9{fill:url(#GradientFill_6)}.cls-12{fill:url(#GradientFill_9)}</style><radialGradient id="GradientFill_5" cx="27.18" cy="14" r="31.05" gradientUnits="userSpaceOnUse"><stop offset="0" stop-color="#41606f"/><stop offset="1" stop-color="#001522"/></radialGradient><radialGradient id="GradientFill_6" cx="24.52" cy="6.36" r="4.86" gradientUnits="userSpaceOnUse"><stop offset="0" stop-color="#6c8896"/><stop offset="1" stop-color="#314d5a"/></radialGradient><radialGradient id="GradientFill_9" cx="34.75" cy="25.38" r="18.24" gradientUnits="userSpaceOnUse"><stop offset="0" stop-color="#fff"/><stop offset="1" stop-color="#e6e7e8"/></radialGradient></defs><title>Asset 84</title><g id="Layer_2" data-name="Layer 2"><g id="Layer_1-2" data-name="Layer 1"><path class="cls-1" d="M29 41.13s-3.12 3.87-1.64 6.66a7.79 7.79 0 0 1 5.55 1.66 4.31 4.31 0 0 0-2.94.79s-5.76-.74-4.11-1.76c0 0-2.67-4.76-1.56-7.25z"/><path class="cls-2" d="M24.3 41.23l4.72-.1s-3.14 3.87-1.66 6.66a7.79 7.79 0 0 1 5.55 1.66 4.31 4.31 0 0 0-2.94.79s-5.76-.74-4.11-1.76c0 0-2.67-4.76-1.56-7.25z"/><path class="cls-1" d="M25.46 41.55s-3 4.84-1.92 7.34c0 0 3.49.18 5.53 1.58A6.2 6.2 0 0 0 25.46 52s-5.54-.16-3.58-1.8c0 0-2.77-4.72-1.66-7.21z"/><path class="cls-3" d="M20.22 43l5.24-1.42s-3 4.84-1.92 7.34c0 0 3.49.18 5.53 1.58a6.2 6.2 0 0 0-3.61 1.5s-5.54-.16-3.58-1.8c0-.02-2.77-4.74-1.66-7.2z"/><path class="cls-1" d="M23.59 3.94a9 9 0 0 0-7.43 6.48s1.12-.93 3.34.19a10.07 10.07 0 0 0 7.32.56z"/><path class="cls-3" d="M26.82 11.17l-3.23-7.23a9 9 0 0 0-7.43 6.48s1.12-.93 3.34.19a10.07 10.07 0 0 0 7.32.56z"/><path class="cls-1" d="M23.55 17.31A44.21 44.21 0 0 0 12 36s-6 1.73-6.32 3.77c0 0-6.85-1-4.8.72a29.9 29.9 0 0 0 19 4.91c9.66-1 23.89-7.74 16.81-27.39a9.71 9.71 0 0 1-.44-4.68C37.72 4.74 33.66 0 29 .54c-3.19.37-5.8 2.36-5.8 5.28a5.23 5.23 0 0 0 3.07 4.66 9 9 0 0 1-2.72 6.83z"/><path class="cls-4" d="M23.55 17.31A44.21 44.21 0 0 0 12 36s-6 1.73-6.32 3.77c0 0-6.85-1-4.8.72a29.9 29.9 0 0 0 19 4.91c9.66-1 23.89-7.74 16.81-27.39a9.71 9.71 0 0 1-.44-4.68C37.72 4.74 33.66 0 29 .54c-3.19.37-5.8 2.36-5.8 5.28a5.23 5.23 0 0 0 3.07 4.66 9 9 0 0 1-2.72 6.83z"/><path class="cls-5" d="M27.92 22.17s-19.24 10.27-10.06 17c0 0-1.58 2.57-9.64 1.78 0 0 7.89 1.94 11.5-2.54a2.25 2.25 0 0 1-2.63-.41c-2.4-2.39-2.69-7.53 10.83-15.83z"/><path class="cls-6" d="M26.07 13.34l.29-2.69c-2.47-1.13-4-3.75-2.24-7.51 0 0 5.53-3.84 11.57 1.83 0 .03 1.31 9.95-9.62 8.37z"/><path class="cls-7" d="M26.07 13.34l.29-2.69a5.21 5.21 0 0 1-2.44-2.19c1.66-1.59 3.12.13 4.94.79a8.35 8.35 0 0 0 3.59.81 6 6 0 0 0 2.61-.51c-.99 2.36-3.37 4.6-8.99 3.79z"/><path class="cls-1" d="M28.65 5.23A1.57 1.57 0 0 1 27.32 7 1.57 1.57 0 0 1 26 5.23a1.57 1.57 0 0 1 1.32-1.74 1.57 1.57 0 0 1 1.33 1.74z"/><path class="cls-8" d="M28.65 5.23A1.57 1.57 0 0 1 27.32 7 1.57 1.57 0 0 1 26 5.23a1.57 1.57 0 0 1 1.32-1.74 1.57 1.57 0 0 1 1.33 1.74z"/><path class="cls-5" d="M27.6 4a1.14 1.14 0 0 0-.45-.1A1.27 1.27 0 0 0 26 5.29a1.19 1.19 0 1 0 2.35 0 1.53 1.53 0 0 0-.27-.85zm-4.9 46.26a6.72 6.72 0 0 0 2.85.76 3.7 3.7 0 0 1-2.85-.76zm3.91.06a6.91 6.91 0 0 0-2.92-.45 3.71 3.71 0 0 1 2.92.45z"/><path class="cls-9" d="M26.23 10.91c-5-2.81-2.75-6.75-2.75-6.75-2 .55-4.07 5-2.3 7a6.89 6.89 0 0 0 5.05-.25z"/><path class="cls-10" d="M26.08 10.51a5.15 5.15 0 0 1-2.16-2c1.18-1.14 2.27-.58 3.46.07a2.3 2.3 0 0 1-1.3 1.93z"/><path class="cls-11" d="M26.07 13.34l.29-2.69c-2.47-1.13-4-3.75-2.24-7.51 0 0 5.53-3.84 11.57 1.83 0 .03 1.31 9.95-9.62 8.37z"/><path class="cls-5" d="M30.67 49.12a6.8 6.8 0 0 0-2.92-.46 3.73 3.73 0 0 1 2.92.46zm2.02-20.6S27.49 34 21 35c0 0 5.47.58 11.69-6.48z"/><path class="cls-12" d="M19.33 45.44h.56c9.66-1 23.89-7.74 16.81-27.39a8.74 8.74 0 0 1-.34-1.23l-1.51 3-1.3 1.52L35.61 23v1.83l-1.45 2.9v1.47L31.42 36l-4.73 5.33-7.4 4.12z"/><path class="cls-13" d="M23.55 17.31A44.21 44.21 0 0 0 12 36s-6 1.73-6.32 3.77c0 0-6.85-1-4.8.72a29.9 29.9 0 0 0 19 4.91c9.66-1 23.89-7.74 16.81-27.39a9.71 9.71 0 0 1-.44-4.68C37.72 4.74 33.66 0 29 .54c-3.19.37-5.8 2.36-5.8 5.28a5.23 5.23 0 0 0 3.07 4.66 9 9 0 0 1-2.72 6.83z"/><path class="cls-11" d="M36.16 15.58a10.25 10.25 0 0 1-2.68 5.83s4.44.72.68 6.25c0 0 .22 12-15.16 17.79"/></g></g></svg>