<svg xmlns="http://www.w3.org/2000/svg" viewBox="0 0 39.68 30.43"><defs><style>.cls-1{fill:#fff}.cls-1,.cls-2,.cls-3,.cls-4{fill-rule:evenodd}.cls-2,.cls-4{stroke:#231f20}.cls-2{stroke-width:1px;fill:url(#GradientFill_50)}.cls-3{fill:#231f20}.cls-4{fill:none;stroke-linecap:round;stroke-width:.5px}</style><radialGradient id="GradientFill_50" cx="27.58" cy="9.33" r="21.01" gradientUnits="userSpaceOnUse"><stop offset="0" stop-color="#fad5e5"/><stop offset="1" stop-color="#f6adcd"/></radialGradient></defs><title>Asset 16</title><g id="Layer_2" data-name="Layer 2"><g id="Layer_1-2" data-name="Layer 1"><path class="cls-1" d="M34.25 7.71a9.79 9.79 0 0 1-5.32 2.44c-.17-.29-.35-.57-.55-.85 1.09-1.41 3.29-4.56-1.24-1.45a12.6 12.6 0 0 0-1.1-1c.8-1.65 2.17-4.92-1.55-1.07a13.42 13.42 0 0 0-1.25-.65c.39-1.64 1.29-6.1-1.87-.69a14 14 0 0 0-1.61-.4c0-1.27 0-7.24-2.08-.23h-1.83c-1.83-6.11-2-1.38-2 .27a13.86 13.86 0 0 0-1.74.45c-2.88-4.85-2.19-1-1.79.71-.46.22-.89.47-1.32.73-3.47-3.51-2.27-.54-1.48 1.12a12.18 12.18 0 0 0-1.11 1C2 5.12 4.14 8.2 5.23 9.61a11.11 11.11 0 0 0-.8 1.39c-4.25-1.52-2 .54-.63 1.68a10.67 10.67 0 0 0-.35 1.68c-5.71.23-1.66 1.5 0 1.94a9.71 9.71 0 0 0 .35 1.95c-1.37 1.14-3.2 2.93.6 1.61a10.09 10.09 0 0 0 .86 1.49c-1.1 1.45-2.85 4.1 1.13 1.42a11.71 11.71 0 0 0 1.21 1.12c-.78 1.66-1.73 4.2 1.43 1a14 14 0 0 0 1.43.78c-.4 1.8-.91 5.05 1.72.67a15.83 15.83 0 0 0 1.86.48c0 1.77.22 5.87 1.94.23h.94c.32 0 .79 0 1.17-.05 1.54 4.87 1.8 1.59 1.84-.25a14.72 14.72 0 0 0 2-.54c2.37 3.86 2 1.12 1.63-.67a12.64 12.64 0 0 0 1.53-.87c2.87 2.83 2.1.62 1.36-1a13 13 0 0 0 1.23-1.23c3.79 2.53 2.17 0 1.09-1.42a10.39 10.39 0 0 0 .81-1.55c3.81 1.31 1.94-.5.57-1.64a10 10 0 0 0 .27-2A12.93 12.93 0 0 1 34.25 17c4.56 2.46 4.93-2.47 4.93-4.94 0-3.89-1.51-7.38-4.93-4.35z"/><path class="cls-2" d="M34.25 7.71a9.79 9.79 0 0 1-5.32 2.44c-.17-.29-.35-.57-.55-.85 1.09-1.41 3.29-4.56-1.24-1.45a12.6 12.6 0 0 0-1.1-1c.8-1.65 2.17-4.92-1.55-1.07a13.42 13.42 0 0 0-1.25-.65c.39-1.64 1.29-6.1-1.87-.69a14 14 0 0 0-1.61-.4c0-1.27 0-7.24-2.08-.23h-1.83c-1.83-6.11-2-1.38-2 .27a13.86 13.86 0 0 0-1.74.45c-2.88-4.85-2.19-1-1.79.71-.46.22-.89.47-1.32.73-3.47-3.51-2.27-.54-1.48 1.12a12.18 12.18 0 0 0-1.11 1C2 5.12 4.14 8.2 5.23 9.61a11.11 11.11 0 0 0-.8 1.39c-4.25-1.52-2 .54-.63 1.68a10.67 10.67 0 0 0-.35 1.68c-5.71.23-1.66 1.5 0 1.94a9.71 9.71 0 0 0 .35 1.95c-1.37 1.14-3.2 2.93.6 1.61a10.09 10.09 0 0 0 .86 1.49c-1.1 1.45-2.85 4.1 1.13 1.42a11.71 11.71 0 0 0 1.21 1.12c-.78 1.66-1.73 4.2 1.43 1a14 14 0 0 0 1.43.78c-.4 1.8-.91 5.05 1.72.67a15.83 15.83 0 0 0 1.86.48c0 1.77.22 5.87 1.94.23h.94c.32 0 .79 0 1.17-.05 1.54 4.87 1.8 1.59 1.84-.25a14.72 14.72 0 0 0 2-.54c2.37 3.86 2 1.12 1.63-.67a12.64 12.64 0 0 0 1.53-.87c2.87 2.83 2.1.62 1.36-1a13 13 0 0 0 1.23-1.23c3.79 2.53 2.17 0 1.09-1.42a10.39 10.39 0 0 0 .81-1.55c3.81 1.31 1.94-.5.57-1.64a10 10 0 0 0 .27-2A12.93 12.93 0 0 1 34.25 17c4.56 2.46 4.93-2.47 4.93-4.94 0-3.89-1.51-7.38-4.93-4.35z"/><path class="cls-3" d="M31.81 10.68A7.7 7.7 0 0 0 36.55 8s-.55 3.63-4.74 2.68zm-.15 3.91a16.69 16.69 0 0 1 5.1 1.9 4.21 4.21 0 0 0-5.1-1.9zm.42-2.86s3.88.22 5.21-1.3c0 0-.29 2.88-5.21 1.3zm.08 1.53s3.9 0 5.17 1.77c0-.03.42-2.62-5.17-1.77z"/><path class="cls-1" d="M10.38 11.32c0 1.08-.59 1.95-1.32 1.95s-1.33-.87-1.33-1.95.6-2 1.33-2 1.32.92 1.32 2z"/><path class="cls-4" d="M10.38 11.32c0 1.08-.59 1.95-1.32 1.95s-1.33-.87-1.33-1.95.6-2 1.33-2 1.32.92 1.32 2z"/><path class="cls-3" d="M9.25 9.92a.8.8 0 0 0-.4-.11c-.58 0-1.06.69-1.06 1.54s.48 1.54 1.06 1.54 1.07-.69 1.07-1.54a1.86 1.86 0 0 0-.25-1z"/><path class="cls-1" d="M16.92 11.51c0 1-.58 1.89-1.29 1.89s-1.3-.85-1.3-1.89.58-1.88 1.3-1.88 1.29.84 1.29 1.88z"/><path class="cls-4" d="M16.92 11.51c0 1-.58 1.89-1.29 1.89s-1.3-.85-1.3-1.89.58-1.88 1.3-1.88 1.29.84 1.29 1.88z"/><path class="cls-3" d="M15.75 10.16a.72.72 0 0 0-.37-.11c-.56 0-1 .65-1 1.45s.45 1.46 1 1.46 1-.65 1-1.46a1.89 1.89 0 0 0-.23-.91zm-5.89 8.72s.13-1.5 2.5-.75c.87.27 1.63-.72 2.63.75 0 0-.07 1.12-2.82 1-1.31-.06-1.89-.19-2.31-1zm10.59-1.66c5.37 6.83 7.81 2.25 7.51-3.81s-8 .88-8 .88 7.51-7.9 8.49-2.24c1.17 6.8-2.45 14.35-8 5.17z"/><path class="cls-3" d="M22.12 17.2a6 6 0 0 1 3.79 2.67 2.92 2.92 0 0 0-3.79-2.67zm.08-3.73a12.89 12.89 0 0 0 4.32-1.65 3.42 3.42 0 0 1-4.32 1.65zm.2 2.74s3.22-.09 4.24 1.39c0 0-.09-2.75-4.24-1.39zm.14-1.46s3.23.1 4.37-1.52c0 0 .21 2.5-4.37 1.52zM18.2 6.87s3.91-3.8 1.8 1.57c0 0 1.33-3.44-1.8-1.57zm-5.2 0s-.29-5.76 2.73-.09c.03 0-2.21-3.32-2.73.09zm7.71 12.94s-1.15 5.65-2.67-.58c-.04 0 1.35 3.77 2.67.58zM7.72 18.33s-5.34 2.19-1-2.55c0 0-2.39 3.22 1 2.55zM21.51 8.25s5.59-1.41.62 2.66c0 0 2.87-2.85-.62-2.66zm-13.46 12s-1.17 5.56 2.54.68c0 0-2.34 2.54-2.54-.68zm5.76 1.26s2 5.76 2.54-.38c0 0-.78 3.51-2.54.38zm-3.03.98s-.09 6.35 2.54.49c0 .02-2.15 3.42-2.54-.49zm8.98 1.27s4.1 3.91 1.66-1.76c0 0 1.17 3.52-1.66 1.76z"/></g></g></svg>