<svg xmlns="http://www.w3.org/2000/svg" viewBox="0 0 39.73 48.8"><defs><style>.cls-1{fill:#fff}.cls-1,.cls-2,.cls-3,.cls-4,.cls-5,.cls-6,.cls-7{fill-rule:evenodd}.cls-2{fill:#dddcd4}.cls-2,.cls-3,.cls-6{stroke:#231f20;stroke-width:1px}.cls-3,.cls-5{fill:#e7e6dd}.cls-4{fill:url(#GradientFill_4)}.cls-6{fill:none;stroke-linecap:round;stroke-linejoin:round}.cls-7{fill:#231f20}</style><radialGradient id="GradientFill_4" cx="14.64" cy="34.08" r="5.57" gradientUnits="userSpaceOnUse"><stop offset="0" stop-color="#fff"/><stop offset="1" stop-color="#fef3f7"/></radialGradient></defs><title>Asset 76</title><g id="Layer_2" data-name="Layer 2"><g id="Layer_1-2" data-name="Layer 1"><path class="cls-1" d="M32.69 37.86a6.52 6.52 0 0 0 6.38-5.81c1.48-8.55-8-6.84-8-6.84s2.05 4.67 1.71 5.59c0 0-1.82-6.27-3-2.17z"/><path class="cls-2" d="M29.84 28.63l2.85 9.23a6.52 6.52 0 0 0 6.38-5.81c1.48-8.55-8-6.84-8-6.84s2.05 4.67 1.71 5.59c.02 0-1.78-6.27-2.94-2.17z"/><path class="cls-1" d="M18.24 5.43c7.61 7.59 28.9 31 12.74 35.4.31.45 3 3.53-4.56 3.87 0 0-5.13.46-2.85-1.82.05-.05-14.09 2.37-13.87-.14.19-2.25 2.82-1.8 4-3.38 0 0-8.47-.86-6.89-13.56z"/><path class="cls-2" d="M3.19 27.5l5.48 3.17a13 13 0 0 1-1 6.76c-1.51 3 .24 4.21-1 5.32 0 0-1.32 1.58-5.09.64C0 43 3.19 40.61 3.19 40.61a6.41 6.41 0 0 1 1.5-2.55 30.67 30.67 0 0 1-1.5-10.56z"/><path class="cls-3" d="M6.83 25.8L18.24 5.43c7.61 7.59 28.9 31 12.74 35.4.31.45 3 3.53-4.56 3.87 0 0-5.13.46-2.85-1.82 0 0-14.09 2.37-13.87-.14.19-2.25 2.82-1.8 4-3.38.02 0-8.45-.86-6.87-13.56z"/><path class="cls-4" d="M7.19 32.09c2.06-1 3 .29 4.37.44 1.66.19 3.08 1.07 4.84.48 0 1.22.47 2.09.47 3.35 0 .69.48 1.23.55 1.84a2.48 2.48 0 0 0 .27.68c.08.16 0 .65.14.68a30.08 30.08 0 0 1-3.6-.24c-5.23-.66-6.98-7.09-7.04-7.23z"/><path class="cls-1" d="M23.21 27a8.24 8.24 0 0 1-.32 4c-.72 1.59 1 1.32-.87 6.91a14.85 14.85 0 0 0-.48 7.55s2.75 2.27.48 2.7c-2.94.56-5.65-.55-4.77-2.7s.62-4.87.24-7c-.72-4-.88-5.88-.88-5.88-3.49 2.54-5.24-1.75-8.74-.87S2 26.13 2 26.13a13.22 13.22 0 0 1-.85-9.81c.62-1.69-.15-3.23.15-4s.5-.73-.15-3.77S2.22 2.83 5.57 2.1a2.07 2.07 0 0 0 1.27-.93 7 7 0 0 1 4.78-.42 9.11 9.11 0 0 1 3.88.42l1 .93c4.44 3.45 4 7.36 4 7.36z"/><path class="cls-5" d="M20.58 9.46L23.21 27a8.24 8.24 0 0 1-.32 4c-.72 1.59 1 1.32-.87 6.91a14.85 14.85 0 0 0-.48 7.55s2.75 2.27.48 2.7c-2.94.56-5.65-.55-4.77-2.7s.62-4.87.24-7c-.72-4-.88-5.88-.88-5.88-3.49 2.54-5.24-1.75-8.74-.87S2 26.13 2 26.13a13.22 13.22 0 0 1-.85-9.81c.62-1.69-.15-3.23.15-4s.5-.73-.15-3.77S2.22 2.83 5.57 2.1a2.07 2.07 0 0 0 1.27-.93 7 7 0 0 1 4.78-.42 9.11 9.11 0 0 1 3.88.42l1 .93c4.5 3.45 4.08 7.36 4.08 7.36z"/><path class="cls-6" d="M23.21 27a8.24 8.24 0 0 1-.32 4c-.72 1.59 1 1.32-.87 6.91a14.85 14.85 0 0 0-.48 7.55s2.75 2.27.48 2.7c-2.94.56-5.65-.55-4.77-2.7s.62-4.87.24-7c-.72-4-.88-5.88-.88-5.88-3.49 2.54-5.24-1.75-8.74-.87S2 26.13 2 26.13a13.22 13.22 0 0 1-.85-9.81c.62-1.69-.15-3.23.15-4s.5-.73-.15-3.77S2.22 2.83 5.57 2.1a2.07 2.07 0 0 0 1.27-.93 7 7 0 0 1 4.78-.42 9.11 9.11 0 0 1 3.88.42l1 .93c4.44 3.45 4 7.36 4 7.36"/><path class="cls-1" d="M5 8.62a1.77 1.77 0 0 1 1.47.73c-.66.48-2.4 1.91-2.29 2.1a1.5 1.5 0 0 1-.9-1.32A1.63 1.63 0 0 1 5 8.62zm8.1 1.04h3.27l1.11.61.07.56-.19.61-.56.63-.97.17-2.03-1.41-.7-1.17z"/><path class="cls-7" d="M12.88 20.44s4.15-1.31 4-3.08-3.48-4.12-5.11-6.61-2.94-1.09-3.89-.28-5.59 4.64-4 6.76C6.69 21 10 20.18 10.46 22.1a5.56 5.56 0 0 1 2.42-1.66z"/><path class="cls-1" d="M14.34 16a.84.84 0 0 1 1.11.48c.4.86.12 1.4-1.22 1.86s-1.84-3.14-3.89-3.77c-1-.31-.5-2.39-.5-2.39s-.5 1.7-1.35 2.16c-1.59.85-3.32 2.61-2.38 3.38a4.61 4.61 0 0 1 2.54-3 1.64 1.64 0 0 1 2.07.69c.81 1.27 2 4.26 4.3 3.11 1.9-1.02.28-3.33-.68-2.52z"/><path class="cls-1" d="M11.49 18.36s-1.11 2.69-3.42-.11a2.56 2.56 0 0 0 1.61 1.57 2.25 2.25 0 0 1-1-.27s1.12 1.12 2 .5a2 2 0 0 0 .81-1.69zM7.21 14S6.63 14 6 15.11a2.09 2.09 0 0 1-2 .77c-.19-.08.81 1.15 2-.47S7.21 14 7.21 14zm.05-1.14a5.79 5.79 0 0 0-2.61 1.93s2.11-1.66 2.61-1.93zM11 10.67s-.27-.57-.5-.07-.34 1.57 0 1.38 1-1.46.2-.73c-.01 0-.01-.62.3-.58zm-1.91 1.45s.85-2.66-.34-1.66a.51.51 0 0 1 .27.66s-.31-.39-.54 0 .38.03.61 1zm.84-2.18a9.76 9.76 0 0 1-.11 2 3.45 3.45 0 0 1 .11-2z"/><path class="cls-7" d="M13.68 5.79s-.46-.46-1 .39-1.22 2.63 2.16 5S17 15.44 17 16.09a3.67 3.67 0 0 0-1.49-3.28c-1.73-1.16-4.09-3.52-3.62-5.4s1.49-2.16 1.79-1.62zm-7.8.12s1.61-1.12 2.42-.62a1.53 1.53 0 0 1-.23 2.77C4.93 9.83 3.53 11 3.38 13.4a8 8 0 0 1 3.27-4C9 8.06 9.92 6.87 9 5.71a1.92 1.92 0 0 0-3.12.2zM17.8 8.6s.5-.85-1.16-1.77-2-2.85-3.65-2c0 0 .91-.48 1.81.65 1.34 1.69 3.2 1.81 3 3.12zM12.49 4a1.25 1.25 0 0 1-.81.49c-.61.16-2.46 1-1.73 2.73a2 2 0 0 1 1.2-2.26c1.57-.71 1.34-.96 1.34-.96z"/><path class="cls-7" d="M11.53 3.29s-.5-.31-1 .35-2.15-1-3-.23S3.49 6 3 7.75s.77 2.73-.27 3.88a2.5 2.5 0 0 0 .15-2C2.5 8.25 2 7.21 7.3 3.29c1.3-1 2.42.57 3.12 0 1.15-.84 1.11 0 1.11 0zm1.08 5.81s.81.92 1 0 .07-2.27.92-2 .3 2.61 1.19 2.35 4.14 1.11.81 2c0 0 1.18-.65.61-1.07-1.92-1.44-3.53.72-4.53-1.28z"/><path class="cls-7" d="M6.42 9.33s-.34-.81.58-2.42c.76-1.27-.85-.54-1.66.34a1.47 1.47 0 0 1-2 .23s1 1.16 1.92.77c0 0-2.11-.19-2.23 1.12.04 0 1.08-1.12 3.39-.04z"/><path class="cls-7" d="M6 9.37a2.87 2.87 0 0 0-2.23 0s-.12.53.72.73c0 0 .35-1.66.54-.08-.03-.02.62.31.97-.65zm11.26.84a3.72 3.72 0 0 0-2.73.16 1.05 1.05 0 0 0 1.08.76s.46-1.8.61 0a1.17 1.17 0 0 0 1.04-.92z"/><path class="cls-7" d="M17.64 10.6s-.53 2.69-3.42.8l.89.73s2.23 1.16 2.53-1.53zm-12.8.11a.86.86 0 0 1-1.42.16s.46 1.53 1.42-.16zm10.58-9.34c-.17-1.12.78.82 4.06 1.43 1.39.25 3.67 1.29 3.63 2.5s-1.51 6-.82 6.66-.95 1.6-3-5c-1.21-4.03-3.7-4.46-3.87-5.59zM7 1.18s-.89-.54-2 .65S1 1.68.34 4 .24 8.47.11 9.48c-.23 1.81 1 .27 1.35-1.46.45-2.57 2-3.42 3.42-4.84s2.12-2 2.12-2zM20.74 15.1s.16 2.22-4.21 5.24c-3.08 2.13-1.51 4.45-4.92 2.78s-4.06.56-6-3.09c0 0 .32 3.17 4 2.94s2.3 3.46 6.12-1.12c2.39-2.85 5.81-3.97 5.01-6.75z"/><path class="cls-7" d="M23.29 20.42a5.85 5.85 0 0 0-1.67 3.5c-.24 2.22-4.13 1.67-7.71 4.45s-4.61 1-6.67-.87A9.44 9.44 0 0 0 3 25.19a10 10 0 0 1 4 2.62c1.27 1.67 4.08 4 7.31.64 2.78-2.86 6.51-1.19 7.23-3.5s.95-3.33 1.75-4.53zM22 27.34a10.68 10.68 0 0 1-4.14 4.37A7.12 7.12 0 0 0 22 27.34zm3.28-9.2s1.37 4.34-1 7.19c-.03 0 3.85-2.17 1-7.19zm3.42 5.7s2.39 2.4-.34 5.25-3.65 3.42-3.88 5.13c0 0 1.94-3.31 4.11-4.56s2.73-4.66.11-5.82z"/><path class="cls-6" d="M23.21 27a8.24 8.24 0 0 1-.32 4c-.72 1.59 1 1.32-.87 6.91a14.85 14.85 0 0 0-.48 7.55s2.75 2.27.48 2.7c-2.94.56-5.65-.55-4.77-2.7s.62-4.87.24-7c-.72-4-.88-5.88-.88-5.88-3.49 2.54-5.24-1.75-8.74-.87S2 26.13 2 26.13a13.22 13.22 0 0 1-.85-9.81c.62-1.69-.15-3.23.15-4s.5-.73-.15-3.77S2.22 2.83 5.57 2.1a2.07 2.07 0 0 0 1.27-.93 7 7 0 0 1 4.78-.42 9.11 9.11 0 0 1 3.88.42l1 .93c4.44 3.45 4 7.36 4 7.36"/></g></g></svg>