<svg xmlns="http://www.w3.org/2000/svg" viewBox="0 0 49.44 49.5"><defs><style>.cls-1,.cls-2{stroke:#231f20;stroke-width:1px}.cls-1,.cls-2,.cls-3{fill-rule:evenodd}.cls-1{fill:url(#GradientFill_30)}.cls-2{fill:#00a651;stroke-linejoin:round}.cls-3{fill:#231f20}</style><radialGradient id="GradientFill_30" cx="34.41" cy="18.25" r="32.47" gradientUnits="userSpaceOnUse"><stop offset="0" stop-color="#faa74a"/><stop offset="1" stop-color="#f58220"/></radialGradient></defs><title>Asset 12</title><g id="Layer_2" data-name="Layer 2"><g id="Layer_1-2" data-name="Layer 1"><path class="cls-1" d="M8.79 13.9c.84-3.37 8.4-6.73 10.26-5.72.95-1.91 8.88-3.62 11.46-1.49 4-3.72 14.1 3.42 17.17 13s0 16.56-3.88 20.38c-10.1 9.79-23 9.26-26.95 8.64-5.42-.84-11.94-4.73-15-14.32S.94 14 8.79 13.9z"/><path class="cls-2" d="M21.38 13.1c1.33-.23-2.28-6.23.58-10.41s-5-1.48-5.63.78 3.72 9.85 5.05 9.63z"/><path class="cls-3" d="M32.24 12s8.5 8.92 6.85 21.38c0 0 4.46-12.71-6.85-21.38zM17.56 40.54a31 31 0 0 1-6.86-21.37s-4.46 12.71 6.86 21.37zm6.26-21.74s7.1 7.86 6.08 21.66c0 0-1.9-14.15-6.08-21.66z"/></g></g></svg>