<svg xmlns="http://www.w3.org/2000/svg" viewBox="0 0 35.96 54.87"><defs><style>.cls-1{fill:#e6e7e8}.cls-1,.cls-2,.cls-4,.cls-5,.cls-7{stroke:#231f20}.cls-1,.cls-2,.cls-4,.cls-5{stroke-width:1px}.cls-1,.cls-2,.cls-3,.cls-4,.cls-5,.cls-6,.cls-7{fill-rule:evenodd}.cls-2{fill:#fff9ae}.cls-3{fill:#231f20}.cls-4{stroke-linecap:round;stroke-linejoin:round;fill:url(#GradientFill_7)}.cls-5{fill:#fff}.cls-6{fill:#ed1c24}.cls-7{fill:none;stroke-miterlimit:2.61;stroke-width:1px}</style><radialGradient id="GradientFill_7" cx="27.28" cy="10.21" r="25" gradientUnits="userSpaceOnUse"><stop offset="0" stop-color="#ed1c24"/><stop offset="1" stop-color="#ba131a"/></radialGradient></defs><title>Asset 86</title><g id="Layer_2" data-name="Layer 2"><g id="Layer_1-2" data-name="Layer 1"><path class="cls-1" d="M25.17 38.93l-2.51-19.56.34-7.91-8.37-4.14-3.45.79-.47 1.89-1.64.15s-.39.31 1.11 1.46.11 1.27-.81 3.81-1.27 6 3.12 12.34A2.43 2.43 0 0 0 14 31s-.11.8 3.35 1.38 2.19 2.54 5.19 3.92a11 11 0 0 0 2.63 2.63z"/><path class="cls-2" d="M8.68 5.6S.84 6.41.61 7.1l1.26.69S1.64 9.41 10.75 10c0 0-.23-2 1.16-2.08 0 0 2.62-.25-1.5-2.31a4.21 4.21 0 0 0-1.73-.01z"/><path class="cls-3" d="M8.68 6.29s1.61-.34 1.5.35-1.5-.35-1.5-.35z"/><path class="cls-4" d="M28.05 13.56C22.57 10.18 15.6 8.1 9.37 5.37c0 0 .81-5.3 8.19-4.84 0 0-.92.34-.92.69A7.41 7.41 0 0 1 24 2.37s-.92.12-1 .58c0 0 5.65 1 3.92 3s2.77.69.69 3.57L25.4 8.6a6.45 6.45 0 0 1 2.65 5s5.77 2.88 4.85 13.49c0 0 2.65 6 1.15 8.31 0 0 1.27 3.46.81 3.92S33 36.17 33 36.17s.47 2.07-.11 2.3-7.38-5.76-7.38-5.76a4.34 4.34 0 0 1-4-1.39c-1.85-2-12.57-10.49-11.19-15.22s2.77-3.69 5.08-3.23 7.23-2.31 12.65.69z"/><path class="cls-1" d="M30.59 37l-7-4.38s3.46 14.88 6 19.15S32 53.81 32 53.81s.86 1.11 1.26-.23c0 0 3.46 1.73 1.73-2S29.78 38.93 30.59 37z"/><path class="cls-5" d="M15 6.18a1.29 1.29 0 0 1-1.41 1.12 1.29 1.29 0 0 1-1.41-1.12 1.29 1.29 0 0 1 1.41-1.12A1.29 1.29 0 0 1 15 6.18z"/><path class="cls-3" d="M14 5.15a1 1 0 0 0-1 .74 2.69 2.69 0 0 0 1.17.39 2.37 2.37 0 0 1-1.17.15 1 1 0 1 0 1-1.28z"/><path class="cls-3" d="M14.73 5.4a11 11 0 0 1 5.66-.23s-2-1-6.06.06zM22 2s-3.2-1-7.53 1.87C14.5 3.82 18.07.7 22 2zM11.9 5.8a5.11 5.11 0 0 1 2.83-4.25A4.55 4.55 0 0 0 11.9 5.8zm.17-3.8a5 5 0 0 0-.45 3.91s-1.14-1.47.45-3.91zm3.51 2a11.24 11.24 0 0 1 10.07 1.51A10.31 10.31 0 0 0 15.58 4zM15 6.19a2.16 2.16 0 0 1 2.29.68c.79 1.13 3.12.23 3.12.23s-1.53 1.53-2.83.79a2.55 2.55 0 0 0 2 .62 2.56 2.56 0 0 0-1.19.85c-.34.57-1.42-1.13-.91.34 0 0 .23 1.36-.39.68s-1.65-3-5.78-2.26c0 0 1.59-.12 1.36-1 .02.03 2.01.42 2.33-.93zm7 .96a8.52 8.52 0 0 1 2.86 1.25A3.7 3.7 0 0 0 22 7.15zM11.33 10.1s0 .78.58.62l.16-.06s.45 1.48 1.81 1.19c0 0-1.08.68-1.92-.9.04.05-1.31.17-.63-.85zM1.6 7.61s7.13.73 9.17.22c0 0-.85.74-8.83.12zm25.52 11.26s4.81 8.32 3 7.92c0 0-.73 2.27-2.37 1.76 0 0-1.7 1.41-3.06.05a2.28 2.28 0 0 0 3-.68s1.24 1.08 2-1.47c-.02 0 2.07 1.55-2.57-7.58z"/><path class="cls-3" d="M14.11 15.08s.22 1.53 1.41 1c0 0-.34 1.47.79 1.92 0 0-.22 2.55 1.93 2.78 0 0 4 7.58 7.41 5.2 0 0-1.81 3.06-6.45-3.17A11.26 11.26 0 0 1 18.12 21s-2.26-.05-2.15-2.83c0 0-1.24-.62-.73-1.75 0-.04-1.36.19-1.13-1.34zM31.2 26.57s1.13 3.28.05 3.9S28.82 29 28.82 29s1 2.66 2.66 1.7-.28-4.13-.28-4.13zm-2.55 3.96s2.6 3.45 3.62 1.58c0 0-.11 3-3.62-1.58z"/><path class="cls-3" d="M33 30.19s.39 4.19-1 4.24l-.06.23s1.8.51 1.06-4.47zm-5.93-.57s3.05 5.6 5 3.85c-.02 0-2.34 2.15-5-3.85zM11.45 15.59s.05 1.81 1.13.39c0 0-.11 1.14-.85.68a.71.71 0 0 1-.28-1.07zM10.66 18s1.18 1.53 2.09-.57c0 .02-.51 3.19-2.09.57zm3.56-.49s.79 1-.06 1.53a.78.78 0 0 1-1.16-.45s.29 1.52 1.42.68-.2-1.76-.2-1.76zm-1.92 2.43s1.07 1.25 1.58-.11c0 0-.17 2.17-1.58.11zm2.49.51a1.47 1.47 0 0 0 2 1.31s-1.95 1.3-2-1.31zm2.09 2.72s-.91 1.36-1.76-.34c0 0 .57 2.26 1.65 1 0 0 .56 1.76 1.52.74 0-.04-1.01.52-1.41-1.4zm1.19 2.32s1.13 2.66 2.32.85c0 0 .39.85 1.41-.06 0 0-.39 1.25-1.35.4 0 0-.97 2.04-2.38-1.19zm1.87 3.45s0 1 1.18.34c0 0 .23 1.08 1.53.23a1.17 1.17 0 0 0 1.93-.51s-.79 1.47-2.21-.11c0 0-.34 1.47-1.36-.17-.01 0-.45.96-1.07.22zm5.14.68s3.29 4 4.65 4.47c0 0-1.59-.09-4.65-4.47z"/><path class="cls-3" d="M23.33 29.74a18.52 18.52 0 0 0 3.45 3s-3.22-1.74-4.13-3.23zm-1.24 2.03a6.32 6.32 0 0 0 .45 3.68 5 5 0 0 1-.74-3.73zm-9.17-5.32a7.7 7.7 0 0 0 .9 3.45s-1.13-.67-.9-3.45zm.85.06s.68 3.68 2.71 5.09c0 0-2.32-.85-2.71-5.09zm3.68 1.98a3.26 3.26 0 0 0 .55 3.17s-1.57-.85-.55-3.17zm.67 1.02a4.9 4.9 0 0 0 1.65 3.05 3.8 3.8 0 0 1-1.65-3.05zm10.81-8.66a1.08 1.08 0 0 0 1.64-.28s-.45 1.53-1.64.28z"/><path class="cls-6" d="M25.4 39.82c.26 1 .53 1.93.82 2.92a3.56 3.56 0 0 1 .66-.24c1.51-.32 3.13.19 4.42-.54-.21-.73-.39-1.41-.53-2a1.87 1.87 0 0 1-.93.37 14.12 14.12 0 0 1-4.44-.51zm1.42 4.66c.26.92.25 1.2.54 2.16a5 5 0 0 1 .65-.29c1.52-.46 3.13-.09 4.42-.93-.21-.7-.62-1.6-.76-2.22-.26.19-.34.65-.69.68-1.4.12-2.83.95-4.16.6zm1.53 3.92c.24.93.24 1.21.51 2.17a3.08 3.08 0 0 1 .62-.29c1.43-.47 3-.1 4.19-.94-.2-.7-.59-1.6-.72-2.22-.25.19-.33.65-.66.68-1.29.12-2.68.95-3.94.6z"/><path class="cls-3" d="M24.75 22.72s3.16 4.07 4.58 2.66c0 0-1.02 2.32-4.58-2.66zm5.43.96a1.8 1.8 0 0 0 2.21.57 1.36 1.36 0 0 1-2.21-.57zm.06-1.92s1.24 1.81 2 .73c.03 0-.59 1.64-2-.73zm-9.68-2.66s-.17 2.2 2.77 1.92c0-.02-3.06 1.19-2.77-1.92zm.51 4.69s2.49 1.87 3.84.17c0 .04-.67 2.27-3.84-.17zm4.35 1.08a4.69 4.69 0 0 0 2 2.54s-1.37.4-2-2.54zM16.65 18s2.78.91 3.8-1.3c0 .02-.4 2.96-3.8 1.3zm12.74 16.43s1.24 1.25 2.37.4c0 0 .51 2.38-.79 1.58 0 0 .74 0 .57-1a1.78 1.78 0 0 1-2.15-.98zm3.85 19.15a47.61 47.61 0 0 1-4.87-16.32s-.74 5 4.64 16.53z"/><path class="cls-3" d="M26.22 39.47a2.43 2.43 0 0 0 2.26 0l.23 1.07a1.72 1.72 0 0 0-1.13 0c-.58.23-1.25.57-1.36-1.07zm4.1-.16s-.4.7-1.65.43l.11 1.11a1 1 0 0 1 .82-.22c.47.12 1.05.37.72-1.32zm.34 1.98s-.4.7-1.65.43l.11 1.11a1 1 0 0 1 .82-.22c.47.12 1.06.33.72-1.32zm.5 1.98s-.39.7-1.64.43l.11 1.11a.94.94 0 0 1 .82-.21c.47.11 1.05.32.71-1.33zm.55 1.53s-.34.79-1.78.81l.28 1.08a1.27 1.27 0 0 1 .89-.41c.54.01 1.22.09.61-1.48zm.66 2.2s-.25.8-1.62.88l.37 1.12a1.07 1.07 0 0 1 .81-.44c.51-.07 1.16-.03.44-1.56zm.76 1.6s-.26.9-1.79 1l.42 1.2a1.22 1.22 0 0 1 .9-.49c.57-.03 1.34.03.47-1.71zm-6.52-6.98a2.46 2.46 0 0 0 2.27 0l.22 1.07a1.71 1.71 0 0 0-1.13 0c-.56.23-1.24.57-1.36-1.07z"/><path class="cls-3" d="M27.09 44.05a2.42 2.42 0 0 0 2.23-.39l.41 1a1.68 1.68 0 0 0-1.12.19c-.51.35-1.12.8-1.52-.8zm.56 2.04a2.41 2.41 0 0 0 2.23-.4l.41 1a1.69 1.69 0 0 0-1.11.2c-.52.34-1.13.8-1.53-.8zm.74 2.04a2.41 2.41 0 0 0 2.23-.4l.41 1a1.71 1.71 0 0 0-1.12.2c-.51.34-1.12.79-1.52-.8zm.79 1.81a2.41 2.41 0 0 0 2.23-.4l.41 1a1.68 1.68 0 0 0-1.11.2c-.52.34-1.13.8-1.53-.8zm1.11 1.69c.46 1.76 1 1.93 1.93 1 0 .02-1.31.7-1.93-1zm2.15-.56s.34-.74.74.4.85-.63.85-.63 0 2.14-.8 1.08a3.31 3.31 0 0 0-.79-.85z"/><path class="cls-3" d="M33 52.09s1.25 1.92 1.53.22c0 0 .28.85-.23 1s-1.07-.54-1.3-1.22zM24.41 36.3s1.3-.4 1.69.62 1.42 1.81 2.27.79c0 0 1 1.25 2.09.46 0 0 .57-1.42-.45-1.59 0 0-4.17-3.56-4.49-3.87a9.05 9.05 0 0 1-1.57.08s-.51-.51-.28.4z"/><path class="cls-7" d="M30.59 37l-7-4.38s3.46 14.88 6 19.15S32 53.81 32 53.81s.86 1.11 1.26-.23c0 0 3.46 1.73 1.73-2S29.78 38.93 30.59 37z"/></g></g></svg>