<svg xmlns="http://www.w3.org/2000/svg" xmlns:xlink="http://www.w3.org/1999/xlink" viewBox="0 0 48.33 55.09"><defs><style>.cls-1,.cls-10{fill:#231f20}.cls-1{stroke:#ed1651;stroke-miterlimit:2.61;stroke-width:.5px}.cls-1,.cls-10,.cls-11,.cls-2,.cls-3,.cls-4,.cls-5,.cls-6,.cls-7,.cls-8,.cls-9{fill-rule:evenodd}.cls-2{fill:url(#GradientFill_24)}.cls-3{fill:url(#GradientFill_24-2)}.cls-4{fill:url(#GradientFill_24-3)}.cls-5{fill:url(#GradientFill_24-4)}.cls-6{fill:#fff}.cls-7{fill:#fff685}.cls-11,.cls-7,.cls-8,.cls-9{stroke:#231f20}.cls-7,.cls-8,.cls-9{stroke-width:1px}.cls-8{fill:#f58345}.cls-9{fill:#faa74a}.cls-11{fill:none;stroke-width:.62px}</style><radialGradient id="GradientFill_24" cx="9.67" cy="45.42" r="9.49" gradientUnits="userSpaceOnUse"><stop offset="0" stop-color="#f8abad"/><stop offset="1" stop-color="#ed1651"/></radialGradient><radialGradient id="GradientFill_24-2" cx="21.81" cy="40.84" r="9.49" xlink:href="#GradientFill_24"/><radialGradient id="GradientFill_24-3" cx="33.53" cy="34.55" r="9.49" xlink:href="#GradientFill_24"/><radialGradient id="GradientFill_24-4" cx="43.65" cy="26.03" r="9.49" xlink:href="#GradientFill_24"/></defs><title>Asset 57</title><g id="Layer_2" data-name="Layer 2"><g id="Layer_1-2" data-name="Layer 1"><path class="cls-1" d="M48.08 28.52a6.92 6.92 0 0 1-6.92 6.93 6.84 6.84 0 0 1-3.74-1.1 6.93 6.93 0 0 1-11.33 7.54 6.92 6.92 0 0 1-12 6 6.93 6.93 0 1 1-1.71-4.55 6.93 6.93 0 0 1 11.87-4.85 6.76 6.76 0 0 1-.14-1.49 6.94 6.94 0 0 1 10.67-5.83 6.84 6.84 0 0 1-.55-2.69 6.93 6.93 0 0 1 13.85 0z"/><path class="cls-2" d="M7.17 54.14a6.23 6.23 0 1 1 6.24-6.23 6.23 6.23 0 0 1-6.24 6.23z"/><path class="cls-3" d="M25.55 43.33a6.23 6.23 0 1 1-6.23-6.23 6.23 6.23 0 0 1 6.23 6.23z"/><path class="cls-4" d="M37.27 37A6.23 6.23 0 1 1 31 30.81 6.23 6.23 0 0 1 37.27 37z"/><path class="cls-5" d="M47.39 28.52a6.23 6.23 0 1 1-6.23-6.23 6.23 6.23 0 0 1 6.23 6.23z"/><path class="cls-6" d="M9.68 48a2.35 2.35 0 1 1-2.35-2.35A2.35 2.35 0 0 1 9.68 48zm12.14-4.62A2.35 2.35 0 1 1 19.48 41a2.35 2.35 0 0 1 2.34 2.38zm11.72-6.28a2.35 2.35 0 1 1-2.34-2.35 2.34 2.34 0 0 1 2.34 2.35zm10.12-8.52a2.35 2.35 0 1 1-2.34-2.35 2.34 2.34 0 0 1 2.34 2.35zm-39.9 6.76s-4.81 5 0 6.29c10.12 2.66 46-18.86 28.77-22.59z"/><path class="cls-7" d="M32.53 19L3.76 35.34s-4.81 5 0 6.29C13.88 44.29 49.79 22.77 32.53 19z"/><path class="cls-6" d="M32.86 20.64c.31-7.39-2.77-23.74-11.13-19.34-4.19 2.2-5.79 2.8-4.3 14.13 0 0 .45 7.8-2.55 11.39z"/><path class="cls-8" d="M14.88 26.82l18-6.18c.29-7.39-2.79-23.74-11.15-19.34-4.19 2.2-5.79 2.8-4.3 14.13 0 0 .45 7.8-2.55 11.39z"/><path class="cls-6" d="M33.56 21.53C33.54 14.7 31-1.55 25.5.71 19.74 3.1 17.34 3.3 19.11 14c.61 3.72-3 5.76-5.06 7C4.23 26.63.94 32.67 3 36.62s9.38 1.69 19-4.28c6.36-3.91 11.56-6.34 11.56-10.81z"/><path class="cls-9" d="M33.56 21.53C33.56 14.7 31-1.55 25.5.71 19.74 3.1 17.34 3.3 19.11 14c.61 3.72-3 5.76-5.06 7C4.23 26.63.94 32.67 3 36.62s9.38 1.69 19-4.28c6.36-3.91 11.56-6.34 11.56-10.81z"/><path class="cls-10" d="M24.65 7.64a1.12 1.12 0 1 1-1.12-1.17 1.15 1.15 0 0 1 1.12 1.17zM24 11.69a1.12 1.12 0 1 1-1.12-1.17A1.14 1.14 0 0 1 24 11.69zm-.85 4.15A1.12 1.12 0 1 1 22 14.67a1.15 1.15 0 0 1 1.15 1.17z"/><path class="cls-11" d="M7.34 25.41A8.63 8.63 0 0 1 14.49 31a9.34 9.34 0 0 1 .51 5.34"/></g></g></svg>