<svg xmlns="http://www.w3.org/2000/svg" xmlns:xlink="http://www.w3.org/1999/xlink" viewBox="0 0 47.13 53.39"><defs><style>.cls-1{fill:#fff}.cls-1,.cls-10,.cls-2,.cls-3,.cls-4,.cls-5,.cls-6,.cls-7,.cls-8,.cls-9{fill-rule:evenodd}.cls-2{fill:#ffcb05}.cls-10,.cls-2,.cls-3,.cls-4,.cls-5,.cls-8{stroke:#231f20}.cls-2,.cls-3,.cls-4,.cls-5,.cls-8{stroke-linejoin:round;stroke-width:1px}.cls-3{fill:#fff9ae}.cls-4{stroke-linecap:round;fill:url(#GradientFill_7)}.cls-5{fill:url(#GradientFill_8)}.cls-6{fill:url(#GradientFill_9)}.cls-7{fill:url(#GradientFill_7-2)}.cls-10,.cls-8{fill:none}.cls-9{fill:#231f20}.cls-10{stroke-width:.5px}</style><radialGradient id="GradientFill_7" cx="41.68" cy="3.07" r="7.79" gradientUnits="userSpaceOnUse"><stop offset="0" stop-color="#ed1c24"/><stop offset="1" stop-color="#ba131a"/></radialGradient><radialGradient id="GradientFill_8" cx="30.6" cy="19.16" r="29.03" gradientUnits="userSpaceOnUse"><stop offset="0" stop-color="#fffcd5"/><stop offset="1" stop-color="#fff685"/></radialGradient><radialGradient id="GradientFill_9" cx="38.84" cy="14.18" r="17.29" gradientUnits="userSpaceOnUse"><stop offset="0" stop-color="#fff"/><stop offset="1" stop-color="#e6e7e8"/></radialGradient><radialGradient id="GradientFill_7-2" cx="42.76" cy="15.49" r="5.54" xlink:href="#GradientFill_7"/></defs><title>Asset 96</title><g id="Layer_2" data-name="Layer 2"><g id="Layer_1-2" data-name="Layer 1"><path class="cls-1" d="M30.88 45.78s.82 2 .1 3.28c0 0-2.67.31-2.56 1.23s2 .11 2 .11-1.95-.52-1.64-.11c.66.89 3.69.72 3.9.42s4.62 1.33 4.93.2-5-2-5-2a6 6 0 0 1 .2-3.19z"/><path class="cls-2" d="M32.83 45.67l-1.95.11s.82 2 .1 3.28c0 0-2.67.31-2.56 1.23s2 .11 2 .11-1.95-.52-1.64-.11c.66.89 3.69.72 3.9.42s4.62 1.33 4.93.2-5-2-5-2a6 6 0 0 1 .22-3.24z"/><path class="cls-1" d="M30.26 45.67s3.29 2.88 5.34-3.9c0 0-6.26-2.67-5.34 3.9z"/><path class="cls-3" d="M30.26 45.67s3.29 2.88 5.34-3.9c0 0-6.26-2.67-5.34 3.9z"/><path class="cls-1" d="M32.63 7.88s-3.8-1.13-2.06-3.49c1.91-2.58 4.93 0 4.93 0s-.61-3.08 1.5-3.8S39.92 4 39.92 4 42 .28 44.23 2s-.92 3.18-.92 3.18 3.8.83 3.28 4.22c-.58 3.83-2.67-1.85-3.9-.31z"/><path class="cls-4" d="M42.69 9.12L32.63 7.88s-3.8-1.13-2.06-3.49c1.91-2.58 4.93 0 4.93 0s-.61-3.08 1.5-3.8S39.92 4 39.92 4 42 .28 44.23 2s-.92 3.18-.92 3.18 3.8.83 3.28 4.22c-.59 3.86-2.67-1.82-3.9-.28z"/><path class="cls-1" d="M27.9 46.39s.82 2.06.11 3.29c0 0-4.8-.2-4.63 1.23.11.82 4.11.1 4.11.1s-1.44 1.23-1.13 1.65c.67.88 3.19-1 3.39-1.34s4.62 1.34 4.93.21-5-2.06-5-2.06a5.93 5.93 0 0 1 .2-3.18z"/><path class="cls-2" d="M29.85 46.29l-2 .1s.82 2.06.11 3.29c0 0-4.8-.2-4.63 1.23.11.82 4.11.1 4.11.1s-1.44 1.23-1.13 1.65c.67.88 3.19-1 3.39-1.34s4.62 1.34 4.93.21-5-2.06-5-2.06a5.93 5.93 0 0 1 .22-3.18z"/><path class="cls-1" d="M27.9 13c-1.54-8.94-7.41-.33-7.41-.33s-.44-4.26-2.35-5.11c-2.86-1.29-4.53 4.82-4.53 4.82S11.75 7 10.32 7.82c-1.79 1.07-1.86 5.29-1.86 5.29s-2.58-2.72-4.3-2.57c-3.52.29-.57 4.72-.57 4.72-6.16 1.58-1.21 8.18-1.21 8.18-6.38 3 9.55 11.15 9.55 11.15s4 8.31 13.51 8.1c0 0 .51 4.21 3.9 3.91 2.26-.21 2.88-4 2.88-4s9.24.42 11.29-11.4z"/><path class="cls-5" d="M43.51 31.19c-.7-1.09-4.1-2.56-5.17-5a6.32 6.32 0 0 1-6.8 2.2 23.19 23.19 0 0 1-.54-3.58 8.3 8.3 0 0 0-7.16 2.07l1.55-7.48L27.9 13c-1.54-8.94-7.41-.33-7.41-.33s-.44-4.26-2.35-5.11c-2.86-1.29-4.53 4.82-4.53 4.82S11.75 7 10.32 7.82c-1.79 1.07-1.86 5.29-1.86 5.29s-2.58-2.72-4.3-2.57c-3.52.29-.57 4.72-.57 4.72-6.16 1.58-1.21 8.18-1.21 8.18-6.38 3 9.55 11.15 9.55 11.15s4 8.31 13.51 8.1c0 0 .51 4.21 3.9 3.91 2.26-.21 2.88-4 2.88-4s9.24.4 11.29-11.41z"/><path class="cls-1" d="M43.4 20.56s4 5.6.73 11.25A8.64 8.64 0 0 0 40.84 29s-2.2-1.07-2.36-3c0 0-8.44 6.89-7.29-1.13 0 0-3.83-1.65-7.41 2.36 0 0 1.88-22.85 15.47-20.62 4.88.8 3.43 5 3.43 5s2.15.29 2.15 3.3c0 0-1.86-1.29-3-.58s-2.14-1-2.14-1-3 3.15-.86 6.16 5.3 1.47 5.87-1.15c.43-2-2.68-4-2.68-4z"/><path class="cls-6" d="M24 27.07l2.14-1.87 3.26-.65 1.58.37.09 1.68 1.02 2.24 2.7-.37 3.62-2.06 1.12 1.68 4.74 3.64.84-2.98.09-3.64-1.48-4.38.83-1.96-.09-1.68-1.95-2.79-1.4.37-1.49-1.02 1.31-1.87h1.67l.09-1.86-.93-2.24-3.72-1.02-4.92.65-3.63 3.35-2.33 3.92-1.67 3.63L24 24.64v2.43z"/><path class="cls-7" d="M39.72 13.55l1.3 1.22 1.49-.19 2.23 2.89-.47 2.42-1.67 1.4-2.14-.19-1.95-1.49-.37-3.17 1.58-2.89z"/><path class="cls-8" d="M43.4 20.56s4 5.6.73 11.25A8.64 8.64 0 0 0 40.84 29s-2.2-1.07-2.36-3c0 0-8.44 6.89-7.29-1.13 0 0-3.83-1.65-7.41 2.36 0 0 1.88-22.85 15.47-20.62 4.88.8 3.43 5 3.43 5s2.15.29 2.15 3.3c0 0-1.86-1.29-3-.58s-2.14-1-2.14-1-3 3.15-.86 6.16 5.3 1.47 5.87-1.15c.43-2-2.68-4-2.68-4"/><path class="cls-9" d="M30.84 35.64c-9.23 5.71-15-3.25-15-3.25 1.77 3.26 5.34 5.24 7.63 5.37a8.7 8.7 0 0 1-9.64-6.93C15.37 42 31 38.55 32.93 33.7a4.76 4.76 0 0 0 .37-1.56 7.16 7.16 0 0 1-2.46 3.5zM2.2 23.65S4.84 22.84 11 28c0 0-4.57-4.83-8.58-4.66zm1.11-8.22s2.08-.68 6.58 4.44c0 0-2.29-4.14-6.33-4.86zm4.12-3.02s5.24 5.23 7.37 10.05a31.15 31.15 0 0 0-6.34-9.67zm13.25.17a69.73 69.73 0 0 1-.43 10.53 74.48 74.48 0 0 0-.12-11.9zM13.31 12s.85 3 2.69 9.82a82.87 82.87 0 0 0-2.39-10z"/><path class="cls-1" d="M40.25 10.69c0 .83-.48 1.49-1.07 1.49s-1.08-.66-1.08-1.49.48-1.49 1.08-1.49 1.07.67 1.07 1.49z"/><path class="cls-10" d="M40.25 10.69c0 .83-.48 1.49-1.07 1.49s-1.08-.66-1.08-1.49.48-1.49 1.08-1.49 1.07.67 1.07 1.49z"/><path class="cls-9" d="M38.39 10.69a1.23 1.23 0 0 0 0 .19c0 .68.34 1.23.76 1.23s.76-.55.76-1.23-.34-1.23-.76-1.23a.63.63 0 0 0-.51.33z"/></g></g></svg>