<svg xmlns="http://www.w3.org/2000/svg" xmlns:xlink="http://www.w3.org/1999/xlink" viewBox="0 0 113.47 59.98"><defs><style>.cls-1,.cls-8{fill:#fff}.cls-1,.cls-10,.cls-2,.cls-3,.cls-4,.cls-5,.cls-6,.cls-7,.cls-8,.cls-9{fill-rule:evenodd}.cls-10,.cls-2,.cls-3,.cls-4,.cls-8{stroke:#231f20}.cls-10,.cls-2,.cls-3,.cls-4{stroke-linecap:round;stroke-linejoin:round;stroke-width:1px}.cls-2{fill:url(#GradientFill_2)}.cls-3{fill:url(#GradientFill_2-2)}.cls-4{fill:#d2ab67}.cls-5{fill:url(#GradientFill_3)}.cls-6{fill:url(#GradientFill_3-2)}.cls-7{fill:#231f20}.cls-8{stroke-width:.35px}.cls-9{fill:url(#GradientFill_3-3)}.cls-10{fill:none}</style><radialGradient id="GradientFill_2" cx="37.69" cy="42.73" r="14.97" gradientUnits="userSpaceOnUse"><stop offset="0" stop-color="#d2ab67"/><stop offset="1" stop-color="#a78b6b"/></radialGradient><radialGradient id="GradientFill_2-2" cx="75.2" cy="42.05" r="16.43" xlink:href="#GradientFill_2"/><radialGradient id="GradientFill_3" cx="82.74" cy="22.3" r="16.29" gradientUnits="userSpaceOnUse"><stop offset="0" stop-color="#fff"/><stop offset="1" stop-color="#f2f1e6"/></radialGradient><radialGradient id="GradientFill_3-2" cx="44.46" cy="45.25" r="10.41" xlink:href="#GradientFill_3"/><radialGradient id="GradientFill_3-3" cx="31.96" cy="18.5" r="18.28" xlink:href="#GradientFill_3"/></defs><title>Asset 74</title><g id="Layer_2" data-name="Layer 2"><g id="Layer_1-2" data-name="Layer 1"><path class="cls-1" d="M27.3 36.23C28.86 42.16 28 52 28 52s-8.4 5.37 2.11 5.84c4.81.21 5.51-2.56 4.85-5.63 1.75 2.13 2.73.11 2.35-2 2.19 1.92 3.33-.25 2.89-2.71 2.38 1.72 2.32-1.56 3-4.83z"/><path class="cls-2" d="M43.2 42.66l-15.9-6.43C28.86 42.16 28 52 28 52s-8.4 5.37 2.11 5.84c4.81.21 5.51-2.56 4.85-5.63 1.75 2.13 2.73.11 2.35-2 2.19 1.92 3.33-.25 2.89-2.71 2.37 1.71 2.31-1.57 3-4.84z"/><path class="cls-1" d="M60.77 39.18C64.88 45.35 72 48.84 72 48.84a4.4 4.4 0 0 1-2.8 5.84c-6.1 4.68 16.9 6.32 11.3-4.79-3.71-7.35-1.94-10.85-1.31-14.8z"/><path class="cls-3" d="M79.19 35.09l-18.42 4.09C64.88 45.35 72 48.84 72 48.84a4.4 4.4 0 0 1-2.8 5.84c-6.1 4.68 16.9 6.32 11.3-4.79-3.71-7.35-1.94-10.89-1.31-14.8z"/><path class="cls-1" d="M10.62 10.2S8.27 4.42 8.81 2.61s5.95 4.19 5.95 4.19z"/><path class="cls-4" d="M14.76 6.8l-4.14 3.4S8.27 4.42 8.81 2.61s5.95 4.19 5.95 4.19z"/><path class="cls-1" d="M83.07 18.58c-10.75-11-25.71 1.17-43.46-4.67a138.14 138.14 0 0 1-19.87-8.2c-5.52-7.58-5.83-4.66-5.83-4.66a38 38 0 0 0-.23 7 16.81 16.81 0 0 0-7 9.35C3.16 24.65-1.88 24 1.76 27.46c2.17 2.09 11.93-1 13.74-2.09l.51.22c3.21 1.34 4.54 3.61 5.67 3.82 0 2.42 1.61 4.2 2.74 3.72 0 .81-.32 2.75 1.95 2.58 1.13 3.23 1.93 3 2.94 3.24.73 2.93 1.69 3.93 2.6 4a27 27 0 0 1 .69 10.63s-8.41 5.42 2.1 5.88c4.81.22 5.51-2.55 4.85-5.62 1.76 2.13 2.74.11 2.35-2.05 2.2 1.92 3.33-.25 2.9-2.71 2.37 1.72 2.32-1.56 3-4.83 7.65-.25 16-2.36 21.49-4 4.1 6.16 11.21 9.66 11.21 9.66a4.54 4.54 0 0 1-2.81 5.84C71.62 60.4 93.58 62.42 88 51.29c-3.7-7.35-.9-11.2-.27-15.15C93.07 38.59 95 32.6 95 32.6c1.86 6.54 6.54-2.57 6.54-2.57C105.26 37.5 113 17.64 113 17.64c-16.21 10.07-28.45 2.46-29.93.94z"/><path class="cls-4" d="M83.07 18.58c-10.75-11-25.71 1.17-43.46-4.67a138.14 138.14 0 0 1-19.87-8.2c-5.52-7.58-5.83-4.66-5.83-4.66a38 38 0 0 0-.23 7 16.81 16.81 0 0 0-7 9.35C3.16 24.65-1.88 24 1.76 27.46c2.17 2.09 11.93-1 13.74-2.09l.51.22c3.21 1.34 4.54 3.61 5.67 3.82 0 2.42 1.61 4.2 2.74 3.72 0 .81-.32 2.75 1.95 2.58 1.13 3.23 1.93 3 2.94 3.24.73 2.93 1.69 3.93 2.6 4a27 27 0 0 1 .69 10.63s-8.41 5.42 2.1 5.88c4.81.22 5.51-2.55 4.85-5.62 1.76 2.13 2.74.11 2.35-2.05 2.2 1.92 3.33-.25 2.9-2.71 2.37 1.72 2.32-1.56 3-4.83 7.65-.25 16-2.36 21.49-4 4.1 6.16 11.21 9.66 11.21 9.66a4.54 4.54 0 0 1-2.81 5.84C71.62 60.4 93.58 62.42 88 51.29c-3.7-7.35-.9-11.2-.27-15.15C93.07 38.59 95 32.6 95 32.6c1.86 6.54 6.54-2.57 6.54-2.57C105.26 37.5 113 17.64 113 17.64c-16.21 10.07-28.45 2.46-29.93.94z"/><path class="cls-5" d="M83.07 18.58c-7.85-8-18-3.7-29.76-3.07a1.51 1.51 0 0 1-.37.25c7 1.74-.86 3.74 1.09 3.74 3.52 0 4.78 1.5 1.68 3.25-4.1 2.32.16-1.9 2 1.45 1.44 2.53-4.13 3.75-4.09 3.73 3.71-2.32 13.12 2.05 7.35 4-3.85 1.28 3.52-.61 4.57-.61 3.19 0 3 1 .85 2.53a35.73 35.73 0 0 1 4.82-.72c3.39 0 5.65 2.67 8.43 3.73.31.12-1.38-1.55 1.32-1.2 3.93.51 2.43 5 1.93.6-.2-1.77-.89-6.81 3.13-4.58 3.85 2.14 2.62 4.31 1.57-.24-2-8.66 6 2.22 3.49-1.2-3.69-5.15 2.61-2.77 4.22-2.29 1.14.34-4.21-2.46-5.78-3.86A5.93 5.93 0 0 1 88 21.27a15.17 15.17 0 0 1-4.93-2.69z"/><path class="cls-6" d="M39.72 56.35a7.53 7.53 0 0 0-.17-2.51c1.76 2.13 2.74.11 2.35-2.05 2.2 1.92 3.33-.25 2.9-2.71 2.37 1.72 2.32-1.56 3-4.83h.31c-1-.52-2.2-.76-2.88-1.85-.22-.36-1.27-2-1.32-1.81-.6 2.3 1.63 5.75-1.33 3.13a11.65 11.65 0 0 1-2.65-3.13c-1.29-3.18-.72-.88-.72 1.2a56.47 56.47 0 0 0 .6 6.51c.12 1 1.57 1.19.6 1.57-1.67.64-4.47-3.17-4.45-3.14.89 1.66 1.52 4.18 2.41 6.15a26.08 26.08 0 0 1 1.35 3.47z"/><path class="cls-7" d="M16.75 7.5s0-3-1.2-3.81c0 0-.72 4.03 1.2 3.81zM40.6 37.82a31.43 31.43 0 0 0 3.56 8 8.38 8.38 0 0 1-3.56-8zm-2.43 2.1s0 6.64 2.92 10.19c0 0-4.09-1.94-2.92-10.19zM87.41 27s3.8 1.22 3.26 6.79A10 10 0 0 0 87.41 27zm6.25 0s3.69 2.66 4.35 4.48A5.66 5.66 0 0 0 93.66 27zm-9.6 3s3.54 2.69 4.19 4.51A5.38 5.38 0 0 0 84.06 30zm-1.6 2.1s2.7 3.53 2.85 5.46a5.37 5.37 0 0 0-2.85-5.46zM56.63 18.56s-4.41.58-6.16-.25a5.39 5.39 0 0 0 6.16.25zm-1.15 1.58s-4.31 1.09-6.14.46a5.36 5.36 0 0 0 6.14-.46zm3 .86s-4.11 1.7-6 1.35a5.38 5.38 0 0 0 6-1.35zm-.24 2.77s-4.33 1-6.15.33a5.36 5.36 0 0 0 6.15-.33zM57.67 26s-4.1 1.7-6 1.35a5.36 5.36 0 0 0 6-1.35zm2.76 1.79s-4.11 1.7-6 1.35a5.38 5.38 0 0 0 6-1.35zM62.69 31s-4.11 1.7-6 1.35a5.38 5.38 0 0 0 6-1.35zm6.79.83s-4.1 1.7-6 1.35a5.38 5.38 0 0 0 6-1.35zm-.59 2.53s4.29-1.17 6.13-.58a5.38 5.38 0 0 0-6.13.58zm4.11.88s4.43.35 6 1.53a5.37 5.37 0 0 0-6-1.53zM38.75 51.36s-2.59-3.64-2.59-5.58a5.54 5.54 0 0 0 2.59 5.58zm41.32-15.91A29.69 29.69 0 0 1 84 40.08a5.69 5.69 0 0 0-3.93-4.63zm1.61 3.93s2.24 3.84 2.15 5.77a5.37 5.37 0 0 0-2.15-5.77z"/><path class="cls-8" d="M15.06 12.92c.87.16 1 .87.31 1.59a3.55 3.55 0 0 1-2.82 1c-.87-.17-1-.88-.32-1.59a3.51 3.51 0 0 1 2.83-1z"/><path class="cls-7" d="M12.64 13.84a.89.89 0 0 0-.41.86c.14.53 1.08.72 2.09.44s1.72-.93 1.57-1.45-1.08-.72-2.09-.44l-.32.11zM18 21.48s.37 2.38-4.67 4.05l1.8.36s4.7-2.16 2.87-4.41z"/><path class="cls-9" d="M44.13 15a32.46 32.46 0 0 1-4.52-1.13 149.92 149.92 0 0 1-16-6.33 19.58 19.58 0 0 1 1.3 1.68c-2.48 0-5.52-2.88-1.8.84 1.11 1.11-1.81-1.2-2.89-1.69-2-.87-2.59-.23-2.08 1.7 1.23 1.69 1.83 4.79 3.69 7.08 1.05 1.29 4.42-.66 1.6.35-2 .72-4 .59-1.06 2.13 1.74.93 2.23 1.42-.54 1.42-1.53 0 1.48 1.53 2.13 1.6.45 0-1.92-.64-1.63 1.25.53.34 1 1.19 1.38 2.79.71 3.07.15 1.11.72-1.09s3.32 5.7 3.7 6.4.87 3.81.87 2c0-4.05 2.41-3.65 2.41-.36v3.5a3.47 3.47 0 0 1 .12-1.33c.76-1.22 0-5.18 1.93-5.18 1.27 0 3.26 3 2.53 1.57s-4-7.23-.85-7.23c1.35 0 2 .8 2.77 1.44 2 1.61-1.08-1.57-1.08-3.49 0-1.71 1.12-2.13 2.89-1.93s2.28 1.8.48 0c-4.35-4.35-.21-5 4-5.9zm-29.4-6a5.76 5.76 0 0 0-.82 0 5.58 5.58 0 0 0-2.1.49 16.25 16.25 0 0 0-5.14 7.9c-2.33 4.81-5.33 6.11-6 7.47 3.59-1.32 8.66-3.05 8.9-3.43.71-1.13-3.62 1.13.35-1.07 3.06-1.68-.12-1.1-1.42-.71-.54.17-.21-.3.71-1.77s-2.12 1.74-.71 0c1.65-2 .2-5.13 3-7.1a12.44 12.44 0 0 1 3.23-1.7z"/><path class="cls-10" d="M83.07 18.58c-10.75-11-25.71 1.17-43.46-4.67a138.14 138.14 0 0 1-19.87-8.2c-5.52-7.58-5.83-4.66-5.83-4.66a38 38 0 0 0-.23 7 16.81 16.81 0 0 0-7 9.35C3.16 24.65-1.88 24 1.76 27.46c2.17 2.09 11.93-1 13.74-2.09l.51.22c3.21 1.34 4.54 3.61 5.67 3.82 0 2.42 1.61 4.2 2.74 3.72 0 .81-.32 2.75 1.95 2.58 1.13 3.23 1.93 3 2.94 3.24.73 2.93 1.69 3.93 2.6 4a27 27 0 0 1 .69 10.63s-8.41 5.42 2.1 5.88c4.81.22 5.51-2.55 4.85-5.62 1.76 2.13 2.74.11 2.35-2.05 2.2 1.92 3.33-.25 2.9-2.71 2.37 1.72 2.32-1.56 3-4.83 7.65-.25 16-2.36 21.49-4 4.1 6.16 11.21 9.66 11.21 9.66a4.54 4.54 0 0 1-2.81 5.84C71.62 60.4 93.58 62.42 88 51.29c-3.7-7.35-.9-11.2-.27-15.15C93.07 38.59 95 32.6 95 32.6c1.86 6.54 6.54-2.57 6.54-2.57C105.26 37.5 113 17.64 113 17.64c-16.21 10.07-28.45 2.46-29.93.94z"/><path class="cls-7" d="M3.9 23.91c.48 1-1.71 3.6-1.79 3.5-.75-.87-2.09-.88-2.09-2a2 2 0 0 1 2.09-2c1.15.05.98-1.12 1.79.5zM21 22.45s2.58 4.37 2.58 6.63A6.63 6.63 0 0 0 21 22.45zm12.11 5.7s2.91 3.36 3.18 5.28a5.36 5.36 0 0 0-3.18-5.28zm-.46 2.03s1.6 4.14 1.2 6a5.37 5.37 0 0 0-1.2-6zm-.01-4.74s3.69 2.47 4.46 4.25a5.38 5.38 0 0 0-4.46-4.25zm1.41-1.12s4.11 1.68 5.21 3.28a5.38 5.38 0 0 0-5.21-3.28zm1.56-2.48s3.82 2.28 4.67 4a5.38 5.38 0 0 0-4.67-4zm.84-2.01s4.3 1.13 5.6 2.57a5.38 5.38 0 0 0-5.6-2.57zm1.13-2.75s3.56.27 4.47 1.27c0 0-.94-2.35-4.47-1.27zM25.23 25s3.05 5.82 3.56 9.87A14.48 14.48 0 0 0 25.23 25zm5.02 5.21a16 16 0 0 1 .65 7.93 8.32 8.32 0 0 0-.65-7.93z"/></g></g></svg>