<svg xmlns="http://www.w3.org/2000/svg" xmlns:xlink="http://www.w3.org/1999/xlink" viewBox="0 0 65.65 28.23"><defs><style>.cls-1,.cls-11{fill:#fff}.cls-1,.cls-10,.cls-11,.cls-12,.cls-2,.cls-3,.cls-4,.cls-5,.cls-6,.cls-7,.cls-8,.cls-9{fill-rule:evenodd}.cls-2{fill:#faa74a}.cls-10,.cls-11,.cls-12,.cls-2,.cls-3,.cls-4,.cls-5,.cls-6,.cls-7,.cls-8{stroke:#231f20}.cls-10,.cls-12,.cls-2,.cls-3,.cls-4,.cls-5,.cls-6,.cls-7,.cls-8{stroke-linejoin:round}.cls-2,.cls-3{stroke-width:1px}.cls-3{fill:url(#GradientFill_42)}.cls-10,.cls-12,.cls-4,.cls-5,.cls-6,.cls-7,.cls-8{stroke-width:.75px}.cls-4{fill:url(#GradientFill_48)}.cls-5{fill:url(#GradientFill_48-2)}.cls-6{fill:url(#GradientFill_48-3)}.cls-7{fill:url(#GradientFill_48-4)}.cls-8{fill:url(#GradientFill_48-5)}.cls-9{fill:#231f20}.cls-10{fill:url(#GradientFill_48-6)}.cls-11{stroke-width:.5px}.cls-12{fill:url(#GradientFill_48-7)}</style><radialGradient id="GradientFill_42" cx="52.78" cy="5.95" r="19.35" gradientUnits="userSpaceOnUse"><stop offset="0" stop-color="#ffcb05"/><stop offset="1" stop-color="#faa74a"/></radialGradient><radialGradient id="GradientFill_48" cx="27.75" cy="2.92" r="6.96" gradientUnits="userSpaceOnUse"><stop offset="0" stop-color="#fff685"/><stop offset="1" stop-color="#ffcb05"/></radialGradient><radialGradient id="GradientFill_48-2" cx="37.97" cy="3.05" r="8.72" xlink:href="#GradientFill_48"/><radialGradient id="GradientFill_48-3" cx="45.74" cy="3.32" r="6.17" xlink:href="#GradientFill_48"/><radialGradient id="GradientFill_48-4" cx="55.18" cy="4.88" r="7.32" xlink:href="#GradientFill_48"/><radialGradient id="GradientFill_48-5" cx="58.87" cy="23.9" r="2.5" xlink:href="#GradientFill_48"/><radialGradient id="GradientFill_48-6" cx="18.45" cy="10.26" r="4.55" xlink:href="#GradientFill_48"/><radialGradient id="GradientFill_48-7" cx="63.7" cy="11.48" r="6.81" xlink:href="#GradientFill_48"/></defs><title>Asset 98</title><g id="Layer_2" data-name="Layer 2"><g id="Layer_1-2" data-name="Layer 1"><path class="cls-1" d="M8.92 5.91s-4.13-.3-7.08 1.62c-.94.61.89 1.18.89 1.18S.81 9.59.51 10.33s4.2.32 4.2.32z"/><path class="cls-2" d="M4.71 10.65l4.21-4.74s-4.13-.3-7.08 1.62c-.94.61.89 1.18.89 1.18S.81 9.59.51 10.33s4.2.32 4.2.32z"/><path class="cls-1" d="M43.63 2.46S31.88-3 18.17 4.32c-5.84-1.67-13 2.6-14.63 6.18-1.49 3.21 4.46 9.73 15.89 7.65a30.55 30.55 0 0 0 3.09.42 4.39 4.39 0 0 0 .22 1.62c-2.71 1.12-8.09 3.62-4.09 4.19 0 0-2 3.8 1.84 1.77 0 0 .84 5.3 6.21-3.51a4.54 4.54 0 0 0 3.22-2.15 4.74 4.74 0 0 0 .64-1.87 45.6 45.6 0 0 0 9.86-1.83 2.65 2.65 0 0 0 .24.4c-2.44 1.33-7.63 3.52-3.78 4.07 0 0-2 3.8 1.84 1.76 0 0 .93 5.84 7-4.89A4.64 4.64 0 0 0 48 14.4c8.62-1.87 12.69 1.73 10.62 6.59a6.75 6.75 0 0 1-4.55 3.63c-3.9 1 2.48 5.11 8.88-2.12C69.93 14.64 59.32.75 43.63 2.46z"/><path class="cls-3" d="M43.63 2.46S31.88-3 18.17 4.32c-5.84-1.67-13 2.6-14.63 6.18-1.49 3.21 4.46 9.73 15.89 7.65a30.55 30.55 0 0 0 3.09.42 4.39 4.39 0 0 0 .22 1.62c-2.71 1.12-8.09 3.62-4.09 4.19 0 0-2 3.8 1.84 1.77 0 0 .84 5.3 6.21-3.51a4.54 4.54 0 0 0 3.22-2.15 4.74 4.74 0 0 0 .64-1.87 45.6 45.6 0 0 0 9.86-1.83 2.65 2.65 0 0 0 .24.4c-2.44 1.33-7.63 3.52-3.78 4.07 0 0-2 3.8 1.84 1.76 0 0 .93 5.84 7-4.89A4.64 4.64 0 0 0 48 14.4c8.62-1.87 12.69 1.73 10.62 6.59a6.75 6.75 0 0 1-4.55 3.63c-3.9 1 2.48 5.11 8.88-2.12C69.93 14.64 59.32.75 43.63 2.46z"/><path class="cls-4" d="M26.5 1.26l-5.25 1.65c1.65.18 5.75 1.93 6.3 5.8.67 4.58 4.31-4.58-1.05-7.45z"/><path class="cls-5" d="M35.69.6l-4.86.05s4.37 1.11 2.59 5.67c-1.17 3 1.18 1.26 1.18 5.26S41 9.2 39.52 4.79A7.43 7.43 0 0 0 35.69.6z"/><path class="cls-6" d="M46.26 2.41l-2.61.23-2.44-.93s2.66 4 1.52 6.9 6.27 4.11 3.53-6.2z"/><path class="cls-7" d="M50.65 2.72C51.2 3 49.9 7 51.84 8.63s-.12 4.44-.91 5.29l3.63.17c1-2.91 3.14-3.07.66-5.39-.77-.72-.39-2.21-.13-4.42z"/><path class="cls-8" d="M56.87 23.25a8.8 8.8 0 0 1-2.78 1.37c-3.38.85 1 4.07 6.37.18-3.58.88-3.51-1.52-3.51-1.52z"/><path class="cls-9" d="M41.49 12.05s-.48 1.1 1.11 2c0 0 .43 1.79-3.65 2.86 0 0 2.27 0 1.66.66 0 0 3-1.41 2.81-3.73 0-.01-1.81-.48-1.93-1.79zm-9.68 3.06A8.89 8.89 0 0 0 31 18.6a1.12 1.12 0 0 0-.82.69s-.18-1.68 1.63-4.18z"/><path class="cls-10" d="M3.54 12.79l-.23-.95s1.51 2.13 5.26.35c4.13-2 7.12-4.57 11.28-2.18 0 0 2.18-1.47 2.37-.6.23 1.05-1.76 1.62-.7 5.1.75 2.47-5-3.91-10.65-1.3-3.87 1.79-6.65.7-7.33-.42z"/><path class="cls-11" d="M15.11 11c.53-.85 1.4-1.27 1.94-.94s.55 1.31 0 2.16-1.4 1.27-1.94.94-.53-1.28 0-2.16z"/><path class="cls-9" d="M15.7 10.91a1.53 1.53 0 0 0-.41.49 1.2 1.2 0 0 0 .24 1.6 1.2 1.2 0 0 0 1.47-.64 1.18 1.18 0 0 0-.24-1.64.85.85 0 0 0-.52-.08zM3.88 13.38s4.9 5.41 15.38 2.33c0 0-8.32 3.73-14.89-1.31zm14.73 11.89A6 6 0 0 1 21.55 22a4.9 4.9 0 0 0-3.17 2.41zM20.86 27s-.73-1.73 1.51-3.49c0 0-2.2.92-2.1 2.92zm19.39-8s-2.79 1.31-3.48 3.26l-.2-.87A5.56 5.56 0 0 1 40.25 19zm1.21.93S39.15 21.94 39 24l-.42-.78a5.52 5.52 0 0 1 2.88-3.29z"/><path class="cls-12" d="M62.44 9.66s1.71 3.84-4.22 6a3.93 3.93 0 0 1 1.24 2.62c1.57-.26 1.76 0 3.1.9 1.2.11 1.88-.85 2.49-2 .23-2.57-.83-5.08-2.61-7.52z"/></g></g></svg>