<svg xmlns="http://www.w3.org/2000/svg" viewBox="0 0 51.05 33.84"><defs><style>.cls-1,.cls-2{fill-rule:evenodd}.cls-1{stroke:#231f20;stroke-width:1px;fill:url(#GradientFill_64)}.cls-2{fill:#231f20}</style><radialGradient id="GradientFill_64" cx="25.27" cy="2.14" r="28.18" gradientUnits="userSpaceOnUse"><stop offset="0" stop-color="#f58220"/><stop offset=".3" stop-color="#fffcd5"/><stop offset=".62" stop-color="#cb90ab"/><stop offset="1" stop-color="#f8abad"/></radialGradient></defs><title>Asset 34</title><g id="Layer_2" data-name="Layer 2"><g id="Layer_1-2" data-name="Layer 1"><path class="cls-1" d="M41.47 14.21A16.42 16.42 0 1 1 22.56.73a16.41 16.41 0 0 1 18.91 13.48z"/><path class="cls-2" d="M40.19 11.6c4 .07 6.54.67 6.72 1.76.37 2.2-8.88 5.58-20.66 7.55s-21.64 1.8-22-.4c-.17-1 1.58-2.19 4.62-3.41l.29-1.49C3.31 17.68-.29 20 0 21.84c.55 3.16 12.41 3.87 26.5 1.51S51.57 16.48 51 13.29c-.33-2-5-3-11.92-2.91z"/><path class="cls-2" d="M9 17.07s2.53 2.59 15.35.73c0 0-6.39 2.25-15.81.6zm1.15-5.44s2 2.57 10.49.83c0 0-4.05 2.17-10.65.47zm30.4.16s-1 3.18-10.43 5.06c0 0 5.07.33 11.13-3.93zm-.63 10.26S37.72 26 23 26.94c0 0 7.66 1.19 17.76-3.34z"/></g></g></svg>