<svg xmlns="http://www.w3.org/2000/svg" viewBox="0 0 52.21 41.62"><defs><style>.cls-1,.cls-5{fill:#fff}.cls-1,.cls-2,.cls-3,.cls-4,.cls-5,.cls-6,.cls-7{fill-rule:evenodd}.cls-2{fill:#414042}.cls-2,.cls-3,.cls-5,.cls-7{stroke:#231f20}.cls-2,.cls-3,.cls-7{stroke-width:1px}.cls-3{fill:url(#GradientFill_80)}.cls-4{fill:#231f20}.cls-5{stroke-width:.35px}.cls-6{fill:url(#GradientFill_115)}.cls-7{fill:none}</style><radialGradient id="GradientFill_80" cx="36.35" cy="12.69" r="29.17" gradientUnits="userSpaceOnUse"><stop offset="0" stop-color="#a7a9ac"/><stop offset="1" stop-color="#6d6e71"/></radialGradient><linearGradient id="GradientFill_115" x1="31.61" y1="62.09" x2="31.61" y2="11.03" gradientUnits="userSpaceOnUse"><stop offset="0" stop-color="#414042"/><stop offset="1" stop-color="#58595b"/></linearGradient></defs><title>Asset 77</title><g id="Layer_2" data-name="Layer 2"><g id="Layer_1-2" data-name="Layer 1"><path class="cls-1" d="M37.44 31a5 5 0 0 1 .45.8c2.36 5.17-2.66 5.91-.15 7.38s5.76-.14 5.76-.14c4.73-8.13.59-5.77 1.33-8.28z"/><path class="cls-2" d="M44.83 30.79l-7.39.21a5 5 0 0 1 .45.8c2.36 5.17-2.66 5.91-.15 7.38s5.76-.14 5.76-.14c4.73-8.1.59-5.74 1.33-8.25z"/><path class="cls-1" d="M21.64 34c-.34 1.92-.41 5.27-2.67 5.53-10 1.18-5.17-1.63-4.28-4.14.23-.67 1.07-4.25 1.18-5.17z"/><path class="cls-2" d="M15.87 30.2l5.77 3.8c-.34 1.92-.41 5.27-2.67 5.53-10 1.18-5.17-1.63-4.28-4.14.23-.69 1.07-4.27 1.18-5.19z"/><path class="cls-3" d="M50.74 31.83c2.11-7.18-.06-10.58-1.37-11.89 1.08-2.15.55-5.39-.62-5.88.32-3.73-.9-4.05-1.68-3.89a3 3 0 0 0-1.41-2.55c-1.38-4.08-6.52-7.34-3.78-1.51 4.43 9.46 1.77 12.12.74 12.42-5.14 1.47-16.85.14-18.62-1.48s-4.77-6.37-5.78-7.77c-.57-4.35-2.1-11-2.65-8a18.76 18.76 0 0 1-2.79 6.12c-3.27-9.27-3.71-6-3.71-6a25.28 25.28 0 0 0-.77 6.45c-2.05.9-8.21 3.91-3.22 5.65.41.15.76.25 1.08.34A7.51 7.51 0 0 1 3 18.23C1.24 19.56.5 20.45.5 23c0 2.35 2.19 12 5.37 4.51 1.11 2.65 3.05 5 6.12 1.86.76 2 2.66 3.89 6.74 4.94a11.53 11.53 0 0 1-.5 2.43c-.88 2.51-5.76 5.32 4.29 4.14 2.26-.27 2.33-3.61 2.67-5.53 9.24.84 14.92-1.21 18.16-3.25a6 6 0 0 1 .45.8c2.36 5.17-2.66 5.91-.15 7.39s5.76-.15 5.76-.15c4.73-8.14.59-5.8 1.33-8.31z"/><path class="cls-4" d="M8.13 13.91a10.09 10.09 0 0 0 9.17-2.51s-3.49 5.98-9.17 2.51zm-1.01 6.92C7 21.62 6 22.13 4.77 22s-2.06-1-1.95-1.75S4 19 5.16 19.11s2.06.89 1.96 1.72zm6.1 1.99s.78 4.33-2.43 6.62l1.36.2a6.56 6.56 0 0 0 1.07-6.82z"/><path class="cls-5" d="M11.84 14.45a1.92 1.92 0 0 1 1.3 2.3c-.15 1.17-1 2-1.83 1.91s-1.44-1.13-1.31-2.3 1-2.02 1.84-1.91z"/><path class="cls-4" d="M12.28 15.09a1.11 1.11 0 0 0-.66-.34c-.75-.08-1.45.66-1.56 1.65a1.64 1.64 0 0 0 1.16 2c.74.08 1.44-.66 1.55-1.65a2.23 2.23 0 0 0-.16-1.11zm2.61-7.25A12.12 12.12 0 0 0 16 3.59s1 4.69-1.11 4.25z"/><path class="cls-6" d="M50.74 31.83c.06-.2.11-.4.17-.6a.31.31 0 0 1-.17-.13c-1-1.25-1.91-7.44-2.38-3.67-.8 6.5-1.23 1.22-2.58-2.18-1.56-3.95.14 9.81-1.68 5.56-.58-1.35-2.39-6.29-2.39-5.66 0 1.79-2 7.51-2 6.45 0-1.28-1.49-5.89-1.59-5.46l-1.29 6c-.38 1.75-.73-7.45-.79-6.55 0 .63-.78 8.71-1.19 6.05-1.18-7.67-.3-3.83-3-.1s-1.73-3.46-2-5c-.48-2.86-.58 1.9-1.19 3.17-3.23 6.72-1.89-.78-1.89-4 0-1-4.17 9.15-3.57 7.34a20.3 20.3 0 0 0 .8-7c0-2.24-1.13 4.42-1.19 5.06-.62 6.3 1.27-10.45-.7-2.58-2.74 11 2.09-10.33-2.08-1.68-.51 1-3.24 6.89-2.38 2.87.18-.87.25-6.14-.2-2.87-.69 4.94-2.35 3.17-5.26 2.28l-.25.13c.76 2 2.66 3.87 6.73 4.92a11.53 11.53 0 0 1-.5 2.43c-.88 2.51-5.76 5.32 4.29 4.14 2.26-.27 2.33-3.61 2.67-5.53 9.24.84 14.92-1.21 18.16-3.25a6 6 0 0 1 .45.8c2.36 5.17-2.66 5.91-.15 7.39s5.76-.15 5.76-.15c4.73-8.13.59-5.76 1.33-8.27zm-39.23-2q.21-.18.42-.39a2 2 0 0 0-.42.34z"/><path class="cls-7" d="M50.74 31.83c2.11-7.18-.06-10.58-1.37-11.89 1.08-2.15.55-5.39-.62-5.88.32-3.73-.9-4.05-1.68-3.89a3 3 0 0 0-1.41-2.55c-1.38-4.08-6.52-7.34-3.78-1.51 4.43 9.46 1.77 12.12.74 12.42-5.14 1.47-16.85.14-18.62-1.48s-4.77-6.37-5.78-7.77c-.57-4.35-2.1-11-2.65-8a18.76 18.76 0 0 1-2.79 6.12c-3.27-9.27-3.71-6-3.71-6a25.28 25.28 0 0 0-.77 6.45c-2.05.9-8.21 3.91-3.22 5.65.41.15.76.25 1.08.34A7.51 7.51 0 0 1 3 18.23C1.24 19.56.5 20.45.5 23c0 2.35 2.19 12 5.37 4.51 1.11 2.65 3.05 5 6.12 1.86.76 2 2.66 3.89 6.74 4.94a11.53 11.53 0 0 1-.5 2.43c-.88 2.51-5.76 5.32 4.29 4.14 2.26-.27 2.33-3.61 2.67-5.53 9.24.84 14.92-1.21 18.16-3.25a6 6 0 0 1 .45.8c2.36 5.17-2.66 5.91-.15 7.39s5.76-.15 5.76-.15c4.73-8.14.59-5.8 1.33-8.31z"/><path class="cls-4" d="M38.18 25.32s3.4 2.81 4.29 5a5.47 5.47 0 0 0-4.29-5zm-10.05 2.51A7.39 7.39 0 0 0 25.62 33s-1.33-3.24 2.51-5.17z"/></g></g></svg>