<svg xmlns="http://www.w3.org/2000/svg" viewBox="0 0 89.83 72.91"><defs><style>.cls-1{fill:#231f20}.cls-1,.cls-2,.cls-3,.cls-4,.cls-5,.cls-6{fill-rule:evenodd}.cls-2{fill:#a6ce39}.cls-2,.cls-3,.cls-5{stroke:#231f20;stroke-width:1px}.cls-2,.cls-5{stroke-linejoin:round}.cls-3,.cls-4{fill:#fff}.cls-5{fill:none}.cls-6{fill:url(#GradientFill_56)}</style><linearGradient id="GradientFill_56" x1="-7.7" y1="85.43" x2="86.81" y2="-9.07" gradientUnits="userSpaceOnUse"><stop offset="0" stop-color="#ba093e"/><stop offset="1" stop-color="#ed1651"/></linearGradient></defs><title>Asset 47</title><g id="Layer_2" data-name="Layer 2"><g id="Layer_1-2" data-name="Layer 1"><path class="cls-1" d="M70.36 68.07c-1.83 4.61-7.94 5.88-11.81 3S53 62.21 54.83 57.61s6.44-6 10.32-3.18 7.03 9.04 5.21 13.64z"/><path class="cls-2" d="M67.57 69c-1.46 3.68-5.57 4.51-9.19 1.85s-5.38-7.8-3.92-11.49 5.58-4.5 9.2-1.84S69 65.32 67.57 69z"/><path class="cls-3" d="M63.73 66.33c-.61 1.55-2.35 1.9-3.87.78a4.43 4.43 0 0 1-1.65-4.84c.61-1.55 2.35-1.89 3.87-.77a4.41 4.41 0 0 1 1.65 4.83z"/><path class="cls-1" d="M56.31 62s1-4.79 5.15-2.65c0-.03-4.46-3.5-5.15 2.65zM22.58 38c-1.82 4.61-7.93 5.88-11.81 3a12.06 12.06 0 0 1-3.71-13.42c1.82-4.6 6.44-6 10.32-3.18s7.03 9.04 5.2 13.6z"/><path class="cls-2" d="M19 38.72c-1.45 3.68-5.57 4.51-9.19 1.85s-5.38-7.8-3.92-11.49 5.58-4.5 9.2-1.84S20.44 35 19 38.72z"/><path class="cls-3" d="M15.14 36.05c-.61 1.55-2.35 1.9-3.87.78A4.43 4.43 0 0 1 9.62 32c.61-1.55 2.35-1.9 3.87-.77a4.41 4.41 0 0 1 1.65 4.82z"/><path class="cls-1" d="M7.72 31.69s1-4.79 5.15-2.65c0-.04-4.5-3.47-5.15 2.65zm76.96 29.15c-1.82 4.6-7.93 5.88-11.8 3S67.34 55 69.16 50.38s6.44-6 10.32-3.18 7.03 9.04 5.2 13.64z"/><path class="cls-2" d="M82.16 61.7c-1.46 3.68-5.58 4.51-9.2 1.85s-5.38-7.8-3.96-11.49 5.58-4.51 9.2-1.85S83.62 58 82.16 61.7z"/><path class="cls-3" d="M78.31 59c-.61 1.55-2.34 1.9-3.87.78A4.45 4.45 0 0 1 72.79 55c.62-1.55 2.35-1.9 3.88-.78A4.42 4.42 0 0 1 78.31 59z"/><path class="cls-1" d="M70.89 54.67S71.9 49.88 76 52c0 0-4.46-3.45-5.11 2.67z"/><path class="cls-4" d="M81.82 61.87C59.23 72 6.88 32.11 1.65 19.08c0 0-3.52-4.23 1.76-10.91s21.53-11.91 27 2.06c0 0 8.9 3.89 14 6.58 23.86 12.63 58.99 35.36 37.41 45.06z"/><path class="cls-5" d="M81.82 61.87C59.23 72 6.88 32.11 1.65 19.08c0 0-3.52-4.23 1.76-10.91s21.53-11.91 27 2.06c0 0 8.9 3.89 14 6.58 23.88 12.63 59 35.36 37.43 45.06"/><path class="cls-6" d="M82.8 60.13C60.59 69.61 8 30.06 2.61 17.35c0 0-3.55-4.16 1.57-10.54S25.3-4.37 31 9.24c0 0 8.89 3.93 14 6.62 23.8 12.62 59 35.23 37.8 44.27z"/><path class="cls-1" d="M31.51 9.5s-9.26-.19-23.42 7.93c0 0 11.15-9.4 21.75-8.22z"/><path class="cls-5" d="M82.8 60.13C60.59 69.61 8 30.06 2.61 17.35c0 0-3.55-4.16 1.57-10.54S25.3-4.37 31 9.24c0 0 8.89 3.93 14 6.62 23.8 12.62 59 35.23 37.8 44.27"/></g></g></svg>