<svg xmlns="http://www.w3.org/2000/svg" viewBox="0 0 64.67 41.45"><defs><style>.cls-1{fill:#fff}.cls-1,.cls-2,.cls-3,.cls-4,.cls-5,.cls-6,.cls-7,.cls-8{fill-rule:evenodd}.cls-2,.cls-3,.cls-5,.cls-6,.cls-7,.cls-8{stroke:#231f20}.cls-2,.cls-3,.cls-7{stroke-width:1px}.cls-2{fill:url(#GradientFill_108)}.cls-3{fill:url(#GradientFill_109)}.cls-4{fill:#231f20}.cls-5{fill:none}.cls-5,.cls-6,.cls-8{stroke-width:.75px}.cls-6{fill:#ffcb05}.cls-7{fill:url(#GradientFill_57)}.cls-8{fill:#f05b72}</style><radialGradient id="GradientFill_108" cx="45.21" cy="12.15" r="27.73" gradientUnits="userSpaceOnUse"><stop offset="0" stop-color="#ffcb05"/><stop offset="1" stop-color="#fcaf17"/></radialGradient><radialGradient id="GradientFill_109" cx="38.4" cy="18.99" r="19.4" gradientUnits="userSpaceOnUse"><stop offset="0" stop-color="#e2e9b6"/><stop offset="1" stop-color="#d2e288"/></radialGradient><radialGradient id="GradientFill_57" cx="51.54" cy="15.03" r="27.73" gradientUnits="userSpaceOnUse"><stop offset="0" stop-color="#fff200"/><stop offset="1" stop-color="#ffcb05"/></radialGradient></defs><title>Asset 105</title><g id="Layer_2" data-name="Layer 2"><g id="Layer_1-2" data-name="Layer 1"><path class="cls-1" d="M45.21 12.46c1.82 7.88.16 9.73 4.26 13.14 25.11 20.85-12.79 12.89-28.42-4.41 0 0-7.31-8.15-2.08-15C27.58-5 42.78 2 45.21 12.46z"/><path class="cls-2" d="M45.21 12.46c1.82 7.88.16 9.73 4.26 13.14 25.11 20.85-12.79 12.89-28.42-4.41 0 0-7.31-8.15-2.08-15C27.58-5 42.78 2 45.21 12.46z"/><path class="cls-1" d="M44.75 26.27a7.06 7.06 0 0 0-2.67 0A6.57 6.57 0 0 0 38.27 24a6.66 6.66 0 0 0-2.13-.09 6.46 6.46 0 0 0-4.2-2.8h-.28a6.37 6.37 0 0 0-4.75-3.88 6.94 6.94 0 0 0-1.91-.15 6.34 6.34 0 0 0-5.2-6.16 6.85 6.85 0 0 0-8 5 6.31 6.31 0 0 0 5 7.63 7 7 0 0 0 2.23.08 6.19 6.19 0 0 0 5.09 5.27h.29a6.35 6.35 0 0 0 4.75 3.88 7.31 7.31 0 0 0 2.13.1 6.51 6.51 0 0 0 4.2 2.79 7.27 7.27 0 0 0 2.67 0A6.63 6.63 0 0 0 42 38a6.54 6.54 0 0 0 7.75-4.59 6 6 0 0 0-5-7.14z"/><path class="cls-3" d="M44.75 26.27a7.06 7.06 0 0 0-2.67 0A6.57 6.57 0 0 0 38.27 24a6.66 6.66 0 0 0-2.13-.09 6.46 6.46 0 0 0-4.2-2.8h-.28a6.37 6.37 0 0 0-4.75-3.88 6.94 6.94 0 0 0-1.91-.15 6.33 6.33 0 0 0-5.2-6.16 6.85 6.85 0 0 0-8 5 6.31 6.31 0 0 0 5 7.63 7 7 0 0 0 2.23.08 6.19 6.19 0 0 0 5.09 5.27h.29a6.35 6.35 0 0 0 4.75 3.88 7.31 7.31 0 0 0 2.13.1 6.51 6.51 0 0 0 4.2 2.79 7.27 7.27 0 0 0 2.67 0A6.63 6.63 0 0 0 42 38a6.54 6.54 0 0 0 7.75-4.59 6 6 0 0 0-5-7.14z"/><path class="cls-4" d="M19.43 10.67a12.47 12.47 0 0 1 9-8.07s-6.35 2.83-8.12 8.31z"/><path class="cls-5" d="M12.07 15s-.15-4.56-10.49-6.3"/><path class="cls-6" d="M2.62 8.68a1.13 1.13 0 0 1-1.35.8A1.05 1.05 0 0 1 .4 8.24a1.13 1.13 0 0 1 1.35-.8 1.05 1.05 0 0 1 .87 1.24z"/><path class="cls-5" d="M16.08 11.24S17.66 7 8.73 2.05"/><path class="cls-6" d="M9.7 2.37a1.18 1.18 0 0 1-1.55.31 1 1 0 0 1-.33-1.44 1.18 1.18 0 0 1 1.55-.3 1 1 0 0 1 .33 1.43z"/><path class="cls-4" d="M15.24 17a.93.93 0 0 0-.07.92 1 1 0 0 0 1.16.6.85.85 0 0 0 .38-1.17 1 1 0 0 0-1.07-.62zm2.97-1.85a.93.93 0 0 0-.06.92 1 1 0 0 0 1.15.6.83.83 0 0 0 .38-1.17 1 1 0 0 0-1.07-.62zm4.55 13.17a6.1 6.1 0 0 0 5.67-2.24 4.17 4.17 0 0 1-4 3.09zm6.87 4.13a6.1 6.1 0 0 0 5.67-2.24 4.17 4.17 0 0 1-4 3.09zm5.88 2.91a6.1 6.1 0 0 0 5.67-2.25 4.18 4.18 0 0 1-4 3.1z"/><path class="cls-1" d="M51.54 15.35c1.82 7.87.16 9.73 4.26 13.14C80.91 49.34 43 41.38 27.38 24.08c0 0-7.31-8.16-2.08-15 8.61-11.17 23.81-4.24 26.24 6.27z"/><path class="cls-7" d="M51.54 15.35c1.82 7.87.16 9.73 4.26 13.14C80.91 49.34 43 41.38 27.38 24.08c0 0-7.31-8.16-2.08-15 8.61-11.17 23.81-4.24 26.24 6.27z"/><path class="cls-4" d="M28.77 16.71c-.5-7.48 7.62-10.83 14-7.84C36.27 4.76 27 8 27.53 16c.47 6.45 6.76 10.91 11.27 13.3-4.35-2.51-9.64-6.74-10.03-12.59z"/><path class="cls-8" d="M50.06 34c-3-2.8 4.81-5.87 9.12 2.38 0-.01-6.08.41-9.12-2.38zM39.53 20.63C37.64 21.91 29 19.59 32.8 13s8.63 6.35 6.73 7.63zM36.24 24s9.65-2.26 9.83 2.94S37 25.43 36.24 24zM43 19.33s.23-5.45.12-6.44c-.58-4.64 9.7 7.77-.12 6.44zM48 30s.17-5.45 2.11-4.12.18 3.9-2.11 4.12z"/></g></g></svg>