<svg xmlns="http://www.w3.org/2000/svg" viewBox="0 0 40.27 40.27"><defs><style>.cls-1,.cls-2,.cls-5{stroke:#231f20;stroke-width:1px}.cls-1,.cls-2,.cls-3,.cls-4,.cls-5{fill-rule:evenodd}.cls-1{fill:url(#GradientFill_9)}.cls-2,.cls-5{fill:none}.cls-2{stroke-linejoin:round}.cls-3{fill:#231f20}.cls-4{fill:url(#GradientFill_62)}</style><radialGradient id="GradientFill_9" cx="27.99" cy="12.28" r="29.91" gradientUnits="userSpaceOnUse"><stop offset="0" stop-color="#fff"/><stop offset="1" stop-color="#e6e7e8"/></radialGradient><radialGradient id="GradientFill_62" cx="27.82" cy="12.26" r="29.39" gradientUnits="userSpaceOnUse"><stop offset="0" stop-color="#8ed8f8"/><stop offset="1" stop-color="#0095da"/></radialGradient></defs><title>Asset 51</title><g id="Layer_2" data-name="Layer 2"><g id="Layer_1-2" data-name="Layer 1"><path class="cls-1" d="M38.91 14.42A19.63 19.63 0 1 1 14.42 1.36a19.62 19.62 0 0 1 24.49 13.06z"/><path class="cls-2" d="M29.56 2.88L23.39 4.8 18.75.46m-8.39 36.55l5.82-1.77 4.65 4.34M8.84 3.97L7.81 9.96l-5.97 2.2m28.85 24.38l1.07-6.46 6.48-2.32M.37 20.81l4.54 4.05-1.29 6.22m36.12-12.02l-4.54-4.04 1.19-5.96"/><path class="cls-3" d="M4.54 24.3l5.85-1.52-5.61 2.56-.24-1.04zM8.02 9.56l4.13 3.28-4.81-2.46.68-.82zm15.92-4.69l-1.61 5.02.6-5.37 1.01.35zm-8.13 30.29l1.56-5.04-.55 5.37-1.01-.33zm15.64-4.8l-3.82-3.63 4.57 2.88-.75.75zm3.73-14.84l-5.51 1.19 5.31-2.23.2 1.04z"/><path class="cls-4" d="M18.1 27.74L12 22.06 13.9 14l8-2.42 6.08 5.68-1.88 8.1-8 2.43zm19.46.64l-5.43 1.94-.87 5.42 3.87-3.12 2.43-4.24zm-1.1-18.9l-1.24 5.62 4.13 3.62-.59-4.93-2.3-4.31zM19.25.6l4.23 3.91 5.21-1.74-4.55-2L19.25.6zM2.32 11.92L7.75 10l.87-5.43-3.86 3.11-2.44 4.24zm1.47 18.66L5 25 .91 21.33l.58 4.93 2.3 4.32zm16.84 8.87l-4.23-3.91-5.21 1.75 4.56 2z"/><path class="cls-2" d="M18.1 27.74l-6.08-5.68 1.88-8.11 7.96-2.42 6.08 5.68-1.88 8.1-7.96 2.43z"/><path class="cls-5" d="M38.91 14.42A19.63 19.63 0 1 1 14.42 1.36a19.62 19.62 0 0 1 24.49 13.06z"/></g></g></svg>