<svg xmlns="http://www.w3.org/2000/svg" viewBox="0 0 83.4 45.59"><defs><style>.cls-1{fill:#fff}.cls-1,.cls-2,.cls-3,.cls-4,.cls-5,.cls-6{fill-rule:evenodd}.cls-2,.cls-6{fill:#ca6c38}.cls-2,.cls-3,.cls-4{stroke:#231f20;stroke-width:1px}.cls-3{fill:#a59d80}.cls-4{fill:url(#GradientFill_105)}.cls-5,.cls-7{fill:#231f20}</style><radialGradient id="GradientFill_105" cx="58.18" cy="20.01" r="27.15" gradientUnits="userSpaceOnUse"><stop offset="0" stop-color="#d7d4c9"/><stop offset="1" stop-color="#bcb295"/></radialGradient></defs><title>Asset 5</title><g id="Layer_2" data-name="Layer 2"><g id="Layer_1-2" data-name="Layer 1"><path class="cls-1" d="M16.45 26.58s-3.15-9 6.9-4.95c0 0-6.75-13.65 6.15-7.5 0 0-2.1-18.59 11.1-5.55 0 0 4.8-18.29 9.3.15 0 0 10.79-11.85 7.5 4.8 0 0 11.4-8.25 4.35 4.8 0 0 7.8-4 4.5 5.25l-30.15 4.5z"/><path class="cls-2" d="M16.45 26.58s-3.15-9 6.9-4.95c0 0-6.75-13.65 6.15-7.5 0 0-2.1-18.59 11.1-5.55 0 0 4.8-18.29 9.3.15 0 0 10.79-11.85 7.5 4.8 0 0 11.4-8.25 4.35 4.8 0 0 7.8-4 4.5 5.25l-30.15 4.5z"/><path class="cls-1" d="M50.64 36.78c-.4 6 3.08 6.89 6.36 6.81 6.3-.15 6.23-1.71 4.59-3.66-3.91-4.62.45-7.35 2.85-7.35z"/><path class="cls-3" d="M64.44 32.58l-13.79 4.2c-.4 6 3.08 6.89 6.36 6.81 6.3-.15 6.23-1.71 4.59-3.66-3.92-4.62.4-7.35 2.84-7.35z"/><path class="cls-1" d="M30.1 37.23c-2 7.95 11.84 6.8 12 4.5a2.89 2.89 0 0 0-1.65-3s-3.45-2.7 0-4z"/><path class="cls-3" d="M40.44 34.68L30.1 37.23c-2 7.95 11.84 6.8 12 4.5a2.89 2.89 0 0 0-1.65-3S37 36 40.44 34.68z"/><path class="cls-4" d="M72.08 27.18C62.64 27.48 61 9.49 45.32 9.27 23.64 9 26.23 29.46 11.15 27.8c-8-.88 1.7-3.25 2.08-3.42 1.94-.88-8.43-2.26-11.44 1.2C-2.62 30.66 5 36 13 35.86s10.8 2.87 10.8 2.87c-1.95 7.95 11.84 6.8 12 4.5a2.89 2.89 0 0 0-1.65-3s-3.45-2.7 0-4c3.6 3.3 7.47 2.55 10.2 2.1-.4 6 3.08 6.89 6.36 6.81 6.3-.15 6.24-1.71 4.59-3.66-3.91-4.62 4.95-10 14.54-6.75 14.16 4.83 19.45-8.09 2.24-7.55z"/><path class="cls-5" d="M33.86 36s7.5-4.37 4.17-12c0 0 5 7-3.66 12.88zM47 31a14.39 14.39 0 0 0-2.27 7.81l-.92-.81A10.2 10.2 0 0 1 47 31z"/><path class="cls-6" d="M4.24 24.27s-1.95-6.14-.77-7.15S5.72 24 5.72 24a1.07 1.07 0 0 1-1.48.27z"/><path class="cls-2" d="M4.24 24.27s-1.95-6.14-.77-7.15S5.72 24 5.72 24a1.07 1.07 0 0 1-1.48.27z"/><path class="cls-6" d="M10.66 24.27s1.95-6.14.77-7.15S9.18 24 9.18 24a1.07 1.07 0 0 0 1.48.27z"/><path class="cls-2" d="M10.66 24.27s1.95-6.14.77-7.15S9.18 24 9.18 24a1.07 1.07 0 0 0 1.48.27zm-4.47.89s-.72-9.22 1.48-9.22c1.12 0 0 9.22 0 9.22s-.95.53-1.48 0z"/><path class="cls-5" d="M31.32 16.44s15.77-10.51 28.42 5.75c0 0-10.19-17.91-28.42-5.75zm42.79 12.89H74c-.8 0-1.45.47-1.45 1.05s.65 1.05 1.45 1.05 1.5-.43 1.5-1.05a1 1 0 0 0-.67-.89z"/><ellipse class="cls-7" cx="80.12" cy="31.5" rx=".54" ry=".71"/></g></g></svg>