<svg xmlns="http://www.w3.org/2000/svg" viewBox="0 0 24.76 25.57"><defs><style>.cls-1,.cls-3{stroke:#231f20;stroke-width:1px}.cls-1,.cls-2,.cls-3,.cls-4{fill-rule:evenodd}.cls-1{fill:url(#GradientFill_32)}.cls-2{fill:#fff}.cls-3{fill:#00a651;stroke-linejoin:round}.cls-4{fill:#231f20}</style><radialGradient id="GradientFill_32" cx="17.13" cy="9.61" r="16.44" gradientUnits="userSpaceOnUse"><stop offset="0" stop-color="#f05b72"/><stop offset="1" stop-color="#ed1651"/></radialGradient></defs><title>Asset 5</title><g id="Layer_2" data-name="Layer 2"><g id="Layer_1-2" data-name="Layer 1"><path class="cls-1" d="M23.68 12.27C20.44 24.7 12.9 25 12.9 25 11 25.4 4 24.22 1 12.47-1.89 1.22 8.86 3 12.8 3.45c2.31.24 14.2-3.93 10.88 8.82z"/><path class="cls-2" d="M19 2.41c-2-1.49-4.09-.36-5.23.48C14 2 13.44.39 12.54.51c-1.93.25-1.36 2.68-1.36 2.68S6.31.38 5.28 1.82c-1.49 2.08 5.45 2.87 5.45 2.87-1.46 1.66 1.65 2.9 2.9 2.49s0-2.69 0-2.69 8.73.38 5.37-2.08z"/><path class="cls-3" d="M19 2.41c-2-1.49-4.09-.36-5.23.48C14 2 13.44.39 12.54.51c-1.93.25-1.36 2.68-1.36 2.68S6.31.38 5.28 1.82c-1.49 2.08 5.45 2.87 5.45 2.87-1.46 1.66 1.65 2.9 2.9 2.49s0-2.69 0-2.69 8.73.38 5.37-2.08z"/><path class="cls-4" d="M6.23 2.29a20.62 20.62 0 0 1 4.29 1.55 6.55 6.55 0 0 0-4.29-1.55zm7.21 1.37s4.34-1.19 5.36-.18c0 0-1.02-1.55-5.36.18zM12.6 1.1s.06 2.32-.35 2.8c0 0 .89-.83.35-2.8zM12 4.44a6.23 6.23 0 0 1 .89 2.2s.67-1.13-.89-2.2zM4.31 6.35a1.06 1.06 0 0 0 1.63.58s-1.68 1.83-1.63-.58zm1.63 2.21a1.06 1.06 0 0 0 1.72.17s-1.18 2.18-1.72-.17zM2.8 10a1.05 1.05 0 0 0 1.71-.24s-.63 2.37-1.71.24zm2.26 2.89a1.06 1.06 0 0 0 1.72-.25s-.64 2.41-1.72.25zM7.8 10.5a1.06 1.06 0 0 0 1.72.22s-1.25 2.15-1.72-.22zm-3.31 5.56a1.06 1.06 0 0 0 1.67-.47s-.31 2.46-1.67.47zm3.17-.78a1.07 1.07 0 0 0 1.74 0s-.91 2.27-1.74 0zm2.44-6.72a1.07 1.07 0 0 0 1.74-.05s-.91 2.31-1.74.05zm-.3 4.28a1.07 1.07 0 0 0 1.74-.05s-.9 2.32-1.74.05zm-2.38 5.72a1.07 1.07 0 0 0 1.74 0s-.91 2.26-1.74 0zm1.91 2.14a1.06 1.06 0 0 0 1.73-.05s-.9 2.35-1.73.05zm1.43-3.93a1.06 1.06 0 0 0 1.73-.05s-.9 2.28-1.73.05zm2.8-7.08a1.06 1.06 0 0 0 1.73 0s-.9 2.31-1.73 0zM17 8.68a1.06 1.06 0 0 0 1.73 0s-.89 2.26-1.73 0zm-3.15 3.8a1.06 1.06 0 0 0 1.74 0s-.91 2.27-1.74 0zm3.56.16a1.06 1.06 0 0 0 1.68-.43s-.37 2.46-1.68.43zm2.84-3.17a1.05 1.05 0 0 0 1.58-.7s.04 2.49-1.58.7zm-5.65 6.8a1.06 1.06 0 0 0 1.65-.53s-.25 2.48-1.65.53zM13 19.45a1.06 1.06 0 0 0 1.73-.05s-.88 2.31-1.73.05zm2.64 1.19a1.06 1.06 0 0 0 1.73-.05s-.9 2.31-1.73.05zm2.78-3.4a1.06 1.06 0 0 0 1.67-.46s-.33 2.46-1.67.46zm2.02-3.86a1.06 1.06 0 0 0 1.67-.48s-.3 2.47-1.67.48zM19.71 7a1.07 1.07 0 0 0 1.52-.85s.26 2.49-1.52.85z"/></g></g></svg>