<svg xmlns="http://www.w3.org/2000/svg" viewBox="0 0 38.6 46.2"><defs><style>.cls-1{fill:#fff}.cls-1,.cls-2,.cls-3{fill-rule:evenodd}.cls-2{stroke:#231f20;stroke-width:1px;fill:url(#GradientFill_66)}.cls-3{fill:#231f20}</style><radialGradient id="GradientFill_66" cx="26.44" cy="14.06" r="30.22" gradientUnits="userSpaceOnUse"><stop offset="0" stop-color="#e1e8a7"/><stop offset="1" stop-color="#becd68"/></radialGradient></defs><title>Asset 116</title><g id="Layer_2" data-name="Layer 2"><g id="Layer_1-2" data-name="Layer 1"><path class="cls-1" d="M37.25 32.2a2.64 2.64 0 0 1-1.93-1.2 2.52 2.52 0 0 1-3.54.66A9.38 9.38 0 0 0 35.31 28l-1.64-.25c.92-.46 2-1.69 3.19-4.56l-1.74 1.06a16.39 16.39 0 0 0 .93-6.81 12.22 12.22 0 0 1-2.59 1.93l.14-2.53a13.61 13.61 0 0 1-1.6 1.92 13.5 13.5 0 0 0-.55-4.55l-2.3 2.59c.4-2.22.7-4.76-.4-6.66l-.87.71a13.23 13.23 0 0 0-2.29-4.7l-.78.43a8.77 8.77 0 0 0-1.2-2.7 6.14 6.14 0 0 1-.78-2.63v-.7c0-.25-.17.55-.17.55a6.05 6.05 0 0 1-1.4 2.41 9.19 9.19 0 0 0-1.81 2.34l-.65-.6a13.2 13.2 0 0 0-3.34 4l-.69-.9c-1.25 1.35-1.85 4-2 6.37l-1.63-3.06A13.4 13.4 0 0 0 9.52 16a13.52 13.52 0 0 1-1.1-2.22L8 16.24a12.22 12.22 0 0 1-2-2.49 16.79 16.79 0 0 0-.72 6.83l-1.53-1.43c.44 3.05 1.23 4.52 2 5.18l-1.65-.15a9.33 9.33 0 0 0 2.57 4.36 2.53 2.53 0 0 1-3.29-1.49 2.62 2.62 0 0 1-2.16.72C4.78 31.84 7 33.52 8.46 34l-2.19 1.68a9.07 9.07 0 0 0 7.47 1.08l-.64 1.08a17.43 17.43 0 0 0 4.08-.48 49.13 49.13 0 0 1-.69 6.58 1.55 1.55 0 0 0 .59 1.7.71.71 0 0 0 .24.06c.39 0 .76-.39.89-1 .38-1.9.77-4.72 1-7.13a16.76 16.76 0 0 0 4.12 1.57L23 38a9.09 9.09 0 0 0 7.52.74l-1.72-2.16c1.45-.18 4.03-1.27 8.45-4.38z"/><path class="cls-2" d="M37.25 32.2a2.64 2.64 0 0 1-1.93-1.2 2.52 2.52 0 0 1-3.54.66A9.38 9.38 0 0 0 35.31 28l-1.64-.25c.92-.46 2-1.69 3.19-4.56l-1.74 1.06a16.39 16.39 0 0 0 .93-6.81 12.22 12.22 0 0 1-2.59 1.93l.14-2.53a13.61 13.61 0 0 1-1.6 1.92 13.5 13.5 0 0 0-.55-4.55l-2.3 2.59c.4-2.22.7-4.76-.4-6.66l-.87.71a13.23 13.23 0 0 0-2.29-4.7l-.78.43a8.77 8.77 0 0 0-1.2-2.7 6.14 6.14 0 0 1-.78-2.63v-.7c0-.25-.17.55-.17.55a6.05 6.05 0 0 1-1.4 2.41 9.19 9.19 0 0 0-1.81 2.34l-.65-.6a13.2 13.2 0 0 0-3.34 4l-.69-.9c-1.25 1.35-1.85 4-2 6.37l-1.63-3.06A13.4 13.4 0 0 0 9.52 16a13.52 13.52 0 0 1-1.1-2.22L8 16.24a12.22 12.22 0 0 1-2-2.49 16.79 16.79 0 0 0-.72 6.83l-1.53-1.43c.44 3.05 1.23 4.52 2 5.18l-1.65-.15a9.33 9.33 0 0 0 2.57 4.36 2.53 2.53 0 0 1-3.29-1.49 2.62 2.62 0 0 1-2.16.72C4.78 31.84 7 33.52 8.46 34l-2.19 1.68a9.07 9.07 0 0 0 7.47 1.08l-.64 1.08a17.43 17.43 0 0 0 4.08-.48 49.13 49.13 0 0 1-.69 6.58 1.55 1.55 0 0 0 .59 1.7.71.71 0 0 0 .24.06c.39 0 .76-.39.89-1 .38-1.9.77-4.72 1-7.13a16.76 16.76 0 0 0 4.12 1.57L23 38a9.09 9.09 0 0 0 7.52.74l-1.72-2.16c1.45-.18 4.03-1.27 8.45-4.38z"/><path class="cls-3" d="M18.65 33.18a99.79 99.79 0 0 0 2.72-22.83"/></g></g></svg>