<svg xmlns="http://www.w3.org/2000/svg" viewBox="0 0 45.25 30.1"><defs><style>.cls-1,.cls-3,.cls-5{stroke:#231f20;stroke-width:1px}.cls-1,.cls-2,.cls-3,.cls-4,.cls-5{fill-rule:evenodd}.cls-1{fill:url(#GradientFill_29)}.cls-2,.cls-5{fill:#fff}.cls-3{fill:none}.cls-3,.cls-5{stroke-linejoin:round}.cls-4{fill:#231f20}</style><radialGradient id="GradientFill_29" cx="31.47" cy="11.53" r="18.35" gradientUnits="userSpaceOnUse"><stop offset="0" stop-color="#a5c3d2"/><stop offset="1" stop-color="#849daa"/></radialGradient></defs><title>Asset 39</title><g id="Layer_2" data-name="Layer 2"><g id="Layer_1-2" data-name="Layer 1"><path class="cls-1" d="M44.69 19.92c-.66-5-8.65-12.11-22-15.13C10.74 2.1-.21 4.09.54 20.58c.22 5 9.89 9 22.1 9s22.11-4 22.11-9a4.76 4.76 0 0 0-.06-.66z"/><path class="cls-2" d="M10.85 10s2-9.92 10.25-6.34c6.69 4.75 4.43 10.44 4.43 10.44-5.25.24-9.93-1.34-14.68-4.1z"/><path class="cls-2" d="M10.67 10.66C11.6 5.71 14.61 2 19.1 2.8s7.35 5.86 6.43 10.81l3.63-2.27C30.08 6.39 26 1.49 21.49.65s-10.25 1.74-10.82 9.67z"/><path class="cls-3" d="M10.67 10.66C11.6 5.71 14.61 2 19.1 2.8s7.35 5.86 6.43 10.81l3.63-2.27C30.08 6.39 26 1.49 21.49.65s-10.25 1.74-10.82 9.67"/><path class="cls-4" d="M14.64 11.68c.41-2.83 2.3-4.9 4.21-4.63s3.5 2.93 2.6 6.79z"/><path class="cls-4" d="M8.18 7.49s1 4.31 23.58 7.59c0 0-25.09-1.08-23.58-7.59z"/><path class="cls-5" d="M34.57 16a17.33 17.33 0 0 1-.88-2.77l5.55-2.78a6.3 6.3 0 0 1 .15 2.91A10.11 10.11 0 0 1 34.57 16z"/><path class="cls-4" d="M.7 17.12S12.64 29 39.25 22.45c0 0-24.52 8.05-38.34-4.31z"/></g></g></svg>