<svg xmlns="http://www.w3.org/2000/svg" viewBox="0 0 34.9 39.22"><defs><style>.cls-1,.cls-2,.cls-3,.cls-5,.cls-6{stroke:#231f20;stroke-width:1px}.cls-1,.cls-2,.cls-3,.cls-4,.cls-5,.cls-6{fill-rule:evenodd}.cls-1{fill:url(#GradientFill_57)}.cls-2{fill:#fffcd5}.cls-3,.cls-6{fill:#e6e7e8}.cls-4{fill:#231f20}.cls-5{fill:#fff200}.cls-5,.cls-6{stroke-linejoin:round}</style><radialGradient id="GradientFill_57" cx="24.23" cy="10.17" r="24.14" gradientUnits="userSpaceOnUse"><stop offset="0" stop-color="#fff200"/><stop offset="1" stop-color="#ffcb05"/></radialGradient></defs><title>Asset 28</title><g id="Layer_2" data-name="Layer 2"><g id="Layer_1-2" data-name="Layer 1"><path class="cls-1" d="M10.81 32.36S1.58 20 .54 15.62C-.23 12.36 9.38 5.36 16 2.08A19.35 19.35 0 0 1 21.75.51c4.24-.59 14 17 12.5 17.64 0 0-9.75 9.6-18.16 14-.82.42-4.83.95-5.28.21z"/><path class="cls-2" d="M31.54 17.09c-.46 1.42-12.12 10.54-14.09 10.79S7 15 8.06 13.22s11.24-9.48 13.7-10S32 15.67 31.54 17.09z"/><path class="cls-3" d="M2.4 15.62c-1.48.44 2.09 6.17 2.91 6.17l3.57-.59.37-.52-3.2-5.8s-2.66.44-3.65.74z"/><path class="cls-4" d="M8.88 21.2l-3.2-5.43 2.75 5.5.45-.07zM2.7 17.21l2.67-.4s-1.73.86-2.67.4zm.36.79l2.67-.4s-1.73.87-2.67.4zm.58.87l2.67-.4s-1.73.87-2.67.4zm.58.87l2.66-.4s-1.73.86-2.66.4zm.5.73l2.67-.4s-1.73.87-2.67.4z"/><path class="cls-5" d="M11.63 32.36l-5.21 4.16 5.66-1.04 4.76-4.09-5.21.97z"/><path class="cls-6" d="M12.08 35.48l-5.66 1.05s5.21 5.58 5.66-1.05z"/><path class="cls-4" d="M8.36 35.11l3.34-.89-2.6.3-.74.59zm1.63-1.19l3.35-.89-2.6.3-.75.59z"/></g></g></svg>