<svg xmlns="http://www.w3.org/2000/svg" xmlns:xlink="http://www.w3.org/1999/xlink" viewBox="0 0 61.96 37.48"><defs><style>.cls-1{fill:#fff}.cls-1,.cls-2,.cls-3,.cls-4,.cls-5,.cls-6{fill-rule:evenodd}.cls-2,.cls-3,.cls-4,.cls-6{stroke:#231f20;stroke-linejoin:round;stroke-width:1px}.cls-2{fill:url(#GradientFill_97)}.cls-3{fill:url(#GradientFill_98)}.cls-4{fill:url(#GradientFill_98-2)}.cls-5{fill:#231f20}.cls-6{fill:url(#GradientFill_97-2)}</style><radialGradient id="GradientFill_97" cx="35.56" cy="29.52" r="8.43" gradientUnits="userSpaceOnUse"><stop offset="0" stop-color="#cb90ab"/><stop offset="1" stop-color="#a66898"/></radialGradient><radialGradient id="GradientFill_98" cx="43.17" cy="12.42" r="22.45" gradientUnits="userSpaceOnUse"><stop offset="0" stop-color="#f6e2d9"/><stop offset="1" stop-color="#fcd3c1"/></radialGradient><radialGradient id="GradientFill_98-2" cx="34.61" cy="4.48" r="8.15" xlink:href="#GradientFill_98"/><radialGradient id="GradientFill_97-2" cx="30.6" cy="1.78" r="3.02" xlink:href="#GradientFill_97"/></defs><title>Asset 14</title><g id="Layer_2" data-name="Layer 2"><g id="Layer_1-2" data-name="Layer 1"><path class="cls-1" d="M44.2 31.65c0 3-6.45 5.33-14.4 5.33s-14.39-2.38-14.39-5.33 6.44-5.33 14.39-5.33 14.4 2.39 14.4 5.33z"/><path class="cls-2" d="M44.2 31.65c0 3-6.45 5.33-14.4 5.33s-14.39-2.38-14.39-5.33 6.44-5.33 14.39-5.33 14.4 2.39 14.4 5.33z"/><path class="cls-1" d="M3.6 13.42c.13-3 1.89-5.09 4.38-5.09a5.44 5.44 0 0 1 1.74.3 6.65 6.65 0 0 1 1.16.52C7.79 11.76 6 15 6 18.6a10.35 10.35 0 0 0 .19 1.93 10.89 10.89 0 0 1-2.59-7.11zm56.57-8.8c-1.52-3-7.22 3-11.48 5.05-4.26-3.94-11.27-6.52-19.2-6.52a31.21 31.21 0 0 0-15.91 4.06A11 11 0 0 0 10.7 5.7 8.68 8.68 0 0 0 8 5.24a7.38 7.38 0 0 0-7.46 8C1.54 28.37 20.74 34 29.49 34a36.46 36.46 0 0 0 3.8-.2 20 20 0 0 0 3.31-.52c6.22-1.29 11.33-4.24 14.12-8a19.23 19.23 0 0 0 4.61-11.82c0-4 4.63-5.68 4.63-5.68 2.52-.43 1.35-.87.21-3.16z"/><path class="cls-3" d="M3.6 13.42c.13-3 1.89-5.09 4.38-5.09a5.44 5.44 0 0 1 1.74.3 6.65 6.65 0 0 1 1.16.52C7.79 11.76 6 15 6 18.6a10.35 10.35 0 0 0 .19 1.93 10.89 10.89 0 0 1-2.59-7.11zm56.57-8.8c-1.52-3-7.22 3-11.48 5.05-4.26-3.94-11.27-6.52-19.2-6.52a31.21 31.21 0 0 0-15.91 4.06A11 11 0 0 0 10.7 5.7 8.68 8.68 0 0 0 8 5.24a7.38 7.38 0 0 0-7.46 8C1.54 28.37 20.74 34 29.49 34a36.46 36.46 0 0 0 3.8-.2 20 20 0 0 0 3.31-.52c6.22-1.29 11.33-4.24 14.12-8a19.23 19.23 0 0 0 4.61-11.82c0-4 4.63-5.68 4.63-5.68 2.52-.43 1.35-.87.21-3.16z"/><path class="cls-4" d="M42.93 6.47c0 2.75-6.2 5-13.86 5s-13.87-2.25-13.87-5 6.21-5 13.87-5 13.86 2.25 13.86 5z"/><path class="cls-5" d="M29.14 9.43c-6 0-9.39-1.16-11.72-2.43 2.29 1.64 6.68 2.75 11.72 2.75S38.56 8.64 40.85 7C39 8.12 34.72 9.43 29.14 9.43z"/><path class="cls-1" d="M33.06 2.63c0 1.18-1.84 2.13-4.1 2.13s-4.1-.95-4.1-2.13S26.7.5 29 .5s4.06.95 4.06 2.13z"/><path class="cls-5" d="M60.22 6.73s-.79-2.63-1.38-2.1 1.38 2.1 1.38 2.1z"/><path class="cls-6" d="M33.06 2.63c0 1.18-1.84 2.13-4.1 2.13s-4.1-.95-4.1-2.13S26.7.5 29 .5s4.06.95 4.06 2.13z"/></g></g></svg>