<svg xmlns="http://www.w3.org/2000/svg" viewBox="0 0 25.62 25.62"><defs><style>.cls-1,.cls-2{fill-rule:evenodd}.cls-1{stroke:#231f20;stroke-width:1px;fill:url(#GradientFill_58)}.cls-2{fill:#231f20}</style><radialGradient id="GradientFill_58" cx="17.74" cy="7.89" r="18.75" gradientUnits="userSpaceOnUse"><stop offset="0" stop-color="#e8ea7c"/><stop offset="1" stop-color="#d2e288"/></radialGradient></defs><title>Asset 54</title><g id="Layer_2" data-name="Layer 2"><g id="Layer_1-2" data-name="Layer 1"><path class="cls-1" d="M25.07 14A12.31 12.31 0 1 1 14 .56 12.31 12.31 0 0 1 25.07 14z"/><path class="cls-2" d="M6.75 12.13a12 12 0 0 0-1.88-7.79A13.55 13.55 0 0 1 6.4 12.1a13.51 13.51 0 0 1-3 7.32 12 12 0 0 0 3.35-7.29zm12.81 1.64A11 11 0 0 0 21.3 21a12.49 12.49 0 0 1-1.42-7.17A12.47 12.47 0 0 1 22.63 7a11.05 11.05 0 0 0-3.07 6.77z"/></g></g></svg>