<svg xmlns="http://www.w3.org/2000/svg" viewBox="0 0 39.89 29.37"><defs><style>.cls-1{fill:#fff}.cls-1,.cls-2,.cls-3{fill-rule:evenodd}.cls-2{fill:#e11b22;stroke:#231f20;stroke-miterlimit:3.86;stroke-width:1px}.cls-3{fill:#231f20}</style></defs><title>Asset 11</title><g id="Layer_2" data-name="Layer 2"><g id="Layer_1-2" data-name="Layer 1"><path class="cls-1" d="M39.39 14.69c0 7.83-8.7 14.18-19.44 14.18S.5 22.52.5 14.69 6.56.5 20 .5c13.66 0 19.39 6.35 19.39 14.19z"/><path class="cls-2" d="M39.39 14.69c0 7.83-8.7 14.18-19.44 14.18S.5 22.52.5 14.69 6.56.5 20 .5c13.66 0 19.39 6.35 19.39 14.19z"/><path class="cls-3" d="M22.54 4.05a.46.46 0 0 1 .08.25c0 .57-1 1-2.27 1s-2.26-.46-2.26-1c0-.38.46-.71 1.13-.89C18 3.54 17.1 4 17.1 4.54s1.28 1.18 2.9 1.18 2.85-.53 2.85-1.18a.68.68 0 0 0-.31-.49z"/><path class="cls-3" d="M17.6 4.94s-7 2.46-7.09 11.11c0 0 1.28-8.65 7.48-10.82zM20 6.31S16.91 19.5 22 25c0 0-6.57-4.62-2-18.69zM16.61 3.9a13.07 13.07 0 0 0-8.75-.57l.5-.54a12 12 0 0 1 8.25 1.11zm8.27.94S35.11 6.12 36 18.42c0 0 .78-12.01-11.12-13.58z"/></g></g></svg>