<svg xmlns="http://www.w3.org/2000/svg" viewBox="0 0 73.73 44.26"><defs><style>.cls-1,.cls-10{fill:#fff}.cls-1,.cls-10,.cls-2,.cls-3,.cls-4,.cls-5,.cls-6,.cls-7,.cls-8,.cls-9{fill-rule:evenodd}.cls-2,.cls-5,.cls-7{fill:#abbe92}.cls-10,.cls-2,.cls-4,.cls-5,.cls-6,.cls-8,.cls-9{stroke:#231f20}.cls-2,.cls-4,.cls-5,.cls-6,.cls-7,.cls-8{stroke-width:1px}.cls-3{fill:#231f20}.cls-4,.cls-6{fill:none}.cls-4,.cls-5{stroke-linecap:round}.cls-4,.cls-5,.cls-9{stroke-linejoin:round}.cls-7{stroke:#617345}.cls-8{fill:#abc13a}.cls-9{stroke-width:.75px;fill:url(#GradientFill_91)}.cls-10{stroke-width:.5px}</style><radialGradient id="GradientFill_91" cx="59.86" cy="6.95" r="22.48" gradientUnits="userSpaceOnUse"><stop offset="0" stop-color="#5d9242"/><stop offset="1" stop-color="#617345"/></radialGradient></defs><title>Asset 101</title><g id="Layer_2" data-name="Layer 2"><g id="Layer_1-2" data-name="Layer 1"><path class="cls-1" d="M17.42 21s-9.56-2.4-12.91 0a7.62 7.62 0 0 0-3.34 5.71s-1.25.76-.34 1.17a9.25 9.25 0 0 0 3 .5s-.8 1.11 2.42.51c4-.74 11.17-7.89 11.17-7.89z"/><path class="cls-2" d="M17.42 21s-9.56-2.4-12.91 0a7.62 7.62 0 0 0-3.34 5.71s-1.25.76-.34 1.17a9.25 9.25 0 0 0 3 .5s-.8 1.11 2.42.51c4-.74 11.17-7.89 11.17-7.89z"/><path class="cls-3" d="M6.55 22.91s.07-1-.69-1.28a1.06 1.06 0 0 0-1.2.18 1.37 1.37 0 0 1 1.16-.07 1.37 1.37 0 0 1 .73 1.17zm-1.12.78a1.16 1.16 0 0 0-.71-1.13 1.18 1.18 0 0 0-1.2.15 1.54 1.54 0 0 1 1.16-.05 1.2 1.2 0 0 1 .75 1.03zM8.54 23a1.16 1.16 0 0 0-.71-1.13 1.19 1.19 0 0 0-1.2.15A1.54 1.54 0 0 1 7.79 22a1.2 1.2 0 0 1 .75 1z"/><path class="cls-3" d="M7 23.8s0-.76-.53-1a.81.81 0 0 0-.92.14 1 1 0 0 1 .89-.06 1.1 1.1 0 0 1 .56.92zm3.08-2.04s0-.77-.54-1a.83.83 0 0 0-.92.15 1 1 0 0 1 .89-.06 1.12 1.12 0 0 1 .57.91zm-2.15-.16a.84.84 0 0 0-.62-.83 1.17 1.17 0 0 0-1 .1 1.58 1.58 0 0 1 1 0c.62.24.62.73.62.73z"/><path class="cls-1" d="M26.8 33.49s18.82 7.44 33.63-18.09C68.94.71 26.8 33.49 26.8 33.49z"/><path class="cls-4" d="M26.8 33.49s18.82 7.44 33.63-18.09C68.94.71 26.8 33.49 26.8 33.49z"/><path class="cls-1" d="M66.79 19.72l-5.68 4.53s-3.11 4.54-1.72 5a1.27 1.27 0 0 0 .92 0 1.77 1.77 0 0 0-.27 1.1c.06.49.7.12 1.43-.44-.16.89-.22 1.35.33 1.46a4.6 4.6 0 0 0 1.3-.53c-.2.47-.61 1.32.44 1.08 4.85-1.11 6.76-6.91 5-8.46-2.54-2.31-1.76-3.74-1.75-3.74z"/><path class="cls-5" d="M66.79 19.72l-5.68 4.53s-3.11 4.54-1.72 5a1.27 1.27 0 0 0 .92 0 1.77 1.77 0 0 0-.27 1.1c.06.49.7.12 1.43-.44-.16.89-.22 1.35.33 1.46a4.6 4.6 0 0 0 1.3-.53c-.2.47-.61 1.32.44 1.08 4.85-1.11 6.76-6.91 5-8.46-2.54-2.31-1.75-3.74-1.75-3.74z"/><path class="cls-1" d="M32.2 34.29S5.51 34.09 16 24.9s16.2 2.86 16.2 9.39z"/><path class="cls-6" d="M32.2 34.29S5.51 34.09 16 24.9s16.2 2.86 16.2 9.39z"/><path class="cls-1" d="M32.42 33.5s-26.68-.19-16.24-9.38S32.43 27 32.42 33.5z"/><path class="cls-7" d="M32.42 33.5s-26.68-.19-16.24-9.38S32.42 27 32.42 33.5z"/><path class="cls-1" d="M27.13 27.13c-1.06-.35-5.23.5-10.21 3.74-3.24 2.11-6.47-.5-9.46 0-1.74.29-4.09-3.62 0-7s10.74-2.24 10.74-2.24z"/><path class="cls-2" d="M18.16 21.66l9 5.47c-1.06-.35-5.23.5-10.21 3.74-3.24 2.11-6.47-.5-9.46 0-1.74.29-4.09-3.62 0-7s10.67-2.21 10.67-2.21z"/><path class="cls-1" d="M35.47 36.18c-.88-4.41-11.79-4.45-12-9.17 0 0-3.25.57-4.28 5S28 39.67 28 39.67s1 .16.06 1.58c-.67 1 .9.89 1.75.56-.1.8-.19 1.48.13 1.51a3.74 3.74 0 0 0 1.58-.76s-.49 1.08.07 1.19 1.54-.51 1.88-2c.02.03 2.86-1.27 2-5.57z"/><path class="cls-5" d="M35.47 36.18c-.88-4.41-11.79-4.45-12-9.17 0 0-3.25.57-4.28 5S28 39.67 28 39.67s1 .16.06 1.58c-.67 1 .9.89 1.75.56-.1.8-.19 1.48.13 1.51a3.74 3.74 0 0 0 1.58-.76s-.49 1.08.07 1.19 1.54-.51 1.88-2c.02.03 2.86-1.27 2-5.57z"/><path class="cls-8" d="M11.48 19.57C12.42 16.78 15.56 11 23 6.66c5.2-3.07 26-13.07 40.77 1.72 4.3 4.3 4.77 8.23 8.89 9.47 2.88.86-4.59 8.33-18.08 11.77-15.11 3.86-26.41 7.18-33.3-2.87s-10.91-3.89-9.8-7.18z"/><path class="cls-9" d="M68.34 14.54a6 6 0 0 0 3.48 3.07c.91 1.32-3 4.53-3.89 4.71s.45-1.66-3.54-4.46c0 0-.4-1.08 1-1.48a8.68 8.68 0 0 0 2.92-1.84zM59.48 19s2.63 3 2.79 5.66c.06.91 4.29-.35 4.46-2.12s-3.31-6.28-7.25-3.54zm-6.23 2.46a5.25 5.25 0 0 1 4.8-2s1.63-.11 3.37 4.91c.57 1.66-4.8 2.8-4.8 2.8a8.43 8.43 0 0 0-3.37-5.71zm-.71.74a7.44 7.44 0 0 0-7 1.26 9.79 9.79 0 0 1 2.63 6.39s4.76-1.07 7.08-1.94c1.37-.51-1.2-5.2-2.71-5.71zm-14.82 3.71c5.08-3 6.72-2 7.19-1.6 1 1 3.26 5.49 1.83 6A25.56 25.56 0 0 1 38.69 32c1.43-4.51-1-6.06-1-6.06zm-11.65 3.83c4.45 3.71 11.42 2.4 11.42 2.4s1.77-3.77-.91-5.71-6.91-1.09-6.91-1.09a12.84 12.84 0 0 1-3.6 4.4zm-8.83-9s.94-2.88 1.29-3 1.26 1.22 2.06 1.34a8.59 8.59 0 0 0-1.77 3.14s-1-1.32-1.58-1.49zm2 2.4s1.72-4.62 3.37-4.62 6.17 3.37 6.23 4.57a8.17 8.17 0 0 1-3.26 5.82c-1.77 1.08-4.17-4.34-6.34-5.77zm7.54-3.77c3.89 2.57 3 5.14 3 5.14 3.54-1.2 6.91 1 6.91 1 1.31-1.14 4.45-3 7.14-2.4 1.58.34-3-8.05-7.25-9.65a4.28 4.28 0 0 0-2-.11c-1.2 1.82-7.83 6-7.83 6zM37.72 13a17.41 17.41 0 0 1 7.59 9.65s3.43-2.57 7-1.49c0 0 2.23-3.2 5.54-2.51 0 0-2-6.11-10.28-9.65 0 0-3.14 3.25-9.82 4zm23.34-7.11a2.12 2.12 0 0 1-2 1.06c-7.25.06-9.43 1.89-9.43 1.89a19.66 19.66 0 0 1 8.91 9.65c2.12-1.89 5.08-.74 5.08-.74-.39-1 .52-1.83 1.6-2.29a10.5 10.5 0 0 0 2.69-1.65 30.72 30.72 0 0 0-6.87-7.92zM60 5.24C58.31 6.46 54.85 4.73 48.69 8a17.66 17.66 0 0 0-11.08-6.88C45.6-.17 53.14.85 60 5.24zm-35.5.65A40.61 40.61 0 0 1 35.67 1.6c4.61.57 9.33 2.95 10.76 5.75s-10.38 6-11.24 4.36a11.69 11.69 0 0 0-10.68-5.82zm-8.81 7a25.47 25.47 0 0 0 2 3 6.85 6.85 0 0 0 3.39 2.34c1.71-1.54 4.22.42 4.22.42.91-.23 9.28-5.22 8.64-6.56-1.31-2.8-5.74-6-11.23-5.18a21.71 21.71 0 0 0-7 6zm-.71.62a17.85 17.85 0 0 0-3.51 6.11 3.61 3.61 0 0 0 1.34.12 9.3 9.3 0 0 1 3.54.8s1.32-2.57 1-3.6A15.14 15.14 0 0 0 15 13.46z"/><path class="cls-3" d="M22.53 31.74s-1 0-1.24.77a1.07 1.07 0 0 0 .25 1.19 1.25 1.25 0 0 1 1-2zm.47 1.12a1.15 1.15 0 0 0-1.08.77 1.16 1.16 0 0 0 .22 1.19 1.52 1.52 0 0 1-.14-1.15 1.19 1.19 0 0 1 1-.81zm1.27-.96a1.16 1.16 0 0 0-1.09.77 1.18 1.18 0 0 0 .23 1.19 1.5 1.5 0 0 1-.13-1.15 1.21 1.21 0 0 1 .99-.81zm-1.86-2.13a1.16 1.16 0 0 0-1.09.77 1.15 1.15 0 0 0 .23 1.19 1.5 1.5 0 0 1-.13-1.15 1.2 1.2 0 0 1 .99-.81zM20.66 31a.85.85 0 0 0-.79.67 1.15 1.15 0 0 0 .17 1 1.58 1.58 0 0 1-.1-1c.23-.67.72-.67.72-.67zm4 2.25a.85.85 0 0 0-.79.67A1.15 1.15 0 0 0 24 35a1.52 1.52 0 0 1 0-1c.18-.71.66-.75.66-.75zm42.09-6.34a1 1 0 0 0-.51-1 .81.81 0 0 0-.9.13 1 1 0 0 1 .87 0 1 1 0 0 1 .54.87zm-.86.28a.87.87 0 0 0-.52-.86.88.88 0 0 0-.9.11 1.14 1.14 0 0 1 .87 0 .92.92 0 0 1 .55.75zm.65 1.01a.88.88 0 0 0-1.42-.74 1.13 1.13 0 0 1 .87 0 .91.91 0 0 1 .55.74zm1.69-1.27a.86.86 0 0 0-.52-.85.89.89 0 0 0-.9.1 1.15 1.15 0 0 1 .87 0 .91.91 0 0 1 .55.75zm-.83-1.37a.64.64 0 0 0-.46-.63.89.89 0 0 0-.78.07 1.12 1.12 0 0 1 .75 0 .68.68 0 0 1 .49.56zm-1.9 2.86a.62.62 0 0 0-.45-.62.87.87 0 0 0-.78.06 1.18 1.18 0 0 1 .75 0c.49.2.48.56.48.56zM29.11 40.18a3.88 3.88 0 0 0 4.25.64 3.44 3.44 0 0 1-4.25-.64zM8.36 30.72s2.91 0 3.8-.67c0 0 0 .66-2.8.85zm1.34-4.51a4.06 4.06 0 0 0 1.89-.77 2.93 2.93 0 0 1 1.28-.44l-1.16.69a3.26 3.26 0 0 1-2.01.52z"/><path class="cls-10" d="M14.52 25.76c.2.62-.39 1.37-1.31 1.66s-1.83 0-2-.6.39-1.37 1.31-1.66 1.8-.03 2 .6z"/><path class="cls-3" d="M13.08 25.27a1.11 1.11 0 0 0-.86 1.3.72.72 0 0 0 .14.24 2.72 2.72 0 0 0 .85-.66s.27.37-.51.93a1.37 1.37 0 0 0 1 0 1.12 1.12 0 0 0 .87-1.3 1.13 1.13 0 0 0-1.49-.51zM15 22.18a4.5 4.5 0 0 1 3.48 2.59 5.85 5.85 0 0 1 .25 4.23 5.07 5.07 0 0 0-.17-4.4A4 4 0 0 0 15 22.18z"/><path class="cls-3" d="M15 22.37a4.53 4.53 0 0 1 2.93 3.22 6 6 0 0 1-.58 4.28 5.15 5.15 0 0 0 .65-4.4 4 4 0 0 0-3-3.1z"/></g></g></svg>