<svg xmlns="http://www.w3.org/2000/svg" viewBox="0 0 73.87 57.29"><defs><style>.cls-1{fill:#fff}.cls-1,.cls-10,.cls-11,.cls-2,.cls-3,.cls-4,.cls-5,.cls-6,.cls-7,.cls-8,.cls-9{fill-rule:evenodd}.cls-2{fill:#d2ab67}.cls-10,.cls-2,.cls-3,.cls-4,.cls-6,.cls-8,.cls-9{stroke:#231f20}.cls-10,.cls-2,.cls-3,.cls-4,.cls-9{stroke-linejoin:round}.cls-10,.cls-2,.cls-3,.cls-4,.cls-6,.cls-9{stroke-width:1px}.cls-11,.cls-3{fill:#fff685}.cls-4{fill:#ed1651}.cls-5{fill:#a6ce39}.cls-6,.cls-8,.cls-9{fill:none}.cls-7{fill:#231f20}.cls-8{stroke-width:.5px}.cls-10{fill:#fffcd5}</style></defs><title>Asset 94</title><g id="Layer_2" data-name="Layer 2"><g id="Layer_1-2" data-name="Layer 1"><path class="cls-1" d="M22 31.55s-13.93-3.7-20.67 1.74a3.49 3.49 0 0 0-.44 3.92c.64 1.4 0-5.66 20.45-3.26z"/><path class="cls-2" d="M21.34 34l.65-2.4S8.07 27.85 1.33 33.29a3.49 3.49 0 0 0-.44 3.92c.64 1.4 0-5.66 20.45-3.21z"/><path class="cls-1" d="M29.18 32.64s6.09-.21 5.22 3.27c0 0-2-1.09-3.27.21-.9.9-3.91 5-4.57-1.52z"/><path class="cls-3" d="M26.56 34.6l2.62-2s6.09-.21 5.22 3.27c0 0-2-1.09-3.27.21-.9.92-3.91 5.05-4.57-1.48z"/><path class="cls-1" d="M31.35 9.15c2.39-8.49 3.7-5.88 8.92-7.84C48.56-1.8 49.41 5 49.41 5c4.59 10-7.83 10.67-7.83 10.67.87 17.62-13.71 12.4-17.19 22.41-4.31 12.37-2.61 17.84-12.62 18.71 0 0 .87-5.22 1.3-12.62a50.72 50.72 0 0 1 .62-5.54 22.85 22.85 0 0 1-4.1 2.28C5.46 27 31.35 9.15 31.35 9.15z"/><path class="cls-4" d="M31.35 9.15c2.39-8.49 3.7-5.88 8.92-7.84C48.56-1.8 49.41 5 49.41 5c4.59 10-7.83 10.67-7.83 10.67.87 17.62-13.71 12.4-17.19 22.41-4.31 12.37-2.61 17.84-12.62 18.71 0 0 .87-5.22 1.3-12.62a50.72 50.72 0 0 1 .62-5.54 22.85 22.85 0 0 1-4.1 2.28C5.46 27 31.35 9.15 31.35 9.15z"/><path class="cls-5" d="M32.93 30.68l-2.45.96.26-2.63-.87-2.1-1.67-2.98.35-3.41 2.19-2.37 2.46-1.93-1.67-.08-1.22-1.32 1.4-1.93 4.46-3.24-1.22-1.75.17-.96 2.81-1.58 5.78-.79 4.03-.17-1.67 3.15-.26 3.68 1.31 2.89-2.45.97-3.15.7-.18 5.43-1.4 3.59-4.9 4.73-2.11 1.14z"/><path class="cls-6" d="M48.14 4.29S30.91 4.14 35.92 9.8c0 0-10 6.09-2.83 6.53 0 0-8 4.83-3.48 10.22a5.21 5.21 0 0 1 .39 5.66"/><path class="cls-7" d="M25.62 22.05S21.53 33 12.29 39l.93.43s10.66-7.59 12.4-17.38zM15 52.87A86.57 86.57 0 0 0 16.77 39s1.75 5.17-1.77 13.87zm2.8-2.57s1.8-8.71 1.64-14.64c0-.01 1.46 8.34-1.64 14.64z"/><path class="cls-1" d="M41.86 41.18A17.69 17.69 0 0 0 32 35.47s-2.34 1.11-1.75 2.21c0 0 7.28 1.48 9 6.26 0 0 .29.74 2 1.11s1.2-2.21.61-3.87z"/><path class="cls-2" d="M41.86 41.18A17.69 17.69 0 0 0 32 35.47s-2.34 1.11-1.75 2.21c0 0 7.28 1.48 9 6.26 0 0 .29.74 2 1.11s1.2-2.21.61-3.87z"/><path class="cls-1" d="M38.54 8a2.1 2.1 0 0 0 4.07 0 2.1 2.1 0 0 0-4.07 0z"/><path class="cls-8" d="M38.54 8a2.1 2.1 0 0 0 4.07 0 2.1 2.1 0 0 0-4.07 0z"/><path class="cls-7" d="M41.86 7.54a1.35 1.35 0 0 1 .16.88 1.64 1.64 0 0 1-3.2-.55 1.52 1.52 0 0 1 1.84-1.14 1.89 1.89 0 0 1 .34.09z"/><path class="cls-9" d="M31.35 9.15c2.39-8.49 3.7-5.88 8.92-7.84C48.56-1.8 49.41 5 49.41 5c4.59 10-7.83 10.67-7.83 10.67.87 17.62-13.71 12.4-17.19 22.41-4.31 12.37-2.61 17.84-12.62 18.71 0 0 .87-5.22 1.3-12.62a50.72 50.72 0 0 1 .62-5.54 22.85 22.85 0 0 1-4.1 2.28C5.46 27 31.35 9.15 31.35 9.15z"/><path class="cls-1" d="M72.69 18.5s7-17.56-23.93-15c0 0-5.57 5-1.75 10.22 14.5 3.54 19.8-5.01 25.68 4.78z"/><path class="cls-10" d="M72.69 18.5s7-17.56-23.93-15c0 0-5.57 5-1.75 10.22 14.5 3.54 19.8-5.01 25.68 4.78z"/><path class="cls-11" d="M72.69 18.5s4-10-7.43-13.84l-2.81 2-.44 2 1.05 2.72-1.31.08.8 2.34c4.15-.52 7.07-.42 10.14 4.7z"/><path class="cls-7" d="M49 9.67s.92 1.18 7.83 1 14 1.15 15.31 5.43c0 0-1-4.42-12.67-4.44-8.57-.01-10.29-.02-10.47-1.99z"/><path class="cls-9" d="M65.33 4.81S60 6.74 63 11.25c0 0-2 0-.48 2.32"/><path class="cls-9" d="M72.69 18.5s7-17.56-23.93-15c0 0-5.57 5-1.75 10.22 14.5 3.54 19.8-5.01 25.68 4.78z"/></g></g></svg>