<svg xmlns="http://www.w3.org/2000/svg" xmlns:xlink="http://www.w3.org/1999/xlink" viewBox="0 0 76.72 48.19"><defs><style>.cls-1,.cls-6{fill:#fff}.cls-1,.cls-2,.cls-3,.cls-4,.cls-5,.cls-6,.cls-7{fill-rule:evenodd}.cls-2,.cls-3,.cls-5,.cls-6,.cls-7{stroke:#231f20;stroke-width:1px}.cls-2,.cls-3,.cls-6,.cls-7{stroke-linejoin:round}.cls-2{fill:url(#GradientFill_107)}.cls-3{fill:url(#GradientFill_107-2)}.cls-4{fill:#231f20}.cls-5{fill:url(#GradientFill_29)}.cls-7{fill:none}</style><radialGradient id="GradientFill_107" cx="32.22" cy="14.66" r="35.02" gradientUnits="userSpaceOnUse"><stop offset="0" stop-color="#a5c3d2"/><stop offset="1" stop-color="#98abb5"/></radialGradient><radialGradient id="GradientFill_107-2" cx="52.74" cy="40.91" r="5.92" xlink:href="#GradientFill_107"/><radialGradient id="GradientFill_29" cx="57.38" cy="18.58" r="23.16" gradientUnits="userSpaceOnUse"><stop offset="0" stop-color="#a5c3d2"/><stop offset="1" stop-color="#849daa"/></radialGradient></defs><title>Asset 3</title><g id="Layer_2" data-name="Layer 2"><g id="Layer_1-2" data-name="Layer 1"><path class="cls-1" d="M45.81 10.18a22.06 22.06 0 0 0-24-8.93C5.61 5.19 10.61 24.5 10.61 24.5s1.07 5-4.6 5.12c-1.08 0-2.78-.82 0-2.72S4.83 25 4.83 25c-5.52 0-7.15 10.54 3.54 10.14 4.18-.16 8-4.33 8-4.33s-4.07 11.56 3.81 13.53 11.43-2 7.36-3.15a7.76 7.76 0 0 1-.39-5.39 12.66 12.66 0 0 0 5.12 3s-2.89 5.91 1.45 7.88 12.74.92 8.8-2.49a8.46 8.46 0 0 1 .53-5.78z"/><path class="cls-2" d="M43.05 38.42l2.76-28.24a22.06 22.06 0 0 0-24-8.93C5.61 5.19 10.61 24.5 10.61 24.5s1.07 5-4.6 5.12c-1.08 0-2.78-.82 0-2.72S4.83 25 4.83 25c-5.52 0-7.15 10.54 3.54 10.14 4.18-.16 8-4.33 8-4.33s-4.07 11.56 3.81 13.53 11.43-2 7.36-3.15a7.76 7.76 0 0 1-.39-5.39 12.66 12.66 0 0 0 5.12 3s-2.89 5.91 1.45 7.88 12.74.92 8.8-2.49a8.46 8.46 0 0 1 .53-5.77z"/><path class="cls-1" d="M53.08 38.46s.22 3 1.4 4 2.63 3.15.26 3.55-11.17 3-8.93-7.36z"/><path class="cls-3" d="M45.81 38.69l7.27-.23s.22 3 1.4 4 2.63 3.15.26 3.55-11.16 3.05-8.93-7.32z"/><path class="cls-4" d="M30.08 29.09A32.65 32.65 0 0 0 27.44 37l-.86-1a13.4 13.4 0 0 1 3.5-6.91zm3.45 3.6a14.69 14.69 0 0 1-1.2 7.14l-1-.78a18 18 0 0 0 2.2-6.36z"/><path class="cls-1" d="M63.6 31.12c-2.7-2.88 3.42-7.55 1.08-8.63s2.16-6.83-2.34-6.47-6.29-9.17-9.17-5.93-7.91-2.88-8.63 1.62-6.76 2.16-5.69 7.38-3.73 2.7-1.21 7.56-5.19 1.93.88 8.44a11.69 11.69 0 0 0 13.92 2.87s11.68 6.65 14-4.13z"/><path class="cls-5" d="M66.48 33.81l-2.88-2.7c-2.7-2.88 3.42-7.55 1.08-8.63s2.16-6.83-2.34-6.47-6.29-9.17-9.17-5.93-7.91-2.88-8.63 1.62-6.76 2.16-5.69 7.38-3.73 2.7-1.21 7.56-5.19 1.93.88 8.44a11.69 11.69 0 0 0 13.92 2.87s11.7 6.65 14.04-4.14z"/><path class="cls-6" d="M61.09 31.47s-2.8 4.26 1.17 4.87c1.83.28 7.11-1.93 8.54-8.29S68 32 61.09 31.47z"/><path class="cls-1" d="M57.67 21.23s5.43-7.8 18.49-6.79c.7.05-4.92 1.19-13.74 8.48 0 0-2.54 2-3.9 1a2.6 2.6 0 0 1-.85-2.69z"/><path class="cls-7" d="M57.67 21.23s5.43-7.8 18.49-6.79c.7.05-4.92 1.19-13.74 8.48 0 0-2.54 2-3.9 1a2.6 2.6 0 0 1-.85-2.69z"/><path class="cls-1" d="M46.86 22.79s3.79-9.33 17.53-11.32c.73-.11-4.81 2.37-12.23 12 0 0-2.15 2.7-3.79 2a2.75 2.75 0 0 1-1.51-2.68z"/><path class="cls-7" d="M46.86 22.79s3.79-9.33 17.53-11.32c.73-.11-4.81 2.37-12.23 12 0 0-2.15 2.7-3.79 2a2.75 2.75 0 0 1-1.51-2.68z"/><path class="cls-4" d="M48.58 34.21S48.83 36 53.46 38l-1.63.31a7.63 7.63 0 0 1-3.25-4.1zm5.33-7.37A1.73 1.73 0 0 0 53 28.5c0 .95.52 1.72 1.16 1.72s1.16-.77 1.16-1.72a1.78 1.78 0 0 0-.8-1.62z"/></g></g></svg>