<svg xmlns="http://www.w3.org/2000/svg" xmlns:xlink="http://www.w3.org/1999/xlink" viewBox="0 0 63.54 30.18"><defs><style>.cls-1,.cls-7{fill:#e6e7e8}.cls-1,.cls-10,.cls-11,.cls-12,.cls-13,.cls-2,.cls-3,.cls-4,.cls-5,.cls-6,.cls-7,.cls-8,.cls-9{fill-rule:evenodd}.cls-2{fill:none}.cls-10,.cls-11,.cls-13,.cls-2,.cls-3,.cls-5,.cls-6,.cls-7,.cls-8,.cls-9{stroke:#231f20;stroke-width:1px}.cls-10,.cls-11,.cls-13,.cls-3,.cls-5,.cls-6,.cls-8,.cls-9{stroke-linecap:round;stroke-linejoin:round}.cls-3{fill:url(#GradientFill_48)}.cls-4{fill:#231f20}.cls-5{fill:url(#GradientFill_48-2)}.cls-6{fill:url(#GradientFill_48-3)}.cls-8{fill:url(#GradientFill_48-4)}.cls-9{fill:url(#GradientFill_48-5)}.cls-10{fill:url(#GradientFill_48-6)}.cls-11{fill:url(#GradientFill_48-7)}.cls-12{fill:#fff}.cls-13{fill:url(#GradientFill_48-8)}</style><radialGradient id="GradientFill_48" cx="34.43" cy="7.08" r="16.41" gradientUnits="userSpaceOnUse"><stop offset="0" stop-color="#fff685"/><stop offset="1" stop-color="#ffcb05"/></radialGradient><radialGradient id="GradientFill_48-2" cx="29.88" cy="15.4" r="7.71" xlink:href="#GradientFill_48"/><radialGradient id="GradientFill_48-3" cx="30.68" cy="8.4" r="3.37" xlink:href="#GradientFill_48"/><radialGradient id="GradientFill_48-4" cx="33.89" cy="16.18" r="7.71" xlink:href="#GradientFill_48"/><radialGradient id="GradientFill_48-5" cx="34.68" cy="9.18" r="3.37" xlink:href="#GradientFill_48"/><radialGradient id="GradientFill_48-6" cx="37.97" cy="16.97" r="7.71" xlink:href="#GradientFill_48"/><radialGradient id="GradientFill_48-7" cx="38.77" cy="9.97" r="3.37" xlink:href="#GradientFill_48"/><radialGradient id="GradientFill_48-8" cx="48.17" cy="18.79" r="12.72" xlink:href="#GradientFill_48"/></defs><title>Asset 27</title><g id="Layer_2" data-name="Layer 2"><g id="Layer_1-2" data-name="Layer 1"><path class="cls-1" d="M60.46 21.59a1.55 1.55 0 0 1 1.5-.91c.8.16 1.26 1.31 1 2.57s-1.09 2.16-1.9 2a1.52 1.52 0 0 1-1-1.38z"/><path class="cls-2" d="M60.46 21.59a1.55 1.55 0 0 1 1.5-.91c.8.16 1.26 1.31 1 2.57s-1.09 2.16-1.9 2a1.52 1.52 0 0 1-1-1.38"/><path class="cls-3" d="M18.45 17.37l30.51 2a4.69 4.69 0 0 0-3.78-4.85S13.7 9 13 6.07 11 1 9 .56C5.67-.08 2 4.28.86 10.3s.59 11.43 3.92 12.08c2 .39 4.3-1.47 5.76-3.57s4.84-1.21 7.91-1.44z"/><path class="cls-4" d="M11.76 13.54a19.89 19.89 0 0 0 .36-9.18l.34-1.09a11.88 11.88 0 0 1-.7 10.27zM9.19 11c-.64 3.29-2.55 5.69-4.27 5.35-1-.18-1.68-1.22-2-2.69.13 2.07.92 3.63 2.14 3.87 1.72.33 3.63-2.07 4.27-5.36a9.91 9.91 0 0 0 0-3.87 11 11 0 0 1-.14 2.7z"/><path class="cls-5" d="M29.92 11.33c-1.13-.21-2.12 0-2.2.42l-2.33 12c-.09.45.75 1 1.88 1.21s2.12 0 2.2-.41l2.34-12c.08-.45-.76-.99-1.89-1.22z"/><path class="cls-6" d="M30.49 12.23a.75.75 0 0 1-.92.49.75.75 0 0 1-.68-.8l.95-4.87a.75.75 0 0 1 .92-.49.76.76 0 0 1 .68.79z"/><path class="cls-7" d="M32.63 7.06c-.09.44-1 .65-2 .45s-1.78-.72-1.7-1.17 1-.65 2-.46 1.78.73 1.7 1.18z"/><path class="cls-8" d="M33.92 12.11c-1.12-.22-2.11 0-2.2.42l-2.33 12c-.08.45.76 1 1.89 1.21s2.12 0 2.2-.42l2.33-12c.09-.45-.76-.99-1.89-1.21z"/><path class="cls-9" d="M34.5 13a.75.75 0 0 1-.93.48.74.74 0 0 1-.67-.79l1-4.88a.74.74 0 0 1 .92-.48.74.74 0 0 1 .67.79z"/><path class="cls-7" d="M36.63 7.83c-.09.45-1 .65-2 .46s-1.77-.73-1.69-1.18 1-.65 2-.45 1.78.72 1.69 1.17z"/><path class="cls-10" d="M38 12.91c-1.13-.23-2.11 0-2.2.41l-2.33 12c-.09.45.76 1 1.88 1.21s2.12 0 2.21-.42l2.33-12c.11-.45-.75-.99-1.89-1.2z"/><path class="cls-11" d="M38.58 13.8a.74.74 0 0 1-.92.48.73.73 0 0 1-.67-.79l.94-4.88a.74.74 0 0 1 .92-.48.75.75 0 0 1 .68.79z"/><path class="cls-7" d="M40.72 8.62c-.09.45-1 .65-2 .46S36.93 8.36 37 7.91s1-.66 2-.46 1.8.72 1.72 1.17z"/><path class="cls-12" d="M48.59 21.46l-.86 4.43a4.66 4.66 0 0 1-5.47 3.7l-20.54-4A4.68 4.68 0 0 1 18 20.14l.54-2.4a1.66 1.66 0 0 1 0-.26 4.56 4.56 0 0 1 1-2.12 3.72 3.72 0 0 1 3.63-1.11l21.22 4.11 16.37 3.28c.63.12.25 2.42-.57 2.26C32 18.39 22.83 15.75 22.1 17.53a1.32 1.32 0 0 0-.24.55v.16l-.56 2.54a1.34 1.34 0 0 0 1.07 1.57l20.54 4a1.35 1.35 0 0 0 1.58-1.07l.87-4.5z"/><path class="cls-13" d="M45.34 20.76l3.25.7-.86 4.43a4.66 4.66 0 0 1-5.47 3.7l-20.54-4A4.68 4.68 0 0 1 18 20.14l.54-2.4v-.26a4.56 4.56 0 0 1 1-2.12 3.72 3.72 0 0 1 3.63-1.11l21.22 4.11 16.37 3.28c.63.12.25 2.42-.57 2.26C32 18.39 22.83 15.75 22.1 17.53a1.32 1.32 0 0 0-.24.55v.16l-.56 2.54a1.34 1.34 0 0 0 1.07 1.57l20.54 4a1.35 1.35 0 0 0 1.58-1.07z"/></g></g></svg>