<svg xmlns="http://www.w3.org/2000/svg" viewBox="0 0 56.94 67.51"><defs><style>.cls-1{fill:#fff}.cls-1,.cls-2,.cls-3,.cls-4,.cls-5{fill-rule:evenodd}.cls-2,.cls-3{fill:#91a27d;stroke:#231f20;stroke-linecap:round;stroke-linejoin:round;stroke-width:1px}.cls-3{fill:#abbe92}.cls-4{fill:#231f20}.cls-5{fill:#c8d4a8}</style></defs><title>Asset 2</title><g id="Layer_2" data-name="Layer 2"><g id="Layer_1-2" data-name="Layer 1"><path class="cls-1" d="M45.44 32.76s7.54 1.72 8.19 4.63-5.28 3.77-3.63 1.51c0 0-1.83-3.88-7.76-3.12z"/><path class="cls-2" d="M42.21 35.77l3.23-3s7.54 1.72 8.19 4.63-5.28 3.76-3.63 1.5c0 0-1.86-3.9-7.79-3.13z"/><path class="cls-1" d="M31.29 39.87s-4.76 4.42-1.31 9.7c0 0-1.79.92 1 6.66a21.19 21.19 0 0 1 1.63 4.27s-3.45 2-3.75 2.84c-.38 1.12 3.17 2.44 4.71 1a3.72 3.72 0 0 0 2.81 1.85c2.3.3 3.42-1.09 1.91-2.6 0 0 2.55 1.63 3.15-.27.29-.91-3.95-3.25-3.95-3.25s-.85-9.87.87-14z"/><path class="cls-2" d="M38.38 46.12l-7.1-6.25s-4.76 4.42-1.31 9.7c0 0-1.79.92 1 6.66a21.19 21.19 0 0 1 1.63 4.27s-3.45 2-3.75 2.84c-.38 1.12 3.17 2.44 4.71 1a3.72 3.72 0 0 0 2.81 1.85c2.3.3 3.42-1.09 1.91-2.6 0 0 2.55 1.63 3.15-.27.29-.91-3.95-3.25-3.95-3.25s-.82-9.85.9-13.95z"/><path class="cls-1" d="M46 34.88c3.89-13.43 13.44-14.6 9.56-29.09-1.3-4.72-7.84-6.55-13.71-4.39s-7.3 8.51-7.41 13.68c-.07 3.62 2.33 6.43 7.32 5.45A11.07 11.07 0 0 1 35.4 25a18.29 18.29 0 0 0-6.28-1.1c-8 0-14.56 5-15.78 11.51-1.87-6.35 1.44-17.7-.87-24.63C10 3.33.5 8.83.5 8.83S10.2 6.24 9.34 18C8.55 28.78 1.15 49.45 19.6 48.56l.48.28c.09.14.16.27.25.41s-4.35.81-1.18 6.9A21.79 21.79 0 0 1 21 60.67s-2.9 2.75-3.23 3.67c-.43 1.19 2.59 1.94 4.31.43 0 0-.8 1.87 1.51 2.16 2.59.32 4.74-.22 2.8-2.8 0 0 3.21 2.23 3.88.22.32-1-3.77-4.1-3.77-4.1s-.78-5.38.56-9.11a18.65 18.65 0 0 0 2.08.13C37.38 51.26 44.17 45.91 45 39c.06-.39.14-.75.21-1.13a5.7 5.7 0 0 1 2.14 2.17c-1.62 2.26 4.31 1.4 3.66-1.51-.33-1.6-2.88-2.86-5.01-3.65z"/><path class="cls-3" d="M46 34.88c3.89-13.43 13.44-14.6 9.56-29.09-1.3-4.72-7.84-6.55-13.71-4.39s-7.3 8.51-7.41 13.68c-.07 3.62 2.33 6.43 7.32 5.45A11.07 11.07 0 0 1 35.4 25a18.29 18.29 0 0 0-6.28-1.1c-8 0-14.56 5-15.78 11.51-1.87-6.35 1.44-17.7-.87-24.63C10 3.33.5 8.83.5 8.83S10.2 6.24 9.34 18C8.55 28.78 1.15 49.45 19.6 48.56l.48.28c.09.14.16.27.25.41s-4.35.81-1.18 6.9A21.79 21.79 0 0 1 21 60.67s-2.9 2.75-3.23 3.67c-.43 1.19 2.59 1.94 4.31.43 0 0-.8 1.87 1.51 2.16 2.59.32 4.74-.22 2.8-2.8 0 0 3.21 2.23 3.88.22.32-1-3.77-4.1-3.77-4.1s-.78-5.38.56-9.11a18.65 18.65 0 0 0 2.08.13C37.38 51.26 44.17 45.91 45 39c.06-.39.14-.75.21-1.13a5.7 5.7 0 0 1 2.14 2.17c-1.62 2.26 4.31 1.4 3.66-1.51-.33-1.6-2.88-2.86-5.01-3.65z"/><path class="cls-4" d="M37.22 19.86s7.9 2.5 13.54-7.93c0 0-2.13 8.1-10.66 9.57zM47.37 6.69A2.63 2.63 0 0 0 46.59 8a2.07 2.07 0 0 0 1.17 2.63A2.07 2.07 0 0 0 50 8.88a2.07 2.07 0 0 0-1.17-2.64 1.44 1.44 0 0 0-.52 0zM48.34 1a9.11 9.11 0 0 0-6.87 5s1.39-7 6.87-5zm-4.56 21.2s-3.4 4.63-8 5.25c-.03 0 5.22.77 8-5.25zm-2.87-7.66a2.1 2.1 0 0 1 0 3s3.43-2.8 0-3zm6.98-11.46s3.45-1.18 3.55 2.24c0 0 .95-4.77-3.55-2.24zM27 35.56s4.79 4.09.31 13.28c-.05 0 7.05-6.95-.31-13.28z"/><path class="cls-5" d="M45.5 34.63a30.14 30.14 0 0 1 2.69-6.45h-1c-3.59 0-5.84 3.23-8.21 5.16l-.3.22a35 35 0 0 1 6.8 1.08zm-11.39 0a24.24 24.24 0 0 1 5.62 1.89l1-.11a4.47 4.47 0 0 0 1.62.09l.87.12c.7.22.61 1 1.67 1-.07.37-.17 1-.24 1.36-.91 8.42-10.12 12.72-17.79 11.59 0-.07.66-2 .67-1.94 2-5.23 3.75-8.11-.14-12.71 1.86-1.14 4.39-1.16 6.73-1.31z"/><path class="cls-4" d="M47.16 39.4s-3.77-5.35-8-2.76c0 0 4.39-1.23 7.6 3.89z"/></g></g></svg>