<svg xmlns="http://www.w3.org/2000/svg" xmlns:xlink="http://www.w3.org/1999/xlink" viewBox="0 0 57.14 51.19"><defs><style>.cls-1,.cls-10{fill:#e6e7e8}.cls-1,.cls-11,.cls-12,.cls-13,.cls-14,.cls-3,.cls-4,.cls-5,.cls-7,.cls-9{stroke:#231f20;stroke-linejoin:round}.cls-1,.cls-11,.cls-12,.cls-13,.cls-14,.cls-3,.cls-4,.cls-5,.cls-7{stroke-width:1px}.cls-1,.cls-10,.cls-11,.cls-12,.cls-13,.cls-14,.cls-2,.cls-3,.cls-4,.cls-5,.cls-6,.cls-7,.cls-8,.cls-9{fill-rule:evenodd}.cls-2{fill:#fff}.cls-3{fill:url(#GradientFill_85)}.cls-4{fill:url(#GradientFill_86)}.cls-5{fill:url(#GradientFill_87)}.cls-6{fill:#231f20}.cls-7{fill:url(#GradientFill_88)}.cls-8{fill:#ffcb05}.cls-11,.cls-12,.cls-9{fill:none}.cls-9{stroke-width:.35px}.cls-11{stroke-linecap:round}.cls-13{fill:url(#GradientFill_112)}.cls-14{fill:url(#GradientFill_88-2)}</style><radialGradient id="GradientFill_85" cx="32.81" cy="31.85" r="12.1" gradientUnits="userSpaceOnUse"><stop offset="0" stop-color="#6d6e71"/><stop offset="1" stop-color="#414042"/></radialGradient><radialGradient id="GradientFill_86" cx="29.25" cy="23.14" r="27.32" gradientUnits="userSpaceOnUse"><stop offset="0" stop-color="#808285"/><stop offset="1" stop-color="#58595b"/></radialGradient><radialGradient id="GradientFill_87" cx="25.92" cy="16.81" r="28.32" gradientUnits="userSpaceOnUse"><stop offset="0" stop-color="#bcbec0"/><stop offset="1" stop-color="#6d6e71"/></radialGradient><radialGradient id="GradientFill_88" cx="47.1" cy="7.25" r="15.06" gradientUnits="userSpaceOnUse"><stop offset="0" stop-color="#f8abad"/><stop offset="1" stop-color="#f48580"/></radialGradient><radialGradient id="GradientFill_112" cx="32.81" cy="42.03" r="4.96" gradientUnits="userSpaceOnUse"><stop offset="0" stop-color="#ec9fa1"/><stop offset="1" stop-color="#df6c68"/></radialGradient><radialGradient id="GradientFill_88-2" cx="27.73" cy="44.2" r="6.74" xlink:href="#GradientFill_88"/></defs><title>Asset 87</title><g id="Layer_2" data-name="Layer 2"><g id="Layer_1-2" data-name="Layer 1"><path class="cls-1" d="M8.12 44.2s1.43-12.51 10.71-21S52-4.85 38.66 20c-7.04 13.17-16.28 4.3-30.54 24.2z"/><path class="cls-2" d="M31.79 44.45a17 17 0 0 1-.23-4.26c1.77-.59 2.65-3.66 2.65-7.36 0-4.11-1.67-7.45-3.73-7.45s-3.72 3.34-3.72 7.45c0 3.73.84 6.94 2.62 7.5 0 1.44.18 3.23-.88 4.35 0 0-3.53 1-2.9 1.8s4.1-.1 4.1-.1l1.36-.11s3.67 1.26 4.72.32-3.99-2.14-3.99-2.14z"/><path class="cls-3" d="M31.79 44.45a17 17 0 0 1-.23-4.26c1.77-.59 2.65-3.66 2.65-7.36 0-4.11-1.67-7.45-3.73-7.45s-3.72 3.34-3.72 7.45c0 3.73.84 6.94 2.62 7.5 0 1.44.18 3.23-.88 4.35 0 0-3.53 1-2.9 1.8s4.1-.1 4.1-.1l1.36-.11s3.67 1.26 4.72.32-3.99-2.14-3.99-2.14z"/><path class="cls-2" d="M29.38 34.34c5.08-3.31 9.93-8.1 10-14.42.08-14.07-12.38-7.56-11.78-3.46S14.89 22 14.89 22l-.61 6.58a1.59 1.59 0 0 0-.07.2c-.89.94-11.21 16.86-7.92 19.07 1.46 1 3.08-3.09 4.27-5.38-.43 3.15-.39 6 .66 7.58 1.64 2.54 3.52-3.1 4.86-9.86.38 2.87.47 5.89 1.65 6.92 2 1.79 4-3.15 2.2-8 .72-.28 1.58-.64 2.54-1.07.56 1.84 1.17 3.13 2.28 3.47 0 1.45.22 3.62-.83 4.74 0 0-4.41 2.21-3.78 3s4.43-1.11 4.43-1.11.4 2.27 1.66 2.48S27 48 27 48s2.78 1.87 3.83.93-3.64-3.16-3.64-3.16a13.59 13.59 0 0 1-.37-4.16c1.76-.61 2.52-3.61 2.56-7.27z"/><path class="cls-4" d="M29.38 34.34c5.08-3.31 9.93-8.1 10-14.42.08-14.07-12.38-7.56-11.78-3.46S14.89 22 14.89 22l-.61 6.58a1.59 1.59 0 0 0-.07.2c-.89.94-11.21 16.86-7.92 19.07 1.46 1 3.08-3.09 4.27-5.38-.43 3.15-.39 6 .66 7.58 1.64 2.54 3.52-3.1 4.86-9.86.38 2.87.47 5.89 1.65 6.92 2 1.79 4-3.15 2.2-8 .72-.28 1.58-.64 2.54-1.07.56 1.84 1.17 3.13 2.28 3.47 0 1.45.22 3.62-.83 4.74 0 0-4.41 2.21-3.78 3s4.43-1.11 4.43-1.11.4 2.27 1.66 2.48S27 48 27 48s2.78 1.87 3.83.93-3.64-3.16-3.64-3.16a13.59 13.59 0 0 1-.37-4.16c1.76-.61 2.52-3.61 2.56-7.27z"/><path class="cls-5" d="M.6 43.91S-1 30 8.78 21 47.07-8 33 18.3C25.49 32.22 15.71 22.83.6 43.91z"/><path class="cls-6" d="M12.28 47.74s1.25-7.24 3.14-9.45c0 0-3.36 2.42-3.14 9.45zm-5.05-2.41s2.31-5.46 6.09-7.14c0 0-4.52.21-6.09 7.14zm11.49.2s-.94-4.54-.41-6.19c.01 0 .79 4.98.41 6.19zM4 37.24a28.53 28.53 0 0 1 16.7-11.33S9.33 26.75 4 37.24zm20.55-6.61s2.94-1.78 4.1 2.62c0 0 .35-5.46-4.1-2.62z"/><path class="cls-2" d="M52.48 5.28a5.27 5.27 0 0 0-10.5 0 4.69 4.69 0 0 0 2.52 4.07 9 9 0 0 1-.74 3.65c-2.2 5.67-7.45 3-7.45 3a2.63 2.63 0 0 1-1.05 1.36 1.88 1.88 0 0 0-.11 2.84C33.48 23.28 37 23 37 23c8.21.79 11.39-8.74 12.46-13.39a4.75 4.75 0 0 0 3.02-4.33z"/><path class="cls-7" d="M52.48 5.28a5.27 5.27 0 0 0-10.5 0 4.69 4.69 0 0 0 2.52 4.07 9 9 0 0 1-.74 3.65c-2.2 5.67-7.45 3-7.45 3a2.63 2.63 0 0 1-1.05 1.36 1.88 1.88 0 0 0-.11 2.84C33.48 23.28 37 23 37 23c8.21.79 11.39-8.74 12.46-13.39a4.75 4.75 0 0 0 3.02-4.33z"/><path class="cls-2" d="M50.32 4.26s8-1 6 6.81c0 0-.47-3.13-2.8-3.23-1.36-.06-4.34.52-5.59-.6z"/><path class="cls-8" d="M47.92 7.24a3.32 3.32 0 0 1 2.4-3s8-1 6 6.81c0 0-.47-3.13-2.8-3.23-1.37-.04-4.35.54-5.6-.58z"/><path class="cls-2" d="M46.77 4.7a1.37 1.37 0 1 1-2.68 0 1.37 1.37 0 1 1 2.68 0z"/><path class="cls-9" d="M46.77 4.7a1.37 1.37 0 1 1-2.68 0 1.37 1.37 0 1 1 2.68 0z"/><path class="cls-6" d="M44.8 3.78a1.49 1.49 0 0 0-.35 1 1.16 1.16 0 1 0 2.28 0 1.28 1.28 0 0 0-1.14-1.38z"/><path class="cls-10" d="M23.81 9.64c9.66-6 17.94-8.12 9.49 8v-3.21c-.47.16-.7 1.24-1.39 1.52a3.78 3.78 0 0 0-1.28.93c-.77.77-2.22 1.15-3 .34a2 2 0 0 1-.93-2.09c-.44 0-.54.58-1 .58a6.18 6.18 0 0 1-1.51-.11c-.18 0-.12 0-.12-.24s.09-.12.12-.34a1.92 1.92 0 0 0 0-.24.88.88 0 0 1 .12-.46 2 2 0 0 0 .23-.47s-.67-.09-.7-.11-.53 0-.7-.12a1.39 1.39 0 0 1-.14-1.39c.4-.65.41-1.85.81-2.59z"/><path class="cls-11" d="M50.32 4.26s8-1 6 6.81c0 0-.47-3.13-2.8-3.23-1.36-.06-4.34.52-5.59-.6"/><path class="cls-6" d="M23.61 11.42s-2.31 3.15.94 1.89c0 0-.73 3.25 2.1 1.15 0 0 2.31 5.25 5 .63 0 0-2.52 5.46-5.56.42 0 0-3.68 1.47-2.31-1.47.04-.04-3.85.53-.17-2.62z"/><path class="cls-12" d="M.6 43.91S-1 30 8.78 21 47.07-8 33 18.3C25.49 32.22 15.71 22.83.6 43.91z"/><path class="cls-13" d="M31.79 44.45a17.47 17.47 0 0 1-.24-4.1 10.21 10.21 0 0 1-2.3-.26l-.58-.17a2.05 2.05 0 0 0 .71.41c0 1.44.18 3.23-.88 4.35 0 0-3.53 1-2.9 1.8s4.1-.1 4.1-.1l1.36-.11s3.67 1.26 4.72.32-3.99-2.14-3.99-2.14z"/><path class="cls-14" d="M24.25 41.29a2.3 2.3 0 0 0 .5.24c0 1.45.22 3.62-.83 4.74 0 0-4.41 2.21-3.78 3s4.43-1.11 4.43-1.11.4 2.27 1.66 2.48S27 48 27 48s2.78 1.87 3.83.93-3.64-3.16-3.64-3.16a13.59 13.59 0 0 1-.37-4.16 2.31 2.31 0 0 0 .54-.28 3.13 3.13 0 0 1-3.11-.04z"/></g></g></svg>