<svg xmlns="http://www.w3.org/2000/svg" xmlns:xlink="http://www.w3.org/1999/xlink" viewBox="0 0 70.91 34.73"><defs><style>.cls-1{fill:#fff}.cls-1,.cls-2,.cls-3,.cls-4,.cls-5{fill-rule:evenodd}.cls-2,.cls-3{stroke:#231f20;stroke-linejoin:round;stroke-width:1px}.cls-2{fill:url(#GradientFill_76)}.cls-3{fill:url(#GradientFill_76-2)}.cls-4{fill:#231f20}.cls-5{fill:#d2ab67}</style><radialGradient id="GradientFill_76" cx="19.56" cy="18.51" r="6.74" gradientUnits="userSpaceOnUse"><stop offset="0" stop-color="#f0ead8"/><stop offset="1" stop-color="#e8d2a7"/></radialGradient><radialGradient id="GradientFill_76-2" cx="58.53" cy="8.93" r="24.24" xlink:href="#GradientFill_76"/></defs><title>Asset 99</title><g id="Layer_2" data-name="Layer 2"><g id="Layer_1-2" data-name="Layer 1"><path class="cls-1" d="M25.91 16.36a24.13 24.13 0 0 1-21.08 3.17c-12.26-3.8 3.68 11.81 20.92 2.27z"/><path class="cls-2" d="M25.75 21.8l.16-5.44a24.13 24.13 0 0 1-21.08 3.17c-12.26-3.8 3.68 11.81 20.92 2.27z"/><path class="cls-1" d="M69.06 3.51c.12-1.56 0-4.6-3.17-2a8.18 8.18 0 0 0-2.5-.38 8.08 8.08 0 0 0-3.3.68C55.2-.68 56.43 3.19 57 4.57a4.89 4.89 0 0 0-.61 2.34 5 5 0 0 0 .79 2.67 6.48 6.48 0 0 1-4 1.47c-4.75-.11-4.63-9.94-17.51-7.68C25.78 5.11 21 17 24.24 23.92c-.74.13-1.21.37-1.32.73-.36 1.29 3.92 3.62 9.57 5.2s10.5 1.82 10.87.53c.26-1-2-2.48-5.5-3.85a26.33 26.33 0 0 0 9 .73 5.48 5.48 0 0 0 3.1 4.8 1.54 1.54 0 0 0 .96 1.94c1.35.56 9.71.45 2.14-3.28a6.8 6.8 0 0 1-1.37-4.45 20.82 20.82 0 0 0 2.08-.82 5.21 5.21 0 0 0 3 3.52 1.52 1.52 0 0 0 1 1.88c1.37.52 9.72.1 2-3.35a6.77 6.77 0 0 1-1.47-4.9 28.17 28.17 0 0 0 7.64-10.3c2.61-.84 4.47-2.93 4.47-5.39a5.1 5.1 0 0 0-1.35-3.4z"/><path class="cls-3" d="M69.06 3.51c.12-1.56 0-4.6-3.17-2a8.18 8.18 0 0 0-2.5-.38 8.08 8.08 0 0 0-3.3.68C55.2-.68 56.43 3.19 57 4.57a4.89 4.89 0 0 0-.61 2.34 5 5 0 0 0 .79 2.67 6.48 6.48 0 0 1-4 1.47c-4.75-.11-4.63-9.94-17.51-7.68C25.78 5.11 21 17 24.24 23.92c-.74.13-1.21.37-1.32.73-.36 1.29 3.92 3.62 9.57 5.2s10.5 1.82 10.87.53c.26-1-2-2.48-5.5-3.85a26.33 26.33 0 0 0 9 .73 5.48 5.48 0 0 0 3.1 4.8 1.54 1.54 0 0 0 .96 1.94c1.35.56 9.71.45 2.14-3.28a6.8 6.8 0 0 1-1.37-4.45 20.82 20.82 0 0 0 2.08-.82 5.21 5.21 0 0 0 3 3.52 1.52 1.52 0 0 0 1 1.88c1.37.52 9.72.1 2-3.35a6.77 6.77 0 0 1-1.47-4.9 28.17 28.17 0 0 0 7.64-10.3c2.61-.84 4.47-2.93 4.47-5.39a5.1 5.1 0 0 0-1.35-3.4z"/><path class="cls-4" d="M64.43 8.57c0 .51.92.93 2.06.93s2.06-.42 2.06-.93-.92-.93-2.06-.93-2.06.41-2.06.93zm1.69-3.23c-.05.27.32.56.82.65s1 0 1-.32-.32-.56-.82-.66-.95.06-1 .33zm-2.79.45c.05.27-.32.56-.82.65s-.95-.05-1-.32.32-.56.82-.65.96.05 1 .32z"/><path class="cls-5" d="M38.8 12.39s3.26 6.73-.63 10.83c0 0 6.1-4.22.63-10.83zM53.18 23.7s3.81-7.6 6.59-4.05c0 0-2.38-5.94-6.59 4.05z"/></g></g></svg>