<svg xmlns="http://www.w3.org/2000/svg" viewBox="0 0 41.11 38.33"><defs><style>.cls-1{fill:#fff}.cls-1,.cls-2,.cls-3,.cls-4{fill-rule:evenodd}.cls-2,.cls-3{fill:#a6ce39;stroke:#231f20;stroke-width:1px}.cls-3{fill:#ffcb05}.cls-4{fill:#231f20}</style></defs><title>Asset 68</title><g id="Layer_2" data-name="Layer 2"><g id="Layer_1-2" data-name="Layer 1"><path class="cls-1" d="M2.39 25.3C2.39 11.6 10.64.5 20.82.5s18.43 11.1 18.43 24.8z"/><path class="cls-2" d="M39.25 25.3q-18.84 10.06-36.86 0C2.39 11.6 10.64.5 20.82.5s18.43 11.1 18.43 24.8z"/><path class="cls-3" d="M2.9 22.12S0 19.75.57 27.43c.65 9.21 16.76 10.3 20.49 10.39 10.48.23 19.55-3.63 19.55-10.16 0-8.07-1.86-4.84-4.88-3.23S19 32.28 2.9 22.12z"/><path class="cls-4" d="M2.8 23.51s-1.09 5.93 0 8.85l.61.51a34 34 0 0 1-.61-9.36zm2.87 1.84s-1.09 5.92 0 8.84l.61.52a34 34 0 0 1-.61-9.36zm3.91 1.7s-.74 6 .51 8.83l.64.48a34.3 34.3 0 0 1-1.15-9.31zm6.76 2.18s-.84 5.43.46 8l.67.43a26.6 26.6 0 0 1-1.13-8.43zm22.19-5.01s1.08 5.93 0 8.84l-.61.52a34.46 34.46 0 0 0 .61-9.36zm-3.06 1.69s1.08 5.93 0 8.84l-.61.52a34 34 0 0 0 .61-9.36zm-4.2 1.75s.74 6-.5 8.83l-.64.48a34.08 34.08 0 0 0 1.14-9.31zM18.33 3.8S8.13 8.66 7.54 22.36c0 0-1.05-13.12 10.79-18.56zm4.44.32S33 9 33.56 22.68c0 0 1.09-12.96-10.79-18.56z"/></g></g></svg>