<svg xmlns="http://www.w3.org/2000/svg" viewBox="0 0 69.01 63.66"><defs><style>.cls-1,.cls-2,.cls-3,.cls-4,.cls-5,.cls-6{fill-rule:evenodd}.cls-1{fill:url(#GradientFill_11)}.cls-2,.cls-3,.cls-6{stroke:#231f20;stroke-width:1px}.cls-2{fill:url(#GradientFill_12)}.cls-3,.cls-6{fill:none}.cls-4{fill:#231f20}.cls-5{fill:#e2e3e4}.cls-6{stroke-linecap:round}</style><radialGradient id="GradientFill_11" cx="47.63" cy="19.14" r="46.13" gradientUnits="userSpaceOnUse"><stop offset="0" stop-color="#e6e7e8"/><stop offset="1" stop-color="#a7a9ac"/></radialGradient><radialGradient id="GradientFill_12" cx="16.8" cy="10.71" r="21.27" gradientUnits="userSpaceOnUse"><stop offset="0" stop-color="#e6e7e8"/><stop offset="1" stop-color="#bcbec0"/></radialGradient></defs><title>Asset 112</title><g id="Layer_2" data-name="Layer 2"><g id="Layer_1-2" data-name="Layer 1"><path class="cls-1" d="M9.44 61.56C13 44 6.72 40.47 6 38.42c-.92-2.55-.35-3.7-.35-3.7a3.53 3.53 0 0 1-1.95-2.16c1.39.23 1.92-2 1.92-2-.46.35-1.5 0-1.5 0 1-.58.69-.81 0-3.12S5.4 23 5.4 23l-2.72 1.4a9.27 9.27 0 0 1 1.7-3.4 4.26 4.26 0 0 0 .67-3.41A5.51 5.51 0 0 1 3.89 19c.58-1.62-.7-6.83-.93-8.22S.19 7.64.53 5.79 2.29 5.37 3 6a3 3 0 0 0 1.58 1c.93-1.39-1.5-1.39.58-5.79 1.33-2.82 5.55 4.28 5.55 4.28 4.4.7 6 5.9 6 5.9 3.13 3.94 0 3.59 0 3.59 3.13 2 3.94 6.83 3.94 6.83a6.63 6.63 0 0 1 3.12 3.93 2.94 2.94 0 0 0-1.85-.35 5.62 5.62 0 0 1 3 3.13s.34 2.08 1.5 2.54 8.79 7.18 10.65 10.42a20.22 20.22 0 0 1 9.64 10.19c3.12 7.4 5.53 2.29 9.23 2.29 0 0-1.63 1.52-1.4 2.33 0 0 9.44-3.67 13.26.38l-2.09 1.09L63 56.5l-2.1.6-1.11.71-7.39-1.11-4.12.4-1.5.61-4.22-1.21-3.11 1.11-8.13 1.2L28 60.62l-4.21-.11-.4-1.6-6.93-8.43-2.1 9.43v1.51l-.91 1.2z"/><path class="cls-2" d="M5.22 34.49a3.42 3.42 0 0 1-1.52-1.93c1.39.23 1.92-2 1.92-2-.46.35-1.5 0-1.5 0 1-.58.69-.81 0-3.12S5.4 23 5.4 23l-2.72 1.4a9.27 9.27 0 0 1 1.7-3.4 4.26 4.26 0 0 0 .67-3.41A5.51 5.51 0 0 1 3.89 19c.58-1.62-.7-6.83-.93-8.22S.19 7.64.53 5.79 2.29 5.37 3 6a3 3 0 0 0 1.58 1c.93-1.39-1.5-1.39.58-5.79 1.33-2.82 5.55 4.28 5.55 4.28 4.4.7 6 5.9 6 5.9 3.13 3.94 0 3.59 0 3.59 3.13 2 3.94 6.83 3.94 6.83a6.63 6.63 0 0 1 3.12 3.93 2.94 2.94 0 0 0-1.85-.35s.21.09.52.26a24.23 24.23 0 0 0-3.44-.17l-1.86.83-.63 1.86c-.25-.73-.49-1.47-.73-2.2l-1.28 3.18-.68-.83c-.44.21-.69.82-.73 1.81v.28a2.84 2.84 0 0 1-1.6-1.4c-.41 1-.81 2.07-1.21 3.11A10.36 10.36 0 0 1 7 34.53z"/><path class="cls-3" d="M9.44 61.56C13 44 6.72 40.47 6 38.42c-.92-2.55-.35-3.7-.35-3.7a3.53 3.53 0 0 1-1.95-2.16c1.39.23 1.92-2 1.92-2-.46.35-1.5 0-1.5 0 1-.58.69-.81 0-3.12S5.4 23 5.4 23l-2.72 1.4a9.27 9.27 0 0 1 1.7-3.4 4.26 4.26 0 0 0 .67-3.41A5.51 5.51 0 0 1 3.89 19c.58-1.62-.7-6.83-.93-8.22S.19 7.64.53 5.79 2.29 5.37 3 6a3 3 0 0 0 1.58 1c.93-1.39-1.5-1.39.58-5.79 1.33-2.82 5.55 4.28 5.55 4.28 4.4.7 6 5.9 6 5.9 3.13 3.94 0 3.59 0 3.59 3.13 2 3.94 6.83 3.94 6.83a6.63 6.63 0 0 1 3.12 3.93 2.94 2.94 0 0 0-1.85-.35 5.62 5.62 0 0 1 3 3.13s.34 2.08 1.5 2.54 8.79 7.18 10.65 10.42a20.22 20.22 0 0 1 9.64 10.19c3.12 7.4 5.53 2.29 9.23 2.29 0 0-1.63 1.52-1.4 2.33 0 0 9.44-3.67 13.26.38l-2.09 1.09L63 56.5l-2.1.6-1.11.71-7.39-1.11-4.12.4-1.5.61-4.22-1.21-3.11 1.11-8.13 1.2L28 60.62l-4.21-.11-2.41 1-3.81-.3.3 1.4-3.51-1.2-.91 1.2z"/><path class="cls-3" d="M24.48 60.4a30.87 30.87 0 0 1-2.66-3.82s-4.62-3.93-5.44-6.13a57.4 57.4 0 0 1-1.27 5.9c-1 3.59-.58 5.09-.58 5.09"/><path class="cls-4" d="M18.12 37.14s1.59 2.11-.35 5c0 0 .11 0-.47-.21a27.74 27.74 0 0 1-.68 6.69s.81-6.71-.58-8.68a16.92 16.92 0 0 1 1.5 1.16s1.27-.72.58-3.96zm24.07 11.11a22.75 22.75 0 0 1-4.28-2.54c-1.28-1.16-6.95-3.94-8.45.11 0 0-.35-1.62-.12-2a3.19 3.19 0 0 0-1 3.36s-1 .12-1.39-.23c0 0 0 1.85.7 1.85 0 0-.14 1-.95.67 0 0 .59 4.15 5.92 7.66 0 0-5.44-1.73-6.94-9.25 0 0 .35.92 1.16.92 0 0-.7-2.78-.12-3.93 0 0 .46 1.62 1 2 0 0-.11-2.77 2.09-3.93 0 0-.47 1.16 0 1.74 0 0 1.27-3.71 6.59-.58s2.43 1.72 5.79 4.15zM20.67 25.57a3.41 3.41 0 0 0-4.17 1.51s-.69-1.74-.46-2.2a14.35 14.35 0 0 0-1.51 3.93s-1-2.19-1.62 1.28c0 0-1.27-.81-1.38-1.74 0 0-.93 4-3.59 5.67 0 0 2.7-.7 3.7-4.4a4.09 4.09 0 0 0 1.74 1.05s0-3.82 1.27-.93c0 0 .35-2.31 1.16-3.12 0 0 .34 1.73 1 2 .04-.04-.89-3.16 3.86-3.05z"/><path class="cls-5" d="M15.57 10.88a29.81 29.81 0 0 0 4.52 3.47c1.62.81-1.05 3.93-6.25 1.39z"/><path class="cls-6" d="M15.57 10.88a29.81 29.81 0 0 0 4.52 3.47c1.62.81-1.05 3.93-6.25 1.39"/><path class="cls-4" d="M15.57 13.08s.35 1.27 1.28 1l-.58.81s1.85-.46 2.54 0-2.66 1.39-3.58-.58c0 .04.58.16.34-1.23zM11 6.14l1.15.23s-.23 0-.57.34.34.58-.24 1.28z"/><path class="cls-3" d="M68.8 56.7a2.86 2.86 0 0 0-3.12.92s-3.24-1.73-4.86-.34-9.82-1.85-14.12.46c0 0-4.86-2.78-7.06-.12 0 0-9.37.35-11.68 2.9 0 0-3.94-.7-6.72.92 0 0-4.28-1.5-3.58 1 0 0-3.59-2.43-4.17.12 0 0-5.09-1.85-6.82-1.16"/></g></g></svg>