<svg xmlns="http://www.w3.org/2000/svg" viewBox="0 0 33.59 26.71"><defs><style>.cls-1,.cls-6{fill:#fff}.cls-1,.cls-2,.cls-3,.cls-4,.cls-5,.cls-6,.cls-7{fill-rule:evenodd}.cls-2,.cls-4{fill:#f9d740}.cls-2,.cls-3,.cls-5,.cls-6{stroke:#231f20}.cls-2,.cls-3,.cls-5{stroke-width:1px}.cls-3{fill:url(#GradientFill_19)}.cls-5,.cls-6{stroke-linecap:round}.cls-5{fill:none}.cls-6{stroke-width:.5px}.cls-7{fill:#231f20}</style><radialGradient id="GradientFill_19" cx="22.9" cy="7.7" r="16.73" gradientUnits="userSpaceOnUse"><stop offset="0" stop-color="#cce2ba"/><stop offset="1" stop-color="#bfd552"/></radialGradient></defs><title>Asset 19</title><g id="Layer_2" data-name="Layer 2"><g id="Layer_1-2" data-name="Layer 1"><path class="cls-1" d="M7.42 5.59s7.83-9.65 17.46-1.86c0 0-4.39.15-6 3.31z"/><path class="cls-2" d="M18.9 7L7.42 5.59s7.83-9.65 17.46-1.86c0 0-4.39.15-5.98 3.27z"/><path class="cls-1" d="M31.33 8.5c1.47-7-4.26-7.86-4.26-7.86a8.11 8.11 0 0 1 .65 6.22c-1 2.69-4.51 2.39-4.51 2.39-1.83-3.39-6.09-5.77-11-5.77C5.53 3.48-1.34 12.69 1 14.83c2 1.85 4.59 7.66 11.22 7.66a13 13 0 0 0 10-4.28c4.34 9.29 10.31 4.93 10.31 4.93C25.6 21 30.5 12.44 31.33 8.5z"/><path class="cls-3" d="M31.33 8.5c1.47-7-4.26-7.86-4.26-7.86a8.11 8.11 0 0 1 .65 6.22c-1 2.69-4.51 2.39-4.51 2.39-1.83-3.39-6.09-5.77-11-5.77C5.53 3.48-1.34 12.69 1 14.83c2 1.85 4.59 7.66 11.22 7.66a13 13 0 0 0 10-4.28c4.34 9.29 10.31 4.93 10.31 4.93C25.6 21 30.5 12.44 31.33 8.5z"/><path class="cls-1" d="M10.85 20.24s2.51 5.81 8 5.94c0 0-2.9-3.69-2.24-6.73z"/><path class="cls-4" d="M16.66 19.45l-5.81.79s2.51 5.81 8 5.94c.05 0-2.85-3.69-2.19-6.73z"/><path class="cls-5" d="M10.85 20.24s2.51 5.81 8 5.94c0 0-2.9-3.69-2.24-6.73"/><path class="cls-6" d="M10.09 11c0 1-.49 1.71-1 1.69s-.92-.8-.88-1.76.48-1.71 1-1.69.91.82.88 1.76z"/><path class="cls-7" d="M8.74 10.23a1.74 1.74 0 0 0-.34.83c-.08.7.22 1.32.69 1.38s.92-.46 1-1.16-.21-1.28-.67-1.39a.56.56 0 0 0-.36.07zm3.67-3.14s4.44 4.19.12 9.63c0 0 6.8-4.62-.12-9.63zm10.81 4.7s2 1.28 5.4-2.06c0 0-1.05 3.5-4.35 3 0 0 .45 1.43 3.45 1.11 0 0-2.1 1.12-3 .32a7 7 0 0 1 2 4s-1.35-2.39-2.7-3c0 0 1.65 4.93 3.15 5.72a9.48 9.48 0 0 1-3.95-9.09zM13 19.39s1.61 3.82 2.49 4.3c-.01 0-2.21-.63-2.49-4.3zm1.87-.16a5.28 5.28 0 0 0 .66 3.77 2.75 2.75 0 0 1-.66-3.77zm-.57-16.3s3.78-1.67 6.4 0c0 0-3.95-.95-5.59.69z"/><path class="cls-7" d="M16.19 3.92a8.06 8.06 0 0 1 3.29-.62s-3.1-.65-3.29.62zm1.29.69A4.5 4.5 0 0 1 20 3.86s-2.42-.65-2.52.75z"/></g></g></svg>